<?xml version="1.0" encoding="utf-8"?>
<!-- Generator: Adobe Illustrator 19.2.1, SVG Export Plug-In . SVG Version: 6.00 Build 0)  -->
<svg version="1.1" id="Capa_1" xmlns="http://www.w3.org/2000/svg" xmlns:xlink="http://www.w3.org/1999/xlink" x="0px" y="0px"
	 viewBox="0 0 512 512" style="enable-background:new 0 0 512 512;" xml:space="preserve">
<style type="text/css">
	.st0{fill:#EA7500;}
	.st1{fill:#FFFFFF;}
	.st2{fill:none;stroke:#EA7500;stroke-width:6;stroke-miterlimit:10;}
	.st3{fill:none;stroke:#7D7B7F;stroke-width:45;stroke-miterlimit:10;}
	.st4{fill:none;}
	.st5{fill:#7D7B7F;}
	.st6{fill-rule:evenodd;clip-rule:evenodd;fill:#7D7B7F;}
</style>
<g>
	<g>
		<path class="st4" d="M16.7,253.3c0,112.2,91,203.2,203.2,203.2"/>
		<path class="st0" d="M16.8,261.1l34.8-1.8l0.3,5.7l-34.8,1.8L16.8,261.1z"/>
		<path class="st0" d="M28.5,271.4l1.5,5.5c-4.3,1.3-6.2,3.7-5.6,7.2c0.3,1.7,0.9,3,2,3.8c1.1,0.8,2.2,1.2,3.6,1
			c0.8-0.1,1.4-0.4,1.9-0.8c0.5-0.4,0.9-1,1.1-1.8s0.6-2.6,1-5.4c0.4-2.5,0.9-4.4,1.6-5.7s1.7-2.3,3-3.2c1.3-0.9,2.7-1.4,4.4-1.7
			c1.9-0.3,3.6-0.1,5.3,0.5c1.6,0.6,2.9,1.6,3.9,3c1,1.4,1.7,3.2,2,5.4c0.5,3.3,0,6-1.5,8.2c-1.5,2.1-3.9,3.5-7.3,4.2l-1.2-5.7
			c1.8-0.5,3-1.3,3.6-2.2c0.6-0.9,0.8-2.2,0.6-3.7c-0.2-1.5-0.7-2.7-1.5-3.4c-0.8-0.7-1.6-1-2.6-0.9c-0.9,0.1-1.7,0.6-2.2,1.5
			c-0.5,0.9-1,2.7-1.3,5.5c-0.4,3-0.9,5.2-1.6,6.6c-0.7,1.4-1.7,2.6-3.1,3.5c-1.3,0.9-3,1.5-5.1,1.8c-3,0.5-5.6-0.1-8-1.6
			c-2.3-1.5-3.8-4.2-4.4-8.1C17.4,277.8,20.7,273.4,28.5,271.4z"/>
		<path class="st0" d="M38.7,297.7c3.9-1.3,7.4-1.8,10.3-1.4c2.9,0.3,5.3,1.2,7.2,2.7c1.9,1.5,3.2,3.6,4.1,6.2
			c1.3,3.9,0.8,7.5-1.4,10.9c-2.2,3.4-6,6-11.5,7.8c-5.5,1.8-10.3,1.9-14.2,0.3c-3.5-1.4-5.9-4-7.1-7.9c-1.3-3.9-0.9-7.5,1.1-10.6
			C29.4,302.1,33.2,299.5,38.7,297.7z M40.7,303.3c-3.8,1.2-6.4,2.9-7.9,5c-1.4,2.1-1.8,4.2-1.1,6.3c0.7,2.2,2.2,3.6,4.6,4.4
			c2.3,0.8,5.5,0.6,9.4-0.7c3.8-1.2,6.5-2.9,7.8-4.8c1.4-2,1.7-4.1,1-6.3c-0.7-2.2-2.2-3.7-4.5-4.5C47.7,301.8,44.6,302,40.7,303.3z
			"/>
		<path class="st0" d="M53.6,359.4l-5.4,3.1l-9.6-16.6c2.1-1,4.4-1.6,6.7-1.7c2.4-0.1,5.8,0.2,10.3,1.2c3.6,0.7,5.9,1.1,7,1.1
			c1.6,0,3.1-0.3,4.3-1.1c1.3-0.8,2.1-1.6,2.5-2.6c0.3-1,0.2-1.9-0.3-2.9c-1.2-2.1-3.4-2.3-6.7-0.7l-2.1-5c3.2-1.5,6-1.9,8.2-1.3
			c2.3,0.6,4.1,2.1,5.4,4.4c1.5,2.6,1.8,5,0.9,7.3c-0.9,2.3-2.5,4.1-4.7,5.3c-1.2,0.7-2.5,1.2-3.9,1.6s-2.8,0.5-4.4,0.5
			c-1.6,0-3.7-0.3-6.5-0.9c-2.6-0.5-4.3-0.8-5.1-0.9c-0.8-0.1-1.5-0.1-2.2-0.1L53.6,359.4z"/>
		<path class="st0" d="M74.2,350.8l5-3.7l11.2,15l-3.9,2.9c-2.4-0.1-5.4,0.2-9.1,1c-3.7,0.8-7.3,2-11,3.7c-3.6,1.7-6.7,3.4-9.3,5.3
			l-3.2-4.2c4-2.9,8.5-5.2,13.3-6.9c4.8-1.7,9.6-2.8,14.4-3.1L74.2,350.8z"/>
		<path class="st0" d="M98.4,369.8c1.9,2,2.5,4.5,1.8,7.6c-0.7,3.1-3.4,6.9-8.2,11.4c-4.7,4.5-8.6,7.1-11.7,7.7
			c-3.1,0.6-5.6-0.1-7.5-2.1c-1.9-2-2.5-4.5-1.8-7.6c0.7-3,3.4-6.9,8.2-11.5c4.7-4.5,8.6-7.1,11.7-7.7
			C94,367.1,96.5,367.8,98.4,369.8z M94.5,373.6c-0.7-0.8-1.9-0.9-3.3-0.4c-1.5,0.5-4.1,2.6-8,6.3c-3.8,3.7-6,6.2-6.6,7.7
			c-0.6,1.4-0.5,2.6,0.3,3.3c0.8,0.8,1.9,0.9,3.3,0.4c1.5-0.5,4.1-2.6,7.9-6.3c3.8-3.7,6-6.2,6.6-7.7
			C95.3,375.5,95.2,374.4,94.5,373.6z"/>
		<path class="st0" d="M113.5,383.7c2.1,1.7,3.1,4.2,2.7,7.3c-0.3,3.1-2.6,7.2-6.7,12.3c-4.1,5.1-7.7,8.1-10.7,9.1
			c-3,1-5.5,0.6-7.7-1.2c-2.1-1.8-3.1-4.2-2.7-7.3c0.3-3.1,2.6-7.2,6.8-12.4c4.1-5.1,7.7-8.1,10.7-9
			C108.8,381.6,111.4,382,113.5,383.7z M110,388c-0.8-0.7-2-0.7-3.4,0c-1.4,0.7-3.8,3.1-7.1,7.2c-3.4,4.1-5.2,6.9-5.6,8.4
			s-0.2,2.6,0.7,3.3c0.8,0.7,2,0.7,3.4,0s3.8-3.1,7.1-7.2c3.4-4.1,5.2-6.9,5.6-8.4C111.1,389.8,110.9,388.7,110,388z"/>
		<path class="st0" d="M115.6,427.8l-4.6-2.9l13.4-21.3c-3,0.9-5.8,1-8.7,0.5l3.2-5.1c1.6,0.3,3.5,0.2,5.8-0.3
			c2.2-0.5,4.2-1.4,5.8-2.8l3.7,2.4L115.6,427.8z"/>
	</g>
	<g>
		<path class="st5" d="M325.2,478.4c-11.7-3.6-14.1-13.7-13.4-24.8h16.9c0,7.7,0.3,14.1,9.6,14.1c5.7,0,8.4-3.7,8.4-9.1
			c0-14.4-33.8-15.3-33.8-39.3c0-12.5,6-22.6,26.5-22.6c16.4,0,24.6,7.3,23.4,24.1h-16.4c0-6-1-12.1-7.8-12.1c-5.4,0-8.7,3-8.7,8.6
			c0,15.2,33.9,13.9,33.9,39.1c0,13.9-6.9,19.6-15.2,21.9"/>
		<path class="st5" d="M404.8,422.8c0.1-7.5-1.2-14-10.1-14c-10.5,0-10.5,14.1-10.5,29.7c0,25.1,2.5,29.6,12,29.6
			c2.9,0,5.9-0.6,8.4-1.6v-17.8h-9.2v-12.3h26v40.7c-1.8,0.4-4.6,0.8-7.8,1.3h-28.8c-15.6-3.9-17.7-16.3-17.7-40.8
			c0-20.2,1-40.8,28.6-40.8c16.5,0,26.7,9.2,25.8,26H404.8z"/>
		<path class="st5" d="M453.3,396.8c14.7-0.1,22.7,5.7,23.8,18.6v5.5h-16.4c0-5.9-1.5-12.1-8.3-12.1c-5.4,0-8.7,3-8.7,8.6
			c0,14.1,29,14,33.4,33.9v11.6c-1.8,9.4-7.7,13.7-14.6,15.5H439c-11.6-3.6-14-13.7-13.2-24.8h16.8c0,7.7,0.3,14.1,9.6,14.1
			c5.7,0,8.5-3.7,8.5-9.1c0-14.4-33.9-15.3-33.9-39.3C426.7,406.8,432.8,396.9,453.3,396.8"/>
		<polyline class="st0" points="266,478.3 510.2,478.3 510.2,481.6 266,481.6 266,478.3 		"/>
		<rect x="477" y="382" class="st0" width="3.2" height="116.1"/>
		<path class="st0" d="M206.4,266.5v-59.6l39.7,39.7l90.1-90.1c-0.1,0-0.2-0.1-0.2-0.1c0-0.1,0-0.1-0.1-0.1
			c-23.1-22.8-54.8-36.8-89.8-36.8c-70.7,0-127.9,57.3-127.9,128c0,70.6,57.3,128,127.9,128c70.7,0,128-57.3,128-128
			c0-20.2-4.6-39.2-12.9-56.1l-115,115L206.4,266.5z"/>
		<path class="st6" d="M480.6,363.7V247.1c0-128.8-104.4-233.2-233.2-233.2c-128.8,0-232.8,100-232.8,228.8c0,0.2,46.2,0.2,46.2,0
			c0-103,83.5-182.1,186.6-182.1c103,0,186.6,83.5,186.6,186.6v116.6"/>
		<path class="st1" d="M83.4,138.9c-4,6-8.2,4.8-12.1,1.8l3.3-4.9c2.2,1.5,4.2,2.6,5.9,0c1.1-1.7,0.6-3.2-0.9-4.3
			c-4.2-2.7-11,6.8-17.8,2.2c-3.6-2.4-5.4-6.1-1.4-12c3.1-4.7,6.9-5.6,11.4-2.1l-3.1,4.7c-1.7-1.1-3.7-2.1-5-0.1
			c-1.1,1.6-0.8,3.1,0.8,4.2c4.4,2.9,10.5-7,17.8-2.2C88.1,130.3,85.8,135.2,83.4,138.9"/>
		<polygon class="st1" points="87.6,116.2 69,110 73.2,105.2 84.8,109.6 78.7,98.6 82.6,94.1 91.4,111.8 98.7,118.1 94.9,122.5 		
			"/>
		<path class="st1" d="M112.3,104.6c-5.2,4.9-9.2,2.8-12.2-1l4.3-4c1.8,1.9,3.5,3.5,5.8,1.3c1.4-1.3,1.3-2.9,0-4.3
			c-3.4-3.7-12.2,4.1-17.9-1.9c-3-3.2-3.8-7.2,1.4-12c4.2-3.9,7.9-4,11.6,0.6l-4.1,3.8c-1.4-1.5-3.1-2.8-4.8-1.2
			c-1.4,1.3-1.5,2.8-0.2,4.2c3.6,3.9,11.9-4.5,17.8,2C118.8,97.4,115.5,101.6,112.3,104.6"/>
		<polygon class="st1" points="119.8,62.2 122.5,65.9 117.4,69.8 131.2,88.3 126.6,91.8 112.7,73.3 107.5,77.2 104.7,73.4 		"/>
		<polygon class="st1" points="139.7,82.4 125.4,58.5 138.5,50.7 140.6,54.4 132.6,59.2 136.1,65.1 143.5,60.6 145.7,64.3 
			138.3,68.7 142.5,75.7 150.8,70.7 152.9,74.4 		"/>
		<polygon class="st1" points="156.9,72 146,46.4 154.6,42.8 166,58.4 166.1,58.4 163,39.2 171.3,35.7 182.2,61.2 177,63.5 
			168.6,43.7 168.5,43.8 172,65.6 166.9,67.8 153.7,50.1 153.7,50.1 162.1,69.8 		"/>
		<path class="st1" d="M194.1,43.5c-1.5-7.2-3-14,6.4-16.1c5.8-1.2,8.8,1.5,9.8,7.4l-5.5,1.2c-0.8-3.6-1.8-4.8-3.4-4.5
			c-3.2,0.7-3,3.8-1.5,10.8c1.5,7,2.6,9.9,5.8,9.2c2.6-0.5,1.8-4,1.4-6.1l5.6-1.2c1.6,7.3-0.9,10.2-6.2,11.4
			C197.1,57.5,195.7,50.6,194.1,43.5"/>
		<polygon class="st1" points="219.4,52.6 216.5,25 231.7,23.5 232.1,27.7 222.8,28.6 223.5,35.4 232.1,34.6 232.5,38.8 223.9,39.8 
			224.7,47.8 234.4,46.8 234.8,51.1 		"/>
		<path class="st1" d="M245.7,39.3h1.5c4.5,0.1,4.2,2.9,4.1,6.2c0,1.8-0.2,3.7,0.6,5.4l5.7,0.1c-0.5-1.2-0.6-6.4-0.6-8.2
			c0.1-5-3.7-5.3-5-5.5v0c3.8-0.6,5.2-3.3,5.2-6.8c0.1-4.7-2.5-7.3-6.5-7.3L240,23l-0.2,27.8l5.8,0.1L245.7,39.3z M245.7,27.4h2.6
			c1.9,0,3,1,3,3.7c0,1.7-0.7,4-3,4h-2.5V27.4z"/>
		<polygon class="st1" points="282.1,25.6 281.6,30.2 275.1,29.5 272.5,52.5 266.7,51.8 269.3,28.9 262.9,28.1 263.4,23.5 		"/>
		<polygon class="st1" points="282.8,54.1 288.3,26.9 294,28 288.6,55.3 		"/>
		<polygon class="st1" points="294.5,56.6 302.1,29.9 316,33.8 314.9,37.9 306.6,35.6 304.6,42.4 312.6,44.7 311.4,48.8 303.4,46.5 
			300.2,58.2 		"/>
		<polygon class="st1" points="312.3,62 321.9,36 327.4,38 317.7,64.1 		"/>
		<path class="st1" d="M329.3,53.6c3.1-6.7,6.1-13,14.8-8.9c5.4,2.6,6.1,6.5,3.4,11.8l-5.2-2.4c1.6-3.3,1.6-4.9,0-5.6
			c-3-1.4-4.7,1.2-7.7,7.6c-3.1,6.4-4,9.4-1,10.8c2.4,1.1,3.8-2.1,4.8-4l5.2,2.5c-3.2,6.7-6.9,7.6-11.8,5.3
			C323.1,66.5,326.1,60.1,329.3,53.6"/>
		<path class="st1" d="M363.4,62L363.4,62l-8.7,8.7l4.7,2.9L363.4,62z M341.9,75l21.4-19.4l6.5,4.1l-8.4,27.5l-5.2-3.3l2-6l-6.7-4.2
			l-4.6,4.4L341.9,75z"/>
		<polygon class="st1" points="392.7,76.7 389.9,80.3 384.7,76.3 370.4,94.5 365.9,91 380.2,72.7 375.1,68.7 378,65.1 		"/>
		<polygon class="st1" points="378.5,101.3 397.4,80.9 401.6,85 382.7,105.3 		"/>
		<path class="st1" d="M393.1,116.8c6.4,7.2,11.7,2.4,17.1-2.5c5.5-4.9,10.7-9.6,4.3-16.7c-6.4-7.1-11.7-2.5-17.1,2.4
			C391.9,104.8,386.7,109.6,393.1,116.8 M396.2,113.9c-2.2-2.4-0.2-4.8,5.1-9.6c5.3-4.7,7.9-6.5,10.1-4c2.1,2.4,0.2,4.8-5.1,9.6
			C401,114.7,398.4,116.4,396.2,113.9z"/>
		<polygon class="st1" points="403.3,128 426.2,112.3 430.7,118.7 419,135.7 419,135.8 434.9,124.9 438,129.4 415.1,145.1 
			410.7,138.8 423.2,121 423.2,121 406.4,132.4 		"/>
	</g>
</g>
</svg>
