<?xml version="1.0" encoding="utf-8"?>
<!-- Generator: Adobe Illustrator 17.0.1, SVG Export Plug-In . SVG Version: 6.00 Build 0)  -->
<!DOCTYPE svg PUBLIC "-//W3C//DTD SVG 1.1//EN" "http://www.w3.org/Graphics/SVG/1.1/DTD/svg11.dtd">
<svg version="1.1"
	 id="svg2" xmlns:dc="http://purl.org/dc/elements/1.1/" xmlns:cc="http://creativecommons.org/ns#" xmlns:rdf="http://www.w3.org/1999/02/22-rdf-syntax-ns#" xmlns:svg="http://www.w3.org/2000/svg" xmlns:sodipodi="http://sodipodi.sourceforge.net/DTD/sodipodi-0.dtd" xmlns:inkscape="http://www.inkscape.org/namespaces/inkscape"
	 xmlns="http://www.w3.org/2000/svg" xmlns:xlink="http://www.w3.org/1999/xlink" x="0px" y="0px" viewBox="29.825 184.088 511.999 324.761" enable-background="new 29.825 184.088 511.999 324.761"
	 xml:space="preserve">
<sodipodi:namedview  inkscape:zoom="1" inkscape:cx="248.04005" inkscape:cy="326.05286" id="namedview342" inkscape:window-width="1920" inkscape:window-height="980" inkscape:object-paths="true" inkscape:window-x="0" inkscape:window-y="34" inkscape:window-maximized="1" inkscape:current-layer="svg2" inkscape:pageshadow="2" inkscape:object-nodes="true" inkscape:snap-smooth-nodes="true" inkscape:pageopacity="0" inkscape:snap-nodes="true" pagecolor="#ffffff" bordercolor="#666666" borderopacity="1" objecttolerance="10" gridtolerance="10" guidetolerance="10" showgrid="false">
	</sodipodi:namedview>
<path id="kalimantan" fill="#E6E6E6" d="M482.01,384.263l-1.438,5.404l-7.801,2.634l-2.335-2.739l-1.133,0.311l2.116,8.168
	l3.169,0.355l4.227,1.6v1.6l1.936-0.355l2.82-3.903v-3.194l1.587-3.194l1.762,0.355l-2.116-4.439l-0.323-2.858L482.01,384.263
	L482.01,384.263z"/>
<path id="papua_new_guinea" fill="#E6E6E6" d="M526.262,399.135l-0.23,15.215l2.191-0.118l2.882-3.368l2.421,0.118l1.556,1.394
	l0.516,4.296l4.956,2.615l1.269-0.467v-1.569l-3.978-3.312l-1.961-4.533l1.556-0.753l-1.152-2.496l-2.303-0.057l-0.579-2.671
	l-6.107-4.121L526.262,399.135L526.262,399.135z"/>
<path id="mexico" fill="#E6E6E6" d="M80.968,322.649l3.007,9.469l-1.401,0.784l0.156,1.881l2.646,2.035v3.767l3.268,3.137
	l-1.401-9.251l-1.868-6.12l0.467-4.234l1.556,0.156l0.623,1.413l-0.623,3.605l8.093,15.838v5.646l6.537,7.683l7.159,3.293
	l2.957-1.725l4.202,3.449l2.49-2.509l-1.089-2.827l3.58-1.096l1.089,0.628l1.089-1.096h1.712l3.113-5.491l-1.556-1.413l-6.07,1.413
	l-1.401,4.078l-3.58,0.628l-4.202-1.725l-1.868-5.958l1.413-7.514l-2.889-1.8l-1.376-7.215l-1.152-0.492l-2.105,2.136l-2.415-1.289
	l-0.946-4.812l-9.569-1.003l-4.943-3.717L80.968,322.649L80.968,322.649z"/>
<path id="estonia" fill="#E6E6E6" d="M317.713,271.743l-3.486-0.125l-2.21,1.352l-0.031,1.003l1.432,1.352l4.451,0.753
	L317.713,271.743L317.713,271.743z"/>
<path id="algeria" fill="#E6E6E6" d="M290.388,323.931l-2.54-0.853l-10.571,1.986l-2.303,1.749l1.407,7.266l-4.202,0.169
	l-2.527,4.065l-6.021,1.444l0.018,2.957l19.828,15.159l3.38,0.286l11.274-8.809l-1.126-1.42l-2.116-0.286l-1.269-2.129v-8.809
	l-0.847-0.853l0.143-2.272l-2.254-2.272l-0.281-2.415l0.984-0.709l-0.423-2.559L290.388,323.931L290.388,323.931z"/>
<path id="morocco" fill="#E6E6E6" d="M274.458,326.913h-7.191l-1.407,3.126l-3.244,1.563l-2.676,7.246l-5.217,3.126l-7.327,12.071
	l7.191-0.143l0.281-3.549h1.831v-4.831h6.344l0.143-6.25l6.063-1.42l2.54-4.121l3.947-0.143L274.458,326.913L274.458,326.913z"/>
<path id="mauretania" fill="#E6E6E6" d="M247.445,354.543l1.357,1.774l-0.281,7.67l1.973-1.42l1.407-0.286l1.973,0.709l2.254,3.126
	l2.116-1.42l10.291-0.143l-2.54-17.188l2.727-0.013l-5.08-3.89l0.006,2.527l-6.431,0.006l-0.031,4.825l-1.849-0.006l-0.237,3.561
	L247.445,354.543L247.445,354.543z"/>
<path id="senegal" fill="#E6E6E6" d="M250.695,363.047l-2.452,1.78l-0.56,0.996l-0.174,0.996l0.902,0.648l3.013-0.044l1.936-0.523
	l0.218,0.953l-0.174,1.258l1.849,0.909l0.386,0.435l2.452,0.087l0.087-1.083l-2.241-2.689l-2.496-3.38l-1.55-0.648L250.695,363.047
	L250.695,363.047z"/>
<path id="gambia" fill="#E6E6E6" d="M248.684,368.039l-0.081,0.691l4.309-0.062l0.218-0.641l-0.094-0.648l-1.238,0.505
	L248.684,368.039L248.684,368.039z"/>
<path id="casamance" fill="#E6E6E6" d="M248.621,369.21l0.772,1.874l0.43-1.157l5.236,0.548l-2.266-1.164L248.621,369.21
	L248.621,369.21z"/>
<path id="bissau" fill="#E6E6E6" d="M249.749,371.893l0.872,1.725l2.447-2.105l0.025-0.648l-2.882-0.417L249.749,371.893
	L249.749,371.893z"/>
<path id="guinee" fill="#E6E6E6" d="M250.882,374.016l1.892,2.913l2.465-2.142l2.527-0.112l2.105,2.795l1.787,1.177l0.672-1.308
	l0.597-0.336l-0.044-2.876l-1.189-3.411l-3.648,0.404l-4.513-0.362l-0.025,1.157L250.882,374.016L250.882,374.016z"/>
<path id="sierra_leone" fill="#E6E6E6" d="M253.066,377.247l3.517,3.4l2.509-3.044l-1.569-2.459l-2.16,0.218L253.066,377.247
	L253.066,377.247z"/>
<path id="liberia" fill="#E6E6E6" d="M256.952,381.02l6.836,4.57l-0.162-3.462l-2.067-2.434l-2.017-1.787L256.952,381.02
	L256.952,381.02z"/>
<path id="ivoire" fill="#E6E6E6" d="M264.36,385.726l2.665-1.886l3.312-0.579l3.38,0.729l-1.725-2.608l-0.505-1.594l0.505-4.713
	l-3.02,0.143l-1.37-1.308l-2.876,0.075l-1.37,0.218l0.143,3.187l-0.722,0.292l-0.865,1.594l2.228,2.608L264.36,385.726
	L264.36,385.726z"/>
<path id="mali" fill="#E6E6E6" d="M256.51,366.483l1.918-1.313l10.658-0.062l-2.465-17.146l2.814-0.081l13.616,10.39l1.831,0.261
	l-0.691,5.777l-8.561,0.779l-6.605,4.93l-1.201,3.374l-4.588,0.193l-1.17-3.368l-3.517,0.25l0.137-1.102L256.51,366.483
	L256.51,366.483z"/>
<path id="burkina" fill="#E6E6E6" d="M275.889,365.512l2.266-0.18l3.717,5.255l-3.449,2.603l-2.496-0.641l-3.356,0.044l-0.542,1.967
	l-2.814,0.137l-0.772-1.052l0.996-3.2L275.889,365.512L275.889,365.512z"/>
<path id="niger" fill="#E6E6E6" d="M282.301,370.317l1.587-0.037l1.432-2.147l2.403-0.43l2.559,1.563l5.46,0.156l4.221-1.718
	l1.587-1.363l0.118-1.793l2.944-2.97l0.779-6.555l-1.936-4.059l-4.956-1.208l-11.467,8.94l-1.625-0.156l-0.698,6.206l-5.852,0.586
	L282.301,370.317L282.301,370.317z"/>
<path id="ghana" fill="#E6E6E6" d="M271.999,379.688l0.698,1.637l1.818,2.851l1.008-0.037l2.752-1.563l-0.193-8.897l-2.129-0.623
	l-2.983,0.081L271.999,379.688L271.999,379.688z"/>
<path id="togo" fill="#E6E6E6" d="M278.772,382.302l1.668-0.977l-0.037-6.443l-1.084-1.756l-0.698,0.586L278.772,382.302
	L278.772,382.302z"/>
<path id="benin" fill="#E6E6E6" d="M280.945,381.207h1.32l0.075-3.747l1.668-2.422l-0.075-4.215l-1.513-0.037l-2.596,2.03
	l1.083,2.067L280.945,381.207L280.945,381.207z"/>
<path id="nigeria" fill="#E6E6E6" d="M282.725,381.132l2.441,0.118l2.944,3.281l1.432,0.393l1.12-0.548l1.706-0.237l0.579-2.378
	l2.322-1.525l2.515-0.118l4.607-8.473l-0.075-1.912l-2.129-1.637l-4.258,1.874l-5.696-0.081l-2.715-1.719l-1.936,0.43l-1.008,1.756
	l-0.075,4.955l-1.625,2.303L282.725,381.132L282.725,381.132z"/>
<path id="tunisia" fill="#E6E6E6" d="M291.031,323.832l3.442-1.388l1.133,0.735l0.044,0.896l-0.529,0.691l0.081,1.227l0.529,0.286
	v2.204l-0.61,1.021l0.081,0.654l2.31,0.816l-1.861,2.895l-0.729-0.044l-0.125,2.329l-0.81,0.125l-0.691-0.61l0.162-2.366
	l-2.266-2.204l-0.286-1.918l1.096-0.859L291.031,323.832L291.031,323.832z"/>
<path id="libya" fill="#E6E6E6" d="M294.23,336.718l0.971-0.162l0.286-2.241h0.485l1.986-3.262l4.9,1.425l1.339,2.079l4.818,2.204
	l2.509-1.058l-0.243-1.058l-1.096-1.058l0.125-0.735l1.78-1.506h3.523l1.339,1.793l2.832,0.411l0.367,22.966l-2.105-0.081
	l-12.712-6.612l-1.376,0.779l-5.223-1.308l-1.42-1.874l-2.067-0.286l-1.052-1.874L294.23,336.718L294.23,336.718z"/>
<path id="egypt" fill="#E6E6E6" d="M320.303,333.625l1.662,0.044l3.238,0.896l1.537,0.044l1.905-1.594h0.891l1.618,0.896h2.048
	l0.367-0.025l1.295,3.723l0.367,1.201l0.342,1.8l-0.61,0.448l-1.052-0.529l-1.214-3.96l-1.096-0.081l-0.081,1.345l0.729,2.329
	l5.833,7.222l0.125,3.1l-1.699,1.961l-15.963-0.18L320.303,333.625L320.303,333.625z"/>
<path id="chad" fill="#E6E6E6" d="M302.161,366.583l0.081-1.837l2.951-2.87l0.79-7.047l-1.967-3.76l1.376-0.703l13.322,6.941
	l-0.081,6.811l-2.347,1.998v3.512l1.537,2.976h-2.715l-4.495,4.445l-0.118,1.345l-3.319-0.044l-0.044,0.61l-1.892-0.25l-1.295-2.447
	l-0.971-0.479l0.125-0.747l1.22-0.933v-4.37l-1.688-0.261l-2.035-1.513L302.161,366.583L302.161,366.583L302.161,366.583z"/>
<path id="south_sudan" inkscape:label="#south sudan" fill="#E6E6E6" d="M337.207,375.51l-1.832-3.077l-0.192-2.239l-0.44,0.084
	l-0.119,0.69l-2.402,3.508l-1.916-0.915l-1.912,1.601l-3.954-0.228l-1.75-1.399l-2.511,1.286l-0.095,0.856l-0.766,0.461l7.67,7.894
	l4.178,0.237l0.609,0.928l5.978,0.106l0.048-1.339l0.511-0.928l1.993-0.255l-2.485-3.604h-1.83l-0.467-2.56l1.469-0.647
	L337.207,375.51z"/>
<path id="sudan" fill="#E6E6E6" d="M339.023,350.776l-2.296,2.316l-16.062-0.143l0.174,4.09l-1.531-0.044l-0.112,7.365l-2.323,2
	l-0.094,3.075l1.676,3.306l1.835,1.084l-0.028,0.258l2.502-1.281l1.909,1.525l3.51,0.202l2.028-1.699l1.797,0.856l2.024-2.956
	l0.17-0.981l1.542-0.293l0.239,2.783l1.542,2.59l3.738-8.039v-4.887l2.716-3.201L339.023,350.776z"/>
<path id="cameroon" fill="#E6E6E6" d="M292.842,384.188l2.004,1.842l-0.143,2.851l10.995-0.255l0.896-1.008l-3.15-3.393
	l-0.467-1.227l2.004-3.754l-1.363-2.49l-1.146-0.617v-1.264l1.326-0.865l0.075-3.934l-1.052-0.118l-0.018,2.067l-4.619,8.622
	l-2.827,0.143l-1.936,1.332L292.842,384.188L292.842,384.188z"/>
<path id="eritrea" fill="#E6E6E6" d="M341.954,365.773l-0.156-3.666l2.465-2.876l0.667,0.511l1.214,4.059l5.828,4.339l-1.058,1.301
	l-4.265-3.666H341.954L341.954,365.773z"/>
<path id="djibouti" fill="#E6E6E6" d="M351.15,370.032l-0.355,2.092l2.465-0.037l0.037-3.075l-0.902-0.554L351.15,370.032
	L351.15,370.032z"/>
<path id="ethiopia" fill="#E6E6E6" d="M337.46,376.395l4.533-10.085l4.502,0.025l3.991,3.468l-0.281,2.858h3.095l0.318,1.719
	l5.005,2.994l3.088,0.156l-5.87,6.307l-8.062,2.484h-1.998l-3.561-3.038l-1.407-0.591l-2.727-4.015l-1.8,0.025l-0.211-1.842
	L337.46,376.395L337.46,376.395z"/>
<path id="somaliland" fill="#E6E6E6" d="M353.803,372.211l2.54,1.73l0.753-0.037l6.307-2.167l0.716,2.309l-0.505,1.949l-1.363,1.083
	l-3.405-0.218l-4.875-2.994L353.803,372.211L353.803,372.211z"/>
<path id="soqotra" fill="#E6E6E6" d="M368.669,368.855l1.326,1.482l1.793-1.084l0.648-0.218l-0.821-0.797l-1.576,0.467
	L368.669,368.855L368.669,368.855z"/>
<path id="somalia" fill="#E6E6E6" d="M363.906,371.594l2.72-1.045l0.965,0.579l-0.106,2.415l-2.509,7.147l-13.577,14.543
	l-1.576-1.083l-0.106-6.138l2.042-2.347l4.333-1.339l6.357-6.711l1.662-1.482l0.467-2.167L363.906,371.594L363.906,371.594z"/>
<path id="centrafrique" fill="#E6E6E6" d="M303.948,384.045l2.902,3.137l1.146-1.482l1.824,0.075l0.393-1.444l1.793-1.12
	l3.723,2.564l2.147-2.129l8.337,0.367l-7.732-7.981l1.04-0.648l0.143-1.407l-1.756-0.828h-2.577l-4.153,4.115l-0.143,1.693
	l-3.293-0.106l-0.106,0.722l-2.147-0.218l-1.936,3.679L303.948,384.045L303.948,384.045z"/>
<path id="sao_tome" fill="#E6E6E6" d="M288.434,392.2l0.716-0.362l0.535,0.436l-0.535,0.828l-0.648-0.255L288.434,392.2
	L288.434,392.2z"/>
<path id="principe" fill="#E6E6E6" d="M289.872,389.928l1.077-0.18l0.362,0.685l-0.536,0.579l-0.535-0.075L289.872,389.928
	L289.872,389.928z"/>
<path id="bioko" fill="#E6E6E6" d="M292.232,386.137l-0.286,1.227l0.859,0.467l0.821-0.617l-0.286-1.264L292.232,386.137
	L292.232,386.137z"/>
<path id="gabon" fill="#E6E6E6" d="M298.177,389.386l-0.075,1.55l-3.512-0.075l-2.147,4.153l5.049,5.522l1.251-1.045l-0.037-1.083
	l-0.859-0.399v-0.76l1.936-1.227l1.718,1.301l1.899,0.037l-0.037-6.531l-3.007-0.143l-0.037-1.37L298.177,389.386L298.177,389.386z"
	/>
<path id="equatorial_guinea" fill="#E6E6E6" d="M294.815,389.424l-0.037,0.865l2.827,0.143l-0.037-0.977L294.815,389.424
	L294.815,389.424z"/>
<path id="congo" fill="#E6E6E6" d="M301.047,389.318l-0.037,0.902l2.976,0.075l0.106,7.725l-2.72-0.075l-1.576-1.227l-1.22,0.685
	l-0.055,0.342l0.628,0.305l0.18,1.587l-1.681,1.444l0.362,0.76l1.861-1.444h0.896l0.286,0.865l1.183,0.505l3.798-3.212l-0.075-2.347
	l0.79-1.912l2.434-1.805l0.654-6.107l-1.73,0.006l-2.004,2.746L301.047,389.318L301.047,389.318z"/>
<path id="cabinda" fill="#E6E6E6" d="M298.277,402.212l1.083,1.407l1.401-1.326l-0.411-1.376l-0.349-0.025L298.277,402.212
	L298.277,402.212z"/>
<path id="drc" fill="#E6E6E6" d="M300.038,403.755l6.419-0.112l1.301,1.849l-0.05,1.363l0.479,0.436h3.187l0.915-1.8h1.301
	l0.529,0.536l1.787-0.05l0.529,6.276l3.088,0.099v0.485l8.298,3.741l0.386,0.729h1.737l-0.193-2.627l-3.137-1.506l0.193-1.993
	l1.35-3.163l3.088-0.099l-2.652-8.803l0.05-3.741l4.197-6.562l0.05-0.922l-0.628-0.342l0.025-1.78l-0.766-0.068l-0.772-0.984
	l-12.669-0.573l-2.322,2.259l-3.804-2.503l-1.339,0.821l-0.971,8.174l-2.403,1.855l-0.722,1.644l0.131,2.434l-4.333,3.543
	l-1.152-0.523l0.156,0.678L300.038,403.755L300.038,403.755z"/>
<path id="rwanda" fill="#E6E6E6" d="M330.195,393.913l1.749,1.613l-0.075,1.725l-2.715,0.057v-1.905L330.195,393.913
	L330.195,393.913z"/>
<path id="burundi" fill="#E6E6E6" d="M329.193,397.841l2.658-0.055l-0.691,2.329l-0.672,0.586h-0.821l-0.586-1.576L329.193,397.841
	L329.193,397.841z"/>
<path id="uganda" fill="#E6E6E6" d="M330.493,393.408l1.886,1.768l1.183-0.753l3.2-0.523l0.548,0.055l0.206-1.214l1.805-3.798
	l-1.519-3.163l-4.924,0.031l-0.031,1.301l0.66,0.635l-0.099,1.301L330.493,393.408L330.493,393.408z"/>
<path id="kenya" fill="#E6E6E6" d="M338.294,385.582l1.656,3.231l-1.986,4.165l-0.261,1.264l9.917,6.133l3.075-4.831l-1.556-1.264
	l-0.031-6.362l1.949-2.129l-3.106,1.034l-2.347,0.031l-3.673-3.1l-1.157-0.498l-2.147,0.199l-0.38,0.635L338.294,385.582
	L338.294,385.582z"/>
<path id="tanzania" fill="#E6E6E6" d="M338.132,413.535l10.876-1.332l-2.447-4.731l-0.131-4.533l0.79-2.167l-10.346-6.5
	l-3.244,0.535l-1.126,0.834l-0.099,1.899l-0.729,2.634l-0.76,0.902l-1.089,0.099l2.085,7.228l3.405,1.6l2.347,0.068L338.132,413.535
	L338.132,413.535z"/>
<path id="zambia" fill="#E6E6E6" d="M315.708,421.803l1.973,2.739l3.056,0.187l1.083,0.597l3.2,0.037l2.758-3.866l7.707-3.449
	l0.672-3.038l-0.896-4.351l-4.022-2.291l-2.683,0.187l-1.339,2.963l0.037,1.352l3.163,1.537l0.187,3.343l-2.72,0.149l-0.672-1.126
	l-7.558-3.225l-0.224,2.478l-3.574,0.112L315.708,421.803L315.708,421.803z"/>
<path id="angola" fill="#E6E6E6" d="M299.565,404.377l2.123,7.925l-0.05,2.503l-3.106,3.337l-0.467,5.422l11.953,0.106l3.885,1.407
	l3.207-0.417l-1.868-2.34l0.006-6.686l3.673-0.156v-2.608l-2.983-0.125l-0.597-6.175l-1.258,0.018l-0.678-0.61l-0.74,0.037
	l-0.984,1.905h-3.785l-0.878-0.884l0.261-1.251l-1.034-1.513L299.565,404.377L299.565,404.377z"/>
<path id="malawi" fill="#E6E6E6" d="M336.009,418.504l1.936,2.024l-0.037,2.59l0.373,1.089l2.571-2.777l-0.299-3.53l-1.376-1.052
	l-1.227-6.195l-2.123-0.075l0.965,4.463L336.009,418.504L336.009,418.504z"/>
<path id="mozambique" fill="#E6E6E6" d="M332.28,439.595l1.675,1.388l3.947-2.403l0.635-3.567v-5.889l6.331-5.18l1.083,0.037
	l3.835-3.679l-0.597-7.582l-10.166,1.282l0.299,2.291l1.749,1.352l0.411,4.127l-3.424,3.343l-0.821-1.874l0.149-2.478l-1.973-2.142
	l-4.843,2.254l4.507,2.291l0.149,6.68l-2.983,4.426L332.28,439.595L332.28,439.595z"/>
<path id="zimbabwe" fill="#E6E6E6" d="M322.002,426.534l5.584,6.307l4.283,1.089l2.87-4.502l-0.224-5.964l-4.656-2.403l-1.749,0.79
	l-2.608,3.978l-3.611-0.037L322.002,426.534L322.002,426.534z"/>
<path id="namibia" fill="#E6E6E6" d="M304.502,445l2.085,0.149l1.227,1.239l2.907,0.037l0.709-8.255v-5.404l1.861-0.373l0.709-5.665
	l4.731-0.149l1.675-1.388l-2.832-0.112l-3.835,0.523l-4.134-1.501h-11.617l0.299,3.299l3.872,5.703l-0.672,2.926l0.037,1.537
	L304.502,445L304.502,445z"/>
<path id="botswana" fill="#E6E6E6" d="M311.948,438.32l1.339,0.411l-0.187,3.829l1.376,0.187l3.163-2.851l3.798,0.411l1.008-2.553
	l4.806-4.389l-5.771-6.643l-0.075-1.089l-0.635-0.187l-1.749,1.613l-4.544,0.112l-0.635,5.665l-1.787,0.411L311.948,438.32
	L311.948,438.32z"/>
<path id="swaziland" fill="#E6E6E6" d="M332.093,440.044l-1.563,0.261l-0.672,1.837l1.196,1.089h1.451l1.227-1.762L332.093,440.044
	L332.093,440.044z"/>
<path id="lesotho" fill="#E6E6E6" d="M323.714,447.134l1.899-1.464l0.896,0.037l1.083,1.352l-0.112,1.352l-1.824,0.672v0.523
	l-2.011-0.112l-0.485-1.464L323.714,447.134L323.714,447.134z"/>
<path id="south_africa" fill="#E6E6E6" d="M327.916,433.588l-4.919,4.544l-1.17,2.808l-3.897-0.485l-3.244,2.882l-2.154-0.211
	l0.174-3.984l-0.766-0.268l-0.535,8.149l-3.822-0.037l-1.152-1.357l-1.688-0.018l1.537,4.414l2.746,2.596l-1.961,2.285l1.269,2.864
	l2.939,1.12l2.34-1.993l6.704,0.037l0.479-0.597l2.976-0.523l10.067-10.023l-0.037-3.156l-1.077,1.394h-1.613l-1.961-1.644
	l0.996-2.478l1.712-0.349l-0.156-5.093L327.916,433.588L327.916,433.588z M325.557,445.105l0.94-0.037l1.525,1.656l-0.044,1.918
	l-1.787,0.902l-0.112,0.635l-2.727,0.031l-0.852-2.055l0.779-1.506L325.557,445.105L325.557,445.105z"/>
<path id="greenland" fill="#E6E6E6" d="M195.294,213.478l-0.847,1.351l1.525,1.525l-0.678,1.525l2.204,2.876l2.708-0.847
	l3.554-0.336l4.065,4.401l2.708,7.277l-2.197,4.57l3.044-0.511l1.693,1.014l0.169,2.204l-3.723,0.169l2.03,2.03l2.54,0.511
	l-5.584,7.446l-0.678,4.57l1.183,3.723l-0.847,2.204l1.525,4.737l2.876,3.218l0.847-0.169l1.861-0.511l0.169,2.708l1.183,1.693
	l2.197-0.169l1.693-6.263l5.08-6.263l7.62-3.044l4.737-5.927l2.197,1.014h4.57l3.723-3.723l4.57-1.861l0.511-2.876l-2.876-2.54
	l-2.54-0.847l-1.357-3.554l3.218-1.861l5.08,2.708l1.693-1.861l-2.708-1.525l5.758-7.788l-1.014-3.387l-2.708-0.169l1.014-3.044
	l3.387-1.525l6.941-6.094l-2.03-2.197l-7.788,0.678l-4.065,4.065l2.371-5.248l-2.708-0.678l-1.525,2.708l-2.197-1.861l-6.094,0.678
	l1.693-2.708l9.986-0.336l-2.54-3.387l-10.833-2.03l-4.401,0.678l0.169,2.204l-4.57-1.525l0.169-1.525l-3.218,0.678l-0.678,1.693
	l3.387,1.183l-3.554,2.54l-2.54-2.876l-3.554-1.014l-0.511,2.708h-3.554l-1.357-2.876l-5.584-0.847l-3.044,1.525l-0.169,2.03
	l-3.89-0.511l-2.371,1.014l0.169,2.371v1.183l-4.401,0.847l-2.03-1.352l-1.357,2.197l2.03,2.204l4.234-0.511l0.336,1.357
	l-3.218,1.525L195.294,213.478L195.294,213.478z"/>
<path id="disko" fill="#E6E6E6" d="M208.841,239.887l1.014,1.525l-0.511,1.861h-1.014l-1.357-1.525l0.336-1.183L208.841,239.887
	L208.841,239.887z"/>
<path id="milne" fill="#E6E6E6" d="M251.161,235.654l2.876,0.847l-0.169,2.371l-3.044-1.525l-0.678-0.847L251.161,235.654
	L251.161,235.654z"/>
<path id="australia" fill="#E6E6E6" d="M469.243,448.747l-0.218,15.8l-2.428,1.78l-0.218,1.556l3.312,2.222l8.174-1.556h4.195
	l1.544-2.228l9.276-1.78l6.624,2.004l-0.442,2.671l0.884,2.671l5.08-0.891l0.218,1.332l-3.312,2.447l1.102,0.891l2.428-0.891
	l-0.66,7.347l4.638,3.561l2.652-0.891l1.326,1.332l7.732-1.115l7.29-11.797l2.652-0.667l5.297-9.793l1.326-8.454l-3.312-4.227
	l1.326-0.891l-2.652-8.236l-2.87-2.004l0.442-11.125l-2.652-2.004l-0.66-6.232h-1.326l-4.421,14.686l-2.428,0.224l-5.521-5.565
	l3.095-8.236l-5.74-1.115l-6.406,1.78l-1.768,5.117l-2.87,0.667l-0.218-3.561l-11.704,7.122l0.218,2.671l-1.768,2.447h-4.421
	l-9.5,4.003L469.243,448.747L469.243,448.747z"/>
<path id="tasmania" fill="#E6E6E6" d="M509.44,491.255l-1.102,4.451l0.218,3.113l3.312-0.224l3.754-5.784L509.44,491.255
	L509.44,491.255z"/>
<path id="sumatra" fill="#E6E6E6" d="M445.156,380.011l-0.174,1.42l4.227,7.103h1.233l8.809,14.736l3.523,0.355l1.762-5.148
	l-2.82-1.774l-0.529-2.839L445.156,380.011L445.156,380.011z"/>
<path id="east_malaysia" fill="#E6E6E6" d="M471.091,389.568l1.881,2.173l7.209-2.496l1.425-5.503l3.212-0.23l2.939-2.129
	l-3.81-2.777l-0.872-1.525l-1.881,3.468l0.691,1.993l-1.146,1.662l-2.16-0.554l-5.236,3.841l0.137,2.222L471.091,389.568
	L471.091,389.568z"/>
<path id="brunei" fill="#E6E6E6" d="M480.822,381.057l-1.793,2.173l1.469,0.461l0.828-1.157L480.822,381.057L480.822,381.057z"/>
<path id="sulawesi" fill="#E6E6E6" d="M486.898,399.646l1.407,1.725l-0.915,2.59v0.492h2.079l0.735-6.474l0.672,0.187l1.22,5.914
	l1.164,0.311l1.102-2.527l-1.102-3.822l-0.915-1.662l2.876-2.098l-0.672-0.928l-2.752,1.787h-0.735l-1.345-1.973l0.43-0.865
	l2.266-1.108l3.424,1.045l1.04-0.062l2.571-2.403l-1.04-1.045l-2.384,1.849h-1.532l-2.322-1.108l-1.65,0.062l-1.837,2.957
	l-1.164,5.117L486.898,399.646L486.898,399.646z"/>
<path id="maluku" fill="#E6E6E6" d="M502.25,388.06l-1.164,2.832l1.837,2.403h0.61l0.797-1.6l0.43-0.554l-0.797-0.865l-1.164-0.43
	L502.25,388.06L502.25,388.06z"/>
<path id="seram" fill="#E6E6E6" d="M505.86,397.368l-2.509,0.554l-0.735,0.803l0.61,1.045l1.65-0.617l1.04-0.617l1.532,1.233
	l0.672-0.554l-1.22-1.482L505.86,397.368L505.86,397.368z"/>
<path id="java" fill="#E6E6E6" d="M464.262,405.38l-1.712,1.17l0.367,0.984l5.448,1.233l2.751,0.492l1.164,1.233l3.119,0.25
	l1.469,1.233l1.345-0.311l1.227-1.108l-2.266-1.045l-1.954-1.662l-5.08-1.232L464.262,405.38L464.262,405.38z"/>
<path id="bali" fill="#E6E6E6" d="M482.067,410.74l-1.345,0.74l0.797,0.865l1.954-0.74L482.067,410.74L482.067,410.74z"/>
<path id="lombok" fill="#E6E6E6" d="M484.389,410.187l0.243,1.17l1.407,0.367l0.548-0.678l-0.61-0.928L484.389,410.187
	L484.389,410.187z"/>
<path id="sumba" fill="#E6E6E6" d="M487.757,413.267l-1.712,0.25l1.532,1.295h1.22L487.757,413.267L487.757,413.267z"/>
<path id="flores" fill="#E6E6E6" d="M488.242,411.232l-0.367,0.74l2.751,0.43l2.142-1.233l-1.22-0.367l-1.954,0.554l-0.735-0.617
	L488.242,411.232L488.242,411.232z"/>
<path id="timor" fill="#E6E6E6" d="M497.238,411.667l-3.181,2.652l0.305,0.678l1.345-0.25l1.587-1.482l3.119-0.43l-0.61-1.045
	L497.238,411.667L497.238,411.667z"/>
<path id="palawan" fill="#E6E6E6" d="M486.798,367.535l-0.535,1.021l-0.299,1.258l-2.976,3.778l0.18,0.779l1.251-0.18l3.866-4.32
	L486.798,367.535L486.798,367.535z"/>
<path id="negros" fill="#E6E6E6" d="M491.616,366.097l-0.062,3.119l1.133,1.139l0.417,2.217l1.133,0.243l0.536-1.382l-0.891-0.66
	l-0.237-3.897L491.616,366.097L491.616,366.097z"/>
<path id="cebu" fill="#E6E6E6" d="M494.836,367.299l-0.062,2.758l0.654,1.077l1.133-1.32l-0.299-2.397L494.836,367.299
	L494.836,367.299z"/>
<path id="samar" fill="#E6E6E6" d="M495.545,364.895l1.133,1.5l0.536,1.438h1.014l-0.18-2.459l-1.133-0.779L495.545,364.895
	L495.545,364.895z"/>
<path id="path7462" fill="#E6E6E6" d="M497.749,370.536l0.237,1.8l-2.085,1.681l-1.725,0.18l-1.842,1.98l0.062,0.902l1.725-0.542
	l1.189-0.779l1.015,2.577l1.787,1.258l0.716-0.243l0.654-0.779l-1.425-1.438l0.834-0.66l0.953,0.779l0.654-1.077l-0.654-1.32
	l-0.118-2.939L497.749,370.536L497.749,370.536z"/>
<path id="luzon" fill="#E6E6E6" d="M488.049,352.245l-1.607,1.139l-0.18,3.598l2.503,4.856l0.834,0.66l1.071-0.722l1.842,0.299
	l0.355,1.618l1.37,0.118l0.654-0.896l-0.834-1.139l-1.014-0.959l-2.142-0.237l-1.133-1.861l1.308-1.98l0.118-1.737l-0.891-2.217
	L488.049,352.245L488.049,352.245z"/>
<path id="mindoro" fill="#E6E6E6" d="M488.883,362.978l0.474,1.681l0.834,0.542l0.597-0.779l-0.953-1.32L488.883,362.978
	L488.883,362.978z"/>
<path id="hainan" fill="#E6E6E6" d="M468.407,350.502l-1.488,0.417l-1.071,1.32l0.891,1.737l1.308,0.118l1.488-1.32l0.355-1.737
	L468.407,350.502L468.407,350.502z"/>
<path id="taiwan" fill="#E6E6E6" d="M485.61,336.893l-2.204,1.681l-0.118,3.238l1.905,2.217l0.474-0.417L485.61,336.893
	L485.61,336.893z"/>
<path id="kyushu" fill="#E6E6E6" d="M495.427,317.039l-1.014,1.021l0.417,1.438l0.891,0.062l0.597,3.119l0.716,0.779l1.251-1.139
	l0.535-2.042l-1.55-2.217L495.427,317.039L495.427,317.039z"/>
<path id="shikoku" fill="#E6E6E6" d="M500.905,315.004l-1.725,1.618l-0.062,1.861l0.417,0.542l2.322-1.98l-0.18-1.98
	L500.905,315.004L500.905,315.004z"/>
<path id="honshu" fill="#E6E6E6" d="M498.52,311.163l-3.038,3.48l0.535,0.841l1.488,0.18l2.795-2.16l1.967-0.362l1.787,2.098
	l1.37-0.479l0.536-2.042l2.559-0.062l2.503-3.001l-1.308-4.981l-0.597-2.639l1.308-1.077l-2.976-4.495l-0.772,0.062l-1.606,1.8
	v1.501l0.716,0.841l0.237,3.96l-1.842,2.279l-1.071-0.66l-0.834,1.861l-0.18,1.737l0.654,1.021l-0.417,0.779l-1.37-1.139h-0.953
	l-0.834,0.479L498.52,311.163L498.52,311.163z"/>
<path id="hokkaido" fill="#E6E6E6" d="M503.645,284.057l-0.953,0.841l0.479,1.8l0.834,0.841l-0.062,2.758l-1.071,0.417l-0.834,1.861
	l2.441,3.356l1.607-0.542l0.299-0.841l-1.725-1.556l1.071-1.382l1.133,0.18l0.891,0.959l0.062-1.98l2.441-1.98l1.37-0.362
	l-1.133-1.918l-0.536-0.841l-0.891,0.597l-0.772,0.959l-1.668-0.362l-1.725-1.139L503.645,284.057L503.645,284.057z"/>
<path id="iturup" fill="#E6E6E6" d="M512.628,282.195l-1.668,2.34l0.118,1.139l0.834-0.362l1.961-2.459L512.628,282.195
	L512.628,282.195z"/>
<path id="urup" fill="#E6E6E6" d="M514.832,278.778l-0.597,1.618l0.062,1.077l1.015-0.66l0.953-1.918v-0.716L514.832,278.778
	L514.832,278.778z"/>
<path id="paramushir" fill="#E6E6E6" d="M518.342,264.503l-0.772,0.959l0.062,1.501l0.716-0.062l1.189-2.098L518.342,264.503
	L518.342,264.503z"/>
<path id="onekotan" fill="#E6E6E6" d="M516.917,268.164v2.639l0.834,0.299l0.597-0.959v-2.035L516.917,268.164L516.917,268.164z"/>
<path id="sakhalin" fill="#E6E6E6" d="M492.569,258.626l-0.057,3.841l4.818,7.439l1.725,6.474l3.038,5.758l1.189,0.417l1.014-0.841
	l0.474-1.382l-4.346-4.737l0.118-2.459l0.953-0.417l0.237-1.438l-8.51-12.053L492.569,258.626L492.569,258.626z"/>
<path id="bering_island" fill="#E6E6E6" d="M526.143,246.691l-1.189,0.118l0.716,1.021l1.488,1.021l0.417-0.479L526.143,246.691
	L526.143,246.691z"/>
<path id="medny" fill="#E6E6E6" d="M528.459,247.413l0.18,1.021l1.842,0.542l0.18-0.722L528.459,247.413L528.459,247.413z"/>
<path id="st._lawrence_island_west" fill="#E6E6E6" d="M38.435,215.52l2.154,4.028l1.382-0.311v-1.394L38.435,215.52L38.435,215.52z
	"/>
<path id="wrangel-w" fill="#E6E6E6" d="M44.238,184.374l-2.422,2.197l0.729,1.625l1.295-0.896l0.729,0.816l2.415-0.891l-0.081-1.382
	L44.238,184.374L44.238,184.374z"/>
<path id="kerguelen" fill="#E6E6E6" d="M383.075,493.347l-0.094,2.671l3.698,0.859l0.852-2.197l-1.326,0.38l-1.706,0.38
	l-0.474-2.004L383.075,493.347L383.075,493.347z"/>
<path id="mauritius" fill="#E6E6E6" d="M377.004,430.699l-0.946,1.238l0.187,1.339l1.993-1.625L377.004,430.699L377.004,430.699z"/>
<path id="reunion" fill="#E6E6E6" d="M373.5,432.804l-1.42,0.094l-0.094,1.239l0.946,0.193l1.42-0.667L373.5,432.804L373.5,432.804z
	"/>
<path id="madagascar" fill="#E6E6E6" d="M364.112,414.47l-1.326,3.15l-2.272,4.009l-3.978,0.286l-1.706,2.004l0.286,6.113
	l-2.465,2.864l0.286,4.869l2.085,2.384l2.465-0.286l2.465-1.818l-0.566-2.864l5.684-9.836l-1.139-1.239l1.139-2.384l1.232,0.38
	l0.38-0.953l-1.139-4.869l-0.667-2.004L364.112,414.47L364.112,414.47z"/>
<path id="grande_comore" fill="#E6E6E6" d="M355.017,413.417l0.286,0.953l1.233,0.193l0.474-1.239L355.017,413.417L355.017,413.417z
	"/>
<path id="mayotte" fill="#E6E6E6" d="M356.815,415.328l0.474,1.052h0.76l0.38-1.339L356.815,415.328L356.815,415.328z"/>
<path id="aldabra" fill="#E6E6E6" d="M370.368,405.393l-0.38,0.766l1.04,0.859l0.76-0.859L370.368,405.393L370.368,405.393z"/>
<path id="praslin" fill="#E6E6E6" d="M375.678,399.665l-1.139,0.766l0.853,1.339h1.139L375.678,399.665L375.678,399.665z"/>
<path id="mahe" fill="#E6E6E6" d="M376.152,403.009l-0.76,0.859l0.566,0.859l1.04,0.193l0.094-1.818L376.152,403.009
	L376.152,403.009z"/>
<path id="male" fill="#E6E6E6" d="M404.017,381.997l0.187,1.625l1.04,0.38l0.187-1.432L404.017,381.997L404.017,381.997z"/>
<path id="maldive" fill="#E6E6E6" d="M405.343,385.433l-0.094,2.004l0.76,0.38l0.667-1.339L405.343,385.433L405.343,385.433z"/>
<path id="gan" fill="#E6E6E6" d="M405.536,389.349l-0.667,0.667l0.76,0.667l0.946-0.667L405.536,389.349L405.536,389.349z"/>
<path id="path151" fill="#E6E6E6" d="M227.361,317.414l-0.847,0.853l1.519,0.852l0.169-1.189L227.361,317.414L227.361,317.414z"/>
<path id="terceira" fill="#E6E6E6" d="M231.925,316.903l-1.014,0.678l0.847,0.678l1.352-0.342L231.925,316.903L231.925,316.903z"/>
<path id="pico" fill="#E6E6E6" d="M232.597,319.287l-0.505,1.363l0.672,0.852l0.847-0.678L232.597,319.287L232.597,319.287z"/>
<path id="sao_miguel" fill="#E6E6E6" d="M236.649,322.008l-0.336,0.853l0.505,0.511l1.352-0.853L236.649,322.008L236.649,322.008z"
	/>
<path id="madeira" fill="#E6E6E6" d="M249.488,329.491l-0.672,0.853l0.672,0.852l1.014-0.511L249.488,329.491L249.488,329.491z"/>
<path id="lanzarote" fill="#E6E6E6" d="M254.118,340.267l-1.089,0.628l0.505,0.511L254.118,340.267L254.118,340.267z"/>
<path id="gran_canaria" fill="#E6E6E6" d="M250.334,340.386l-1.352,0.342l0.672,1.021h1.014L250.334,340.386L250.334,340.386z"/>
<path id="tenerife" fill="#E6E6E6" d="M247.122,339.365l-0.847,0.852l1.183,1.021l0.672-1.532L247.122,339.365L247.122,339.365z"/>
<path id="santo_antao" fill="#E6E6E6" d="M236.649,363.183l-1.183,0.678l0.847,0.678l1.014-0.511L236.649,363.183L236.649,363.183z"
	/>
<path id="boa_vista" fill="#E6E6E6" d="M239.557,364.553l-0.772,0.685l0.548,1.014l1.32-0.591L239.557,364.553L239.557,364.553z"/>
<path id="santiago" fill="#E6E6E6" d="M237.87,366.477l-0.99,0.591l1.065,1.425l0.841-0.442L237.87,366.477L237.87,366.477z"/>
<path id="guadeloupe" fill="#E6E6E6" d="M167.572,358.72l-0.933,0.386l0.33,0.828l1.096-0.716l-0.218-0.224L167.572,358.72
	L167.572,358.72z"/>
<path id="dominica" fill="#E6E6E6" d="M169.109,359.66l-0.548,1.164l0.66,0.884l0.821-0.716L169.109,359.66L169.109,359.66z"/>
<path id="martinique" fill="#E6E6E6" d="M170.977,362.866l-0.66,0.61l0.492,0.996l0.933-0.274L170.977,362.866L170.977,362.866z"/>
<path id="st._lucia" fill="#E6E6E6" d="M170.92,365.356l-0.442,0.94l0.716,0.772l0.933-0.498L170.92,365.356L170.92,365.356z"/>
<path id="st._vincent" fill="#E6E6E6" d="M170.977,367.734l-0.766,0.554l0.604,1.108l0.99-0.554L170.977,367.734L170.977,367.734z"
	/>
<path id="grenada" fill="#E6E6E6" d="M170.043,369.889l-0.716,0.716l0.274,0.442h0.878l0.274-0.722L170.043,369.889L170.043,369.889
	z"/>
<path id="trinidad" fill="#E6E6E6" d="M171.083,372.049l-0.66,0.61l-0.716,0.112v0.884l1.32,1.214l0.548-0.884l0.33-0.996
	l-0.112-0.828L171.083,372.049L171.083,372.049z"/>
<path id="puerto_rico" fill="#E6E6E6" d="M164.117,357.282l-1.644-0.554l-1.32,0.828l0.66,0.772l2.248,0.33L164.117,357.282
	L164.117,357.282z"/>
<path id="haiti-dominican_border" fill="#E6E6E6" d="M151.554,353.746l-1.04,1.065l1.189,0.485l0.174,1.488l-2.634,0.23l0.268,1.432
	l0.766,0.055l0.442-0.66l3.075,0.099l0.554,1.065l0.709-0.834l2.073-0.56l1.824,0.386l0.211-1.102l-3.287-2.147l-2.129-0.797
	L151.554,353.746L151.554,353.746z"/>
<path id="domincan_republic" fill="#E6E6E6" d="M159.173,356.896l-3.293-2.154l-1.556-0.529l-0.523,3.736l0.548,1.052l0.716-0.828
	l2.085-0.554l1.811,0.386L159.173,356.896L159.173,356.896z"/>
<path id="haiti" fill="#E6E6E6" d="M151.547,353.746l2.142,0.224l-0.255,2.627l-0.211,1.382l-2.496-0.137l-0.442,0.667l-0.766-0.057
	l-0.274-1.438l2.634-0.218l-0.162-1.494l-1.208-0.498L151.547,353.746L151.547,353.746z"/>
<path id="falklands_west" fill="#E6E6E6" d="M187.089,498.676l-1.637-0.18l-1.631,1.096l1.183,1.282L187.089,498.676
	L187.089,498.676z"/>
<path id="falklands_east" fill="#E6E6E6" d="M188.72,497.854l-0.542,1.737l-1.544,1.37l0.094,0.454l2.634-1.008l1.089-1.37
	L188.72,497.854L188.72,497.854z"/>
<path id="iceland" fill="#E6E6E6" d="M248.354,255.338l-1.22-0.691l-1.644,1.04l-1.413,1.308l0.037,0.729l1.831,0.23l-0.112,1.308
	l-0.648,0.654l0.156,0.423l1.831,0.118v2.116l2.634,0.461l1.563,0.884l1.756,0.075l3.014-1.501l2.329-3.075l0.037-2.079
	l-1.413-1.196l-1.183-1.003l-0.535,0.386l-0.803,1.04l-0.915-0.118l-0.915-1.003l-1.183,0.112l-1.719,1.425l-1.034,1.115
	l-0.573-0.498l-0.037-1.233l0.573-0.386L248.354,255.338L248.354,255.338z"/>
<path id="spitsbergen" fill="#E6E6E6" d="M299.341,215.9l-1.027-1.034l-2.279,1.108h-4.184l-0.66,2.441l2.347,2.073l1.027-0.149
	l1.469-2.515l1.245,0.891l-0.884,1.774l-0.442,2.59l1.027,1.625l2.204-3.698l2.864-3.48l-1.102-0.959L299.341,215.9L299.341,215.9z"
	/>
<path id="nordaustlandet" fill="#E6E6E6" d="M300.586,211.461l-1.837,1.699l1.102,1.699h1.98l0.81,1.108l2.422,1.258l2.788-1.625
	l1.912-1.625l-0.66-1.332l-1.912-1.108l-1.394,1.258l-0.953-1.183l-0.735,0.075l-0.953,2.073l-1.394-1.407l-0.149-0.959
	L300.586,211.461L300.586,211.461z"/>
<path id="edgeoya" fill="#E6E6E6" d="M304.77,219.081l-1.469,1.332l-1.245,0.959l0.586,1.034l1.177,0.367l1.912-0.891l0.884-1.108
	l-0.81-1.332L304.77,219.081L304.77,219.081z"/>
<path id="prince_george" fill="#E6E6E6" d="M336.42,206.456l1.071,0.43l-0.753,1.295v1.837l-1.607,0.971h-1.712l-0.965-1.189
	l0.106-1.295l0.753-0.971h1.501L336.42,206.456L336.42,206.456z"/>
<path id="salisbury" fill="#E6E6E6" d="M340.492,205.267v1.295l1.071,0.865l1.501-0.106l1.289-1.189v-0.865h-1.177l-0.965,0.323
	l-0.753-0.865L340.492,205.267L340.492,205.267z"/>
<path id="wilczek" fill="#E6E6E6" d="M346.605,205.379l0.753,1.618l1.501,0.106l1.071-0.43l-0.536-1.513l-1.394-0.323
	L346.605,205.379L346.605,205.379z"/>
<path id="bell" fill="#E6E6E6" d="M352.712,203.219l-1.177-0.218l-1.071,1.084l0.535,0.971l0.323,1.513l1.394-1.077l0.323-1.189
	L352.712,203.219L352.712,203.219z"/>
<path id="novaya_zemlya_north" fill="#E6E6E6" d="M359.249,214.667l-0.323,1.513l-2.465,2.16l-5.255,1.189l-4.289,7.128
	l-0.753,2.055l4.289,1.084l0.641-2.59l1.289-3.997l3.324-1.73l2.788-2.16l2.035-0.865h1.071v-2.913L359.249,214.667L359.249,214.667
	z"/>
<path id="novaya_zemlya_south" fill="#E6E6E6" d="M345.422,230.436l2.895,0.323l0.965,3.35l2.465,2.59l-0.859,1.73h-1.501
	l-1.394-1.618l-3.106-0.106l-1.289-1.73v-1.189l1.93-0.542L345.422,230.436L345.422,230.436z"/>
<path id="komsomolets" fill="#E6E6E6" d="M390.664,193.606l-1.394-0.865h-1.607l-0.323,0.971l-1.712,0.971l-1.289,0.43l-0.211,1.295
	l3.001,0.218L390.664,193.606L390.664,193.606z"/>
<path id="october" fill="#E6E6E6" d="M393.981,193.929l-0.753,1.618l-1.501-0.106l-2.36,1.73l-0.641,2.16h1.501l0.859-1.407
	l2.035,1.513l1.93-0.865l1.394-1.189l-0.536-1.837l-0.753-1.295L393.981,193.929L393.981,193.929z"/>
<path id="bolshevik" fill="#E6E6E6" d="M397.094,195.119l0.753,3.025l1.177,2.808l1.289-2.266l2.465-0.542v-1.618l-1.607-1.189
	L397.094,195.119L397.094,195.119z"/>
<path id="kotelny" fill="#E6E6E6" d="M455.914,190.276l1.675,1.407l1.189-0.492l0.349-1.973l-2.441-1.688l-1.606,1.058l-3.91,0.355
	v1.762l-4.121,0.068v2.882l4.818,3.586l1.258-0.915l-0.281-2.534l3.075-0.772l-0.628-1.196l-1.115-1.126L455.914,190.276
	L455.914,190.276z"/>
<path id="novaya_sibir" fill="#E6E6E6" d="M460.383,188.588l1.115,2.11l4.333-0.492l1.189-1.55l-0.281-1.339l-1.189-0.492
	l-1.115,0.847l-3.212,0.703L460.383,188.588L460.383,188.588z"/>
<path id="lyakhovsky" fill="#E6E6E6" d="M460.103,196.818l-2.167-0.56l-1.251,1.339l-0.56,1.831l2.932-0.281l2.235-1.126
	L460.103,196.818L460.103,196.818z"/>
<path id="wrangel" fill="#E6E6E6" d="M516.25,184.648l-1.818-0.56l-2.092,0.772l-1.045,1.55l1.326,1.762l3.492-1.55l0.698-0.772
	L516.25,184.648L516.25,184.648z"/>
<path id="sri_lanka" fill="#E6E6E6" d="M419.045,374.084l0.156,1.693l0.156,1.233l-0.915,0.156l0.461,2.77l1.376,0.772l2.136-1.232
	l-0.61-2.92l0.156-1.077l-1.986-1.842L419.045,374.084L419.045,374.084z"/>
<path id="cuba" fill="#E6E6E6" d="M132.865,348.479v0.79l3.312,0.062l1.563-0.909l0.243,0.667l3.249,0.79l2.889,2.608l-0.66,0.909
	l0.118,1.034l2.41,0.604l2.41-1.089l1.084-1.089l-1.563-0.79l-8.062-4.731l-2.827-0.305L132.865,348.479L132.865,348.479z"/>
<path id="bimini" fill="#E6E6E6" d="M144.543,343.629l-0.784-0.243l-0.062,1.513l0.965,0.971l0.66-0.971L144.543,343.629
	L144.543,343.629z"/>
<path id="andros" fill="#E6E6E6" d="M146.106,345.995l-1.084,0.604l1.021,1.457l0.542-0.729L146.106,345.995L146.106,345.995z"/>
<path id="inagua" fill="#E6E6E6" d="M149.598,347.084l-1.146-0.062l0.118,0.729l0.841,1.214l0.722-0.79L149.598,347.084
	L149.598,347.084z"/>
<path id="eleuthera" fill="#E6E6E6" d="M149.057,345.633l-1.868-0.79l-0.362-1.881l0.722-0.305l0.722,1.457l0.722,0.548
	L149.057,345.633L149.057,345.633z"/>
<path id="grand_bahama" fill="#E6E6E6" d="M147.252,341.811l-0.965-0.243l-0.18-1.214l-1.021-0.362l0.66-0.667l1.201,0.423
	l0.902,0.548L147.252,341.811L147.252,341.811z"/>
<path id="jamaica" fill="#E6E6E6" d="M144.12,356.367l-2.167,0.548v0.604l1.264,0.729h1.326l0.841-0.971L144.12,356.367
	L144.12,356.367z"/>
<path id="irian_jaya" fill="#E6E6E6" d="M513.293,393.564l-2.596,0.292l-1.668,1.22l0.691,1.394l2.827,0.523v0.523l-1.787,1.451
	l0.865,3.02l0.865,0.055l0.747-2.963h1.382l0.579,2.902l6.742,5.578l0.174,4.358l2.303,2.496l1.04-0.055l0.23-15.39l-3.916-2.727
	l-3.692,2.496l-1.326,0.815l-2.191-1.394l-0.057-4.414L513.293,393.564L513.293,393.564z"/>
<path id="alaska-westcopy" fill="#E6E6E6" d="M53.339,210.254l-5.223,1.239l1.077,5.883l5.684,1.55l0.305,1.239l-8.449,2.634
	l-4.763,7.894l1.688,8.361l2.764,1.855l2.154-2.011l0.617,1.239l-2.615,3.095l-10.141,4.645l-6.456,1.55l-0.156,2.322l14.903-4.333
	l6.144-1.706l5.684-6.967l6.3-4.177l-3.225,5.416l3.536,0.467l5.995-2.634l1.077,4.333l4.146,0.928l4.302,4.177l0.305,3.095
	l-0.617,0.772l0.766,2.939h1.077l0.156-4.955H81.6l0.305,12.227l3.075-2.634l-2.154-12.694h-3.221l-3.536-4.489l17.363-29.415
	l-17.208-13.465l-19.206,3.717l-0.766,5.883l4.146,2.478l-1.536,4.024L53.339,210.254L53.339,210.254z"/>
<path id="galapagos" fill="#E6E6E6" d="M116.753,392.842l-0.386,1.712l-0.716,0.722l0.492,0.884l1.264-0.498l0.604-1.052
	l-0.386-1.108L116.753,392.842L116.753,392.842z"/>
<path id="banks" fill="#E6E6E6" d="M122.206,204.65l0.137,2.503l-4.968,5.148l1.245,4.171l3.586-0.971l2.073-3.063l5.242-1.949
	l4.277-0.281l-3.312-3.617l-1.656,1.251l-1.245-0.417l-0.691-1.532l-1.519-1.532L122.206,204.65L122.206,204.65z"/>
<path id="prince_patrick" fill="#E6E6E6" d="M128.694,197.279l-1.102,1.949l5.385,1.949l1.93-2.92l0.828,1.949h1.382l2.621-2.92
	l-3.175-0.834l-1.245-0.971l-1.656,1.668L128.694,197.279L128.694,197.279z"/>
<path id="eglinton" fill="#E6E6E6" d="M138.081,201.177l-4.277,1.805v1.388l5.522,2.085l-1.245,1.388l0.828,1.805l3.449-1.532h2.901
	l1.382,2.222l2.347-2.366l-0.554-2.228l-1.93,0.698l-0.274-2.783l0.965-1.668h-0.965l-1.519,0.971l-0.691,0.554l0.417,1.949
	l-1.102,0.834l-1.656-0.137l-0.417-2.503L138.081,201.177L138.081,201.177z"/>
<path id="mackenzie_king" fill="#E6E6E6" d="M143.74,196.862l-0.417,1.388l2.621,1.251l1.93-1.115l-0.137-0.834L143.74,196.862
	L143.74,196.862z"/>
<path id="king_christian" fill="#E6E6E6" d="M145.807,194.497l-1.93,0.698l0.137,0.971l4.277-0.281l-0.137-0.971L145.807,194.497
	L145.807,194.497z"/>
<path id="ellef_ringnes" fill="#E6E6E6" d="M155.058,196.862l-0.274,0.971l-0.691,0.971v1.388l2.621-0.417l2.758,2.366h0.965v-2.366
	l-2.758-3.063L155.058,196.862L155.058,196.862z"/>
<path id="amund_ringnes" fill="#E6E6E6" d="M162.099,199.645l1.102,1.251l-0.965,1.668l0.691,1.805l3.038-1.668v-1.251l-1.793-2.085
	L162.099,199.645L162.099,199.645z"/>
<path id="axel_heiberg" fill="#E6E6E6" d="M166.102,196.445l0.137,2.222h3.729l0.965,0.834l-0.137,0.971l-3.312,0.417l2.347,3.2
	l3.175,0.554l4.414-1.949l-6.35-9.6l-1.93,1.251l0.137,1.668l-2.21-0.834L166.102,196.445L166.102,196.445z"/>
<path id="victoria" fill="#E6E6E6" d="M133.941,212.164l-5.242,1.388l-3.038,2.646l0.274,2.92l5.522,1.668l-1.245,2.783
	l-4.003-2.503l-1.102,2.085l2.621,1.805l-0.137,2.92l4.003,1.115l4.831-0.281l0.828-1.532l3.586,4.034l2.484-0.834l0.417-2.783
	l1.793,1.251l0.274-2.783l-2.21-1.388l0.137-8.759l-1.93-1.532l-2.067,2.783L133.941,212.164L133.941,212.164z"/>
<path id="prince_of_wales" fill="#E6E6E6" d="M150.781,218.284l-1.793-0.834l-0.965,1.251l1.93,3.063l0.137,2.92l4.14-2.503v-3.617
	l1.519-1.532l-1.519-1.115h-2.484L150.781,218.284L150.781,218.284z"/>
<path id="prescott" fill="#E6E6E6" d="M159.615,217.033l-2.901,2.366l0.691,2.92h1.793l0.828-1.532l1.245,1.251l1.245-0.137
	l3.312-2.783L159.615,217.033L159.615,217.033z"/>
<path id="cornwallis" fill="#E6E6E6" d="M159.336,212.438l-0.691,1.388l3.038,1.115l0.828-1.251L159.336,212.438L159.336,212.438z"
	/>
<path id="bathurst" fill="#E6E6E6" d="M157.542,207.153l-3.038,0.417l-1.793,1.668l3.312,0.137l-0.965,2.503l0.691,1.115
	l0.965-0.137l2.347-3.754L157.542,207.153L157.542,207.153z"/>
<path id="devon" fill="#E6E6E6" d="M162.791,206.182l-1.656,0.554l0.274,2.222l2.758,1.805l0.137,1.388l-0.828,0.834l0.417,2.783
	l10.627,3.473l2.901,0.971l2.902-2.503l-3.449-2.783l-3.175,0.834l-4.414-0.417l-1.656-1.668l-0.417-4.588l-2.758-1.388
	L162.791,206.182L162.791,206.182z"/>
<path id="baffin" fill="#E6E6E6" d="M171.481,220.65l-3.038-0.281l-3.586,1.388l-1.93,2.639l0.554,7.235l5.933,0.281l5.659,2.783
	l4.003,4.588l3.038-0.137l-0.828,4.309l-2.758,4.588l-3.038,1.388l-2.21-0.417l-1.102-0.971l-1.656,2.222l0.691,2.222l2.347,0.137
	l2.902-1.388l2.484,6.399l6.213,4.034l4.277-5.422l-3.586-5.839l2.073-2.366l2.902,4.869l5.242-4.588l-0.965-2.085l-3.586,1.115
	l-2.484-6.816l2.347-3.89l-4.694-5.005l-2.621,1.805l-2.484-5.422l-5.242,0.698l-1.382-6.537l-4.277,2.92l-0.417,3.617h-2.347
	l0.274-3.2L171.481,220.65L171.481,220.65z"/>
<path id="bylot" fill="#E6E6E6" d="M177.694,223.153l-1.102,1.115l0.965,1.532l4.557,0.554l-2.902-3.063L177.694,223.153
	L177.694,223.153z"/>
<path id="ellesmere" fill="#E6E6E6" d="M173.28,207.433v1.251l-3.038,0.698l0.828,1.388l3.449,1.388l3.866,0.417l2.758,1.949
	l2.758-1.532l-1.93-1.949h2.484l1.519-1.668l3.729-0.554v-0.834l-2.073-1.388l0.274-1.532l5.796,0.971l8.561-3.337l-3.175-0.971
	l0.828-1.115h6.624l1.102-1.115l-13.391-4.731l-3.175-1.115l-3.449,2.503l-3.866-3.2l-2.073-0.137l-0.417,2.646l-2.621-2.366
	l-3.038,0.971l0.554,1.532l4.557,0.971l-0.274,2.222l2.484,1.532l6.076-1.532l0.137,2.085l-4.968,2.366l-3.038-2.366l-2.758,0.281
	l2.758,3.897l-1.382,0.698l-2.073-1.805l-1.519,0.971l1.382,2.639h2.347l-0.554,2.503l-1.93-0.281l-2.484-2.646L173.28,207.433
	L173.28,207.433z"/>
<path id="southhampton" fill="#E6E6E6" d="M160.978,245.714l-2.634,3.312l-0.162,3.648l2.303-1.326h2.795l1.973,1.824l1.811-1.494
	L160.978,245.714L160.978,245.714z"/>
<path id="newfoundland" fill="#E6E6E6" d="M193.047,288.794l-6.581,6.3l0.66,1.494l8.056,2.983l1.152-1.986l-0.66-3.312l-2.634,0.33
	l-1.482-1.656l2.465-2.484L193.047,288.794L193.047,288.794z"/>
<path id="canada" fill="#E6E6E6" d="M93.873,212.601l1.239,1.874l0.623,2.503l3.1,0.779l2.173-2.34l1.861,0.94l5.273,0.467
	l3.723-1.563l0.623,5.154h2.173v-2.186l2.173,0.156l5.429,6.406l3.567,2.186l-1.861,2.97l0.779,0.779l6.967,1.407l0.156,3.126
	l1.861,0.311l0.467-4.688l2.944-0.779l2.173,3.281l4.651,2.186l2.329,0.467l1.55-1.874l0.156-2.97l2.788-1.719l0.928,2.503
	l-2.484,4.377l0.311,2.185l1.394-2.185l2.788-2.503l0.156-3.281l-1.55-2.503l0.467-2.03l3.723-1.874l1.706,1.251l0.311,10.938
	l2.634-2.34l1.55,0.94l-2.173,3.747l2.788,0.623l4.034-6.25l3.411,3.592l-1.394,6.406l-3.411,1.874l-3.256-1.563l-5.889,1.251
	l0.623,2.03l-1.55,2.503l-4.806,1.096l-5.429,4.221l-4.806,6.406l-0.623,2.03l3.256,1.251l1.239,3.126l4.495,4.533l7.134,3.126
	l-1.55,7.184l-0.156,2.03l1.861,1.251l2.484-3.281l0.311-6.25l3.879-0.156l1.861-3.592l0.311-5.466l4.961-9.687l6.201,2.186
	l3.256,4.533l-1.394,4.533l2.484,1.407l6.045-4.065l1.706,11.094l5.584,6.717l0.156,3.436l-6.201,1.563l-2.944,3.126l-6.201-1.407
	l-3.1-0.156l-5.429,4.221l3.256-0.779l4.034-0.779l0.779,0.94l-1.084,3.436l0.156,3.126l1.861,1.251l1.861-0.467l0.933-1.407h1.238
	l-2.017,3.747l-3.879,0.156l-1.706,2.503h-2.173l-0.623-1.874l3.1-3.126l-3.723,1.251l-0.169-5.31l-1.071-0.623l-3.256,1.407
	l-0.311,2.658h-7.446l-6.357,4.377l-8.529,2.814l-0.928-1.251l4.296-6.412l-2.441-2.347l-1.55-2.976l-3.156-2.41l-3.387-0.281
	l-6.07-4.252l-44.021-7.235l-0.729-2.983l-4.034-3.747v-3.126l0.623-2.814l-0.311-1.563l-1.55-1.563l-0.311-2.503l4.034-2.814
	l-2.484-13.434l-3.411-0.156l-3.1-4.065L93.873,212.601L93.873,212.601z"/>
<path id="usa" fill="#E5D1D1" d="M87.985,280.882l-0.623,2.503l-2.173-1.407h-1.084l-0.623,2.658l-7.602,17.034l2.017,14.841
	l2.484,1.251l0.467,4.065h5.117l4.961,3.747l9.768,0.94l1.084,4.999l1.55,1.096l2.173-2.185l1.706,0.779l1.55,7.184l2.634,1.718
	l2.173-4.065l6.667-4.843l4.339,2.03l3.723,0.311l0.156-2.34l7.751,0.156l1.55,1.719l0.311,3.903l-0.928,2.186l1.084,3.747h2.329
	l2.329-3.592l-0.928-1.718l-0.928-3.747l1.394-4.221l6.357-5.466l4.806-1.407l-0.623-4.533l6.667-7.191l6.667-1.096l-1.084-3.741
	l6.511-3.747v-4.999l-0.623-0.311l-2.329,0.779l-0.311,3.063l-7.738,0.094l-6.063,4.028l-9.519,3.113l-1.519-1.861l4.32-6.537
	l-2.136-2.035l-1.451-2.764l-3.007-2.415l-3.268-0.274l-6.175-4.215L87.985,280.882L87.985,280.882z"/>
<path id="haida_gwaii" fill="#E6E6E6" d="M78.689,262.249l-1.058,2.03l0.367,1.438l0.691,0.43l-0.162,0.586l-0.74,0.211l0.211,2.136
	l0.797,0.803l0.635-0.691l-0.797-2.079l0.474-1.656l1.164-1.55l-0.847-1.438L78.689,262.249L78.689,262.249z"/>
<path id="vancouver" fill="#E6E6E6" d="M82.188,274.414l-0.953,0.373l1.749,2.03l0.423,2.403l1.749,1.868l1.482-0.268v-2.452
	l-1.8-1.12L82.188,274.414L82.188,274.414z"/>
<path id="guatemala" fill="#E6E6E6" d="M116.696,363.793l3.692,2.702l3.723-4.625l-0.635-0.959l-1.269-0.044v-2.708l-0.953-0.579
	l-2.882,0.859l1.102,2.54L116.696,363.793L116.696,363.793z"/>
<path id="honduras" fill="#E6E6E6" d="M124.585,362.088l5.753-0.218l1.706,2.03l-1.065-0.243l-2.048,0.087l-2.676,2.515
	l-1.146,2.546l-0.753-0.399l-0.006-2.788l-1.656-1.108L124.585,362.088L124.585,362.088z"/>
<path id="el_salvador" fill="#E6E6E6" d="M120.911,366.75l2.926,1.457l-0.044-2.309l-1.501-0.915L120.911,366.75L120.911,366.75z"/>
<path id="nicaragua" fill="#E6E6E6" d="M130.928,364.161l1.363,0.274l0.044,2.795l-1.587,4.533l-4.277-0.423l-0.953-2.185
	l1.269-2.652l2.41-2.241L130.928,364.161L130.928,364.161z"/>
<path id="costa_rica" fill="#E6E6E6" d="M130.703,372.172l0.865,1.693l0.703,0.933l-0.946,2.809l-1.805-1.269l-2.951-2.702v-1.787
	L130.703,372.172L130.703,372.172z"/>
<path id="panama" fill="#E6E6E6" d="M132.702,375.056l-0.909,2.839l3.001,0.779l1.861,0.367l0.318-2.197l1.998-1.008l1.774,0.915
	l0.698,1.115l0.847-0.099l0.667-2.024l-2.217-0.915l-1.681-0.915l-1.681,1.146l-1.998,1.008l-2.042-0.821L132.702,375.056
	L132.702,375.056z"/>
<path id="colombia" fill="#E5D1D1" d="M153.334,368.936l-1.282-0.131l-8.479,6.991l-0.896,2.459l-1.157,0.131l0.516,5.435
	l-2.957,7.253l3.212,2.72l4.115,0.261l2.827,4.146l4.109,0.131l-0.131,3.106h1.537l1.668-5.696l-1.544-1.943l0.386-3.624
	l3.212-0.261l-0.386-8.417l-7.196-2.329l-1.668-4.533L153.334,368.936L153.334,368.936z"/>
<path id="venezuela" fill="#E6E6E6" d="M151.298,372.758l0.274,1.613l2.024,0.641l0.461-2.97l2.136-2.21l2.136,2.503l4.912,1.339
	l4.158-0.872l2.832,3.492l2.136,1.339l-2.34,3.567l0.784,2.702l-1.339,1.656l-1.388,1.164l-3.007-1.513l-0.691,0.698v2.154
	l2.197,1.045l-1.618,1.749l-1.618,1.749l-2.136-0.174l-2.147-2.36l-0.454-8.877l-7.334-2.503l-1.332-3.903L151.298,372.758
	L151.298,372.758z"/>
<path id="guyana" fill="#E6E6E6" d="M172.832,377.87l4.495,4.072l-1.787,2.067l-0.143,1.227l2.347,2.421l-0.057,2.329l-4.083,1.556
	l-2.447-3.306l0.523-3.971l-1.045-2.957L172.832,377.87L172.832,377.87z"/>
<path id="suriname" fill="#E6E6E6" d="M177.863,382.234l1.269,1.164l1.967-1.22l1.793,0.055l-0.23,0.698l-0.753,1.569l-0.118,3.903
	l-3.58,1.457l0.174-2.503l-2.309-2.154l0.118-1.108L177.863,382.234L177.863,382.234z"/>
<path id="guyane" fill="#E6E6E6" d="M183.465,382.645l3.642,2.272l-1.905,3.785l-0.691,0.872l-2.024-1.164l0.057-4.078
	L183.465,382.645L183.465,382.645z"/>
<path id="ecuador" fill="#E6E6E6" d="M138.685,391.392l-2.944,1.831l-0.211,2.715l-0.591,0.891l1.855,1.78l-0.803,0.878l0.187,2.241
	l3.319,0.79l5.024-5.945l-0.013-2.073l-2.41-0.156L138.685,391.392L138.685,391.392z"/>
<path id="peru" fill="#E6E6E6" d="M135.466,399.901l-1.208,1.22l0.081,1.949l10.546,19.225l10.951,7.06l1.693-2.839l0.404-6.245
	l-0.884-3.89l-2.983-5.031l-1.774,0.566l-0.803,0.891l-3.543-4.059l0.884-4.788l4.109-2.676l-0.323-2.515l-4.184-0.162l-2.173-3.648
	l-1.208-0.404l0.081,2.191l-5.391,6.406l-4.028-0.971L135.466,399.901L135.466,399.901z"/>
<path id="bolivia" fill="#E6E6E6" d="M156.434,414.389l5.124-2.235l1.693,0.162l1.126,4.706l7.806,2.596l1.289,3.978l3.218,0.404
	l1.37,3.405l-0.965,3.082l-5.236,0.404l-1.93,4.95l-4.109-0.081l-1.289-0.243l-2.371,2.303l-1.17-0.112l-4.028-9.332l1.115-1.668
	l0.393-6.599l-0.996-3.929L156.434,414.389L156.434,414.389z"/>
<path id="paraguay" fill="#E6E6E6" d="M177.009,431.023l1.37,1.494l-0.162,3.163l3.947-0.243l2.983,3.817l-0.243,3.405l-1.93,2.92
	l-3.947,0.162l-0.162-1.625l1.126-2.676l-3.866-2.434h-3.218l-2.415-2.596l1.756-5.018L177.009,431.023L177.009,431.023z"/>
<path id="uruguay" fill="#E6E6E6" d="M182.363,451.206l-1.276,1.363l0.529,7.334l4.009,1.164l5.099-5.111L182.363,451.206
	L182.363,451.206z"/>
<path id="argentina" fill="#E6E6E6" d="M185.544,442.658l1.208,1.133l-4.588,6.816l-1.613,1.787l0.56,7.788l3.543,4.302
	l-2.976,5.192l-2.254,0.971h-2.577l0.722,4.053l-4.028,1.382l0.965,3.405l-2.415,7.707l2.983,2.434l-1.613,3.971l-2.739,4.302
	l1.451,3.001l-3.543,0.566l-2.902-3.567l-0.485-11.112l-4.507-18.876l1.363-6.599l-2.901-8.436l1.93-10.951l1.774-2.11l-0.435-1.6
	l2.279-2.079l5.08,0.349l2.839,3.032l3.281,0.057l3.361,2.055l-0.99,2.316l0.237,2.34l4.763-0.224L185.544,442.658L185.544,442.658z
	"/>
<path id="tierra_del_fuego_chile" fill="#E6E6E6" d="M172.826,502.361l-2.658,5.839l4.588,0.485l0.081-3.89L172.826,502.361
	L172.826,502.361z"/>
<path id="tierra_del_fuego_argentina" fill="#E6E6E6" d="M175.242,505.281l0.162,3.567l2.739-0.243l2.335-1.544l-3.947-0.81
	L175.242,505.281L175.242,505.281z"/>
<path id="chile" fill="#E6E6E6" d="M171.923,501.446l-1.998,2.21l-0.243,2.596l-3.866-2.191l-4.109-5.92l-1.208-2.11l1.693-2.191
	l-0.162-2.758l-1.93-0.81l-1.532-1.133l0.323-1.544l2.011-0.566l0.404-8.921l-3.137-1.787l-2.048-46.436l0.529-0.922l4.009,9.244
	l1.282,0.025l0.417,1.475l-1.706,2.067l-1.961,11.125l2.788,8.566l-1.289,6.487l4.544,19.075l0.479,11.156l3.256,3.767
	L171.923,501.446L171.923,501.446z"/>
<path id="chiloe" fill="#E6E6E6" d="M158.656,478.107l-0.803,1.214l0.404,2.11l0.803,0.081l0.404-2.676L158.656,478.107
	L158.656,478.107z"/>
<path id="brazil" fill="#E6E6E6" d="M191.005,455.514l3.89-7.483l0.143-6.287l7.259-4.682h4.065l3.194-5.409l0.579-10.385
	l-1.308-2.777l7.694-7.022l0.292-7.751l-10.453-5.117l-12.626-3.947l-5.951-0.586l1.6-3.361l-0.435-5.117l-1.301-0.43l-1.923,3.822
	l-1.008,1.264l-2.59-1.146l-8.71,3.069l-2.901-3.655l0.467-3.817l-2.739,2.788l-3.025-1.631l-0.305,0.43l0.006,1.326l2.608,1.401
	l-3.916,4.127l-2.472-0.025l-2.503-2.546l-2.832,0.087l-0.349,3.025l1.625,1.973l-1.918,6.144l-2.241,0.174l-3.567,2.254
	l-0.872,4.426l3.095,3.312l0.566-0.641l2.173-0.586l1.855,3.126l5.31-2.279l2.061,0.118l1.42,5.024l7.576,2.403l1.308,4.009
	l3.225,0.386l1.537,3.829l-1.04,3.405l1.357,1.78l-0.199,2.652l3.635-0.342l3.33,4.208l-0.261,2.957l1.973,1.668l-4.731,7.165
	L191.005,455.514L191.005,455.514z"/>
<path id="belize" fill="#E6E6E6" d="M122.723,358.116l-0.031,2.272h0.523l1.78-3.324h-1.208L122.723,358.116L122.723,358.116z"/>
<path id="russia" fill="#E6E6E6" d="M504.603,227.71l1.096,3.785l2.191,0.628l2.191-3.468l-1.251-2.366l0.467-2.048h3.288
	l-0.784,1.576l0.311,5.677l-4.694,11.667l0.467,2.522l-0.156,4.258l8.759,12.769l1.718,0.474l0.156-10.403l1.719-1.576l-1.881-4.096
	l1.563-1.737l-3.442-4.57l-1.881,0.156l-0.623-7.564l4.849-1.264l0.312-2.21l2.503-0.628l1.407,1.264l1.719-6.935l2.97-5.042
	l2.347-1.264l2.035,0.156v-2.366l-3.288-0.628l-4.538-3.785l2.191-2.522l-1.881-4.258l1.563-1.576l1.881,2.522l4.694,1.737
	l5.161,0.474l0.628-2.204l-2.658-2.676l2.97-4.096l-6.73-2.366l-1.718,3.468l-2.191-2.839l-12.358-4.258l-11.735,2.048l-1.719,0.946
	v0.946l2.503,1.264l-0.311,2.994l-4.538-1.892l-10.01,3.941l-1.718-3.624h-6.886l-3.135,3.308l-11.107-2.522l-10.166,2.048
	l-1.251,3.15l1.563,0.474l-0.156,2.366l-9.856,1.102l0.628,3.15l-9.077-1.576l2.191-4.096l-9.233-0.474l0.784,4.258l-2.97,1.42
	l-2.503-2.366l-10.166,1.737l-3.91,3.624l-0.156,2.204l-2.503,0.156l-0.311-2.522l7.981-6.935v-4.731l-5.161-1.42l-6.73,2.204
	l-2.814-2.839h-1.251l-1.563,3.15l1.251,1.42l-8.921,4.887l-7.663,5.833l-4.694,6.462v2.676l5.005,2.048l-2.503,1.892l-5.317-1.892
	l-2.191,1.892l-3.288-3.785l-0.628,1.42l3.598,11.349l0.94,0.318l2.503-1.264l1.251,0.946v2.048l-2.347-0.946l-1.407,1.102
	l0.94,2.048l-0.784,5.36l-4.849,0.474l-0.311-1.737l2.814-1.737l0.628-4.731l-3.132-4.096l-1.096-7.091l-5.005-0.79l-0.467,2.522
	l0.94,1.264l-2.035,1.737l0.784,4.731l2.97,1.264l0.628,3.468l-2.976-1.892l-7.663-1.42l-0.94,2.522l-6.101,2.204l-0.94-1.576
	l-7.981,4.414l-0.156,2.994l-3.132,0.474l0.94-2.204v-2.204l-3.132-1.102l-2.035,0.79l1.718,3.312l1.251,2.204v1.737l-2.347-0.474
	l-0.467-0.474l-2.347,2.522l1.251,2.204l-5.317-0.156l1.718,2.21l-0.467,0.946h-2.808l-2.035-1.42l-0.467-3.941l-3.288-1.264v-1.576
	l6.886,1.42l3.754,0.318l1.563-2.366l-1.407-2.522l-10.01-3.941l-3.455,0.859l-1.183,1.014l0.367,2.335l1.469,0.255l-0.342,3.673
	l4.533,10.646l-3.275,5.192l-0.224,1.17l1.662,1.17l-1.501,0.99l-0.996,0.018l0.187,4.575l1.376,1.949l0.018,1.892l1.762,0.162
	l2.696,1.027l2.851,3.922l0.031,1.034l-0.928,1.587l2.129-0.118l2.073,0.597l2.801,3.966l6.898,0.628l-0.299,4.719l-2.378,2.035
	l0.492,0.797l-2.347,2.522l-0.623,2.366l1.407,2.048l4.538,1.576l1.881-1.102l12.047,4.57l0.467-1.264l-2.503-2.366v-2.994
	l-1.563-0.474l0.311-2.522l2.503-2.994l-4.489-3.361l0.311-4.676l4.8-3.156l5.634,0.318l0.94,1.737l5.789,0.318l4.227-2.366
	l-2.191-2.366l0.467-4.414l10.951-5.36l8.423,3.798l2.814-2.522l8.293,7.881l6.256-0.628l2.191,2.204l5.945,0.628l3.91-5.36
	l5.005,2.21l2.658,0.474l2.658-2.366l-2.347-1.576l2.035-3.15l5.789,1.892l1.251,2.522l2.503,0.156l1.563-1.102l4.227-0.156
	l0.467,1.102l4.849,0.318l3.288-3.468l6.73,0.79l2.035-0.79l0.623-3.785l-2.035-4.57l2.035-1.737h6.412l6.101,7.253l7.819,4.414
	h2.347l0.311-1.892l2.814-1.737l0.312,10.247l-2.503,0.156v2.522l1.407,1.737l-0.261,2.254l1.04,0.43l0.628-1.576l0.94,0.318
	l0.623,0.628l2.814-0.628l2.814-8.199L495.499,275L491.9,266.8l-4.538-5.516l-2.191,0.318v1.737l-5.317-2.048l2.035-4.414
	l1.718-11.667l7.196-2.204l3.442-2.204h3.754l-0.94,1.264l0.94,1.576l3.288-3.468l1.881,0.156l-0.311-2.048l-2.976-0.628
	l2.035-7.408L504.603,227.71L504.603,227.71z"/>
<path id="china" fill="#E6E6E6" d="M412.733,288.184l-2.154,5.416l-2.97-0.156l-3.132,6.855l2.658,3.387l-5.479,7.564l-2.814-0.474
	l-1.881,2.366l0.467,1.42l2.191,0.156l1.096,2.522l2.191,0.474l6.73,8.673v4.414l3.288,2.048l3.598-0.628l4.538,2.676l5.479,1.576
	l2.658-0.318l2.976-0.318l6.256-4.096l2.035,0.318l0.779,1.849l1.725,0.516l2.347,3.468l-1.563,3.468l0.94,2.366l2.658,0.946
	l0.467,2.839l3.132,0.318l0.467-1.42l4.538-2.366l2.814,0.156l3.288,3.624l2.191-0.946l1.407,0.156l0.628,1.737l1.096,0.156
	l1.563-2.204l6.256-2.366l5.634-6.779l1.881-6.462l-0.156-4.258l-2.347-0.474l1.407-1.576l-0.312-2.522l-5.945-5.989v-2.994
	l1.719-2.204l1.718-0.79l0.156-1.737h-4.383l-0.784,2.366l-2.035-0.474l-2.503-2.676l1.563-4.096l2.191-2.366l2.035,0.156
	l-0.311,3.624l1.096,0.946l2.658-2.676l0.94-0.156l-0.312-2.048l2.503-2.994l1.881,0.156l1.096-3.468l1.282-0.678l0.131-2.16
	l-1.245-1.308l-0.106-3.411l2.397-0.156l-0.156-8.796l-1.681,1.008l-0.628,2.254l-2.808-0.006l-8.137-4.575l-5.877-7.084
	l-5.964-0.062l-1.519,1.32l1.93,4.421l-0.672,4.146l-2.403,0.996l-1.35-0.106l-0.099,4.103l1.407,0.318l2.503-1.102l3.288,1.576
	v1.576l-2.347,0.156l-1.881,4.096l-1.718,0.156l-6.101,8.037l-6.412,2.839l-4.383,0.318l-2.97-2.048l-4.227,2.21l-4.538-1.42
	l-1.096-2.994l-7.663-0.474l-4.065-6.618h-1.718l-1.382-3.069L412.733,288.184z"/>
<path id="mongolia" fill="#E6E6E6" d="M414.85,288.247l3.624-4.806l4.351,2.011l2.957,0.79l3.624-3.324l-2.459-1.811l1.618-2.285
	l4.831,1.706l1.675,2.746l3.025,0.081l1.581-1.177l3.256-0.131l0.709,1.208l5.409,0.274l3.424-3.492l4.737,0.498l-0.274,4.757
	l2.073,0.474l2.546-1.157l2.696,1.332l-0.062,0.672l-1.954,0.057l-2.035,4.271l-1.581,0.156l-6.151,8.037l-6.282,2.77l-3.929,0.305
	l-3.262-2.105l-4.171,2.228l-4.109-1.276l-1.164-2.983l-7.782-0.548l-3.984-6.755l-1.936-0.125L414.85,288.247L414.85,288.247z"/>
<path id="north_korea" fill="#E6E6E6" d="M479.894,303.251l1.146,0.479l0.349,4.009l2.272,0.131l2.142-2.509l-0.74-0.66l0.087-2.689
	l1.967-2.378l-1.003-1.805l0.654-0.747l0.362-1.868l-1.139-0.516l-0.971,0.492l-1.201,3.648l-1.942-0.169l-2.248,2.652
	L479.894,303.251L479.894,303.251z"/>
<path id="south_korea" fill="#E6E6E6" d="M486.157,305.697l3.848,3.137l0.654,3.038l-0.131,1.631l-1.881,2.116l-1.618,0.087
	l-1.837-3.966l-0.698-1.892l0.74-0.573l-0.174-0.79l-0.915-0.411L486.157,305.697L486.157,305.697z"/>
<path id="kazakhstan" fill="#E6E6E6" d="M354.394,299.733l2.553-1.089l2.851-0.099l0.199,4.358h-1.668l-1.276,2.079l1.668,2.77
	l2.459,1.388l0.224,1.587l0.902-0.299l0.834-0.99l1.376,0.299l0.691,1.388h1.769v-1.78l-1.083-3.169l-0.492-2.571l3.144-1.388
	l4.227,0.691l2.652,2.671l5.995-0.591l3.343,4.75l3.929,0.199l1.083-1.78l1.376-0.299l0.199-1.98l2.061-0.099l1.083,1.289
	l1.083-2.571l9.332,1.289l1.569-2.079l-2.652-3.268l3.536-7.72l2.851,0.199l1.967-4.75l-3.929-0.398l-2.259-2.179l-6.225,0.722
	l-8.019-7.751l-2.827,2.509l-8.572-3.89l-10.515,5.148l-0.292,3.661l2.459,2.87l-4.794,2.708l-6.219-0.137l-1.301-1.912
	l-4.875-0.268l-4.619,2.97l-0.099,4.059L354.394,299.733L354.394,299.733z"/>
<path id="turkmenistan" fill="#E6E6E6" d="M365.077,311.542l-0.386,1.637h-2.584v2.217l2.777,1.831l-0.859,2.509v1.157l1.152,0.193
	l1.532-2.024l3.449-0.772l7.371,2.795l0.094,2.024l4.115,0.386l4.594-4.825l-0.573-1.544l-3.063-0.672l-8.616-5.597l-0.386-2.024
	h-3.256l-1.438,2.702h-1.438L365.077,311.542L365.077,311.542z"/>
<path id="uzbekistan" fill="#E6E6E6" d="M386.91,318.683l1.918,0.099v-3.281l-1.818-1.058l3.063-3.859h1.245l1.245,1.451
	l3.256-1.251l-4.502-1.544l-0.174-0.933l-1.071,0.261l-1.052,1.831l-4.538-0.149l-3.33-4.713l-5.852,0.579l-2.788-2.764
	l-3.859-0.654l-2.801,1.139l1.625,5.404l0.018,1.818l1.183,0.025l1.451-2.764l3.859,0.05l0.573,2.123l8.274,5.491l3.2,0.735
	L386.91,318.683L386.91,318.683z"/>
<path id="tajikistan" fill="#E6E6E6" d="M387.7,314.189l2.559-3.175h0.965l0.336,0.709l-1.183,0.859v0.709l0.779,0.56l3.741,0.224
	l1.22-0.523l0.554,0.112l0.373,1.196l2.222,0.224l1.115,2.353l-0.336,0.709l-0.442,0.037l-0.442-0.896l-0.965-0.075l-1.668,0.224
	l-0.112,1.569l-1.668-0.112l0.075-1.98l-1.22-1.196l-1.855,1.532l0.037,1.008l-1.631,0.56h-0.965l0.075-3.473L387.7,314.189
	L387.7,314.189z"/>
<path id="kirgizstan" fill="#E6E6E6" d="M391.821,306.326l-0.193,1.576l0.156,0.971l5.416,1.818l-4.757,1.918l-0.542-0.448
	l-1.027,0.66l0.05,0.362l0.548,0.25l3.337,0.087l1.693-0.511l2.173-2.739l2.72,0.474l3.281-4.544l-8.778-1.196l-1.214,2.944
	l-1.532-1.644L391.821,306.326L391.821,306.326z"/>
<path id="afghanistan" fill="#E6E6E6" d="M377.695,323.657l0.99,7.757l2.465,0.542l0.23,1.394l-1.769,1.475l3.293,2.658l6.399-2.303
	l0.511-2.727l4.028-2.515l1.544-5.828l1.152-1.239l-1.196-2.079l3.897-2.41l-0.498-0.698l-1.8,0.112l-0.162,1.656l-2.415-0.025
	l-0.044-2.21l-0.779-0.928l-1.308,1.189l0.037,1.089l-1.973,0.747l-3.642-0.23l-4.731,4.955L377.695,323.657L377.695,323.657z"/>
<path id="pakistan" fill="#E6E6E6" d="M383.305,337.846l1.618,2.403l-0.156,1.239l-2.154,0.853l-0.156,2.017h2.465l0.847-0.698
	h4.694l4.234,3.723l0.542-1.787h3.156l0.075-2.248l-3.231-3.1l0.691-1.706l3.312-0.23l4.463-9.307l-2.465-1.936l-0.922-3.256
	l6.001-0.542l-3.543-5.042l-1.886-0.511l-0.772,0.933l-0.579,0.044l-3.543,2.248l1.157,1.943l-1.308,1.394l-1.618,5.971
	l-4.003,2.559l-0.542,2.795L383.305,337.846L383.305,337.846z"/>
<path id="india" fill="#E6E6E6" d="M413.094,377.172l2.851-1.394l1.693-6.126l-0.075-7.52l9.7-10.471v-2.484l1.998-0.779
	l-0.075-2.87l-2.154-4.19l1.233-2.248l2.696,2.484l3.462,0.156v1.394l-1.077,1.164l0.23,0.623l1.849,0.075l0.386,2.092h0.542
	l1.388-2.484l0.691-6.511l2.31-1.631l0.075-2.248l-0.922-1.787l-1.464-0.075l-5.727,3.785l0.362,2.434l-4.022-0.013l-1.42-1.737
	l-0.772,0.099l0.261,2.415l-8.697-0.623l-5.391-2.403l-0.286-2.957l-3.592-2.228l-0.044-4.588l-2.465-2.82l-5.665,0.542l0.617,2.465
	l2.777,2.248l-4.8,9.824l-3.212,0.243l-0.529,1.183l3.163,2.926l-0.156,2.957l-3.231-0.05l-0.349,1.469l2.683-0.118l0.075,1.164
	l-1.923,1.008l1.233,2.329l2.384,0.779l1.464-1.084l0.691-1.936l0.847-0.386l1.003,1.008l-0.305,2.484l-0.691,1.164l0.156,2.017
	L413.094,377.172L413.094,377.172z"/>
<path id="nepal" fill="#E6E6E6" d="M413.225,333.313l0.286,2.658l5.031,2.279l8.062,0.597l-0.305-1.949l-5.385-1.482l-4.57-2.72
	L413.225,333.313L413.225,333.313z"/>
<path id="bhutan" fill="#E6E6E6" d="M428.297,336.749l0.965,1.32l3.262,0.025l-0.33-1.805L428.297,336.749L428.297,336.749z"/>
<path id="bangladesh" fill="#E6E6E6" d="M428.403,339.881l-0.816,1.475l2.116,4.022l0.062,3.137l0.386,0.841l2.484,0.044
	l1.407-1.352l1.021,0.617l0.206,1.912l0.815-0.511l0.05-2.441l-0.685-0.081l-0.43-2.073l-1.73-0.062l-0.43-1.152l1.058-1.413
	l0.018-0.698h-3.075L428.403,339.881L428.403,339.881z"/>
<path id="burma" fill="#E6E6E6" d="M449.489,371.345l-1.725-2.764l1.251-1.756l-1.183-2.173l-1.115-0.211l-0.211-3.648l-1.668-3.231
	l-0.485,0.772l-1.115,1.892l-1.394,0.211l-0.698-0.915l-0.349-2.459l-1.045-1.967l-4.258-4.015l1.045-0.691l0.193-2.907l1.556-2.615
	l0.672-6.506l2.254-1.537l0.075-2.371l1.352,0.448l2.129,3.082l-1.581,3.387l1.065,2.658l2.634,1.034l0.479,2.895l3.536,0.548
	l-0.977,1.688l-4.458,1.756l-0.485,2.876l3.275,4.208l0.137,2.248l-0.766,0.772l0.068,0.703l2.441,3.58l0.068,3.717L449.489,371.345
	L449.489,371.345z"/>
<path id="thailand" fill="#E6E6E6" d="M449.856,350.688l2.017,2.596v3.156l0.698,0.349l3.207-1.544l0.628,0.211l3.829,4.421
	l-0.137,3.02l-1.251-0.211l-1.115-0.703l-0.834,0.068l-1.464,2.452l0.281,1.332l1.183,0.628l-0.068,1.475l-0.834,0.423l-2.858-1.967
	v-1.756l-1.183-0.068l-0.485,0.772l-0.25,7.857l1.849,3.374l3.275,3.156l-0.137,0.915l-1.743-0.068l-1.6-2.384h-1.675l-2.092-1.688
	l-0.628-1.756l0.902-1.475l0.311-1.332l0.984-1.743l-0.044-4.009l-2.403-3.473l-0.099-0.423l0.779-0.784l-0.18-2.758l-3.2-4.053
	l0.373-2.335L449.856,350.688L449.856,350.688z"/>
<path id="malaysia" fill="#E6E6E6" d="M451.524,378.691l1.251,2.808l0.281,3.648l1.675,2.596l4.041,2.452l1.532,0.143l-0.281-2.527
	l-1.326-3.225l-1.943-4.127l-0.162,0.722l-2.34-0.106l-1.681-2.415L451.524,378.691L451.524,378.691z"/>
<path id="cambodia" fill="#E6E6E6" d="M456.362,368.743l2.546,2.72l4.737-3.512l0.417-5.541l-2.447,1.688l-1.27-0.709l-1.725-0.23
	l-0.965-0.678l-0.467,0.025l-1.264,2.073l0.206,0.959l1.282,0.716l-0.156,1.949L456.362,368.743L456.362,368.743z"/>
<path id="laos" fill="#E6E6E6" d="M453.243,345.995l-1.506,0.766l-1.251,3.648l2.092,2.665l-0.349,2.944l0.349,0.143l3.48-1.688
	l4.669,5.217l-0.112,3.287l1.015,0.548l2.509-2.035l-0.206-1.613l-7.24-6.879l0.068-1.052l0.902-0.628l-0.628-1.756l-2.994-0.492
	L453.243,345.995L453.243,345.995z"/>
<path id="vietnam" fill="#E6E6E6" d="M459.213,371.843l0.74,1.164l0.137,1.332l1.949,0.211l2.366-3.156l2.228-0.628l1.183-3.225
	l-0.554-5.192l-2.298-3.156l-2.421-1.936l-3.082-5.292l2.21-3.698l-3.163-3.629l-2.534-0.112l-2.279,1.227l0.678,2.932l3.038,0.535
	l0.815,2.259l-1.071,0.698l0.068,0.56l7.128,6.972l0.281,2.048l-0.43,6.474L459.213,371.843L459.213,371.843z"/>
<path id="georgia" fill="#E6E6E6" d="M341.177,309.407l2.035,2.658l2.54,1.17l1.563-0.006l2.683-0.729l0.672-1.052l-7.938-2.97
	L341.177,309.407L341.177,309.407z"/>
<path id="armenia" fill="#E6E6E6" d="M350.054,312.975l2.988,3.897l-0.878,1.027l-2.116-0.367l-2.627-2.353l0.143-1.544
	L350.054,312.975L350.054,312.975z"/>
<path id="azerbaijan" fill="#E6E6E6" d="M351.106,311.623l-0.628,1.071l2.932,3.848l1.021-0.33l1.681,1.762l0.729-3.088l1.824,0.292
	l-0.075-0.884l-3.001-2.627l-0.573,1.544L351.106,311.623L351.106,311.623z"/>
<path id="iran" fill="#E6E6E6" d="M350.01,317.992l-0.76,0.79l0.075,1.251l0.946,1.326l3.356,3.673l-0.511,1.469h-0.586
	l-0.292,1.469l1.899,2.428l1.749,0.149l3.505,4.849l1.967,0.149l1.532,1.102l0.075,2.204l6.057,3.53h2.259l1.388-1.177l1.749-0.075
	l1.021,2.353l6.543,0.909l0.193-2.403l2.167-0.784l0.099-0.859l-1.725-2.353l-3.841-3.088l2.017-1.837l-0.143-0.81l-2.527-0.393
	l-1.071-8.529l-0.125-1.961l-6.854-2.621l-3.038,0.685l-1.699,2.085l-1.506-0.099l-0.436,0.367l-3.356-0.218l-4.234-3.088
	l-1.576-1.725l-0.722,0.174l-1.3,1.491L350.01,317.992L350.01,317.992z"/>
<path id="turkey" fill="#E6E6E6" d="M343.194,312.539l-1.388,1.469l-5.105-0.149l-3.063-1.837l-2.988-0.075l-3.431,2.428
	l-3.212,0.149l-0.292,1.837h-3.648l-1.457,1.326v0.735l0.878,0.735v0.81l-0.367,0.959l0.367,0.81l1.17-0.586l1.17,1.251
	l-0.292,0.884l-0.435,0.591l0.654,0.735l3.212,0.66l2.259-0.959v-1.394l1.096,0.218l2.627,1.544l2.845-0.442l1.239-1.177
	l0.803,0.292v1.326h1.096l0.946-1.837l8.317-0.884l3.629-0.442l-0.959-1.258l-0.018-1.699l0.729-0.872l-2.652-2.129l0.143-1.837
	h-1.457L343.194,312.539L343.194,312.539z"/>
<path id="yemen" fill="#E6E6E6" d="M351.467,362.368l0.896,2.665v2.603l2.154,1.954l15.178-6.182l0.143-1.699l-2.434-4.37
	l-6.107,1.949l-3.505,3.449l-4.065-2.403L351.467,362.368L351.467,362.368z"/>
<path id="oman" fill="#E6E6E6" d="M367.896,357.144l4.601-2.652l0.816-3.89l-1.008-0.579l0.417-4.171l0.878-0.511l0.94,1.475
	l5.597,2.926v1.625l-6.779,9.979l-3.119,0.106L367.896,357.144L367.896,357.144z"/>
<path id="emirates" fill="#E6E6E6" d="M365.176,347.246l0.542,2.167l6.138,0.542l0.43-4.445l1.183-0.648l0.323-1.625l-1.936,0.542
	l-2.154,3.256L365.176,347.246L365.176,347.246z"/>
<path id="qatar" fill="#E6E6E6" d="M364.316,343.56l-0.323,2.496l0.959,0.729l0.872-0.081l0.323-3.144l-0.753-0.542L364.316,343.56
	L364.316,343.56z"/>
<path id="kuwait" fill="#E6E6E6" d="M358.503,336.183l-1.401-0.76l-0.971,0.977l0.106,1.954l2.259,0.865L358.503,336.183
	L358.503,336.183z"/>
<path id="saudi" fill="#E6E6E6" d="M358.944,339.962l4.364,6.083l1.407,1.12l0.628,2.727l6.717,0.529l0.76,0.399l-0.753,3.361
	l-4.414,2.603l-6.456,1.954l-3.442,3.361l-4.09-2.384l-2.478,2.167l-3.449-5.635l-2.366-1.083l-0.859-1.301v-2.82l-8.61-10.409
	l-0.323-1.842h2.478l3.014-2.603l0.106-1.301l-0.859-0.865l1.725-1.407l3.661,0.218l6.245,5.205l3.686-0.169l0.237,0.909
	L358.944,339.962L358.944,339.962z"/>
<path id="syria" fill="#E6E6E6" d="M335.704,324.952l-0.218,1.581l1.756,0.735l-0.075,4.383l1.756-0.037l1.756-1.326l0.66-0.112
	l3.984-3.169l0.803-4.601l-7.962,0.81l-0.841,1.842L335.704,324.952L335.704,324.952z"/>
<path id="iraq" fill="#E6E6E6" d="M346.686,322.4l-0.971,4.8l-4.022,3.35l0.255,1.581l3.929,0.268l6.256,5.093l3.499-0.099
	l0.094-1.177l1.282-1.376l1.793,1.014l0.237-0.224l-3.468-4.614l-1.644-0.099l-2.185-2.808l0.435-2.067l0.667-0.087l0.23-0.915
	l-2.976-3.132L346.686,322.4L346.686,322.4z"/>
<path id="jordan" fill="#E6E6E6" d="M337.092,332.205l-1.532,5.341l-0.068,0.815h2.41l2.696-2.378l0.068-0.902l-1.102-1.126
	l1.973-1.637l-0.286-1.519l-0.542,0.125l-1.644,1.177L337.092,332.205L337.092,332.205z"/>
<path id="lebanon" fill="#E6E6E6" d="M335.412,327.013l0.037,1.214l-0.511,1.842l1.756,0.149l0.112-2.615L335.412,327.013
	L335.412,327.013z"/>
<path id="israel" fill="#E6E6E6" d="M334.864,330.512l-0.984,3.132l1.276,3.754l1.464-5.485v-1.177L334.864,330.512L334.864,330.512
	z"/>
<path id="cyprus" fill="#E6E6E6" d="M333.551,325.394l0.766,0.554l-2.371,2.248l-1.133-0.037l-0.841-0.591l0.112-1.102l1.718-0.112
	L333.551,325.394L333.551,325.394z"/>
<path id="norway" fill="#E6E6E6" d="M316.275,245.894l1.258-0.922l-0.112-1.034l-0.797-0.461l0.112-1.264h0.685v-0.691l-2.97-0.803
	L310,241.181l-0.454,1.954l-1.027-0.342l-0.685-1.152l-2.173,0.112l-0.23,2.186l-1.027,0.461l-0.573-1.152l-4.57,3.679l0.915,1.034
	l-1.712,0.803l-3.885,7.707l-1.37,0.922l0.112,0.691l1.37,0.691l-0.342,1.494l-2.285-0.118l-0.685-0.803l-1.482,1.725l-0.915,0.691
	l-0.23,1.613l-0.797,0.461l-2.055,0.461l-1.027,3.225l0.685,5.292l0.797,2.415l0.915,0.922l2.055-0.112l2.97-2.876l1.139-1.954
	l0.342,2.876l1.943-3.449l0.112-9.668l1.581-0.996l0.474-5.336l4.794-6.904l2.285-0.803l1.027-1.264l3.424,0.803l1.712,1.034
	l0.573-2.876l2.858-1.725L316.275,245.894L316.275,245.894z"/>
<path id="britain" fill="#E6E6E6" d="M273.106,275.117l-1.139,1.725l0.454,0.691h2.627v1.152l-0.685,0.922l0.454,2.415l1.482,2.876
	l1.139,2.646l1.824,0.691l0.797,1.382l-0.112,1.264l-1.139,0.691l-0.112,0.573l0.797,0.461l-0.685,0.922l-1.6,0.691l-3.082-0.342
	l-4.8,2.186l-1.6-0.803l4.57-2.646l-0.573-0.342l-2.397-0.23l1.482-2.186l0.23-1.842l1.943-0.23l-0.342-3.567l-2.285-0.112
	l-0.685-0.803l0.112-2.646l-1.37,0.112l1.37-4.601l2.515-1.842L273.106,275.117L273.106,275.117z"/>
<path id="ulster" fill="#E6E6E6" d="M268.313,282.83l-2.055,0.23l-0.112,1.842l1.37,0.922l1.482-0.342l0.573-1.034L268.313,282.83
	L268.313,282.83z"/>
<path id="ireland" fill="#E6E6E6" d="M268.992,285.993l-0.566,3.736l-5.024,1.842h-1.6l-1.139-0.803v-0.691l2.515-1.613
	l-0.685-1.382l0.112-1.954l2.173,0.112l0.996-2.34l-0.131,2.079l1.688,1.339L268.992,285.993L268.992,285.993z"/>
<path id="sweden" fill="#E6E6E6" d="M305.231,247.413l1.22,1.126h2.285l1.258,2.415l0.342,4.14l-3.082,2.186v2.185l-2.173,2.994
	l-1.258,0.112l-1.712,2.876l0.112,2.764l2.97,2.186l-0.23,1.264l-1.139,1.725l-1.712,1.494l0.112,4.95l-2.627,0.922l-0.915,1.954
	h-1.258l-0.685-3.449l-2.858-4.383l2.347-3.929l0.162-9.705l1.618-0.891l0.393-5.553l4.614-6.605L305.231,247.413L305.231,247.413z"
	/>
<path id="finland" fill="#E6E6E6" d="M310.877,255.108l1.289,0.566l0.797,1.494l-0.797,1.034l-3.997,4.37l-0.685,2.303l0.915,3.337
	l3.082,2.303l4.109-1.954l3.312-0.461l3.082-4.95l-2.285-5.409l-2.173-5.18l0.342-3.337l-1.369-0.23l-0.355-2.434l-1.842-3.007
	l-2.042,1.413l-0.803,3.281l-2.167-1.301l-3.013-0.735l-0.672,0.784l1.157,1.045l2.11-0.037l1.699,2.746L310.877,255.108
	L310.877,255.108z"/>
<path id="path302" fill="#E6E6E6" d="M317.899,276.543l-4.265-0.691l0.094,2.384l3.953,2.415l1.618-0.474l-0.094-1.818
	L317.899,276.543L317.899,276.543z"/>
<path id="hiumaa" fill="#E6E6E6" d="M310.858,274.221l-0.965-0.031l-0.56,0.566l0.404,0.597l0.965,0.062l0.498-0.722
	L310.858,274.221L310.858,274.221z"/>
<path id="saaremaa" fill="#E6E6E6" d="M310.765,276.76l-0.933-0.094l-1.681,2.011v0.94l0.56,0.218l1.089,0.031l1.805-1.475
	l0.25-0.505L310.765,276.76L310.765,276.76z"/>
<path id="lithuania" fill="#E6E6E6" d="M313.38,278.615l-1.339-0.031l-1.837,1.756h-1.556l0.094,2.197l-0.933,1.725l3.361,0.031
	l0.965-0.125l0.965,1.164l2.21-0.094l2.116-2.696l-0.125-1.6L313.38,278.615L313.38,278.615z"/>
<path id="belarus" fill="#E6E6E6" d="M313.286,285.831l0.933,1.537l-0.373,1.227l0.062,0.971l0.342,1.164l1.93-1.096l2.397,0.062
	l1.681,0.691h4.265l1.245-2.983l0.747-1.126v-0.753l-2.676-3.767l-2.366-0.94l-1.93-0.218l-1.681,0.536l0.062,1.693l-2.335,2.951
	L313.286,285.831L313.286,285.831z"/>
<path id="poland" fill="#E6E6E6" d="M313.784,291.104l0.529,0.971l0.125,1.034l-0.436,1.003l-0.996,1.918l-0.841,0.38l-1.089-0.474
	l-0.654,0.031l-1.587,0.597l-1.805-0.535l-2.926-2.073l-2.864-1.537l-1.152-1.756l-0.218-4.14l2.241-1.949l2.926-0.971l1.089-0.125
	l-0.436,0.878l0.281,0.342l4.924,0.094l1.058-0.031l1.743,2.671l-0.435,1.096l0.187,1.289L313.784,291.104L313.784,291.104z"/>
<path id="spain" fill="#E5D1D1" d="M274.501,309.931h-7.931l-1.6-0.722l-0.772,0.057l-0.933,1.943l0.33,1.998l3.032,0.281
	l0.386,1.276l-1.32,7.439l0.055,1.332l2.147,1.164l2.478,0.169l4.955-1.22l2.422-3.051l0.055-3.106l4.296-3.885l0.218-1.718
	l-3.91-0.057L274.501,309.931L274.501,309.931z"/>
<path id="portugal" fill="#E6E6E6" d="M263.651,313.815l-0.386,5.385l-1.102,0.996l0.112,0.61l0.772,1.276l-0.498,1.556l0.828,0.281
	l1.93-0.224l-0.112-1.556l1.264-7.215l-0.274-0.996L263.651,313.815L263.651,313.815z"/>
<path id="majorca" fill="#E6E6E6" d="M282.433,317.531l-0.99,0.336l0.218,0.891h1.432l0.604-0.667L282.433,317.531L282.433,317.531z
	"/>
<path id="sardinia" fill="#E6E6E6" d="M292.68,315.147l-1.65,0.834l0.218,3.218l1.32,0.224l0.99-0.946v-3.051L292.68,315.147
	L292.68,315.147z"/>
<path id="corsica" fill="#E6E6E6" d="M292.848,311.151l-1.214,1.22l-0.112,1.108l0.99,0.61l0.386-0.057l0.218-1.613L292.848,311.151
	L292.848,311.151z"/>
<path id="france" fill="#E6E6E6" d="M281.996,293.557l-1.376,0.336l-2.752,2.994l-0.828,0.057l-1.102-0.779l-0.716,0.169
	l-0.548,1.718l-4.022,0.112l0.112,0.891l2.752,1.831l3.194,2.553l-0.057,3.051l-1.706,2.994l3.692,1.774l3.747,0.112l1.157-1.332
	l2.366,0.057l0.66,0.61l2.366-0.169l1.214-1.556l-1.544-1.831l-0.112-1.164l0.33-1.276l-0.772-1.108l-1.32,0.386l-0.169-0.996
	l2.92-3.218v-1.943l-1.93-1.108l-0.99-0.169L281.996,293.557L281.996,293.557z"/>
<path id="netherlands" fill="#E6E6E6" d="M288.03,287.064l-2.82,1.388l0.597,0.542l0.062,1.388l-0.597-0.118l-0.66-1.027
	l-1.576,2.496l2.422,0.505l0.902,0.953l0.479,0.013l0.318-2.154l1.525-0.641L288.03,287.064L288.03,287.064z"/>
<path id="belgium" fill="#E6E6E6" d="M282.749,292.2l-0.399,0.996l4.283,2.827l1.233,0.292l0.044-1.339l-1.077-1.208h-0.66
	l-0.902-1.027L282.749,292.2L282.749,292.2z"/>
<path id="germany" fill="#E6E6E6" d="M288.683,286.821l2.222-0.362v-1.569l1.861-0.305l1.021,1.027l1.077,0.118l1.681-0.729
	l1.501,0.423l1.32,1.146l0.18,4.289l1.32,1.756l-1.737,0.243l-2.882,1.811l0.243,0.604l2.577,2.415l-0.18,1.208l-2.397,1.208
	l-2.222,0.062l-0.542,1.146h-1.139l-0.542-1.208l-1.98-0.485l-0.062-1.993l-1.681-1.146l0.18-1.451l-1.139-1.569l0.299-2.055
	l1.556-0.729L288.683,286.821L288.683,286.821z"/>
<path id="denmark" fill="#E6E6E6" d="M292.188,276.624l-2.584,2.858l-0.094,1.861l1.177,3.069l1.842-0.349l-0.23-2.509l1.269-1.42
	l-0.025-1.115l-0.896-2.322L292.188,276.624L292.188,276.624z"/>
<path id="sjlland" fill="#E6E6E6" d="M295.095,281.691l-0.579-0.025l-0.76,0.698l0.094,1.089l1.8,0.05l0.094-1.233
	L295.095,281.691L295.095,281.691z"/>
<path id="gotland" fill="#E6E6E6" d="M305.71,275.796l-1.313,1.04l0.66,1.525l1.164-1.133L305.71,275.796L305.71,275.796z"/>
<path id="switzerland" fill="#E6E6E6" d="M289.785,300.206l-2.715,2.889l0.057,0.292l1.115-0.349l1.003,1.394l1.693-0.597
	l1.17,0.909l0.479-0.274l1.444-2.266l-0.367-0.349l-1.425-0.037l-0.691-1.413L289.785,300.206L289.785,300.206z"/>
<path id="czech" fill="#E6E6E6" d="M299.447,297.399h1.849h0.909l1.475,1.052l2.733-2.272l-2.652-1.892l-2.627-1.269l-1.8,0.323
	l-2.441,1.569L299.447,297.399L299.447,297.399z"/>
<path id="slovakia" fill="#E6E6E6" d="M304.06,298.806l0.43,0.38l0.055,0.648l4.75-0.106l3.512-1.513l-0.057-1.537l-0.672,0.299
	l-0.965-0.516l-0.591-0.025l-1.556,0.623l-2.116-0.511L304.06,298.806L304.06,298.806z"/>
<path id="austria" fill="#E6E6E6" d="M294.591,300.667l-0.404,0.841l0.349,0.597l1.451-0.299h1.233l1.339,1.133l2.845-0.516
	l2.092-1.245l0.536-0.841l-0.081-1.083l-1.881-1.407l-2.522,0.025l-0.211,1.432l-2.652,1.295L294.591,300.667L294.591,300.667z"/>
<path id="hungary" fill="#E6E6E6" d="M304.621,300.343l-0.722,1.133l0.057,1.73l1.152,0.591l3.543,0.106l4.937-4.158l0.025-0.922
	l-0.536-0.268l-3.567,1.618L304.621,300.343L304.621,300.343z"/>
<path id="slovenia" fill="#E6E6E6" d="M303.412,301.831l-1.581,0.946l-2.951,0.648l0.591,1.706l2.067,0.025l1.905-1.594
	L303.412,301.831L303.412,301.831z"/>
<path id="croatia" fill="#E6E6E6" d="M303.923,303.804l-2.197,1.811h-2.228l-0.268,1.569l1.021,0.268l0.511-0.76l0.803,0.703
	l0.641,2.241l4.401,2.055l0.435-0.498l-4.463-4.607l0.454-0.841l4.239-0.162l0.43-1.352l-2.764,0.081L303.923,303.804
	L303.923,303.804z"/>
<path id="bosnia" fill="#E6E6E6" d="M303.412,306.158l-0.23,0.38l4.177,4.309l1.532-2.254l-0.055-0.891l-1.339-1.625
	L303.412,306.158L303.412,306.158z"/>
<path id="italy" fill="#E6E6E6" d="M289.387,304.937l-0.386,0.977l0.106,1.065l1.488,1.737l2.34-0.081l5.167,6.001l3.225,0.933
	l1.905,1.8l0.454,4.103l1.021-0.597l0.884-2.235l-0.218-1.606l1.513-0.137l0.218-0.909l-4.265-2.042l-4.046-3.978l-1.613-2.378
	l-0.393-2.259l2.061-0.492l-0.529-1.488l-1.264-1.065l-1.089-0.05l-1.519,0.417l-1.432,2.004l-0.865,0.573l-1.339-0.821
	L289.387,304.937L289.387,304.937z"/>
<path id="sicily" fill="#E6E6E6" d="M301.943,321.148l-0.902-0.485l-3.082,0.485l0.106,0.834l2.77,1.394l0.417,0.454l0.729,0.106
	L301.943,321.148L301.943,321.148z"/>
<path id="malta" fill="#E6E6E6" d="M302.049,325.787l-1.04,0.211l0.037,1.152l0.933,0.311l0.417-0.349L302.049,325.787
	L302.049,325.787z"/>
<path id="ukraine" fill="#E6E6E6" d="M316.343,290.102l-1.805,1.014l0.448,1.918l-1.668,3.517l0.013,1.55l0.784,0.498l5.031,0.25
	l1.407-1.164l1.506,0.505l2.16,2.882l-1.581,2.839l1.881,0.548l2.459-2.832l1.407,0.255l1.308,0.909l-1.152,1.519l1.556,2.428h1.656
	l0.852-1.618l1.756-0.355l0.05-1.313l-3.262-0.505l0.099-1.413h3.163l3.411-2.733l1.506-1.313l0.25-4.146l-6.724-0.604l-2.758-3.89
	l-1.905-0.654l-2.31,0.099l-1.04,2.571l-4.731,0.062l-1.537-0.709L316.343,290.102L316.343,290.102z"/>
<path id="moldova" fill="#E6E6E6" d="M319.568,299.166l1.93,2.97l-0.162,1.681l0.691,0.031l1.637-2.77l-1.967-2.441l-1.115-0.461
	L319.568,299.166L319.568,299.166z"/>
<path id="romania" fill="#E6E6E6" d="M314.232,299.098l-0.162,0.922l-3.604,3.001l3.013,4.421l1.93,1.352h3.473l1.146-0.959
	l1.537-0.199l1.146,0.691l2.03-2.31l-0.393-1.157l-2.061-0.529l-1.407-0.068l0.068-1.98l-1.868-2.939L314.232,299.098
	L314.232,299.098z"/>
<path id="montenegro" fill="#E6E6E6" d="M309.702,311.33l-0.028-0.582l-0.822-1.154l-1.331,1.881l0.261,0.79l1.083,0.2
	L309.702,311.33z"/>
<path id="serbia" fill="#E6E6E6" d="M310.105,303.418l-1.276,0.96h-0.623l-0.423,1.319l1.506,1.75l0.099,1.388l-0.213,0.3
	l1.019,1.431l0.036,0.759l0.733,0.71l2.39-0.729l-0.2-3.4L310.105,303.418z">
<desc  id="desc7821">includes kosovo</desc>
</path>
<path id="bulgaria" fill="#E6E6E6" d="M313.772,308.305l0.099,3.1l1.045,2.179l3.929,0.068l1.769-1.251l1.737-0.691l-0.423-1.98
	l0.393-1.058l-0.884-0.461l-1.214,0.099l-0.953,0.959l-3.997,0.031L313.772,308.305L313.772,308.305z"/>
<path id="albania" fill="#E6E6E6" d="M309.152,312.894v2.87l0.821,1.55l0.591-0.068l1.014-1.849l-0.591-0.828l-0.23-2.048
	l-0.784-0.729L309.152,312.894L309.152,312.894z"/>
<path id="macedonia" fill="#E6E6E6" d="M313.448,311.804l-2.098,0.691l0.099,1.78l0.492,0.628l2.49-1.157L313.448,311.804
	L313.448,311.804z"/>
<path id="greece" fill="#E6E6E6" d="M310.827,317.774l-0.068,0.828l2.882,1.451l1.376,0.529l-0.722,0.76l-1.606,0.162l-0.23,0.729
	l0.554,1.251l1.8,0.959l0.784,0.068l0.099-2.147l1.177-1.42l-3.212-3.798l0.423-1.289l0.753-0.031l1.146,0.922l0.722-0.362
	l0.23-1.289l3.374,0.031l0.131-1.98l-1.407,0.99l-4.127-0.099l-2.683,1.388L310.827,317.774L310.827,317.774z"/>
<path id="thrace" fill="#E6E6E6" d="M320.981,312.857l-0.099,2.21l1.93-0.591l0.884-0.591l-0.261-0.959l-0.915-0.729
	L320.981,312.857L320.981,312.857z"/>
<path id="crete" fill="#E6E6E6" d="M317.083,325.861l1.015,0.031l0.423,0.628h1.475l0.984-0.362l0.33,0.399l-0.654,0.859
	l-2.882,0.099l-0.523-0.691l-0.554-0.33L317.083,325.861L317.083,325.861z"/>
</svg>
