<?xml version="1.0" encoding="utf-8"?>
<!-- Generator: Adobe Illustrator 22.0.1, SVG Export Plug-In . SVG Version: 6.00 Build 0)  -->
<svg version="1.1" id="Capa_1" xmlns="http://www.w3.org/2000/svg" xmlns:xlink="http://www.w3.org/1999/xlink" x="0px" y="0px"
	 viewBox="0 0 512 101.5" style="enable-background:new 0 0 512 101.5;" xml:space="preserve">
<style type="text/css">
	.st0{enable-background:new    ;}
	.st1{fill:#FFFFFF;}
	.st2{fill:#B0AFAF;}
</style>
<g class="st0">
	<path class="st1" d="M50.7,53.5H23.6l-4.7,11c-1.2,2.7-1.8,4.7-1.8,6.1c0,1.1,0.5,2,1.5,2.8c1,0.8,3.2,1.3,6.6,1.6v1.9h-22V75
		c2.9-0.5,4.8-1.2,5.7-2c1.8-1.6,3.7-5,5.8-10.1L39.3,5.4h1.8l24.3,58.2c2,4.7,3.7,7.7,5.3,9.1s3.8,2.2,6.7,2.3v1.9H49.8V75
		c2.8-0.1,4.7-0.6,5.6-1.4c1-0.8,1.5-1.8,1.5-2.9c0-1.5-0.7-3.9-2.1-7.2L50.7,53.5z M49.2,49.7L37.4,21.4L25.2,49.7H49.2z"/>
	<path class="st1" d="M142.2,5.4l1.6,23.8h-1.6C140,22,137,16.9,133,13.8c-4-3.1-8.7-4.7-14.2-4.7c-4.6,0-8.8,1.2-12.6,3.5
		c-3.7,2.4-6.7,6.1-8.8,11.3c-2.1,5.2-3.2,11.6-3.2,19.2c0,6.3,1,11.8,3,16.4c2,4.6,5.1,8.2,9.2,10.7s8.7,3.7,13.9,3.7
		c4.5,0,8.5-1,12-2.9c3.5-1.9,7.3-5.8,11.4-11.6l1.6,1c-3.5,6.2-7.6,10.8-12.3,13.7c-4.7,2.9-10.2,4.3-16.7,4.3
		c-11.6,0-20.6-4.3-26.9-12.9c-4.7-6.4-7.1-13.9-7.1-22.6c0-7,1.6-13.4,4.7-19.2c3.1-5.8,7.4-10.4,12.9-13.6
		c5.5-3.2,11.5-4.8,18-4.8c5.1,0,10,1.2,14.9,3.7c1.4,0.8,2.5,1.1,3.1,1.1c0.9,0,1.7-0.3,2.4-1c0.9-0.9,1.5-2.2,1.9-3.9L142.2,5.4
		L142.2,5.4z"/>
	<path class="st1" d="M192.2,76.9l-27-58.8v46.7c0,4.3,0.5,7,1.4,8c1.3,1.4,3.3,2.2,6,2.2h2.5v1.9h-24.3V75h2.5c3,0,5.1-0.9,6.3-2.7
		c0.8-1.1,1.1-3.6,1.1-7.5V19.1c0-3.1-0.3-5.3-1-6.7c-0.5-1-1.4-1.8-2.7-2.5s-3.4-1-6.2-1V7h19.8l25.4,54.7l25-54.7h19.8v1.9h-2.4
		c-3,0-5.1,0.9-6.3,2.7c-0.8,1.1-1.1,3.6-1.1,7.5v45.7c0,4.3,0.5,7,1.4,8c1.3,1.4,3.3,2.2,6,2.2h2.4v1.9H211V75h2.5
		c3,0,5.1-0.9,6.3-2.7c0.8-1.1,1.1-3.6,1.1-7.5V18.1l-27,58.8H192.2z"/>
</g>
<g class="st0">
	<path class="st2" d="M329.8,57.5l1.7,0.4l-6,19h-54.1V75h2.6c3,0,5.1-1,6.3-2.9c0.7-1.1,1.1-3.6,1.1-7.6V19.3
		c0-4.4-0.5-7.1-1.4-8.2c-1.3-1.5-3.3-2.3-6-2.3h-2.6V7h31.7v1.9c-3.7,0-6.3,0.3-7.8,1s-2.5,1.6-3.1,2.7c-0.5,1.1-0.8,3.7-0.8,7.9
		v43.9c0,2.9,0.3,4.8,0.8,5.9c0.4,0.7,1,1.3,1.9,1.6c0.9,0.3,3.5,0.5,8,0.5h5.1c5.4,0,9.1-0.4,11.3-1.2c2.2-0.8,4.1-2.2,5.9-4.2
		C326.2,65,328,61.9,329.8,57.5z"/>
	<path class="st2" d="M345,47.4c0,7,1.7,12.5,5.1,16.5c3.4,4,7.5,6,12.1,6c3.1,0,5.8-0.9,8.1-2.6c2.3-1.7,4.2-4.6,5.7-8.7l1.6,1
		c-0.7,4.7-2.8,9-6.3,12.9c-3.5,3.9-7.8,5.8-13,5.8c-5.7,0-10.5-2.2-14.6-6.6c-4-4.4-6.1-10.4-6.1-17.8c0-8.1,2.1-14.4,6.2-18.9
		s9.3-6.8,15.6-6.8c5.3,0,9.6,1.7,13,5.2s5.1,8.2,5.1,14L345,47.4L345,47.4z M345,44.4h21.9c-0.2-3-0.5-5.2-1.1-6.4
		c-0.9-1.9-2.1-3.4-3.8-4.5s-3.5-1.6-5.3-1.6c-2.9,0-5.4,1.1-7.7,3.3C346.7,37.4,345.4,40.5,345,44.4z"/>
	<path class="st2" d="M396.6,59.7c-2.9-1.4-5.1-3.4-6.6-5.9s-2.3-5.3-2.3-8.4c0-4.7,1.8-8.7,5.3-12.1c3.5-3.4,8-5.1,13.5-5.1
		c4.5,0,8.4,1.1,11.7,3.3h10c1.5,0,2.3,0,2.6,0.1c0.2,0.1,0.4,0.2,0.5,0.4c0.2,0.3,0.3,0.9,0.3,1.6c0,0.9-0.1,1.5-0.3,1.9
		c-0.1,0.2-0.3,0.3-0.5,0.4s-1.1,0.2-2.6,0.2H422c1.9,2.5,2.9,5.6,2.9,9.5c0,4.4-1.7,8.2-5.1,11.3c-3.4,3.1-7.9,4.7-13.6,4.7
		c-2.3,0-4.7-0.3-7.2-1c-1.5,1.3-2.5,2.4-3.1,3.4s-0.8,1.8-0.8,2.5c0,0.6,0.3,1.2,0.9,1.7c0.6,0.6,1.7,0.9,3.3,1.2
		c1,0.1,3.4,0.3,7.2,0.4c7.1,0.2,11.7,0.4,13.8,0.7c3.2,0.4,5.7,1.6,7.7,3.6c1.9,1.9,2.9,4.3,2.9,7.1c0,3.9-1.8,7.5-5.5,10.9
		c-5.4,5-12.4,7.5-21,7.5c-6.6,0-12.2-1.5-16.8-4.5c-2.6-1.7-3.9-3.5-3.9-5.4c0-0.8,0.2-1.6,0.6-2.5c0.6-1.3,1.8-3,3.6-5.3
		c0.2-0.3,2-2.2,5.3-5.6c-1.8-1.1-3-2-3.8-2.9c-0.7-0.8-1.1-1.8-1.1-2.9c0-1.2,0.5-2.6,1.5-4.2C390.8,64.9,393,62.6,396.6,59.7z
		 M396.1,76.9c-1.6,1.8-2.8,3.4-3.7,4.9c-0.8,1.5-1.2,2.9-1.2,4.2c0,1.6,1,3.1,3,4.3c3.4,2.1,8.4,3.2,14.9,3.2
		c6.2,0,10.7-1.1,13.7-3.3s4.4-4.5,4.4-7c0-1.8-0.9-3.1-2.6-3.8c-1.8-0.8-5.3-1.2-10.6-1.3C406.2,77.9,400.2,77.5,396.1,76.9z
		 M405.6,30.7c-2.5,0-4.7,1-6.4,3c-1.7,2-2.6,5.1-2.6,9.3c0,5.4,1.2,9.6,3.5,12.6c1.8,2.3,4.1,3.4,6.8,3.4c2.6,0,4.8-1,6.4-2.9
		s2.5-5,2.5-9.2c0-5.5-1.2-9.7-3.6-12.8C410.6,31.9,408.3,30.7,405.6,30.7z"/>
	<path class="st2" d="M463.5,70.1c-4.8,3.7-7.9,5.9-9.1,6.5c-1.9,0.9-3.8,1.3-5.9,1.3c-3.3,0-6-1.1-8.1-3.4
		c-2.1-2.2-3.2-5.2-3.2-8.8c0-2.3,0.5-4.3,1.5-6c1.4-2.3,3.9-4.5,7.3-6.6c3.5-2.1,9.3-4.6,17.4-7.5v-1.9c0-4.7-0.7-7.9-2.2-9.7
		s-3.7-2.6-6.5-2.6c-2.2,0-3.9,0.6-5.2,1.8c-1.3,1.2-2,2.5-2,4l0.1,3c0,1.6-0.4,2.8-1.2,3.7c-0.8,0.9-1.9,1.3-3.2,1.3
		c-1.3,0-2.3-0.4-3.1-1.3c-0.8-0.9-1.2-2.1-1.2-3.7c0-3,1.5-5.7,4.5-8.1c3-2.5,7.3-3.7,12.7-3.7c4.2,0,7.6,0.7,10.3,2.1
		c2,1.1,3.5,2.7,4.5,5c0.6,1.5,0.9,4.5,0.9,9.1v16c0,4.5,0.1,7.3,0.3,8.3c0.2,1,0.5,1.7,0.9,2c0.4,0.3,0.9,0.5,1.4,0.5
		c0.5,0,1-0.1,1.4-0.4c0.7-0.4,2.1-1.7,4.2-3.8v2.9c-3.9,5.2-7.5,7.7-11,7.7c-1.7,0-3-0.6-4-1.8C464,74.9,463.5,72.9,463.5,70.1z
		 M463.5,66.7v-18c-5.2,2.1-8.5,3.5-10.1,4.4c-2.7,1.5-4.7,3.1-5.8,4.7c-1.2,1.6-1.8,3.5-1.8,5.4c0,2.5,0.7,4.5,2.2,6.2
		c1.5,1.6,3.2,2.4,5.1,2.4C455.8,71.9,459.2,70.2,463.5,66.7z"/>
	<path class="st2" d="M499.8,3.6v62.6c0,3,0.2,4.9,0.6,5.9c0.4,1,1.1,1.7,2,2.2c0.9,0.5,2.6,0.7,5,0.7v1.9h-23.1V75
		c2.2,0,3.6-0.2,4.4-0.7c0.8-0.4,1.4-1.2,1.9-2.2c0.4-1,0.7-3,0.7-5.9V23.3c0-5.3-0.1-8.6-0.4-9.8c-0.2-1.2-0.6-2.1-1.2-2.5
		c-0.5-0.4-1.2-0.7-2-0.7c-0.9,0-2,0.3-3.4,0.8l-0.9-1.8l14.1-5.8L499.8,3.6L499.8,3.6z"/>
</g>
</svg>
