<?xml version="1.0" encoding="utf-8"?>
<!-- Generator: Adobe Illustrator 19.2.1, SVG Export Plug-In . SVG Version: 6.00 Build 0)  -->
<svg version="1.1" id="Capa_1" xmlns="http://www.w3.org/2000/svg" xmlns:xlink="http://www.w3.org/1999/xlink" x="0px" y="0px"
	 viewBox="0 0 512 512" style="enable-background:new 0 0 512 512;" xml:space="preserve">
<style type="text/css">
	.st0{fill:#EA7500;}
	.st1{fill:#FFFFFF;}
	.st2{fill:none;stroke:#EA7500;stroke-width:6;stroke-miterlimit:10;}
	.st3{fill:none;stroke:#7D7B7F;stroke-width:45;stroke-miterlimit:10;}
	.st4{fill:none;}
	.st5{fill:#7D7B7F;}
	.st6{fill-rule:evenodd;clip-rule:evenodd;fill:#7D7B7F;}
</style>
<g>
	<g>
		<path class="st4" d="M15.5,253.3c0,112.7,91.4,204.1,204.1,204.1"/>
		<path class="st0" d="M15.6,261.1l34.9-1.8l0.3,5.8l-34.9,1.8L15.6,261.1z"/>
		<path class="st0" d="M27.4,271.4l1.5,5.5c-4.3,1.3-6.2,3.7-5.7,7.2c0.3,1.7,0.9,3,2,3.9c1.1,0.8,2.3,1.2,3.6,1
			c0.8-0.1,1.4-0.4,1.9-0.8s0.9-1,1.1-1.8s0.6-2.6,1-5.4c0.4-2.6,0.9-4.5,1.6-5.7c0.7-1.3,1.7-2.3,3-3.2c1.3-0.9,2.8-1.5,4.4-1.7
			c1.9-0.3,3.6-0.1,5.3,0.5c1.6,0.6,3,1.6,4,3c1,1.4,1.7,3.2,2,5.4c0.5,3.3,0,6.1-1.5,8.2c-1.5,2.2-3.9,3.5-7.3,4.2l-1.2-5.7
			c1.8-0.5,3-1.3,3.6-2.2c0.6-0.9,0.8-2.2,0.6-3.7c-0.2-1.5-0.7-2.7-1.5-3.4c-0.8-0.7-1.6-1-2.6-0.9c-0.9,0.1-1.7,0.6-2.2,1.5
			c-0.5,0.9-1,2.7-1.3,5.5c-0.4,3-0.9,5.2-1.7,6.6c-0.7,1.4-1.8,2.6-3.1,3.5c-1.3,0.9-3.1,1.5-5.1,1.8c-3,0.5-5.7-0.1-8-1.6
			c-2.3-1.5-3.8-4.3-4.4-8.2C16.3,277.9,19.6,273.4,27.4,271.4z"/>
		<path class="st0" d="M37.6,297.9c4-1.3,7.4-1.8,10.4-1.4s5.4,1.3,7.2,2.7c1.9,1.5,3.2,3.6,4.1,6.3c1.3,3.9,0.8,7.6-1.4,11
			c-2.2,3.4-6,6-11.5,7.8c-5.6,1.8-10.3,1.9-14.3,0.3c-3.5-1.4-5.9-4-7.2-8c-1.3-3.9-0.9-7.5,1.1-10.7
			C28.3,302.3,32.1,299.6,37.6,297.9z M39.7,303.5c-3.8,1.2-6.5,2.9-7.9,5c-1.4,2.1-1.8,4.2-1.1,6.3c0.7,2.2,2.2,3.7,4.6,4.5
			c2.4,0.8,5.5,0.6,9.4-0.7c3.9-1.3,6.5-2.9,7.9-4.9s1.7-4.1,1-6.3c-0.7-2.2-2.3-3.8-4.6-4.6S43.6,302.2,39.7,303.5z"/>
		<path class="st0" d="M52.6,359.8l-5.4,3.1l-9.6-16.7c2.1-1,4.4-1.6,6.8-1.7c2.4-0.1,5.8,0.3,10.3,1.2c3.6,0.7,5.9,1.1,7.1,1.1
			c1.6,0,3.1-0.3,4.3-1.1c1.3-0.8,2.2-1.6,2.5-2.6c0.3-1,0.2-2-0.3-2.9c-1.2-2.1-3.4-2.3-6.7-0.7l-2.1-5.1c3.3-1.5,6-1.9,8.3-1.3
			c2.3,0.6,4.1,2.1,5.5,4.4c1.5,2.6,1.8,5.1,0.9,7.4c-0.9,2.3-2.5,4.1-4.7,5.3c-1.2,0.7-2.5,1.2-3.9,1.6c-1.4,0.3-2.8,0.5-4.4,0.5
			s-3.8-0.3-6.5-0.9c-2.6-0.5-4.3-0.9-5.1-0.9c-0.8-0.1-1.5-0.1-2.2-0.1L52.6,359.8z"/>
		<path class="st0" d="M66.8,379.3l-5,3.7l-11.6-15.4c2-1.2,4.2-2.1,6.5-2.5c2.3-0.4,5.8-0.5,10.4-0.1c3.6,0.3,6,0.4,7.1,0.2
			c1.6-0.2,3-0.7,4.2-1.6c1.2-0.9,1.9-1.9,2.1-2.9c0.2-1,0-2-0.7-2.9c-1.5-1.9-3.7-1.9-6.7,0.1l-2.7-4.8c3-1.9,5.7-2.7,8.1-2.3
			c2.3,0.3,4.3,1.6,6,3.8c1.8,2.4,2.4,4.8,1.7,7.2c-0.6,2.4-2,4.4-4,5.9c-1.1,0.9-2.4,1.5-3.7,2c-1.3,0.5-2.7,0.8-4.3,1
			s-3.8,0.1-6.6-0.1c-2.6-0.2-4.4-0.3-5.2-0.3s-1.5,0.1-2.2,0.2L66.8,379.3z"/>
		<path class="st0" d="M72.4,381.3l4.3,3.3c-1.1,1.2-1.7,2.4-1.8,3.6c-0.1,1.2,0.2,2.1,0.9,2.9c0.8,0.8,1.8,1.1,3.1,1
			s2.6-0.9,3.9-2.1c1.2-1.2,1.9-2.4,2.1-3.6c0.2-1.2-0.1-2.2-0.8-3c-0.5-0.5-1.2-1-2.1-1.5l4.4-3.4c1,1,2,1.6,3.2,1.6
			c1.1,0,2.2-0.4,3.3-1.4c0.9-0.8,1.3-1.7,1.4-2.6c0.1-0.9-0.2-1.7-0.8-2.3c-0.6-0.7-1.5-1-2.5-0.9s-2.2,0.6-3.4,1.5l-2.8-4.4
			c2.7-1.8,5.1-2.7,7.2-2.6c2.1,0.1,4,1,5.6,2.7c1.8,1.9,2.6,4,2.3,6.4c-0.3,2.4-1.2,4.4-2.9,5.9c-1.1,1.1-2.3,1.8-3.7,2.1
			c-1.4,0.3-2.9,0.3-4.5,0c0.8,1.5,1,3.1,0.7,4.8c-0.4,1.7-1.3,3.4-2.9,4.9c-2.3,2.2-4.9,3.4-7.7,3.4c-2.8,0.1-5.2-0.8-7-2.7
			c-1.7-1.8-2.6-4-2.5-6.4S70.4,383.7,72.4,381.3z"/>
		<path class="st0" d="M112.8,384.3c2.2,1.8,3.1,4.2,2.7,7.3c-0.3,3.1-2.6,7.3-6.8,12.4c-4.2,5.1-7.8,8.1-10.8,9.1
			c-3,1-5.6,0.6-7.7-1.2c-2.2-1.8-3.1-4.2-2.7-7.3c0.3-3.1,2.6-7.3,6.8-12.5c4.1-5.1,7.7-8.1,10.7-9.1
			C108.1,382.1,110.6,382.5,112.8,384.3z M109.3,388.6c-0.8-0.7-2-0.7-3.4,0c-1.4,0.7-3.8,3.1-7.2,7.3c-3.4,4.1-5.3,7-5.7,8.5
			c-0.4,1.5-0.2,2.6,0.7,3.3c0.9,0.7,2,0.7,3.4,0c1.4-0.7,3.8-3.1,7.1-7.2c3.4-4.1,5.3-7,5.7-8.5S110.1,389.3,109.3,388.6z"/>
		<path class="st0" d="M114.8,428.5l-4.6-2.9l13.5-21.4c-3,0.9-5.9,1-8.7,0.5l3.2-5.1c1.6,0.3,3.5,0.2,5.8-0.3
			c2.2-0.5,4.2-1.4,5.8-2.8l3.8,2.4L114.8,428.5z"/>
	</g>
	<g>
		<path class="st5" d="M325.5,479.5c-11.8-3.6-14.1-13.7-13.4-24.9h17c0,7.7,0.3,14.2,9.6,14.2c5.7,0,8.5-3.7,8.5-9.1
			c0-14.5-34-15.4-34-39.4c0-12.6,6-22.7,26.6-22.7c16.5,0,24.7,7.4,23.5,24.3h-16.4c0-6.1-1-12.2-7.9-12.2c-5.4,0-8.7,3-8.7,8.6
			c0,15.3,34,14,34,39.3c0,14-6.9,19.7-15.3,22"/>
		<path class="st5" d="M405.5,423.6c0.1-7.5-1.2-14.1-10.1-14.1c-10.5,0-10.5,14.2-10.5,29.9c0,25.2,2.5,29.7,12.1,29.7
			c2.9,0,5.9-0.7,8.4-1.6v-17.9h-9.2v-12.4h26.1v40.9c-1.8,0.4-4.7,0.8-7.9,1.3h-28.9c-15.7-3.9-17.8-16.3-17.8-41
			c0-20.3,1-41,28.7-41c16.5,0,26.8,9.3,25.9,26.1H405.5z"/>
		<path class="st5" d="M454.2,397.5c14.8-0.1,22.8,5.8,24,18.7v5.5h-16.4c0-5.9-1.5-12.2-8.3-12.2c-5.5,0-8.8,3-8.8,8.6
			c0,14.1,29.1,14.1,33.5,34v11.7c-1.8,9.4-7.8,13.7-14.7,15.6h-23.6c-11.7-3.6-14-13.7-13.3-24.9h16.9c0,7.7,0.3,14.2,9.6,14.2
			c5.8,0,8.5-3.7,8.5-9.1c0-14.5-34-15.4-34-39.4C427.6,407.6,433.6,397.6,454.2,397.5"/>
		<polyline class="st0" points="266,479.4 511.4,479.4 511.4,482.7 266,482.7 266,479.4 		"/>
		<rect x="478.1" y="382.6" class="st0" width="3.3" height="116.7"/>
		<path class="st0" d="M206.2,266.6v-59.9l39.9,39.9l90.5-90.5c-0.1,0-0.2-0.1-0.2-0.1c0-0.1,0-0.1-0.1-0.1
			c-23.2-22.9-55.1-37-90.2-37c-71,0-128.5,57.6-128.5,128.6c0,71,57.5,128.6,128.5,128.6c71,0,128.6-57.6,128.6-128.6
			c0-20.3-4.7-39.4-13-56.4L246.1,306.5L206.2,266.6z"/>
		<path class="st6" d="M481.6,364.2V247c0-129.5-104.9-234.4-234.3-234.4c-129.5,0-233.9,100.5-233.9,229.9c0,0.2,46.4,0.2,46.4,0
			c0-103.5,83.9-183,187.5-183c103.5,0,187.5,83.9,187.5,187.5v117.2"/>
		<path class="st1" d="M82.5,138.3c-4,6-8.3,4.8-12.2,1.8l3.3-4.9c2.3,1.5,4.2,2.6,5.9,0c1.1-1.7,0.6-3.2-0.9-4.3
			c-4.2-2.8-11,6.9-17.9,2.2c-3.6-2.4-5.4-6.1-1.4-12c3.1-4.7,6.9-5.7,11.5-2.1l-3.1,4.7c-1.8-1.1-3.7-2.1-5-0.1
			c-1.1,1.6-0.8,3.1,0.8,4.2c4.4,2.9,10.6-7.1,17.9-2.2C87.3,129.7,85,134.6,82.5,138.3"/>
		<polygon class="st1" points="86.8,115.6 68.1,109.3 72.3,104.4 84,108.9 77.9,97.9 81.7,93.3 90.6,111.1 97.9,117.4 94.1,121.8 		
			"/>
		<path class="st1" d="M111.6,103.9c-5.3,5-9.2,2.8-12.3-1l4.3-4c1.8,1.9,3.5,3.5,5.8,1.3c1.5-1.3,1.3-3,0-4.3
			c-3.5-3.7-12.3,4.2-18-1.9c-3-3.2-3.8-7.2,1.4-12c4.2-3.9,8-4,11.6,0.6l-4.2,3.9c-1.4-1.5-3.1-2.8-4.9-1.2
			c-1.4,1.3-1.5,2.8-0.2,4.2c3.6,3.9,11.9-4.5,17.9,2C118.2,96.6,114.8,100.9,111.6,103.9"/>
		<polygon class="st1" points="119.1,61.3 121.9,65 116.7,68.9 130.6,87.5 126,91 112,72.4 106.8,76.3 104,72.6 		"/>
		<polygon class="st1" points="139.1,81.5 124.7,57.6 137.9,49.8 140.1,53.4 132,58.3 135.5,64.1 143,59.7 145.2,63.4 137.8,67.8 
			142,74.9 150.3,69.9 152.4,73.5 		"/>
		<polygon class="st1" points="156.4,71.1 145.4,45.4 154.1,41.7 165.6,57.5 165.6,57.5 162.5,38.2 170.8,34.6 181.8,60.3 
			176.6,62.5 168.1,42.7 168.1,42.7 171.6,64.7 166.4,66.8 153.2,49.1 153.2,49.1 161.7,68.9 		"/>
		<path class="st1" d="M193.8,42.4c-1.6-7.3-3-14.1,6.4-16.2c5.8-1.2,8.8,1.5,9.9,7.4l-5.6,1.2c-0.8-3.6-1.8-4.8-3.4-4.5
			c-3.2,0.7-3,3.8-1.5,10.8c1.5,7,2.6,10,5.8,9.2c2.7-0.5,1.8-4,1.4-6.2l5.6-1.2c1.6,7.3-0.9,10.3-6.2,11.4
			C196.8,56.6,195.4,49.6,193.8,42.4"/>
		<polygon class="st1" points="219.2,51.7 216.3,23.9 231.5,22.3 232,26.6 222.7,27.5 223.3,34.4 232,33.5 232.4,37.8 223.7,38.7 
			224.6,46.8 234.3,45.8 234.7,50.1 		"/>
		<path class="st1" d="M245.6,38.3h1.5c4.5,0.1,4.2,2.9,4.1,6.2c0,1.8-0.2,3.7,0.6,5.4l5.8,0.1c-0.5-1.2-0.6-6.4-0.6-8.2
			c0.1-5-3.7-5.3-5-5.5v0c3.8-0.6,5.2-3.3,5.2-6.9c0.1-4.7-2.5-7.3-6.5-7.3l-10.8-0.1l-0.2,27.9l5.9,0.1L245.6,38.3z M245.7,26.3
			h2.6c1.9,0,3,1.1,3,3.7c0,1.8-0.7,4.1-3,4.1h-2.6V26.3z"/>
		<polygon class="st1" points="282.2,24.5 281.7,29.2 275.2,28.4 272.5,51.5 266.8,50.9 269.4,27.8 262.9,27 263.5,22.4 		"/>
		<polygon class="st1" points="283,53.2 288.5,25.8 294.2,26.9 288.7,54.3 		"/>
		<polygon class="st1" points="294.7,55.6 302.3,28.8 316.3,32.7 315.2,36.8 306.8,34.5 304.9,41.4 312.8,43.6 311.6,47.8 
			303.7,45.5 300.4,57.2 		"/>
		<polygon class="st1" points="312.6,61.1 322.2,34.9 327.7,36.9 318,63.1 		"/>
		<path class="st1" d="M329.6,52.6c3.1-6.7,6.1-13.1,14.9-8.9c5.4,2.6,6.2,6.6,3.4,11.9l-5.2-2.4c1.6-3.3,1.6-4.9,0-5.6
			c-3-1.4-4.7,1.2-7.8,7.6c-3.1,6.5-4,9.4-1,10.9c2.4,1.2,3.8-2.1,4.8-4l5.2,2.5c-3.2,6.8-6.9,7.7-11.9,5.3
			C323.4,65.6,326.5,59.2,329.6,52.6"/>
		<path class="st1" d="M363.9,61L363.9,61l-8.8,8.7l4.7,2.9L363.9,61z M342.3,74.1l21.5-19.5l6.5,4.2l-8.4,27.6l-5.2-3.3l2-6
			l-6.8-4.3l-4.7,4.4L342.3,74.1z"/>
		<polygon class="st1" points="393.4,75.8 390.5,79.5 385.4,75.4 371,93.7 366.4,90.2 380.8,71.8 375.7,67.8 378.6,64.1 		"/>
		<polygon class="st1" points="379,100.6 398,80.1 402.3,84.1 383.3,104.6 		"/>
		<path class="st1" d="M393.7,116.1c6.4,7.2,11.7,2.4,17.2-2.5c5.5-4.9,10.7-9.6,4.3-16.8c-6.5-7.2-11.7-2.5-17.2,2.5
			C392.6,104.1,387.3,108.9,393.7,116.1 M396.9,113.3c-2.2-2.4-0.2-4.8,5.2-9.6c5.3-4.7,7.9-6.5,10.1-4c2.2,2.5,0.2,4.8-5.1,9.6
			C401.7,114,399.1,115.7,396.9,113.3z"/>
		<polygon class="st1" points="404,127.4 427.1,111.6 431.6,118.1 419.8,135.1 419.8,135.2 435.8,124.3 438.9,128.8 415.8,144.6 
			411.5,138.3 424,120.4 424,120.3 407.1,131.9 		"/>
	</g>
</g>
</svg>
