<?xml version="1.0" encoding="utf-8"?>
<svg version="1.1" id="Capa_1" xmlns="http://www.w3.org/2000/svg" xmlns:xlink="http://www.w3.org/1999/xlink" x="0px" y="0px"
	 viewBox="0 0 1155 277" style="enable-background:new 0 0 1155 277;" xml:space="preserve">
<style type="text/css">
	.st0{fill:#ffffff;}
	.st1{fill-rule:evenodd;clip-rule:evenodd;fill:#ffffff;}
	.st2{fill:#ffffff;}
</style>
<path class="st0" d="M356.248,118.139l1.5,0.309l-5.36,17.061h-48.675v-1.679h2.341c2.681,0,4.586-0.866,5.72-2.604
	c0.627-0.977,0.971-3.293,0.971-6.862V83.799c0-3.94-0.439-6.394-1.282-7.393c-1.217-1.35-3.014-2.054-5.409-2.054h-2.341v-1.679
	h28.472v1.679c-3.336,0-5.717,0.303-7.048,0.933c-1.313,0.676-2.241,1.509-2.748,2.48c-0.499,0.989-0.765,3.365-0.765,7.097v39.501
	c0,2.586,0.265,4.316,0.765,5.293c0.356,0.658,0.913,1.122,1.721,1.437c0.779,0.301,3.171,0.439,7.211,0.439h4.609
	c4.813,0,8.202-0.334,10.157-1.028c1.943-0.723,3.741-1.988,5.314-3.78C353.038,124.902,354.621,122.042,356.248,118.139"/>
<path class="st0" d="M388.101,76.099v24.84h13.815c3.571,0,5.993-0.55,7.209-1.62c1.582-1.411,2.489-3.922,2.671-7.498h1.734v21.876
	h-1.734c-0.453-3.089-0.889-5.043-1.303-5.877c-0.528-1.088-1.46-1.966-2.738-2.571c-1.283-0.617-3.195-0.932-5.838-0.932h-13.815
	v20.741c0,2.788,0.128,4.454,0.349,5.058c0.282,0.644,0.712,1.109,1.328,1.45c0.616,0.355,1.787,0.526,3.515,0.526h10.669
	c3.543,0,6.124-0.231,7.751-0.722c1.622-0.505,3.177-1.457,4.636-2.938c1.934-1.916,3.849-4.802,5.849-8.666h1.922l-5.454,15.743
	h-48.473v-1.679h2.227c1.514,0,2.904-0.376,4.206-1.076c1.023-0.505,1.689-1.227,2.029-2.249c0.388-0.977,0.532-2.992,0.532-6.048
	v-40.86c0-3.975-0.383-6.448-1.19-7.368c-1.114-1.245-3.004-1.876-5.578-1.876h-2.227v-1.679h48.473l0.687,13.75h-1.819
	c-0.656-3.281-1.341-5.575-2.124-6.802c-0.804-1.246-1.986-2.171-3.53-2.828c-1.221-0.486-3.392-0.694-6.569-0.694H388.101z"/>
<path class="st0" d="M492.99,71.212l1.627,19.861h-1.627c-1.64-4.965-3.736-8.664-6.37-11.163c-3.68-3.627-8.511-5.444-14.366-5.444
	c-8.042,0-14.135,3.167-18.294,9.531c-3.516,5.313-5.241,11.682-5.241,19.087c0,5.997,1.156,11.455,3.464,16.393
	c2.308,4.98,5.361,8.6,9.107,10.884c3.788,2.321,7.609,3.47,11.607,3.47c2.289,0,4.547-0.309,6.708-0.899
	c2.166-0.57,4.24-1.431,6.26-2.571v-18.198c0-3.121-0.249-5.209-0.721-6.18c-0.485-0.99-1.217-1.724-2.205-2.216
	c-1.023-0.524-2.806-0.774-5.345-0.774v-1.792h24.348v1.792h-1.161c-2.387,0-4.045,0.786-4.938,2.413
	c-0.616,1.13-0.909,3.392-0.909,6.757v19.241c-3.59,1.922-7.081,3.345-10.547,4.223c-3.466,0.899-7.318,1.344-11.539,1.344
	c-12.172,0-21.397-3.901-27.706-11.696c-4.747-5.837-7.079-12.58-7.079-20.209c0-5.524,1.309-10.83,3.986-15.888
	c3.157-6.035,7.487-10.667,12.985-13.9c4.607-2.703,10.045-4.066,16.314-4.066c2.278,0,4.411,0.178,6.227,0.584
	c1.877,0.355,4.541,1.188,7.951,2.439c1.723,0.656,2.909,0.978,3.466,0.978c0.606,0,1.093-0.263,1.565-0.813
	c0.363-0.559,0.64-1.588,0.715-3.188H492.99z"/>
<path class="st0" d="M555.202,114.472h-24.344l-4.269,9.937c-1.035,2.435-1.588,4.271-1.588,5.464c0,0.971,0.437,1.804,1.37,2.54
	c0.912,0.713,2.898,1.2,5.945,1.416v1.679h-19.838v-1.679c2.664-0.46,4.351-1.076,5.097-1.804c1.6-1.521,3.314-4.514,5.271-9.052
	l22.09-51.762h1.648l21.882,52.3c1.732,4.204,3.342,6.953,4.802,8.205c1.42,1.247,3.416,1.975,5.969,2.113v1.679H554.49v-1.679
	c2.482-0.119,4.16-0.552,5.043-1.241c0.893-0.727,1.335-1.593,1.335-2.623c0-1.35-0.65-3.504-1.899-6.454L555.202,114.472z
	 M553.902,111.048l-10.65-25.418l-10.937,25.418H553.902z"/>
<path class="st0" d="M643.202,118.139l1.53,0.309l-5.365,17.061h-48.673v-1.679h2.353c2.653,0,4.57-0.866,5.724-2.604
	c0.629-0.977,0.957-3.293,0.957-6.862V83.799c0-3.94-0.421-6.394-1.279-7.393c-1.242-1.35-3.019-2.054-5.403-2.054h-2.353v-1.679
	h28.476v1.679c-3.325,0-5.707,0.303-7.043,0.933c-1.293,0.676-2.27,1.509-2.773,2.48c-0.489,0.989-0.714,3.365-0.714,7.097v39.501
	c0,2.586,0.225,4.316,0.714,5.293c0.393,0.658,0.926,1.122,1.703,1.437c0.796,0.301,3.215,0.439,7.269,0.439h4.6
	c4.819,0,8.19-0.334,10.099-1.028c1.982-0.723,3.784-1.988,5.376-3.78C639.999,124.902,641.63,122.042,643.202,118.139"/>
<path class="st0" d="M684.553,133.83v1.679h-26.971v-1.679h2.225c2.617,0,4.509-0.769,5.683-2.297
	c0.738-0.963,1.099-3.35,1.099-7.124V83.799c0-3.207-0.21-5.287-0.589-6.328c-0.34-0.754-0.949-1.425-1.916-1.975
	c-1.365-0.748-2.782-1.143-4.276-1.143h-2.225v-1.679h26.971v1.679h-2.26c-2.575,0-4.466,0.769-5.621,2.304
	c-0.776,0.977-1.188,3.377-1.188,7.142v40.611c0,3.195,0.221,5.28,0.617,6.312c0.309,0.779,0.938,1.428,1.934,1.987
	c1.315,0.728,2.748,1.122,4.258,1.122H684.553z"/>
<path class="st0" d="M750.268,72.674l0.662,14.733h-1.751c-0.342-2.583-0.815-4.447-1.392-5.555
	c-0.938-1.804-2.189-3.115-3.798-3.969c-1.633-0.854-3.693-1.299-6.297-1.299h-8.841v48.069c0,3.843,0.4,6.279,1.212,7.223
	c1.194,1.299,3.004,1.954,5.452,1.954h2.177v1.679h-26.649v-1.679h2.225c2.646,0,4.545-0.815,5.642-2.427
	c0.683-0.992,1.027-3.229,1.027-6.751V76.584h-7.561c-2.926,0-5.034,0.229-6.259,0.671c-1.616,0.577-3.006,1.711-4.128,3.384
	c-1.159,1.666-1.817,3.909-2.064,6.769h-1.732l0.73-14.733H750.268z"/>
<path class="st0" d="M797.615,114.472h-24.338l-4.262,9.937c-1.077,2.435-1.575,4.271-1.575,5.464c0,0.971,0.459,1.804,1.359,2.54
	c0.924,0.713,2.878,1.2,5.936,1.416v1.679h-19.811v-1.679c2.61-0.46,4.303-1.076,5.103-1.804c1.576-1.521,3.293-4.514,5.223-9.052
	l22.119-51.762h1.633l21.848,52.3c1.811,4.204,3.386,6.953,4.842,8.205c1.443,1.247,3.437,1.975,6.008,2.113v1.679h-24.834v-1.679
	c2.553-0.119,4.225-0.552,5.091-1.241c0.878-0.727,1.311-1.593,1.311-2.623c0-1.35-0.616-3.504-1.831-6.454L797.615,114.472z
	 M796.328,111.048l-10.679-25.418l-10.914,25.418H796.328z"/>
<path class="st0" d="M874.742,71.212v21.744h-1.719c-0.563-4.178-1.535-7.464-2.992-9.951c-1.416-2.491-3.468-4.44-6.126-5.895
	c-2.689-1.444-5.404-2.16-8.291-2.16c-3.2,0-5.852,0.984-7.951,2.933c-2.112,1.961-3.149,4.192-3.149,6.691
	c0,1.922,0.67,3.66,1.982,5.227c1.916,2.33,6.495,5.425,13.697,9.289c5.876,3.175,9.838,5.581,12.017,7.247
	c2.171,1.712,3.829,3.687,4.978,5.951c1.148,2.328,1.738,4.676,1.738,7.188c0,4.802-1.849,8.862-5.548,12.333
	c-3.714,3.444-8.442,5.161-14.254,5.161c-1.843,0-3.549-0.157-5.15-0.431c-0.958-0.132-2.938-0.709-5.942-1.681
	c-3.044-0.984-4.935-1.468-5.759-1.468c-0.763,0-1.392,0.247-1.813,0.719c-0.457,0.448-0.812,1.398-1.008,2.86h-1.708v-21.56h1.708
	c0.839,4.506,1.874,7.91,3.266,10.153c1.365,2.218,3.437,4.093,6.244,5.563c2.755,1.483,5.831,2.244,9.196,2.244
	c3.858,0,6.901-1.043,9.157-3.055c2.231-2.042,3.359-4.481,3.359-7.245c0-1.546-0.433-3.107-1.273-4.676
	c-0.865-1.601-2.204-3.044-3.987-4.401c-1.206-0.959-4.487-2.913-9.906-5.912c-5.366-3.029-9.196-5.438-11.426-7.236
	c-2.284-1.79-4.041-3.765-5.184-5.916c-1.155-2.177-1.771-4.538-1.771-7.142c0-4.526,1.759-8.411,5.223-11.665
	c3.437-3.26,7.832-4.912,13.158-4.912c3.386,0,6.928,0.84,10.666,2.452c1.693,0.802,2.951,1.188,3.661,1.188
	c0.787,0,1.443-0.25,1.942-0.728c0.539-0.46,0.918-1.45,1.246-2.912H874.742z"/>
<path class="st0" d="M904.338,126.529c1.431,0,2.658,0.518,3.674,1.522c0.963,0.998,1.469,2.223,1.469,3.641
	c0,1.429-0.506,2.629-1.534,3.646c-0.957,1.004-2.217,1.476-3.609,1.476c-1.423,0-2.61-0.472-3.673-1.476
	c-0.983-1.017-1.483-2.217-1.483-3.646c0-1.443,0.5-2.697,1.483-3.681C901.728,127.021,902.915,126.529,904.338,126.529"/>
<path class="st0" d="M981.847,71.212l1.39,21.392h-1.39c-1.942-6.39-4.67-11.001-8.227-13.809c-3.541-2.826-7.82-4.217-12.803-4.217
	c-4.147,0-7.912,1.062-11.31,3.149c-3.372,2.132-6.048,5.522-7.957,10.153c-1.922,4.637-2.892,10.39-2.892,17.271
	c0,5.714,0.904,10.661,2.691,14.813c1.862,4.157,4.616,7.377,8.264,9.575c3.648,2.25,7.858,3.353,12.555,3.353
	c4.075,0,7.687-0.866,10.811-2.619c3.128-1.724,6.532-5.215,10.258-10.409l1.456,0.933c-3.135,5.588-6.809,9.707-11.031,12.273
	c-4.186,2.623-9.19,3.901-14.982,3.901c-10.398,0-18.473-3.85-24.193-11.596c-4.25-5.753-6.415-12.529-6.415-20.308
	c0-6.271,1.429-12.017,4.226-17.277c2.806-5.262,6.676-9.341,11.623-12.227c4.905-2.887,10.312-4.35,16.149-4.35
	c4.539,0,9.052,1.122,13.448,3.365c1.291,0.641,2.217,0.996,2.78,0.996c0.847,0,1.587-0.288,2.204-0.852
	c0.787-0.88,1.377-2.014,1.705-3.509H981.847z"/>
<path class="st0" d="M1027.384,71.213c8.126,0,15.231,3.121,21.213,9.301c5.982,6.204,8.959,13.945,8.959,23.225
	c0,9.539-2.99,17.463-9.052,23.773c-5.994,6.318-13.317,9.458-21.882,9.458c-8.652,0-15.887-3.062-21.818-9.222
	c-5.852-6.147-8.803-14.109-8.803-23.877c0-9.984,3.384-18.137,10.193-24.441C1012.1,73.947,1019.158,71.213,1027.384,71.213
	 M1026.518,74.616c-5.636,0-10.141,2.066-13.553,6.258c-4.223,5.195-6.361,12.784-6.361,22.808c0,10.252,2.189,18.144,6.597,23.686
	c3.366,4.219,7.832,6.324,13.368,6.324c5.891,0,10.76-2.31,14.621-6.929c3.813-4.577,5.74-11.864,5.74-21.782
	c0-10.772-2.087-18.768-6.324-24.067C1037.184,76.716,1032.499,74.616,1026.518,74.616"/>
<path class="st0" d="M1104.734,135.508l-24.284-52.884v42.028c0,3.843,0.406,6.279,1.259,7.223c1.128,1.299,2.938,1.955,5.392,1.955
	h2.217v1.678h-21.87v-1.678h2.205c2.676,0,4.558-0.815,5.666-2.427c0.722-0.992,1.056-3.229,1.056-6.751V83.557
	c0-2.775-0.334-4.789-0.95-6.029c-0.421-0.879-1.233-1.645-2.375-2.25c-1.14-0.61-3.036-0.926-5.6-0.926v-1.678h17.815
	l22.801,49.178l22.46-49.178h17.791v1.678h-2.184c-2.657,0-4.546,0.821-5.689,2.441c-0.695,0.997-1.05,3.254-1.05,6.763v41.095
	c0,3.843,0.46,6.279,1.314,7.223c1.128,1.299,2.965,1.955,5.424,1.955h2.184v1.678h-26.699v-1.678h2.192
	c2.703,0,4.617-0.815,5.693-2.427c0.67-0.992,1.023-3.229,1.023-6.751V82.625l-24.243,52.884H1104.734z"/>
<polygon class="st1" points="49.709,164.024 113.372,164.024 81.325,85.532 "/>
<path class="st1" d="M82.241,189.516c11.314,0,30.455-2.79,32.975-16.319H47.931C51.318,186.726,70.943,189.516,82.241,189.516"/>
<polygon class="st1" points="189.964,85.563 158.286,164.044 221.981,164.084 "/>
<path class="st1" d="M190.896,189.563c11.306,0,30.409-2.811,32.936-16.285l-67.233-0.056
	C159.946,186.773,179.548,189.563,190.896,189.563"/>
<path class="st1" d="M135.779,6.227C62.635,6.172,3.1,65.692,3.072,138.803c-0.015,73.158,59.418,132.69,132.612,132.725
	c73.166,0.013,132.705-59.468,132.766-132.611C268.451,65.807,208.916,6.24,135.779,6.227 M190.896,198.722
	c-18.635,0-46.362-8.026-43.876-31.207L186.1,70.59l-45.814-0.04l-0.028,135.44l55.671,0.032v9.159l-120.465-0.019v-9.215
	l55.621,0.043l0.039-135.44l-46.013-0.055l39.297,96.286c0,0,0.472,2.694,0.14,5.901c-2.418,20.702-24.57,26.025-42.307,26.018
	c-18.703,0-46.358-8.064-43.891-31.239L81.309,61.046l49.855,0.31v-5.127h9.121v5.155l49.476,0.041l43.296,105.409
	c0,0,0.433,2.695,0.04,5.849C230.774,193.406,208.634,198.722,190.896,198.722"/>
<path class="st2" d="M311.558,170.901c0-0.449,0.299-0.749,0.747-0.749h7.33c0.448,0,0.748,0.3,0.748,0.749v49.464
	c0,0.45-0.3,0.749-0.748,0.749h-7.33c-0.448,0-0.747-0.3-0.747-0.749V170.901z"/>
<path class="st2" d="M355.687,221.114c-0.448,0-0.747-0.3-0.747-0.749V199.53c0-4.647-2.319-7.87-6.807-7.87
	c-4.338,0-6.881,3.223-6.881,7.87v20.835c0,0.45-0.299,0.749-0.748,0.749h-6.881c-0.449,0-0.748-0.3-0.748-0.749v-34.624
	c0-0.449,0.299-0.749,0.748-0.749h6.881c0.449,0,0.748,0.3,0.748,0.749v2.622h0.074c1.572-2.247,4.713-4.196,9.499-4.196
	c7.705,0,12.491,5.694,12.491,13.414v22.784c0,0.45-0.299,0.749-0.747,0.749H355.687z"/>
<path class="st2" d="M385.83,221.564c-7.255,0-10.023-3.523-10.023-10.568V191.96c0-0.3-0.149-0.45-0.448-0.45h-2.394
	c-0.449,0-0.748-0.299-0.748-0.749v-5.02c0-0.449,0.3-0.749,0.748-0.749h2.394c0.299,0,0.448-0.15,0.448-0.449v-9.893
	c0-0.449,0.3-0.75,0.748-0.75h6.881c0.448,0,0.748,0.3,0.748,0.75v9.893c0,0.299,0.149,0.449,0.449,0.449h4.786
	c0.449,0,0.748,0.3,0.748,0.749v5.02c0,0.45-0.299,0.749-0.748,0.749h-4.786c-0.3,0-0.449,0.15-0.449,0.45v18.736
	c0,2.548,1.047,3.372,3.366,3.372h1.87c0.449,0,0.748,0.3,0.748,0.75v5.996c0,0.449-0.299,0.75-0.748,0.75H385.83z"/>
<path class="st2" d="M400.041,211.896c-0.748-2.324-1.271-5.097-1.271-8.844c0-3.747,0.449-6.595,1.196-8.918
	c2.02-6.295,7.554-9.966,14.734-9.966c7.405,0,12.791,3.821,14.81,9.966c0.823,2.548,1.197,5.021,1.197,10.867
	c0,0.45-0.299,0.75-0.823,0.75H407.67c-0.299,0-0.449,0.15-0.449,0.449c0,1.049,0.224,1.949,0.524,2.774
	c1.197,3.522,4.039,5.471,8.078,5.471c4.039,0,6.658-1.499,8.452-3.448c0.374-0.375,0.748-0.45,1.122-0.15l4.414,3.897
	c0.373,0.3,0.373,0.675,0.074,1.049c-3.067,3.598-8.152,6.146-14.809,6.146C407.446,221.939,402.061,218.192,400.041,211.896
	 M421.807,195.932c-0.972-2.923-3.665-4.646-7.031-4.646c-3.44,0-6.133,1.723-7.105,4.646c-0.299,0.9-0.449,1.799-0.449,3.073
	c0,0.299,0.15,0.449,0.449,0.449h14.137c0.299,0,0.448-0.15,0.448-0.449C422.255,197.731,422.106,196.832,421.807,195.932"/>
<path class="st2" d="M450.828,221.564c-7.031,0-9.873-3.373-9.873-10.343v-40.32c0-0.45,0.299-0.75,0.747-0.75h6.882
	c0.448,0,0.747,0.3,0.747,0.75v39.87c0,2.473,0.973,3.298,3.142,3.298h1.645c0.449,0,0.748,0.3,0.748,0.75v5.996
	c0,0.449-0.3,0.75-0.748,0.75H450.828z"/>
<path class="st2" d="M465.038,178.171c-0.449,0-0.747-0.3-0.747-0.75v-6.52c0-0.449,0.299-0.749,0.747-0.749h6.882
	c0.448,0,0.747,0.3,0.747,0.749v6.52c0,0.45-0.299,0.75-0.747,0.75H465.038z M465.038,221.114c-0.449,0-0.747-0.3-0.747-0.749
	v-34.624c0-0.449,0.299-0.749,0.747-0.749h6.882c0.448,0,0.747,0.3,0.747,0.749v34.624c0,0.45-0.299,0.749-0.747,0.749H465.038z"/>
<path class="st2" d="M484.261,230.033c-0.3-0.375-0.3-0.675,0.075-1.049l4.413-4.422c0.374-0.374,0.748-0.374,1.122,0
	c2.244,2.174,4.862,3.373,7.853,3.373c5.535,0,8.078-2.998,8.078-8.618v-3.373h-0.075c-1.645,2.548-4.712,4.197-9.35,4.197
	c-6.058,0-10.397-3.073-12.266-8.769c-0.897-2.772-1.197-5.246-1.197-9.218c0-3.972,0.3-6.37,1.197-9.144
	c1.869-5.769,6.208-8.841,12.266-8.841c4.638,0,7.705,1.648,9.35,4.27h0.075v-2.697c0-0.449,0.3-0.749,0.748-0.749h6.88
	c0.449,0,0.748,0.3,0.748,0.749v33.125c0,10.343-5.76,16.563-16.829,16.563C492.338,235.429,487.028,233.331,484.261,230.033
	 M504.979,208.073c0.599-1.648,0.823-3.447,0.823-5.92c0-2.398-0.224-4.197-0.823-5.92c-0.972-2.923-2.992-4.572-6.433-4.572
	c-3.365,0-5.385,1.649-6.357,4.572c-0.599,1.723-0.823,3.522-0.823,5.92c0,2.473,0.224,4.272,0.823,5.92
	c0.972,2.998,2.992,4.648,6.357,4.648C501.987,212.721,504.007,211.071,504.979,208.073"/>
<path class="st2" d="M525.847,211.896c-0.748-2.324-1.271-5.097-1.271-8.844c0-3.747,0.449-6.595,1.197-8.918
	c2.019-6.295,7.554-9.966,14.735-9.966c7.404,0,12.789,3.821,14.809,9.966c0.823,2.548,1.197,5.021,1.197,10.867
	c0,0.45-0.299,0.75-0.823,0.75h-22.214c-0.299,0-0.449,0.15-0.449,0.449c0,1.049,0.225,1.949,0.523,2.774
	c1.197,3.522,4.039,5.471,8.078,5.471c4.039,0,6.657-1.499,8.452-3.448c0.375-0.375,0.748-0.45,1.122-0.15l4.413,3.897
	c0.374,0.3,0.374,0.675,0.075,1.049c-3.066,3.598-8.152,6.146-14.809,6.146C533.252,221.939,527.867,218.192,525.847,211.896
	 M547.613,195.932c-0.972-2.923-3.665-4.646-7.03-4.646c-3.441,0-6.134,1.723-7.106,4.646c-0.299,0.9-0.449,1.799-0.449,3.073
	c0,0.299,0.15,0.449,0.449,0.449h14.137c0.299,0,0.449-0.15,0.449-0.449C548.062,197.731,547.912,196.832,547.613,195.932"/>
<path class="st2" d="M589.723,221.114c-0.449,0-0.748-0.3-0.748-0.749V199.53c0-4.647-2.319-7.87-6.806-7.87
	c-4.339,0-6.881,3.223-6.881,7.87v20.835c0,0.45-0.299,0.749-0.747,0.749h-6.882c-0.448,0-0.747-0.3-0.747-0.749v-34.624
	c0-0.449,0.299-0.749,0.747-0.749h6.882c0.448,0,0.747,0.3,0.747,0.749v2.622h0.075c1.57-2.247,4.712-4.196,9.499-4.196
	c7.704,0,12.49,5.694,12.49,13.414v22.784c0,0.45-0.299,0.749-0.747,0.749H589.723z"/>
<path class="st2" d="M608.497,211.971c-0.747-2.249-1.122-5.097-1.122-8.919c0-3.822,0.374-6.67,1.122-8.919
	c2.094-6.444,7.629-9.966,14.885-9.966c5.385,0,9.649,2.173,12.491,5.619c0.224,0.3,0.299,0.749-0.075,1.049l-4.712,4.122
	c-0.374,0.3-0.748,0.225-1.048-0.15c-1.794-2.023-3.665-3.148-6.656-3.148c-3.216,0-5.684,1.574-6.732,4.722
	c-0.599,1.799-0.747,3.897-0.747,6.67c0,2.773,0.149,4.947,0.747,6.746c1.048,3.073,3.515,4.647,6.732,4.647
	c2.992,0,4.862-1.124,6.656-3.148c0.299-0.375,0.673-0.375,1.048-0.075l4.712,4.122c0.374,0.299,0.299,0.675,0.075,1.049
	c-2.842,3.373-7.106,5.546-12.491,5.546C616.126,221.939,610.591,218.416,608.497,211.971"/>
<path class="st2" d="M647.017,178.171c-0.449,0-0.748-0.3-0.748-0.75v-6.52c0-0.449,0.299-0.749,0.748-0.749h6.881
	c0.449,0,0.747,0.3,0.747,0.749v6.52c0,0.45-0.299,0.75-0.747,0.75H647.017z M647.017,221.114c-0.449,0-0.748-0.3-0.748-0.749
	v-34.624c0-0.449,0.299-0.749,0.748-0.749h6.881c0.449,0,0.747,0.3,0.747,0.749v34.624c0,0.45-0.299,0.749-0.747,0.749H647.017z"/>
<path class="st2" d="M688.453,221.114c-0.449,0-0.748-0.3-0.748-0.749v-2.623h-0.074c-1.721,2.473-5.086,4.197-10.172,4.197
	c-6.582,0-12.117-3.448-12.117-11.017c0-7.87,5.535-11.467,14.436-11.467h7.33c0.299,0,0.449-0.15,0.449-0.449v-1.724
	c0-4.122-1.945-5.995-8.003-5.995c-4.039,0-6.508,1.124-8.228,2.473c-0.374,0.3-0.823,0.224-1.048-0.15l-2.767-4.946
	c-0.224-0.375-0.15-0.749,0.15-0.975c2.917-2.097,6.881-3.521,12.79-3.521c10.995,0,15.034,3.746,15.034,12.589v23.608
	c0,0.45-0.3,0.749-0.748,0.749H688.453z M687.556,208.973V206.2c0-0.299-0.15-0.45-0.449-0.45h-5.984
	c-5.385,0-7.779,1.499-7.779,4.872c0,2.997,2.17,4.496,6.209,4.496C684.714,215.118,687.556,213.095,687.556,208.973"/>
<path class="st2" d="M726.749,170.901c0-0.449,0.3-0.749,0.748-0.749h7.33c0.448,0,0.748,0.3,0.748,0.749v41.819
	c0,0.3,0.149,0.449,0.449,0.449h23.336c0.449,0,0.748,0.3,0.748,0.749v6.445c0,0.45-0.299,0.749-0.748,0.749h-31.863
	c-0.448,0-0.748-0.3-0.748-0.749V170.901z"/>
<path class="st2" d="M768.111,211.896c-0.748-2.324-1.271-5.097-1.271-8.844c0-3.747,0.449-6.595,1.197-8.918
	c2.019-6.295,7.554-9.966,14.734-9.966c7.405,0,12.79,3.821,14.809,9.966c0.823,2.548,1.197,5.021,1.197,10.867
	c0,0.45-0.299,0.75-0.823,0.75h-22.214c-0.3,0-0.449,0.15-0.449,0.449c0,1.049,0.224,1.949,0.523,2.774
	c1.196,3.522,4.039,5.471,8.078,5.471c4.039,0,6.657-1.499,8.452-3.448c0.374-0.375,0.747-0.45,1.122-0.15l4.413,3.897
	c0.374,0.3,0.374,0.675,0.075,1.049c-3.066,3.598-8.152,6.146-14.809,6.146C775.516,221.939,770.131,218.192,768.111,211.896
	 M789.877,195.932c-0.972-2.923-3.665-4.646-7.031-4.646c-3.44,0-6.133,1.723-7.105,4.646c-0.3,0.9-0.449,1.799-0.449,3.073
	c0,0.299,0.149,0.449,0.449,0.449h14.136c0.3,0,0.448-0.15,0.448-0.449C790.325,197.731,790.176,196.832,789.877,195.932"/>
<path class="st2" d="M808.426,230.033c-0.3-0.375-0.3-0.675,0.075-1.049l4.413-4.422c0.374-0.374,0.747-0.374,1.122,0
	c2.244,2.174,4.861,3.373,7.854,3.373c5.534,0,8.078-2.998,8.078-8.618v-3.373h-0.075c-1.646,2.548-4.712,4.197-9.349,4.197
	c-6.059,0-10.396-3.073-12.267-8.769c-0.897-2.772-1.196-5.246-1.196-9.218c0-3.972,0.299-6.37,1.196-9.144
	c1.871-5.769,6.208-8.841,12.267-8.841c4.637,0,7.704,1.648,9.349,4.27h0.075v-2.697c0-0.449,0.299-0.749,0.747-0.749h6.881
	c0.449,0,0.748,0.3,0.748,0.749v33.125c0,10.343-5.759,16.563-16.829,16.563C816.504,235.429,811.193,233.331,808.426,230.033
	 M829.145,208.073c0.598-1.648,0.823-3.447,0.823-5.92c0-2.398-0.225-4.197-0.823-5.92c-0.972-2.923-2.992-4.572-6.432-4.572
	c-3.367,0-5.386,1.649-6.358,4.572c-0.598,1.723-0.823,3.522-0.823,5.92c0,2.473,0.225,4.272,0.823,5.92
	c0.972,2.998,2.992,4.648,6.358,4.648C826.153,212.721,828.173,211.071,829.145,208.073"/>
<path class="st2" d="M872.152,221.114c-0.448,0-0.748-0.3-0.748-0.749v-2.623h-0.075c-1.72,2.473-5.086,4.197-10.171,4.197
	c-6.582,0-12.117-3.448-12.117-11.017c0-7.87,5.535-11.467,14.435-11.467h7.33c0.299,0,0.449-0.15,0.449-0.449v-1.724
	c0-4.122-1.945-5.995-8.004-5.995c-4.039,0-6.507,1.124-8.227,2.473c-0.374,0.3-0.823,0.224-1.048-0.15l-2.767-4.946
	c-0.224-0.375-0.149-0.749,0.15-0.975c2.917-2.097,6.881-3.521,12.79-3.521c10.996,0,15.034,3.746,15.034,12.589v23.608
	c0,0.45-0.3,0.749-0.748,0.749H872.152z M871.255,208.973V206.2c0-0.299-0.15-0.45-0.449-0.45h-5.983
	c-5.385,0-7.779,1.499-7.779,4.872c0,2.997,2.169,4.496,6.208,4.496C868.413,215.118,871.255,213.095,871.255,208.973"/>
<path class="st2" d="M900.949,221.564c-7.031,0-9.873-3.373-9.873-10.343v-40.32c0-0.45,0.3-0.75,0.748-0.75h6.881
	c0.449,0,0.748,0.3,0.748,0.75v39.87c0,2.473,0.971,3.298,3.142,3.298h1.645c0.449,0,0.748,0.3,0.748,0.75v5.996
	c0,0.449-0.299,0.75-0.748,0.75H900.949z"/>
</svg>
