<?xml version="1.0" standalone="no"?>
<!DOCTYPE svg PUBLIC "-//W3C//DTD SVG 20010904//EN"
 "http://www.w3.org/TR/2001/REC-SVG-20010904/DTD/svg10.dtd">
<svg version="1.0" xmlns="http://www.w3.org/2000/svg"
 width="253.000000pt" height="290.000000pt" viewBox="0 0 253.000000 290.000000"
 preserveAspectRatio="xMidYMid meet">
<g transform="translate(0.000000,290.000000) scale(0.100000,-0.100000)"
fill="#cccccc" stroke="none">
<path d="M995 2352 c-149 -46 -355 -159 -348 -191 2 -5 -3 -8 -10 -5 -16 6
-101 -81 -93 -95 4 -6 1 -11 -6 -11 -23 0 -86 -107 -123 -210 -52 -146 -79
-384 -57 -502 23 -119 134 -327 168 -314 7 3 11 0 8 -7 -2 -7 11 -27 30 -45
35 -33 53 -42 40 -19 -5 8 -3 8 9 -2 9 -7 15 -17 12 -21 -8 -12 23 -33 36 -24
7 4 9 3 5 -4 -3 -6 13 -23 36 -39 65 -44 72 -47 64 -35 -4 7 3 9 21 6 45 -8
63 -15 63 -25 0 -14 -18 -11 -45 7 -14 9 -25 12 -25 7 0 -17 64 -41 87 -32 13
5 22 5 21 1 -2 -4 6 -17 17 -29 22 -26 168 -78 191 -69 8 3 13 2 10 -2 -3 -5
45 -20 107 -35 99 -23 144 -31 277 -52 85 -13 443 -25 533 -17 54 4 96 4 94
-1 -1 -5 -44 -27 -95 -50 -50 -22 -90 -43 -88 -45 3 -2 15 1 28 8 22 11 22 10
4 -4 -11 -9 -28 -14 -38 -10 -27 8 -41 -5 -26 -24 11 -15 11 -15 -4 -4 -14 11
-27 7 -86 -25 -39 -21 -68 -41 -66 -45 3 -4 -1 -5 -9 -2 -8 3 -20 -2 -27 -11
-9 -11 -9 -15 -1 -15 7 0 9 -5 5 -11 -4 -8 -9 -7 -15 2 -6 11 -14 8 -34 -11
-44 -41 -51 -61 -27 -81 12 -9 18 -19 15 -23 -4 -3 1 -6 10 -6 9 0 17 -6 17
-12 1 -7 11 -1 23 13 12 14 53 49 90 78 59 46 66 55 55 70 -12 14 -11 14 4 3
20 -16 63 1 52 20 -4 6 -3 9 2 6 5 -3 20 -2 33 3 23 9 24 10 5 25 -18 14 -18
15 4 4 25 -12 42 -8 117 26 28 12 74 30 104 39 40 13 50 20 40 27 -11 8 -10 9
4 4 9 -3 27 -2 40 3 96 38 105 43 120 82 20 52 24 49 -163 119 -47 17 -97 38
-113 46 -15 9 -32 12 -39 8 -6 -4 -8 -3 -5 2 3 6 -15 21 -41 34 -45 24 -121
73 -171 111 -13 10 -28 16 -35 12 -6 -3 -8 -2 -3 2 8 9 -20 45 -36 45 -6 0 -2
-10 9 -22 l19 -23 -23 19 c-12 11 -20 21 -17 24 9 9 -17 32 -28 25 -6 -3 -7
-1 -3 5 3 6 -2 16 -12 21 -15 8 -25 4 -48 -20 l-29 -30 56 -52 c79 -72 101
-88 117 -82 7 2 10 1 7 -5 -3 -5 9 -17 27 -26 18 -9 45 -26 60 -37 14 -11 31
-16 37 -12 6 3 10 1 9 -5 -2 -7 32 -30 74 -53 43 -22 75 -44 71 -50 -9 -14
-421 -2 -568 18 -212 28 -444 83 -551 130 -16 8 -60 28 -97 44 -36 16 -98 50
-136 75 -39 25 -75 46 -82 46 -7 0 -9 3 -6 6 10 10 -34 45 -46 37 -5 -3 -7 -2
-4 4 4 6 -6 21 -21 34 -20 19 -23 19 -12 4 12 -17 12 -18 0 -7 -8 7 -15 20
-15 30 0 9 -6 16 -12 15 -7 -2 -12 0 -11 5 1 4 -7 24 -17 45 -14 27 -21 34
-28 25 -6 -9 -7 -8 -3 5 7 23 -3 49 -17 40 -5 -3 -7 -1 -4 5 4 5 -1 39 -10 74
-27 100 -24 329 5 433 22 77 61 162 90 197 8 9 11 22 7 28 -3 6 -3 9 2 8 10
-3 130 122 125 129 -2 3 0 8 4 11 4 4 4 1 0 -5 -10 -19 2 -16 30 6 13 10 20
22 16 26 -4 5 -1 5 6 1 16 -10 88 34 72 44 -8 5 -7 9 5 13 11 5 14 3 9 -5 -5
-7 -2 -9 7 -5 8 3 55 24 104 45 50 22 116 45 147 51 59 13 79 25 54 34 -8 3
-16 16 -18 29 -4 31 -19 31 -123 0z"/>
</g>
</svg>
