<?xml version="1.0" encoding="utf-8"?>
<!-- Generator: Adobe Illustrator 22.1.0, SVG Export Plug-In . SVG Version: 6.00 Build 0)  -->
<svg version="1.1" id="Capa_1" xmlns="http://www.w3.org/2000/svg" xmlns:xlink="http://www.w3.org/1999/xlink" x="0px" y="0px"
	 viewBox="0 0 1426.1 662.3" style="enable-background:new 0 0 1426.1 662.3;" xml:space="preserve">
<g transform="translate(0.000000,2840.000000) scale(0.100000,-0.100000)">
	<path d="M3302.1,28397.7c-243.3-5.8-454.5-23.4-600.5-49.8c-1074.9-194-1980.2-909.9-2423.2-1916.4
		c-153.5-349.1-244.9-723.7-272.7-1118.1c-7-100.7-7.7-335.6-1.2-433.5c9.1-136.9,26.4-276.7,49.8-404.3
		c220.6-1196.6,1078.4-2174.6,2231.4-2543.3c328.3-105.2,538.9-137.2,1002.5-152.6c70.8-2.3,872.3-3,3954.9-3h3866.1l92.3,7.5
		c176.9,14.7,345.1,40.4,503.6,77.6c1284.7,299.6,2273.9,1342,2504.8,2639.6c117.3,659,33.2,1341.8-239.5,1946.3
		c-448.2,993.1-1359.5,1705.4-2428.3,1897.7c-171.5,30.8-343,47.9-533.2,52.6C10890,28400.7,3422.5,28400.7,3302.1,28397.7z
		 M3555.7,28102.3c453.8-34.3,884.2-166.1,1274.7-389.8c552.2-316.4,993.3-802.2,1254.4-1381.5
		c144.4-320.6,229.2-655.5,257.7-1018.8c5.8-74.1,6.3-89,6.3-219.7c0-130.6-0.5-145.6-6.3-219.7c-8.2-104.7-22-213.1-39.3-310.8
		c-219.9-1240.8-1199-2219.9-2440.3-2440.5c-97.7-17.3-203.3-30.6-309.6-39c-75.5-6.1-89.5-6.5-220.8-6.5
		c-131.3,0-145.3,0.5-220.8,6.5c-314.5,24.8-609.4,92.1-889.1,203.1c-923.2,366.2-1610,1165.1-1831.5,2130.4
		c-33.4,145.3-56.1,294.7-68.5,452.2c-6.1,74.8-6.3,88.1-6.3,224.3s0.2,149.6,6.3,224.3c12.6,158.7,36.5,315.7,70.1,460.6
		c272.2,1169.8,1221.2,2072.5,2402.4,2285.1c129.5,23.4,288.6,40.9,411.3,45.6c25.7,1.2,97.2,1.4,158.9,0.9
		C3457.1,28108.4,3491.4,28107.2,3555.7,28102.3z M11006.4,28101.2c51.4-1.4,128.3-5.1,170.6-8.4c496.8-37.4,974.7-197,1393.9-465.5
		c798-511.5,1311.4-1364.9,1384.5-2302.2c63.3-810.4-198.6-1603.5-732.3-2215.9c-560.1-642.6-1356.9-1017.2-2204.9-1036.1
		c-43.7-1.2-1475.4-1.4-3181.5-0.7l-3101.8,1.2l40.7,19.4c238.1,113.8,487.9,275.7,697,451.9c141.4,119.2,285.5,263.4,405,405
		c406.8,482.3,668.1,1072.1,751,1696.5c32,241.2,37.2,500.1,15,744.3c-47.4,521.8-217.1,1020.9-497.5,1465.1
		c-304.5,481.8-732.1,881.9-1233.8,1153.9c-18,9.8-66.8,34.8-108.7,55.8l-75.9,37.9l3092.7,0.2
		C9927.5,28103.5,10942.6,28102.8,11006.4,28101.2z"/>
	<path d="M2534.5,27153.6V26601h49.8h49.5l12.9,29l12.6,29l13.1-8.6c58-39.7,122-61,195.8-65.4c70.1-4.2,136,7.5,180.2,31.8
		c70.6,39,114.7,110.5,133.2,215.7c7.7,44.2,10,75.2,10,136.7c0,73.6-4.9,123.8-17.3,172.9c-28.3,113.6-90,180.2-190,205.2
		c-46.3,11.7-117.3,11.4-168.5-0.5c-35.3-8.4-67.1-19.9-93.5-34.4c-10.5-5.6-19.6-10.3-20.6-10.3c-0.7,0-1.4,90.9-1.4,202.1v202.1
		h-83h-83V27153.6z M2878.7,27213.2c87.4-8.4,129.9-58.7,141.8-167.1c4-36.2,3.3-126.2-1.2-161.5c-8.6-66.4-29.7-109.6-65.9-134.6
		c-27.6-18.7-75-27.8-122.7-22.9c-42.5,4.2-68.9,11.7-110.1,30.8l-20.3,9.6l0.5,202.4l0.7,202.4l11.7,6.3
		c32,17.3,79.2,31.3,116.8,34.3c12.9,0.9,23.8,2.1,24.5,2.1C2855.3,27215.3,2866.1,27214.4,2878.7,27213.2z"/>
	<path d="M3923.2,27660.7c-36.7-10-66.6-38.3-76.9-73.1c-5.4-18.7-4.9-49.3,1.2-66.4c21.7-61.7,89.7-90.4,148.9-62.9
		c66.8,31.3,82.7,121,30.6,173.4C3999.4,27659,3959.2,27670.3,3923.2,27660.7z"/>
	<path d="M3472.7,27352.9c-82.5-9.1-153.3-43.5-190.2-92.1c-39.3-52.1-53.3-127.6-37.6-202.1c12.4-58.4,47.4-96.7,111-121
		c37.9-14.7,78-23.1,144.9-30.6c48.6-5.6,62.4-7.9,81.8-14.7c24.5-8.2,39.5-20.8,48.4-40.2c7.7-16.8,7.5-50.7-0.2-68.5
		c-14.7-33.4-55.4-51.2-129.2-56.8c-75-5.4-159.4,6.5-240,34.1c-9.6,3.3-17.8,5.8-18.2,5.8s-0.7-32.5-0.7-72.2v-72l22-7.5
		c53-17.5,110.5-27.1,182.7-30.4c197.5-9.1,314.5,48.8,347,171.8c6.1,23.6,8.6,81.8,4.7,111.9c-3.3,23.8-13.1,55.1-22.7,72.4
		c-9.1,16.4-36.5,43-54.7,53.7c-43,24.8-99.5,39.5-189.3,49.1c-66.4,7-97.2,16.6-114.3,35.3c-17.1,18.2-20.8,49.1-10.3,79
		c8.6,23.8,35.8,43.5,72,51.9c27.1,6.3,111,5.8,154.7-1.2c34.8-5.4,76.2-15.4,106.8-25.9c11.7-3.7,22.4-7,24.1-7c2.3,0,3,14,3,72v72
		l-23.8,8.4c-55.1,19.4-116.6,27.8-199.3,27.3C3515.7,27355.3,3483,27354.1,3472.7,27352.9z"/>
	<path d="M3867.2,27038.6c0.7-298.2,0.7-301.2,5.8-320.8c16.4-65.9,54.4-103.8,119.6-119.6c20.6-4.9,84.6-8.6,96.7-5.6l6.1,1.4v67.3
		v67.3l-17.3,2.6c-22,3-32.2,9.3-39.3,23.6l-5.4,11l-0.7,287l-0.7,286.7h-83h-83L3867.2,27038.6z"/>
	<path d="M4227.5,26795.2c-20.1-7.2-30.1-13.6-43.5-26.6c-57-57-34.6-152.8,41.8-179.5c17.3-6.1,48.8-6.5,65.9-0.9
		c34.8,11.4,61.5,38.3,71.7,72c5.1,16.8,5.1,48.6-0.2,64.3c-11.9,35.3-36.9,60.1-71.3,70.6C4273,26801,4243.8,26801,4227.5,26795.2z
		"/>
	<path d="M2532.2,26352.8c-460.6-24.1-836.3-375.7-881-824.4c-2.6-25-4.7-47-4.7-48.4c0-2.3,340.2-3,1693-3h1693v5.4
		c0,2.8-2.1,25.2-4.7,49.5c-41.1,414.3-365.5,751.7-780.5,812c-264.8,38.6-523.2-32.7-724.4-199.6
		c-57.5-47.7-119.9-115.2-160.1-172.7c-7.7-11-14.7-20.1-15.4-20.3c-0.7,0-7.5,8.6-15,19.4c-63.3,88.8-147,170.3-236.7,230.4
		C2932,26311,2736.2,26363.6,2532.2,26352.8z"/>
	<path d="M1682.5,25204.5c5.1-13.1,317.8-542.4,1038.9-1758.2c531.1-895.2,616.4-1038.4,618.5-1039.1
		c2.1-0.7,405.9,681.6,1174.9,1985.5c354.5,601,477.9,811.3,477.9,814.1c0,0.7-745.2,1.4-1655.8,1.4
		C1838.4,25208.3,1681.1,25208,1682.5,25204.5z"/>
	<path d="M7502.4,27449.2c-105.6-9.6-177.1-57-205.2-136.2c-8.4-23.8-8.4-23.8-8.4-64.7c-0.2-36,0.5-43,5.4-59.6
		c14.5-49.8,45.8-87.2,97.2-116.1c25.9-14.5,57.7-27.1,110.5-43.7c24.8-7.7,52.6-16.8,61.7-20.1c81.6-29.4,109.4-58.2,109.4-113.1
		c0-68.9-46.7-107.3-142.3-117.1c-45.8-4.4-103.5-1.9-181.1,8.4c-24.3,3-44.4,5.4-44.6,5.1c-0.7-1.4-12.9-87.2-12.9-91.8
		c0-4.4,3-5.4,32.2-10c133.4-21.3,237.6-21.7,308.4-1.4c11.2,3.3,31.1,11,43.9,17.3c31.3,15.2,61.7,42.5,80.1,72
		c24.8,39.7,35.8,90.9,30.8,143c-7,70.8-38.6,118.9-101.9,154.7c-28.5,16.4-47.9,23.8-122.7,48.6c-37.9,12.4-78,26.9-89,32.2
		c-46.7,22.4-66.8,46.7-71,85.8c-4.9,47.9,22.2,82.3,76.4,96.7c47.9,12.9,132,11.9,228.3-2.1c17.3-2.6,31.8-4.4,32.2-4
		c1.4,1.4,15,93.5,13.8,94.4c-2.1,2.1-81.1,14.7-114,18.2C7596.8,27450.1,7531.4,27451.8,7502.4,27449.2z"/>
	<path d="M8148.5,27449c-186.7-17.5-276.9-143.5-276.9-386.5c0-185.1,52.1-301.2,158.9-355.2c76.6-38.8,210.1-44.6,301.4-13.3
		c128.3,43.9,191.6,165.7,191.6,368.5c0,167.1-44.6,282.5-130.9,338.8C8331.7,27441.3,8245.3,27458.1,8148.5,27449z M8250.2,27344.1
		c76.9-16.4,120.1-59.6,141.4-141.8c10.7-41.4,13.8-71.5,13.8-139.7c0-84.4-6.5-129.9-25.7-176c-30.8-74.5-89.7-110.3-182-110.3
		c-92.3,0-152.1,36.5-182.7,111c-18,44.4-25.2,94.2-25.2,175.3s7.2,130.9,25.2,175.3c26.2,63.8,70.1,97.2,143.2,108.7
		C8175.6,27349,8233.4,27347.8,8250.2,27344.1z"/>
	<path d="M7042.1,27062.5v-377.4h57.3h57.3v377.4v377.4h-57.3h-57.3V27062.5z"/>
	<path d="M7208,26281.8c-63.6-7.5-118-20.3-163.8-38.6c-16.6-6.8-30.1-12.6-30.1-13.6c0-0.9,30.1-88.3,31.5-90.7
		c0-0.2,10,3,22.2,7.5c50,17.8,106.3,29.9,151.9,32.5c58.4,3.5,107.7-11.7,134.1-40.9c18.2-20.3,29.4-50.2,29.4-78
		c-0.5-104.5-82.3-211.7-323.6-424.6l-30.4-26.6l-0.7-46l-0.5-46h241.9h241.9v51.4v51.4l-164.7,0.5l-164.7,0.7l46,40
		c151.2,130.9,222.5,216.4,254.7,305.4c32.5,90.2,17.1,188.3-38.6,245.4c-44.4,45.6-104.7,68-188.6,70.1
		C7234.2,26282.2,7212.4,26282.2,7208,26281.8z"/>
	<path d="M7827.2,26281.8c-72.2-8.9-121.3-21-173.6-43c-22-9.1-21.7-3.5-1.6-60.1l14.5-40l21.3,7.7c28.7,10.3,69.2,21,103.3,27.1
		c40,7.2,93,7.2,119.2,0c25.2-6.8,41.6-15.4,57.7-30.1c29.9-27.8,40.7-64,33.4-112.9c-14.3-94.4-103.1-203.8-319.7-393.5l-32-28v-46
		v-46.3h240.7H8131v51.4v51.4l-164.5,0.5l-164.5,0.7l22.4,18.9c128.5,108.2,211.7,197,253.1,270.1c32.9,58.4,47.2,118,41.8,174.6
		c-11.9,123.8-98.1,193.5-244.4,197.5C7853.2,26282.2,7831.7,26282.2,7827.2,26281.8z"/>
	<path d="M8409.1,26279.9c-57.3-7.5-114.5-22.7-159.6-43c-16.6-7.2-16.8-2.8,3-58.2l14.5-40l22,7.9c72.9,26.4,157.5,38.8,207,30.4
		c35.3-5.8,64.5-24.1,76.6-48.1c7.7-15,11.7-35.8,11.7-60.8c0-58.9-20.6-90-68.7-103.8c-16.1-4.7-61.9-8.2-108.2-8.4H8374v-47.9
		v-47.9h32.2c47.9-0.2,97.4-4,117.5-9.1c54-13.8,75.7-46,75.5-111.2c-0.2-83.9-32.5-119.6-116.6-129.5c-47-5.6-142.5,0-218.5,12.9
		l-8.2,1.4l-6.5-45.3c-3.5-24.8-6.5-46.7-6.3-48.8c0-3,6.3-4.7,31.1-8.6c161.7-26.4,271.8-21,344,16.6c27.1,14.3,58.4,46,72.2,73.6
		c14.3,28.5,22,58.9,25,98.6c5.6,72.9-9.1,123.6-49.1,166.8c-9.8,10.8-39,30.4-50.5,34.1c-4.4,1.4-8.2,3.5-8.2,4.2
		c0,0.9,6.5,5.4,14.5,9.8c8.2,4.4,22.2,15.7,31.3,24.8c13.1,12.9,18.9,21,27.6,38.6c16.6,33.9,18.9,45.6,18.7,92.1
		c0,36-0.7,41.8-6.3,60.5c-20.6,69.2-73.8,115.2-154.2,133.2C8505.8,26282.2,8446,26284.6,8409.1,26279.9z"/>
	<path d="M9056.4,26280.8c-62.2-6.5-112.2-27.8-145.1-61.9c-34.8-36-53.5-74.5-67.5-140.2c-10.7-50.2-14-93.9-14-184.8
		c0-112.9,7.7-177.6,28.5-236.9c22.7-64.5,64-109.4,121-131.8c65.9-25.9,176-26.2,243-0.5c107,40.7,151.9,149.8,151.9,369.4
		c0,208.7-39.5,315.5-133.7,361.7c-20.3,10-50.5,18.9-75.7,22.7C9139.8,26282,9080.7,26283.4,9056.4,26280.8z M9151,26176.9
		c23.8-6.3,42.5-16.4,56.8-30.8c38.8-39,51.9-102.8,51.9-251.9c0-149.8-13.3-213.3-52.3-252.6c-25.5-25.5-47.9-33.7-97.2-35.3
		c-40.2-1.4-59.6,1.9-86,14.5c-31.5,15-52.6,42.1-64.5,83.7c-12.9,44.4-14.3,62.6-14.3,189.7c0,127.1,1.4,145.3,14.3,189.5
		c6.8,24.1,11.2,32.9,25,51.4c18,23.8,47,39.5,83.4,45.1C9088.1,26183.2,9133.5,26181.5,9151,26176.9z"/>
	<path d="M9527.7,26223.1c-54.9-26.4-99.8-49.3-99.8-50.9c0-3,30.1-71.5,32.7-74.3c1.2-1.4,104.7,36.5,152.6,55.6
		c3.7,1.6,4-14.5,4-317.6v-319.2h57.3h57.3v377.4v377.4h-52.1h-51.9L9527.7,26223.1z"/>
	<path d="M8789.5,25223c-46-83.4-54.9-100.2-54-101.6c0.5-1.2,9.1-8.2,19.2-15.7l18-13.8l48.6,47.2l48.6,47l-11.2,8.4
		c-6.3,4.7-22.2,17.1-35.3,27.6l-23.8,18.9L8789.5,25223z"/>
	<path d="M7169.7,25212.7c-39.3-4.4-79.4-19.9-103.1-39.5c-53.3-44.4-79.2-126.7-75.2-238.3c2.3-58.9,9.8-98.6,25.5-135.1
		c26.6-61.7,71.7-94.6,140.7-103.3c64.5-8.2,152.8,9.3,200.3,39.7l11.5,7.5v111.9v111.9h-47.9h-47.9v-88.8v-88.6l-8.6-2.6
		c-4.9-1.4-23.6-3.3-41.6-4c-50.7-1.9-76.2,5.8-98.6,30.6c-14.3,15.4-24.3,38.1-30.1,68c-5.4,25.7-6.1,114.3-1.4,139
		c7.2,36.7,21.3,66.4,38.6,80.2c12.6,10.5,20.6,14.3,39,19.4c20.3,5.8,97.9,5.8,140,0.2c16.1-2.1,29.4-3.5,29.9-3
		c1.6,1.6,10.5,76.2,9.3,79.2c-1.4,3.5-43.7,11-88.6,15.7C7235.3,25215.5,7193.5,25215.5,7169.7,25212.7z"/>
	<path d="M8473.1,25204.8c-20.3-10.5-31.1-32.9-26.4-55.4c2.1-9.1,5.1-14.3,12.6-22c11.2-11.2,20.1-13.8,38.8-12.2
		c20.8,2.1,39.5,23.4,39.5,45.1c0,13.6-9.8,32-21.3,40C8504.6,25208.5,8484.3,25210.4,8473.1,25204.8z"/>
	<path d="M9811.1,25134.4c0-62.4-0.5-71.3-3.5-70.1c-1.9,0.7-15.2,3-29.7,5.1c-44.4,6.5-86.5,1.2-113.1-14.5
		c-14-8.2-32-28.3-40.7-45.3c-25-49.5-31.1-157.5-12.6-221.5c15.4-53,43.9-80.4,94.2-90.7c36-7.2,77.3,0,108.7,18.9
		c7.5,4.4,14,7.9,14.3,7.7c0.2-0.5,2.3-5.6,4.7-11.7l4.2-11.2h32.2h32.5v252.4v252.4h-45.6h-45.6V25134.4z M9803.6,24984.9l7.5-1.4
		v-101.4v-101.2l-12.2-3.7c-6.8-1.9-21.3-4.2-32.2-5.1c-55.6-4-72.4,20.6-72.4,105.6c0,50.9,6.1,80.4,19.4,95.6
		c11.4,13.1,21.3,15.9,54.2,14.5C9783.3,24987,9799.4,24985.8,9803.6,24984.9z"/>
	<path d="M10556.5,24953.6v-252.4h45.6h45.6v252.4v252.4h-45.6h-45.6V24953.6z"/>
	<path d="M8184,25138.9c-0.9-14-2.3-37.4-3-52.3l-1.6-27.1l-15.4-1.6c-8.4-0.7-21.5-1.4-28.7-1.4h-13.6v-35.1v-35.1h26.9h26.6
		l0.7-109.1c0.7-96,1.4-110.8,4.9-121.5c8.6-25.7,26.6-44.6,52.3-54.7c11.5-4.4,18-5.4,42.8-5.4c29.9,0,43.2,2.3,70.3,12.4
		c22.9,8.6,22.7,6.1,6.8,44.6c-15.2,37.6-13.1,35.8-36.2,29.4c-26.2-7-42.8-3.5-47.7,10.5c-1.6,4.9-2.6,38.6-2.6,100.5v93.2h46.7
		h46.7v38.6v38.6h-46.7h-46.7v50.2v50.2h-40.7h-40.4L8184,25138.9z"/>
	<path d="M7575.6,25070.2c-30.1-5.1-60.3-21.5-80.1-43.7c-36.9-41.6-54.4-118.7-43.2-192.5c7.9-52.3,28.7-90.4,62.2-113.3
		c44.9-30.8,120.1-34.3,198.4-9.6c12.2,3.7,23.1,7.9,24.3,8.9c0.9,0.9-2.1,18.5-6.8,38.6c-8.4,34.3-9.1,36.5-13.8,35.1
		c-17.3-5.1-62.2-13.1-81.3-14.5c-57.3-3.7-83.7,13.8-92.1,60.8l-1.4,8.6h98.1h98.1l1.2,5.4c7.2,28.7,7.5,86.7,0.5,116.1
		C7722.1,25042.8,7655.5,25083.5,7575.6,25070.2z M7632.6,24986.5c15.4-7.7,26.4-32,26.4-57.5v-8.2h-58.2h-58l2.1,12.4
		c1.2,6.5,5.1,18.7,9.1,26.6c11.2,23.6,29.4,34.1,54.7,32.7C7616.9,24991.9,7627,24989.6,7632.6,24986.5z"/>
	<path d="M7918.8,25070.2c-61-7.9-99.1-40.9-106.3-92.3c-7.2-49.1,14-90.4,57.3-111.9c9.3-4.4,35.5-13.6,58-20.1
		c56.3-16.1,67.8-23.1,67.8-40.9c0-7.9-11-18.5-22.4-22c-20.3-6.1-80.6-5.4-137.9,1.4l-11.9,1.4l-2.8-33.4
		c-1.6-18.5-3-36.2-3.3-39.5c-0.5-5.6,0.5-6.1,19.2-9.8c49.8-9.8,122.2-11.2,159.1-3c51.9,11.7,83.2,42.1,91.4,88.6
		c5.8,34.6-1.6,66.8-20.8,88.1c-20.3,22.7-36.2,30.6-103.3,51.4c-35.3,10.7-52.3,18.7-56.1,25.2c-7.5,14.3,2.8,29,22.9,33.2
		c13.3,2.8,93,1.6,117.5-1.6l10.5-1.4l2.8,34.6c3.7,46.3,4,44.6-3.3,46.3C8031,25070.9,7950.6,25074.4,7918.8,25070.2z"/>
	<path d="M8744.4,25070.4c-46.7-7.5-85.5-33.6-104-70.1c-31.1-61.5-31.1-172.2,0-233.7c25-49.8,80.2-75.5,153.1-71.5
		c31.3,1.6,47.9,5.6,72.7,17.8c22.4,11,43.5,31.8,54.7,53.7c31.1,61.5,31.1,172.2,0,233.7c-11.2,22-32.2,42.8-54.7,53.7
		c-10.3,5.1-25.2,11-32.9,12.9C8816.4,25071.3,8763.8,25073.4,8744.4,25070.4z M8816.4,24982.3c14.7-8.4,25.2-24.1,29.9-45.6
		c4.4-19.9,4.4-89.5,0-107c-9.3-38.1-28-52.6-66.8-52.3c-26.4,0-40,5.8-51.4,21.7c-13.6,18.5-16.4,32.7-16.4,83.2
		c0.2,48.6,2.6,62.4,13.8,81.8c6.3,10.8,21,21.3,34.8,24.8c4.2,1.2,15.7,1.6,25.7,1.2C8800.7,24989.3,8806.3,24987.7,8816.4,24982.3
		z"/>
	<path d="M9165,25069.2c-18.7-4.2-35.5-11-53.3-21.7l-15-9.1l-4,12.4l-4,12.6h-32.7h-32.5v-181.1v-181.1h45.6h45.6v137.9v137.6
		l12.4,3.7c55.8,16.1,89.3,8.4,98.6-22.9c3-9.8,3.5-31.8,3.5-134.1v-122.2h45.6h45.6v128.1c-0.2,142.8-0.9,152.4-15,181.8
		c-14.7,31.1-40.2,50.2-77.6,58.2C9208.2,25073.4,9183.7,25073.4,9165,25069.2z"/>
	<path d="M10108.6,25070.2c-30.1-5.1-60.3-21.5-80.1-43.7c-36.9-41.6-54.4-118.7-43.2-192.5c7.9-52.3,28.7-90.4,62.2-113.3
		c44.9-30.8,120.1-34.3,198.4-9.6c12.2,3.7,23.1,7.9,24.3,8.9c0.9,0.9-2.1,18.5-6.8,38.6c-8.4,34.3-9.1,36.5-13.8,35.1
		c-17.3-5.1-62.2-13.1-81.3-14.5c-57.3-3.7-83.7,13.8-92.1,60.8l-1.4,8.6h98.1h98.1l1.2,5.4c7.2,28.7,7.5,86.7,0.5,116.1
		C10255.1,25042.8,10188.5,25083.5,10108.6,25070.2z M10165.6,24986.5c15.4-7.7,26.4-32,26.4-57.5v-8.2h-58.2h-58l2.1,12.4
		c1.2,6.5,5.1,18.7,9.1,26.6c11.2,23.6,29.4,34.1,54.7,32.7C10149.9,24991.9,10160,24989.6,10165.6,24986.5z"/>
	<path d="M10823.9,25070.4c-25.2-2.6-62.4-9.1-64.5-11.2c-0.9-0.9,1.2-18.9,4.4-40l6.1-38.1l10.7,1.4c29.7,4.2,72,6.5,95.6,5.4
		c21.3-0.9,28.5-2.3,37.4-6.8c16.1-8.2,19.6-14.3,20.8-38.6l1.2-20.6h-52.1c-50.5-0.2-53-0.5-71-6.3c-32.7-11.2-54-29-66.8-56.3
		c-25.7-55.1-6.3-119.6,44.9-149.6c13.8-8.2,43.5-15.7,61.5-15.7c31.3,0,57.3,7.2,83.4,23.1c8.2,5.1,15.7,8.4,16.4,7.7
		c0.9-0.9,3.3-6.5,5.6-12.6l4.2-11.2h32.2h32.5v132.7c0,143-0.7,151-12.6,177.1c-7,15.2-26.2,34.8-42.8,43.7
		c-21.7,11.7-44.2,15.9-88.3,16.8C10860.8,25072,10834.1,25071.6,10823.9,25070.4z M10927.8,24854l7.2-1.4v-35.1v-34.8l-10.3-4.4
		c-27.1-12.2-59.1-14.7-75.5-6.1c-17.3,8.9-26.2,33.4-19.6,53.5c3.5,10.3,18.7,23.8,30.1,26.9
		C10869.7,24855.2,10916.9,24856.1,10927.8,24854z"/>
	<path d="M8446.5,24882.3v-181.1h45.6h45.6v181.1v181.1H8492h-45.6V24882.3z"/>
	<path d="M7158.9,24426.6c-93.2-12.9-147-71.5-165.2-179.9c-5.6-34.6-5.6-122.4,0-155.4c15.9-92.5,53.5-144.6,121.5-168.7
		c56.8-20.1,135.8-17.3,211.2,7.9c33.4,11,32,6.8,17.3,51.4c-6.8,20.8-12.6,38.3-12.6,38.6c-0.2,0-13.3-3.3-29.2-7.7
		c-69.4-18.9-116.6-19.6-154-1.9c-40.4,19.2-57.7,59.4-60.8,141.1c-3.5,97.4,15.4,154,58.7,175.3c22.9,11.5,48.6,15,97.2,13.3
		c22.4-0.7,51.2-2.6,63.8-4.2c12.6-1.4,23.4-2.3,23.6-1.9c2.3,2.6,7.2,80.6,5.4,82c-3,1.9-46.3,8.4-75.2,11.2
		C7229,24430.8,7185.8,24430.4,7158.9,24426.6z"/>
	<path d="M8536.2,24419.6c-20.3-10.5-31.1-32.9-26.4-55.4c2.1-9.1,5.1-14.3,12.6-22c11.2-11.2,20.1-13.8,38.8-12.2
		c20.8,2.1,39.5,23.4,39.5,45.1c0,13.6-9.8,32-21.3,40C8567.7,24423.4,8547.4,24425.2,8536.2,24419.6z"/>
	<path d="M9529.3,24419.6c-35.1-18-36.7-69.9-2.3-86.2c9.1-4.2,28.3-4.9,38.1-1.2c15.4,5.8,28.5,25.5,28.7,43.2
		c0,13.3-9.8,31.8-21.3,39.7C9560.9,24423.4,9540.5,24425.2,9529.3,24419.6z"/>
	<path d="M9888.2,24349.3c0-62.4-0.5-71.3-3.5-70.1c-1.9,0.7-15.2,3-29.7,5.1c-44.4,6.5-86.5,1.2-113.1-14.5
		c-14-8.2-32-28.3-40.7-45.3c-25-49.5-31.1-157.5-12.6-221.5c15.4-53,43.9-80.4,94.2-90.7c36-7.2,77.3,0,108.7,18.9
		c7.5,4.4,14,7.9,14.3,7.7c0.2-0.5,2.3-5.6,4.7-11.7l4.2-11.2h32.2h32.5v252.4v252.4h-45.6h-45.6V24349.3z M9880.8,24199.7l7.5-1.4
		v-101.4v-101.2l-12.2-3.7c-6.8-2.1-21.3-4.4-32.2-5.1c-55.6-3.7-72.4,20.6-72.4,105.6c0,50.9,6.1,80.4,19.4,95.6
		c11.5,13.1,21.3,15.9,54.2,14.5C9860.4,24201.8,9876.5,24200.7,9880.8,24199.7z"/>
	<path d="M10654.7,24349.3c0-62.4-0.5-71.3-3.5-70.1c-1.9,0.7-15.2,3-29.7,5.1c-44.4,6.5-86.5,1.2-113.1-14.5
		c-14-8.2-32-28.3-40.7-45.3c-25-49.5-31.1-157.5-12.6-221.5c15.4-53,43.9-80.4,94.2-90.7c36-7.2,77.3,0,108.7,18.9
		c7.5,4.4,14,7.9,14.3,7.7c0.2-0.5,2.3-5.6,4.7-11.7l4.2-11.2h32.2h32.5v252.4v252.4h-45.6h-45.6V24349.3z M10647.2,24199.7l7.5-1.4
		v-101.4v-101.2l-12.2-3.7c-6.8-2.1-21.3-4.4-32.2-5.1c-55.6-3.7-72.4,20.6-72.4,105.6c0,50.9,6.1,80.4,19.4,95.6
		c11.5,13.1,21.3,15.9,54.2,14.5C10626.9,24201.8,10643,24200.7,10647.2,24199.7z"/>
	<path d="M8247.1,24353.7c-0.9-14-2.3-37.4-3-52.3l-1.6-27.1l-15.4-1.6c-8.4-0.7-21.5-1.4-28.7-1.4h-13.6v-35.1v-35.1h26.9h26.6
		l0.7-109.1c0.7-96,1.4-110.8,4.9-121.5c8.6-25.7,26.6-44.6,52.3-54.7c11.5-4.4,18-5.4,42.8-5.4c29.9,0,43.2,2.3,70.3,12.4
		c22.9,8.6,22.7,6.1,6.8,44.6c-15.2,37.6-13.1,35.8-36.2,29.4c-26.2-7-42.8-3.5-47.7,10.5c-1.6,4.9-2.6,38.6-2.6,100.5v93.2h46.7
		h46.7v38.6v38.6h-46.7h-46.7v50.2v50.2H8289h-40.4L8247.1,24353.7z"/>
	<path d="M7539.3,24283.9c-34.4-6.1-65-23.1-83.4-45.8c-17.3-21.7-30.4-57.5-35.3-97.7c-6.8-55.8,0.2-113.8,18.7-153.1
		c10.7-23.1,20.6-35.5,38.6-49.1c33.6-25.2,88.3-35.1,142.3-25.7c36.2,6.3,66.4,22.7,85.3,46c42.3,52.8,50.7,177.6,16.6,250.7
		c-19.6,42.3-52.1,66.1-101.9,74.8C7595.7,24288.3,7563.4,24288.3,7539.3,24283.9z M7603.8,24202.5c15-4.7,26.2-13.6,32.7-26.6
		c9.6-19.4,11.9-33.9,11.9-77.6s-2.3-58.2-11.9-77.6c-9.6-18.9-29.9-29.9-55.8-29.9c-19.4,0-35.3,5.8-46.7,17.5
		c-14.7,14.5-19.9,32.7-21.5,74.8c-3.5,86.7,15.9,122,67.3,122.4C7587,24205.8,7597.8,24204.4,7603.8,24202.5z"/>
	<path d="M7966.3,24284.1c-18.7-4.2-35.5-11-53.3-21.7l-15-9.1l-4,12.4l-4,12.6h-32.7h-32.5v-181.1v-181.1h45.6h45.6v137.9v137.6
		l12.4,3.7c55.8,16.1,89.3,8.4,98.6-22.9c3-9.8,3.5-31.8,3.5-134.1v-122.2h45.6h45.6v128.1c-0.2,142.8-0.9,152.4-15,181.8
		c-14.7,31.1-40.2,50.2-77.6,58.2C8009.5,24288.3,7985,24288.3,7966.3,24284.1z"/>
	<path d="M8844.9,24284.1c-18.7-4.2-35.5-11-53.3-21.7l-15-9.1l-4,12.4l-4,12.6H8736h-32.5v-181.1v-181.1h45.6h45.6v137.9v137.6
		l12.4,3.7c55.8,16.1,89.3,8.4,98.6-22.9c3-9.8,3.5-31.8,3.5-134.1v-122.2h45.6h45.6v128.1c-0.2,142.8-0.9,152.4-15,181.8
		c-14.7,31.1-40.2,50.2-77.6,58.2C8888.1,24288.3,8863.6,24288.3,8844.9,24284.1z"/>
	<path d="M10157.9,24285.3c-25.2-2.6-62.4-9.1-64.5-11.2c-0.9-0.9,1.2-18.9,4.4-40l6.1-38.1l10.7,1.4c29.7,4.2,72,6.5,95.6,5.4
		c21.3-0.9,28.5-2.3,37.4-6.8c16.1-8.2,19.6-14.3,20.8-38.6l1.2-20.6h-52.1c-50.5-0.2-53-0.5-71-6.3c-32.7-11.2-54-29-66.8-56.3
		c-25.7-55.1-6.3-119.6,44.9-149.6c13.8-8.2,43.5-15.7,61.5-15.7c31.3,0,57.3,7.2,83.4,23.1c8.2,5.1,15.7,8.4,16.4,7.7
		c0.9-0.9,3.3-6.5,5.6-12.6l4.2-11.2h32.2h32.5v132.7c0,143-0.7,151-12.6,177.1c-7,15.2-26.2,34.8-42.8,43.7
		c-21.7,11.7-44.2,15.9-88.3,16.8C10194.8,24286.9,10168.2,24286.4,10157.9,24285.3z M10261.9,24068.9l7.2-1.4v-35.1v-34.8
		l-10.3-4.4c-27.1-12.2-59.1-14.7-75.5-6.1c-17.3,8.9-26.2,33.4-19.6,53.5c3.5,10.3,18.7,23.8,30.1,26.9
		C10203.7,24070.1,10250.9,24071,10261.9,24068.9z"/>
	<path d="M8509.6,24097.2v-181.1h45.6h45.6v181.1v181.1h-45.6h-45.6V24097.2z"/>
	<path d="M9098.9,24142.3l0.7-136.2l6.5-18.5c15.2-43,40.9-65.7,85.1-75c40.2-8.6,80.6-0.9,119.4,22.4c16.4,10,16.1,10,20.3-8.9
		l1.6-7.7h32.5h32.5v179.9v179.9h-45.6h-45.6v-137.6c0-129.2-0.2-137.9-4-139c-15-4.7-50.7-8.9-65.7-7.7
		c-21.7,1.6-32.7,7.2-40.2,20.6l-5.8,10.3l-0.7,126.9l-0.7,126.7h-45.6h-45.6L9098.9,24142.3z"/>
	<path d="M9502.7,24097.2v-181.1h45.6h45.6v181.1v181.1h-45.6h-45.6V24097.2z"/>
	<path d="M10153.2,23634.5c-35.1-18-36.7-69.9-2.3-86.2c9.1-4.2,28.3-4.9,38.1-1.2c15.4,5.8,28.5,25.5,28.7,43.2
		c0,13.3-9.8,31.8-21.3,39.7C10184.8,23638.2,10164.4,23640.1,10153.2,23634.5z"/>
	<path d="M7194,23564.1c0-62.4-0.5-71.3-3.5-70.1c-1.9,0.7-15.2,3-29.7,5.1c-44.4,6.5-86.5,1.2-113.1-14.5
		c-14-8.2-32-28.3-40.7-45.3c-25-49.5-31.1-157.5-12.6-221.5c15.4-53,43.9-80.4,94.2-90.7c36-7.2,77.3,0,108.7,18.9
		c7.5,4.4,14,7.9,14.3,7.7c0.2-0.5,2.3-5.6,4.7-11.7l4.2-11.2h32.2h32.5v252.4v252.4h-45.6H7194V23564.1z M7186.5,23414.6l7.5-1.4
		v-101.4v-101.2l-12.2-3.7c-6.8-1.9-21.3-4.2-32.2-5.1c-55.6-4-72.4,20.6-72.4,105.6c0,50.9,6.1,80.4,19.4,95.6
		c11.5,13.1,21.3,15.9,54.2,14.5C7166.2,23416.7,7182.3,23415.5,7186.5,23414.6z"/>
	<path d="M7743.1,23383.3v-252.4h45.6h45.6v252.4v252.4h-45.6h-45.6V23383.3z"/>
	<path d="M8142.7,23383.3v-252.4h47.9h47.9v184.8c0,129.7,0.7,184.6,2.6,183.9c1.4-0.5,42.1-83.4,90.7-184.1l88.3-183.4l65.9-0.7
		l65.7-0.5v252.4v252.4h-47.9h-47.9v-184.8c0-138.1-0.7-184.6-2.6-183.9c-1.6,0.5-42.5,83.4-90.9,184.1l-88.1,183.4l-65.9,0.7
		l-65.7,0.5V23383.3z"/>
	<path d="M7491.4,23499.9c-30.1-5.1-60.3-21.5-80.1-43.7c-36.9-41.6-54.4-118.7-43.2-192.5c7.9-52.3,28.7-90.4,62.2-113.3
		c44.9-30.8,120.1-34.3,198.4-9.6c12.2,3.7,23.1,7.9,24.3,8.9c0.9,0.9-2.1,18.5-6.8,38.6c-8.4,34.3-9.1,36.5-13.8,35.1
		c-17.3-5.1-62.2-13.1-81.3-14.5c-57.3-3.7-83.7,13.8-92.1,60.8l-1.4,8.6h98.1h98.1l1.2,5.4c7.2,28.7,7.5,86.7,0.5,116.1
		C7637.9,23472.5,7571.4,23513.2,7491.4,23499.9z M7548.5,23416.2c15.4-7.7,26.4-32,26.4-57.5v-8.2h-58.2h-58l2.1,12.4
		c1.2,6.5,5.1,18.7,9.1,26.6c11.2,23.6,29.4,34.1,54.7,32.7C7532.8,23421.6,7542.8,23419.3,7548.5,23416.2z"/>
	<path d="M8772,23499.9c-30.1-5.1-60.3-21.5-80.2-43.7c-36.9-41.6-54.4-118.7-43.2-192.5c7.9-52.3,28.7-90.4,62.2-113.3
		c44.9-30.8,120.1-34.3,198.4-9.6c12.2,3.7,23.1,7.9,24.3,8.9c0.9,0.9-2.1,18.5-6.8,38.6c-8.4,34.3-9.1,36.5-13.8,35.1
		c-17.3-5.1-62.2-13.1-81.3-14.5c-57.3-3.7-83.7,13.8-92.1,60.8l-1.4,8.6h98.1h98.1l1.2,5.4c7.2,28.7,7.5,86.7,0.5,116.1
		C8918.5,23472.5,8851.9,23513.2,8772,23499.9z M8829,23416.2c15.4-7.7,26.4-32,26.4-57.5v-8.2h-58.2h-58l2.1,12.4
		c1.2,6.5,5.1,18.7,9.1,26.6c11.2,23.6,29.4,34.1,54.7,32.7C8813.3,23421.6,8823.4,23419.3,8829,23416.2z"/>
	<path d="M9114.3,23500.1c-15.7-2.6-34.1-8.9-45.3-15.7c-14-7.9-32-28-40.7-45.1c-25-49.5-31.1-157.5-12.6-221.5
		c15.2-52.3,43.9-80.4,92.5-90.2c34.3-7,65.4-3.5,93,10.3l14,7v-20.3c0-11.5-1.2-24.5-2.6-29.4c-3.3-12.4-14.7-24.3-26.2-27.8
		c-11.5-3.5-86-3.7-114.5-0.2c-10,1.2-18.7,1.4-19.2,0.7c-2.3-4-10.7-75.5-9.1-77.1c5.6-5.1,59.6-10.3,107.3-10.3
		c43,0.2,51.4,0.7,67.8,5.1c37.2,10.3,60.1,27.3,73.4,54.7c14.3,28.7,14.3,28.3,14.3,241.6v194.2l-21.5,6.1
		C9226,23498.7,9151.9,23506.4,9114.3,23500.1z M9207.8,23414.6l7.5-1.6l-0.5-102.8l-0.7-103.1l-8.2-1.9c-4.4-0.9-18.7-2.3-31.5-3.3
		c-59.6-4-75.9,18.7-75.9,105.4c0,50.9,6.1,80.4,19.4,95.6c11.5,13.1,21.3,15.9,54.2,14.5
		C9187.4,23416.7,9203.6,23415.5,9207.8,23414.6z"/>
	<path d="M9509.2,23498.7c-34.4-6.1-65-23.1-83.4-45.8c-17.3-21.7-30.4-57.5-35.3-97.7c-6.8-55.8,0.2-113.8,18.7-153.1
		c10.7-23.1,20.6-35.5,38.6-49.1c33.6-25.2,88.3-35.1,142.3-25.7c36.2,6.3,66.4,22.7,85.3,46c10.3,13.1,24.5,43.2,29,62.6
		c8.4,34.1,11,83,6.3,119.2c-11,85.8-49.1,131.1-120.6,143.7C9565.5,23503.2,9533.3,23503.2,9509.2,23498.7z M9573.7,23417.4
		c15-4.7,26.2-13.6,32.7-26.6c9.6-19.4,11.9-33.9,11.9-77.6s-2.3-58.2-11.9-77.6c-9.6-18.9-29.9-29.9-55.8-29.9
		c-19.4,0-35.3,5.8-46.7,17.5c-14.7,14.5-19.9,32.7-21.5,74.8c-3.5,86.7,15.9,122,67.3,122.4
		C9556.9,23420.7,9567.6,23419.3,9573.7,23417.4z"/>
	<path d="M9898.7,23499.9c-57.5-8.4-95.6-40.2-114.3-95.6c-11.7-35.1-16.1-91.4-10.7-134.8c8.4-67.1,33.4-108.7,77.3-129
		c10.7-4.9,25.5-10.5,32.5-12.2c19.4-4.9,75.9-4.2,100.5,0.9c26.6,5.8,63.1,17.8,64.3,21c0.7,1.6-4,18.7-10,37.9
		c-9.6,29.7-11.9,35.1-15.9,34.8c-2.3-0.2-15-3.3-27.8-7c-29.2-7.9-73.4-9.3-88.1-2.6c-31.1,14.3-43.9,49.8-40.9,113.6
		c2.3,51.2,13.3,73.8,40.9,84.6c11.7,4.7,18,5.4,49.5,5.4c19.9,0.2,44.6-0.5,55.1-1.6l18.7-1.6l2.8,34.3c4,48.6,4.9,44.4-9.3,47.2
		C9989.6,23502,9928.7,23504.1,9898.7,23499.9z"/>
	<path d="M10418.2,23498.7c-34.3-6.1-65-23.1-83.4-45.8c-17.3-21.7-30.4-57.5-35.3-97.7c-6.8-55.8,0.2-113.8,18.7-153.1
		c10.7-23.1,20.6-35.5,38.6-49.1c33.6-25.2,88.3-35.1,142.3-25.7c36.2,6.3,66.4,22.7,85.3,46c42.3,52.8,50.7,177.6,16.6,250.7
		c-19.6,42.3-52.1,66.1-101.9,74.8C10474.5,23503.2,10442.3,23503.2,10418.2,23498.7z M10482.7,23417.4c15-4.7,26.2-13.6,32.7-26.6
		c9.6-19.4,11.9-33.9,11.9-77.6s-2.3-58.2-11.9-77.6c-9.6-18.9-29.9-29.9-55.8-29.9c-19.4,0-35.3,5.8-46.7,17.5
		c-14.7,14.5-19.9,32.7-21.5,74.8c-3.5,86.7,15.9,122,67.3,122.4C10465.9,23420.7,10476.6,23419.3,10482.7,23417.4z"/>
	<path d="M10126.6,23312v-181.1h45.6h45.6v181.1v181.1h-45.6h-45.6V23312z"/>
</g>
</svg>
