<?xml version="1.0" standalone="no"?>
<!DOCTYPE svg PUBLIC "-//W3C//DTD SVG 20010904//EN"
 "http://www.w3.org/TR/2001/REC-SVG-20010904/DTD/svg10.dtd">
<svg version="1.0" xmlns="http://www.w3.org/2000/svg" viewBox="0 0 6120.000000 2840.000000"
 preserveAspectRatio="xMidYMid meet">
<metadata>
Created by potrace 1.15, written by Peter Selinger 2001-2017
</metadata>
<g transform="translate(0.000000,2840.000000) scale(0.100000,-0.100000)"
fill="#000000" stroke="none">
<path d="M14135 28339 c-1041 -25 -1945 -100 -2570 -213 -4600 -830 -8474
-3894 -10370 -8201 -657 -1494 -1048 -3097 -1167 -4785 -30 -431 -33 -1436 -5
-1855 39 -586 113 -1184 213 -1730 944 -5121 4615 -9306 9549 -10884 1405
-450 2306 -587 4290 -653 303 -10 3733 -13 16925 -13 l16545 0 395 32 c757 63
1477 173 2155 332 5498 1282 9731 5743 10719 11296 502 2820 142 5742 -1025
8329 -1918 4250 -5818 7298 -10392 8121 -734 132 -1468 205 -2282 225 -508 12
-32465 12 -32980 -1z m1085 -1264 c1942 -147 3784 -711 5455 -1668 2363 -1354
4251 -3433 5368 -5912 618 -1372 981 -2805 1103 -4360 25 -317 27 -381 27
-940 0 -559 -2 -623 -27 -940 -35 -448 -94 -912 -168 -1330 -941 -5310 -5131
-9500 -10443 -10444 -418 -74 -870 -131 -1325 -167 -323 -26 -383 -28 -945
-28 -562 0 -622 2 -945 28 -1346 106 -2608 394 -3805 869 -3951 1567 -6890
4986 -7838 9117 -143 622 -240 1261 -293 1935 -26 320 -27 377 -27 960 0 583
1 640 27 960 54 679 156 1351 300 1971 1165 5006 5226 8869 10281 9779 554
100 1235 175 1760 195 110 5 416 6 680 4 393 -3 540 -8 815 -29z m31885 -5
c220 -6 549 -22 730 -36 2126 -160 4171 -843 5965 -1992 3415 -2189 5612
-5841 5925 -9852 271 -3468 -850 -6862 -3134 -9483 -2397 -2750 -5807 -4353
-9436 -4434 -187 -5 -6314 -6 -13615 -3 l-13274 5 174 83 c1019 487 2088 1180
2983 1934 605 510 1222 1127 1733 1733 1741 2064 2859 4588 3214 7260 137
1032 159 2140 64 3185 -203 2233 -929 4369 -2129 6270 -1303 2062 -3133 3774
-5280 4938 -77 42 -286 149 -465 239 l-325 162 13235 1 c9018 0 13362 -3
13635 -10z"/>
<path d="M10850 23015 l0 -2365 213 0 212 0 55 124 54 124 56 -37 c248 -170
522 -261 838 -280 300 -18 582 32 771 136 302 167 491 473 570 923 33 189 43
322 43 585 0 315 -21 530 -74 740 -121 486 -385 771 -813 878 -198 50 -502 49
-721 -2 -151 -36 -287 -85 -400 -147 -45 -24 -84 -44 -88 -44 -3 0 -6 389 -6
865 l0 865 -355 0 -355 0 0 -2365z m1473 255 c374 -36 556 -251 607 -715 17
-155 14 -540 -5 -691 -37 -284 -127 -469 -282 -576 -118 -80 -321 -119 -525
-98 -182 18 -295 50 -471 132 l-87 41 2 866 3 866 50 27 c137 74 339 134 500
147 55 4 102 9 105 9 3 1 49 -3 103 -8z"/>
<path d="M16793 25185 c-157 -43 -285 -164 -329 -313 -23 -80 -21 -211 5 -284
93 -264 384 -387 637 -269 286 134 354 518 131 742 -118 117 -290 165 -444
124z"/>
<path d="M14865 23868 c-353 -39 -656 -186 -814 -394 -168 -223 -228 -546
-161 -865 53 -250 203 -414 475 -518 162 -63 334 -99 620 -131 208 -24 267
-34 350 -63 105 -35 169 -89 207 -172 33 -72 32 -217 -1 -293 -63 -143 -237
-219 -553 -243 -321 -23 -682 28 -1027 146 -41 14 -76 25 -78 25 -2 0 -3 -139
-3 -309 l0 -308 94 -32 c227 -75 473 -116 782 -130 845 -39 1346 209 1485 735
26 101 37 350 20 479 -14 102 -56 236 -97 310 -39 70 -156 184 -234 230 -184
106 -426 169 -810 210 -284 30 -416 71 -489 151 -73 78 -89 210 -44 338 37
102 153 186 308 222 116 27 475 25 662 -5 149 -23 326 -66 457 -111 50 -16 96
-30 103 -30 10 0 13 60 13 308 l0 308 -102 36 c-236 83 -499 119 -853 117
-126 -1 -266 -6 -310 -11z"/>
<path d="M16553 22523 c3 -1276 3 -1289 25 -1373 70 -282 233 -444 512 -512
88 -21 362 -37 414 -24 l26 6 0 288 0 288 -74 11 c-94 13 -138 40 -168 101
l-23 47 -3 1228 -3 1227 -355 0 -355 0 4 -1287z"/>
<path d="M18095 21481 c-86 -31 -129 -58 -186 -114 -244 -244 -148 -654 179
-768 74 -26 209 -28 282 -4 149 49 263 164 307 308 22 72 22 208 -1 275 -51
151 -158 257 -305 302 -81 26 -206 26 -276 1z"/>
<path d="M10840 19588 c-1971 -103 -3579 -1608 -3770 -3528 -11 -107 -20 -201
-20 -207 0 -10 1456 -13 7245 -13 l7245 0 0 23 c0 12 -9 108 -20 212 -176
1773 -1564 3217 -3340 3475 -1133 165 -2239 -140 -3100 -854 -246 -204 -513
-493 -685 -739 -33 -47 -63 -86 -66 -87 -3 0 -32 37 -64 83 -271 380 -629 729
-1013 986 -701 470 -1539 695 -2412 649z"/>
<path d="M7204 14674 c22 -56 1360 -2321 4446 -7524 2273 -3831 2638 -4444
2647 -4447 9 -3 1737 2917 5028 8497 1517 2572 2045 3472 2045 3484 0 3 -3189
6 -7086 6 -6413 0 -7086 -1 -7080 -16z"/>
<path d="M31930 24393 c-438 -45 -744 -246 -861 -566 -79 -219 -58 -526 52
-719 131 -231 347 -367 819 -514 444 -138 583 -209 677 -349 51 -75 71 -241
43 -346 -93 -344 -508 -449 -1349 -343 -112 14 -207 22 -211 17 -11 -11 -64
-392 -57 -400 14 -13 364 -64 577 -84 188 -16 534 -14 660 5 304 46 477 125
636 288 45 46 102 117 126 158 122 202 159 506 91 759 -69 257 -254 445 -572
578 -47 20 -213 77 -368 128 -344 113 -468 171 -559 260 -97 95 -136 213 -114
347 31 197 173 299 475 339 173 23 612 0 880 -45 44 -8 81 -13 83 -11 7 6 62
390 58 401 -2 6 -22 14 -43 17 -21 3 -110 17 -198 31 -244 39 -442 56 -635 54
-96 0 -191 -3 -210 -5z"/>
<path d="M34700 24393 c-239 -36 -321 -57 -461 -118 -323 -141 -545 -433 -644
-848 -109 -457 -94 -1104 36 -1505 196 -608 671 -888 1428 -841 289 18 496 80
690 206 295 191 466 521 538 1033 25 177 25 661 -1 845 -54 401 -174 685 -376
892 -230 234 -557 345 -1009 342 -97 -1 -187 -3 -201 -6z m513 -467 c265 -79
417 -231 510 -509 104 -310 116 -914 26 -1272 -116 -459 -427 -664 -941 -624
-500 40 -728 332 -779 999 -27 348 14 731 102 955 90 230 245 378 464 444 110
33 178 40 360 36 148 -2 181 -6 258 -29z"/>
<path d="M43215 24393 c-76 -6 -230 -35 -310 -58 -200 -57 -332 -133 -476
-275 -117 -116 -166 -186 -238 -335 -108 -225 -162 -460 -183 -805 -18 -310 8
-637 73 -888 154 -600 525 -908 1144 -951 228 -16 466 9 719 74 171 43 446
149 446 171 0 7 -131 377 -135 382 -1 1 -52 -16 -114 -38 -389 -139 -754 -187
-1003 -130 -149 33 -298 117 -383 213 -108 123 -196 355 -231 607 -26 194 -24
591 5 775 83 522 300 759 747 816 182 23 630 -1 878 -46 44 -8 80 -14 81 -12
1 1 10 76 19 167 10 91 20 183 23 206 l5 41 -108 21 c-260 50 -487 72 -729 70
-104 -1 -208 -3 -230 -5z"/>
<path d="M29970 22735 l0 -1615 245 0 245 0 0 1615 0 1615 -245 0 -245 0 0
-1615z"/>
<path d="M37789 24323 c-6 -16 -287 -740 -625 -1611 -338 -870 -614 -1584
-614 -1587 0 -3 93 -4 206 -3 l206 3 614 1595 c338 877 617 1603 620 1613 5
16 -9 17 -196 17 l-200 0 -11 -27z"/>
<path d="M38610 22735 l0 -1615 245 0 245 0 0 1615 0 1615 -245 0 -245 0 0
-1615z"/>
<path d="M39770 22735 l0 -1615 965 0 965 0 0 220 0 220 -720 0 -720 0 0 505
0 505 590 0 590 0 0 215 0 215 -590 0 -590 0 0 460 0 460 720 0 720 0 0 215 0
215 -965 0 -965 0 0 -1615z"/>
<path d="M30640 19394 c-116 -15 -248 -38 -338 -60 -202 -49 -457 -145 -449
-168 78 -223 131 -372 134 -375 1 -2 58 14 125 37 252 84 428 119 638 128 263
11 429 -42 553 -176 86 -92 127 -201 128 -335 1 -442 -376 -935 -1394 -1820
l-126 -110 -1 -197 0 -198 1035 0 1035 0 0 220 0 220 -706 2 -707 3 213 184
c769 667 1080 1090 1139 1551 61 468 -136 837 -534 1003 -151 64 -288 88 -515
92 -107 2 -211 1 -230 -1z"/>
<path d="M35910 19385 c-467 -68 -732 -333 -840 -840 -92 -432 -92 -1177 0
-1610 97 -455 324 -719 700 -815 120 -30 233 -42 406 -42 354 0 593 74 773
239 221 201 323 473 372 988 17 179 14 717 -5 911 -73 750 -331 1088 -891
1169 -121 18 -396 18 -515 0z m436 -430 c235 -45 373 -186 440 -450 51 -201
73 -631 55 -1050 -16 -357 -41 -495 -116 -650 -74 -152 -177 -237 -345 -282
-93 -25 -328 -25 -425 1 -250 66 -382 246 -434 591 -33 218 -39 904 -11 1155
49 436 181 625 480 685 89 18 262 18 356 0z"/>
<path d="M38790 19385 c-467 -68 -732 -333 -840 -840 -92 -432 -92 -1177 0
-1610 97 -455 324 -719 700 -815 120 -30 233 -42 406 -42 354 0 593 74 773
239 221 201 323 473 372 988 17 179 14 717 -5 911 -73 750 -331 1088 -891
1169 -121 18 -396 18 -515 0z m436 -430 c235 -45 373 -186 440 -450 51 -201
73 -631 55 -1050 -16 -357 -41 -495 -116 -650 -74 -152 -177 -237 -345 -282
-93 -25 -328 -25 -425 1 -250 66 -382 246 -434 591 -33 218 -39 904 -11 1155
49 436 181 625 480 685 89 18 262 18 356 0z"/>
<path d="M32430 19135 l0 -215 800 0 c440 0 800 -2 800 -5 0 -2 -41 -80 -92
-172 -126 -231 -369 -729 -468 -958 -153 -355 -282 -704 -398 -1076 -62 -199
-162 -554 -162 -576 0 -10 58 -13 260 -13 l259 0 10 38 c6 20 26 102 46 182
204 817 507 1584 951 2406 l114 210 0 197 0 197 -1060 0 -1060 0 0 -215z"/>
<path d="M40871 19145 c-234 -113 -426 -207 -428 -208 -4 -5 135 -319 145
-328 4 -4 153 49 332 117 179 68 328 124 333 124 4 0 7 -614 7 -1365 l0 -1365
245 0 245 0 0 1615 0 1615 -228 0 -228 0 -423 -205z"/>
<path d="M30478 14535 c-166 -27 -295 -92 -395 -198 -129 -138 -179 -331 -139
-539 48 -250 200 -381 601 -517 343 -117 426 -186 412 -341 -17 -194 -197
-272 -587 -256 -91 4 -211 13 -268 20 -100 11 -103 11 -107 -9 -10 -45 -44
-329 -40 -333 17 -17 314 -52 505 -59 259 -9 418 16 576 93 213 101 328 281
340 529 12 233 -61 412 -218 530 -90 67 -172 106 -370 174 -211 72 -312 117
-362 162 -117 103 -93 285 45 343 94 39 371 45 648 12 70 -8 104 -8 107 -1 4
12 44 312 44 330 0 13 -60 24 -255 51 -161 22 -431 27 -537 9z"/>
<path d="M38060 14514 c-114 -50 -160 -194 -94 -300 98 -158 338 -103 360 82
8 63 -8 114 -49 161 -58 66 -144 89 -217 57z"/>
<path d="M39610 14209 l0 -311 -27 6 c-220 45 -440 30 -580 -39 -203 -100
-303 -355 -303 -771 0 -440 124 -682 391 -765 110 -35 283 -33 394 4 44 15
106 43 139 62 32 20 60 35 61 33 1 -2 10 -24 20 -50 l18 -48 138 0 139 0 0
1095 0 1095 -195 0 -195 0 0 -311z m-37 -655 l37 -7 0 -438 0 -438 -57 -18
c-39 -11 -94 -17 -168 -17 -96 -1 -115 2 -153 22 -54 29 -95 91 -113 174 -19
85 -19 440 0 523 26 118 72 180 151 204 35 11 230 7 303 -5z"/>
<path d="M42930 14209 l0 -311 -27 6 c-220 45 -440 30 -580 -39 -203 -100
-303 -355 -303 -771 0 -440 124 -682 391 -765 110 -35 283 -33 394 4 44 15
106 43 139 62 32 20 60 35 61 33 1 -2 10 -24 20 -50 l18 -48 138 0 139 0 0
1095 0 1095 -195 0 -195 0 0 -311z m-37 -655 l37 -7 0 -438 0 -438 -57 -18
c-39 -11 -94 -17 -168 -17 -96 -1 -115 2 -153 22 -54 29 -95 91 -113 174 -19
85 -19 440 0 523 26 118 72 180 151 204 35 11 230 7 303 -5z"/>
<path d="M45460 14209 l0 -311 -27 6 c-220 45 -440 30 -580 -39 -203 -100
-303 -355 -303 -771 0 -440 124 -682 391 -765 110 -35 283 -33 394 4 44 15
106 43 139 62 32 20 60 35 61 33 1 -2 10 -24 20 -50 l18 -48 138 0 139 0 0
1095 0 1095 -195 0 -195 0 0 -311z m-37 -655 l37 -7 0 -438 0 -438 -57 -18
c-39 -11 -94 -17 -168 -17 -96 -1 -115 2 -153 22 -54 29 -95 91 -113 174 -19
85 -19 440 0 523 26 118 72 180 151 204 35 11 230 7 303 -5z"/>
<path d="M48690 13425 l0 -1095 195 0 195 0 0 1095 0 1095 -195 0 -195 0 0
-1095z"/>
<path d="M32210 13915 c-96 -22 -147 -43 -223 -93 -209 -137 -322 -434 -304
-797 12 -238 80 -419 202 -540 80 -80 155 -124 270 -157 105 -29 341 -32 480
-4 93 18 274 72 289 86 9 9 -61 320 -72 320 -4 0 -51 -11 -106 -24 -254 -63
-455 -58 -557 14 -39 28 -79 99 -95 169 -8 31 -14 62 -14 69 0 9 91 12 424 12
l424 0 5 23 c31 123 32 371 2 497 -48 202 -192 357 -385 415 -78 23 -258 29
-340 10z m272 -358 c24 -14 53 -42 65 -64 21 -38 43 -131 43 -185 l0 -28 -254
0 -253 0 9 53 c22 123 85 209 177 244 56 21 160 11 213 -20z"/>
<path d="M33685 13914 c-304 -60 -445 -321 -445 -820 0 -514 171 -764 540
-791 110 -7 203 9 297 52 l73 34 0 -87 c0 -48 -5 -104 -11 -125 -14 -51 -59
-101 -106 -116 -60 -20 -282 -24 -438 -8 -77 8 -143 11 -147 8 -11 -10 -51
-322 -42 -331 5 -4 65 -16 134 -26 176 -26 494 -26 603 -1 161 38 288 131 343
251 53 117 54 124 54 1027 l0 836 -72 21 c-267 77 -609 111 -783 76z m428
-360 l37 -7 -2 -445 -3 -446 -40 -9 c-22 -5 -96 -10 -165 -11 -113 -1 -129 1
-168 22 -54 29 -95 91 -113 174 -19 85 -19 440 0 523 26 118 72 180 151 204
35 11 230 7 303 -5z"/>
<path d="M37370 13917 c-113 -27 -187 -76 -254 -167 -25 -33 -47 -57 -49 -53
-3 5 -17 52 -32 106 l-28 97 -138 0 -139 0 0 -785 0 -785 195 0 195 0 0 584 0
583 59 27 c88 39 159 49 302 43 70 -4 133 -8 140 -9 11 -2 16 33 22 176 4 98
5 181 2 184 -12 12 -223 11 -275 -1z"/>
<path d="M40774 13920 c-108 -11 -267 -39 -276 -48 -4 -4 5 -81 19 -171 l26
-163 46 6 c205 28 467 31 554 6 84 -25 116 -82 117 -205 l0 -61 -217 1 c-242
0 -295 -8 -410 -67 -147 -73 -243 -241 -243 -423 0 -74 35 -201 73 -263 43
-72 117 -138 200 -178 189 -90 451 -61 626 70 19 14 38 23 42 19 3 -5 14 -29
24 -55 l18 -48 138 0 139 0 0 568 c0 617 -3 651 -57 762 -33 67 -110 145 -180
183 -94 50 -189 68 -383 72 -96 2 -212 0 -256 -5z m455 -926 l32 -7 -3 -151
-3 -151 -60 -24 c-122 -49 -260 -52 -327 -8 -66 44 -97 153 -64 231 18 43 80
93 131 105 47 10 248 14 294 5z"/>
<path d="M46730 13915 c-96 -22 -147 -43 -223 -93 -209 -137 -322 -434 -304
-797 12 -238 80 -419 202 -540 80 -80 155 -124 270 -157 105 -29 341 -32 480
-4 93 18 274 72 289 86 9 9 -61 320 -72 320 -4 0 -51 -11 -106 -24 -254 -63
-455 -58 -557 14 -39 28 -79 99 -95 169 -8 31 -14 62 -14 69 0 9 91 12 424 12
l424 0 5 23 c31 123 32 371 2 497 -48 202 -192 357 -385 415 -78 23 -258 29
-340 10z m272 -358 c24 -14 53 -42 65 -64 21 -38 43 -131 43 -185 l0 -28 -254
0 -253 0 9 53 c22 123 85 209 177 244 56 21 160 11 213 -20z"/>
<path d="M49844 13920 c-108 -11 -267 -39 -276 -48 -4 -4 5 -81 19 -171 l26
-163 46 6 c205 28 467 31 554 6 84 -25 116 -82 117 -205 l0 -61 -217 1 c-242
0 -295 -8 -410 -67 -147 -73 -243 -241 -243 -423 0 -74 35 -201 73 -263 43
-72 117 -138 200 -178 189 -90 451 -61 626 70 19 14 38 23 42 19 3 -5 14 -29
24 -55 l18 -48 138 0 139 0 0 568 c0 617 -3 651 -57 762 -33 67 -110 145 -180
183 -94 50 -189 68 -383 72 -96 2 -212 0 -256 -5z m455 -926 l32 -7 -3 -151
-3 -151 -60 -24 c-122 -49 -260 -52 -327 -8 -66 44 -97 153 -64 231 18 43 80
93 131 105 47 10 248 14 294 5z"/>
<path d="M34990 13348 c1 -428 4 -571 15 -631 19 -107 72 -215 135 -277 175
-171 503 -186 754 -35 32 19 62 35 66 35 4 0 12 -25 19 -55 l12 -55 140 0 139
0 0 785 0 785 -195 0 -195 0 0 -599 c0 -562 -1 -600 -17 -605 -63 -19 -217
-38 -279 -33 -94 7 -147 34 -176 90 -23 42 -23 42 -26 595 l-3 552 -194 0
-195 0 0 -552z"/>
<path d="M37940 13115 l0 -785 195 0 195 0 0 785 0 785 -195 0 -195 0 0 -785z"/>
<path d="M43812 11207 c-66 -116 -241 -443 -244 -454 -2 -7 33 -42 77 -77 l80
-65 203 202 c111 111 202 205 202 208 0 4 -65 59 -144 123 l-145 115 -29 -52z"/>
<path d="M33210 11153 c-138 -16 -253 -67 -326 -145 -85 -91 -123 -219 -124
-419 l0 -106 -61 -7 c-34 -3 -86 -6 -115 -6 l-54 0 0 -150 0 -150 115 0 115 0
0 -620 0 -620 195 0 195 0 0 620 0 620 165 0 165 0 0 165 0 165 -166 0 -167 0
5 105 c7 119 22 157 78 190 30 17 56 21 177 23 l141 4 6 106 c4 59 8 132 10
163 l4 56 -61 7 c-62 6 -236 6 -297 -1z"/>
<path d="M42440 11114 c-114 -50 -160 -194 -94 -300 98 -158 338 -103 360 82
8 63 -8 114 -49 161 -58 66 -144 89 -217 57z"/>
<path d="M30020 10025 l0 -1095 210 0 210 0 0 1095 0 1095 -210 0 -210 0 0
-1095z"/>
<path d="M31535 10516 c-87 -20 -163 -51 -236 -95 l-64 -39 -18 59 -19 59
-139 0 -139 0 0 -785 0 -785 195 0 195 0 0 594 0 594 33 11 c61 21 188 41 250
41 106 -1 160 -30 201 -105 21 -39 21 -50 24 -587 l3 -548 195 0 195 0 -4 588
c-3 526 -5 593 -21 647 -52 173 -158 287 -315 336 -86 27 -253 34 -336 15z"/>
<path d="M34245 10520 c-199 -32 -358 -138 -442 -296 -137 -257 -137 -761 0
-1018 51 -97 136 -180 231 -226 126 -62 187 -74 366 -74 179 0 240 12 366 74
95 46 180 129 231 226 86 161 122 428 92 691 -30 275 -140 464 -323 553 -44
22 -108 47 -141 55 -72 19 -297 28 -380 15z m308 -378 c108 -61 142 -162 142
-427 0 -267 -34 -366 -145 -429 -51 -29 -62 -31 -150 -31 -88 0 -99 2 -150 31
-41 23 -63 45 -87 84 -48 79 -58 140 -58 350 0 150 4 196 18 245 28 90 61 141
113 171 62 37 96 44 187 40 63 -3 87 -10 130 -34z"/>
<path d="M36100 10517 c-113 -27 -187 -76 -254 -167 -25 -33 -47 -57 -49 -53
-3 5 -17 52 -32 106 l-28 97 -138 0 -139 0 0 -785 0 -785 195 0 195 0 0 584 0
583 59 27 c88 39 159 49 302 43 70 -4 133 -8 140 -9 11 -2 16 33 22 176 4 98
5 181 2 184 -12 12 -223 11 -275 -1z"/>
<path d="M37320 10523 c-97 -15 -215 -62 -297 -117 l-38 -27 -18 61 -19 60
-139 0 -139 0 0 -785 0 -785 195 0 195 0 2 597 3 597 60 19 c83 25 200 33 264
17 67 -16 114 -61 130 -123 7 -32 11 -210 11 -576 l0 -531 196 0 195 0 -3 578
c-2 317 -5 584 -8 592 -7 21 112 59 209 67 148 11 235 -32 260 -130 7 -32 11
-210 11 -576 l0 -531 196 0 195 0 -3 578 c-4 557 -5 580 -26 655 -52 186 -157
297 -327 344 -84 23 -230 27 -315 9 -80 -17 -193 -66 -264 -115 -25 -17 -48
-31 -53 -31 -4 1 -26 19 -48 41 -90 90 -267 137 -425 112z"/>
<path d="M39554 10520 c-108 -11 -267 -39 -276 -48 -4 -4 5 -81 19 -171 l26
-163 46 6 c205 28 467 31 554 6 84 -25 116 -82 117 -205 l0 -61 -217 1 c-242
0 -295 -8 -410 -67 -147 -73 -243 -241 -243 -423 0 -74 35 -201 73 -263 43
-72 117 -138 200 -178 189 -90 451 -61 626 70 19 14 38 23 42 19 3 -5 14 -29
24 -55 l18 -48 138 0 139 0 0 568 c0 617 -3 651 -57 762 -33 67 -110 145 -180
183 -94 50 -189 68 -383 72 -96 2 -212 0 -256 -5z m455 -926 l32 -7 -3 -151
-3 -151 -60 -24 c-122 -49 -260 -52 -327 -8 -66 44 -97 153 -64 231 18 43 80
93 131 105 47 10 248 14 294 5z"/>
<path d="M41350 10524 c-376 -51 -569 -324 -570 -809 -1 -410 130 -668 388
-765 185 -71 447 -63 709 21 51 16 95 34 98 39 3 4 -17 77 -44 162 -40 127
-52 153 -67 152 -11 -1 -64 -13 -119 -28 -250 -67 -422 -37 -498 85 -41 68
-58 139 -64 284 -12 287 46 436 189 480 72 23 247 30 393 16 81 -7 121 -7 125
0 8 13 33 319 27 325 -23 24 -459 52 -567 38z"/>
<path d="M43605 10520 c-258 -41 -426 -189 -499 -442 -79 -272 -53 -665 57
-872 51 -97 136 -180 231 -226 126 -62 187 -74 366 -74 179 0 240 12 366 74
183 89 293 278 323 553 30 263 -6 530 -92 691 -51 97 -136 180 -231 226 -44
22 -108 47 -141 55 -72 19 -297 28 -380 15z m308 -378 c108 -61 142 -162 142
-427 0 -267 -34 -366 -145 -429 -51 -29 -62 -31 -150 -31 -88 0 -99 2 -150 31
-41 23 -63 45 -87 84 -48 79 -58 140 -58 350 0 150 4 196 18 245 28 90 61 141
113 171 62 37 96 44 187 40 63 -3 87 -10 130 -34z"/>
<path d="M45435 10516 c-87 -20 -163 -51 -236 -95 l-64 -39 -18 59 -19 59
-139 0 -139 0 0 -785 0 -785 195 0 195 0 0 594 0 594 33 11 c61 21 188 41 250
41 106 -1 160 -30 201 -105 21 -39 21 -50 24 -587 l3 -548 195 0 195 0 -4 588
c-3 526 -5 593 -21 647 -52 173 -158 287 -315 336 -86 27 -253 34 -336 15z"/>
<path d="M42320 9715 l0 -785 195 0 195 0 0 785 0 785 -195 0 -195 0 0 -785z"/>
</g>
</svg>
