<?xml version="1.0" encoding="utf-8"?>
<!-- Generator: Adobe Illustrator 24.0.2, SVG Export Plug-In . SVG Version: 6.00 Build 0)  -->
<svg version="1.1" id="Capa_1" xmlns="http://www.w3.org/2000/svg" xmlns:xlink="http://www.w3.org/1999/xlink" x="0px" y="0px"
	 viewBox="0 0 876.4 265.8" style="enable-background:new 0 0 876.4 265.8;" xml:space="preserve">
<style type="text/css">
	.st0{fill:#1D1D1B;}
	.st1{fill:#CC0033;}
	.st2{fill:#FFFFFF;}
	.st3{fill-rule:evenodd;clip-rule:evenodd;fill:#CC0033;}
</style>
<g>
	<path class="st0" d="M353.7,149.4l1.5,0.3l-5.4,17.1h-48.7v-1.7h2.3c2.7,0,4.6-0.9,5.7-2.6c0.6-1,1-3.3,1-6.9v-40.5
		c0-3.9-0.4-6.4-1.3-7.4c-1.2-1.3-3-2.1-5.4-2.1h-2.3v-1.7h28.5v1.7c-3.3,0-5.7,0.3-7,0.9c-1.3,0.7-2.2,1.5-2.7,2.5
		s-0.8,3.4-0.8,7.1v39.5c0,2.6,0.3,4.3,0.8,5.3c0.4,0.7,0.9,1.1,1.7,1.4c0.8,0.3,3.2,0.4,7.2,0.4h4.6c4.8,0,8.2-0.3,10.2-1
		c1.9-0.7,3.7-2,5.3-3.8C350.5,156.2,352,153.3,353.7,149.4"/>
	<path class="st0" d="M385.5,107.4v24.8h13.8c3.6,0,6-0.6,7.2-1.6c1.6-1.4,2.5-3.9,2.7-7.5h1.7V145h-1.7c-0.5-3.1-0.9-5-1.3-5.9
		c-0.5-1.1-1.5-2-2.7-2.6c-1.3-0.6-3.2-0.9-5.8-0.9h-13.8v20.7c0,2.8,0.1,4.5,0.3,5.1c0.3,0.6,0.7,1.1,1.3,1.4
		c0.6,0.4,1.8,0.5,3.5,0.5h10.7c3.5,0,6.1-0.2,7.8-0.7c1.6-0.5,3.2-1.5,4.6-2.9c1.9-1.9,3.8-4.8,5.8-8.7h1.9l-5.5,15.7h-48.5V165
		h2.2c1.5,0,2.9-0.4,4.2-1.1c1-0.5,1.7-1.2,2-2.2c0.4-1,0.5-3,0.5-6v-40.8c0-4-0.4-6.4-1.2-7.4c-1.1-1.2-3-1.9-5.6-1.9h-2.2v-1.7
		h48.5l0.7,13.8H415c-0.7-3.3-1.3-5.6-2.1-6.8c-0.8-1.2-2-2.2-3.5-2.8c-1.2-0.5-3.4-0.7-6.6-0.7L385.5,107.4L385.5,107.4z"/>
	<path class="st0" d="M490.4,102.5l1.6,19.9h-1.6c-1.6-5-3.7-8.7-6.4-11.2c-3.7-3.6-8.5-5.4-14.4-5.4c-8,0-14.1,3.2-18.3,9.5
		c-3.5,5.3-5.2,11.7-5.2,19.1c0,6,1.2,11.5,3.5,16.4c2.3,5,5.4,8.6,9.1,10.9c3.8,2.3,7.6,3.5,11.6,3.5c2.3,0,4.5-0.3,6.7-0.9
		c2.2-0.6,4.2-1.4,6.3-2.6v-18.2c0-3.1-0.2-5.2-0.7-6.2s-1.2-1.7-2.2-2.2s-2.8-0.8-5.3-0.8v-1.8h24.3v1.8h-1.2c-2.4,0-4,0.8-4.9,2.4
		c-0.6,1.1-0.9,3.4-0.9,6.8v19.2c-3.6,1.9-7.1,3.3-10.5,4.2c-3.5,0.9-7.3,1.3-11.5,1.3c-12.2,0-21.4-3.9-27.7-11.7
		c-4.7-5.8-7.1-12.6-7.1-20.2c0-5.5,1.3-10.8,4-15.9c3.2-6,7.5-10.7,13-13.9c4.6-2.7,10-4.1,16.3-4.1c2.3,0,4.4,0.2,6.2,0.6
		c1.9,0.4,4.5,1.2,8,2.4c1.7,0.7,2.9,1,3.5,1s1.1-0.3,1.6-0.8c0.4-0.6,0.6-1.6,0.7-3.2L490.4,102.5L490.4,102.5z"/>
	<path class="st0" d="M552.6,145.7h-24.3l-4.3,9.9c-1,2.4-1.6,4.3-1.6,5.5c0,1,0.4,1.8,1.4,2.5c0.9,0.7,2.9,1.2,5.9,1.4v1.7h-19.8
		V165c2.7-0.5,4.4-1.1,5.1-1.8c1.6-1.5,3.3-4.5,5.3-9.1l22.1-51.8h1.6l21.9,52.3c1.7,4.2,3.3,7,4.8,8.2c1.4,1.2,3.4,2,6,2.1v1.7H552
		v-1.7c2.5-0.1,4.2-0.6,5-1.2c0.9-0.7,1.3-1.6,1.3-2.6c0-1.4-0.7-3.5-1.9-6.5L552.6,145.7z M551.3,142.3l-10.7-25.4l-10.9,25.4
		H551.3z"/>
	<path class="st0" d="M640.6,149.4l1.5,0.3l-5.4,17.1H588v-1.7h2.4c2.7,0,4.6-0.9,5.7-2.6c0.6-1,1-3.3,1-6.9v-40.5
		c0-3.9-0.4-6.4-1.3-7.4c-1.2-1.3-3-2.1-5.4-2.1H588v-1.7h28.5v1.7c-3.3,0-5.7,0.3-7,0.9c-1.3,0.7-2.3,1.5-2.8,2.5s-0.7,3.4-0.7,7.1
		v39.5c0,2.6,0.2,4.3,0.7,5.3c0.4,0.7,0.9,1.1,1.7,1.4s3.2,0.4,7.3,0.4h4.6c4.8,0,8.2-0.3,10.1-1c2-0.7,3.8-2,5.4-3.8
		C637.4,156.2,639.1,153.3,640.6,149.4"/>
	<path class="st0" d="M682,165.1v1.7h-27v-1.7h2.2c2.6,0,4.5-0.8,5.7-2.3c0.7-1,1.1-3.4,1.1-7.1v-40.6c0-3.2-0.2-5.3-0.6-6.3
		c-0.3-0.8-0.9-1.4-1.9-2c-1.4-0.7-2.8-1.1-4.3-1.1H655V104h27v1.7h-2.3c-2.6,0-4.5,0.8-5.6,2.3c-0.8,1-1.2,3.4-1.2,7.1v40.6
		c0,3.2,0.2,5.3,0.6,6.3c0.3,0.8,0.9,1.4,1.9,2c1.3,0.7,2.7,1.1,4.3,1.1H682L682,165.1z"/>
	<path class="st0" d="M747.7,103.9l0.7,14.7h-1.8c-0.3-2.6-0.8-4.4-1.4-5.6c-0.9-1.8-2.2-3.1-3.8-4s-3.7-1.3-6.3-1.3h-8.8v48.1
		c0,3.8,0.4,6.3,1.2,7.2c1.2,1.3,3,2,5.5,2h2.2v1.7h-26.6V165h2.2c2.6,0,4.5-0.8,5.6-2.4c0.7-1,1-3.2,1-6.8v-47.9h-7.6
		c-2.9,0-5,0.2-6.3,0.7c-1.6,0.6-3,1.7-4.1,3.4c-1.2,1.7-1.8,3.9-2.1,6.8h-1.7l0.7-14.7L747.7,103.9L747.7,103.9z"/>
	<path class="st0" d="M795,145.7h-24.3l-4.3,9.9c-1.1,2.4-1.6,4.3-1.6,5.5c0,1,0.5,1.8,1.4,2.5s2.9,1.2,5.9,1.4v1.7h-19.8V165
		c2.6-0.5,4.3-1.1,5.1-1.8c1.6-1.5,3.3-4.5,5.2-9.1l22.1-51.8h1.6l21.8,52.3c1.8,4.2,3.4,7,4.8,8.2c1.4,1.2,3.4,2,6,2.1v1.7h-24.8
		v-1.7c2.6-0.1,4.2-0.6,5.1-1.2c0.9-0.7,1.3-1.6,1.3-2.6c0-1.4-0.6-3.5-1.8-6.5L795,145.7z M793.8,142.3l-10.7-25.4l-10.9,25.4
		H793.8z"/>
	<path class="st0" d="M872.2,102.5v21.7h-1.7c-0.6-4.2-1.5-7.5-3-10c-1.4-2.5-3.5-4.4-6.1-5.9c-2.7-1.4-5.4-2.2-8.3-2.2
		c-3.2,0-5.9,1-8,2.9c-2.1,2-3.1,4.2-3.1,6.7c0,1.9,0.7,3.7,2,5.2c1.9,2.3,6.5,5.4,13.7,9.3c5.9,3.2,9.8,5.6,12,7.2
		c2.2,1.7,3.8,3.7,5,6c1.1,2.3,1.7,4.7,1.7,7.2c0,4.8-1.8,8.9-5.5,12.3s-8.4,5.2-14.3,5.2c-1.8,0-3.5-0.2-5.2-0.4
		c-1-0.1-2.9-0.7-5.9-1.7s-4.9-1.5-5.8-1.5c-0.8,0-1.4,0.2-1.8,0.7c-0.5,0.4-0.8,1.4-1,2.9h-1.7v-21.6h1.7c0.8,4.5,1.9,7.9,3.3,10.2
		c1.4,2.2,3.4,4.1,6.2,5.6s5.8,2.2,9.2,2.2c3.9,0,6.9-1,9.2-3.1c2.2-2,3.4-4.5,3.4-7.2c0-1.5-0.4-3.1-1.3-4.7c-0.9-1.6-2.2-3-4-4.4
		c-1.2-1-4.5-2.9-9.9-5.9s-9.2-5.4-11.4-7.2c-2.3-1.8-4-3.8-5.2-5.9c-1.2-2.2-1.8-4.5-1.8-7.1c0-4.5,1.8-8.4,5.2-11.7
		c3.4-3.3,7.8-4.9,13.2-4.9c3.4,0,6.9,0.8,10.7,2.5c1.7,0.8,3,1.2,3.7,1.2c0.8,0,1.4-0.3,1.9-0.7c0.5-0.5,0.9-1.4,1.2-2.9H872.2
		L872.2,102.5z"/>
</g>
<polygon class="st1" points="47.1,158.3 110.8,158.3 78.8,79.8 "/>
<path class="st1" d="M79.7,183.8c11.3,0,30.5-2.8,33-16.3H45.4C48.7,181,68.4,183.8,79.7,183.8"/>
<polygon class="st1" points="187.4,79.8 155.7,158.3 219.4,158.4 "/>
<path class="st1" d="M188.3,183.8c11.3,0,30.4-2.8,32.9-16.3l-67.2-0.1C157.4,181,177,183.8,188.3,183.8"/>
<path class="st1" d="M133.2,0.5C60.1,0.4,0.5,60,0.5,133.1c0,73.2,59.4,132.7,132.6,132.7s132.7-59.5,132.8-132.6
	C265.9,60.1,206.3,0.5,133.2,0.5 M188.3,193c-18.6,0-46.4-8-43.9-31.2l39.1-96.9h-45.8v135.4h55.7v9.2H72.9v-9.2h55.6V64.9l-46-0.1
	l39.3,96.3c0,0,0.5,2.7,0.1,5.9c-2.4,20.7-24.6,26-42.3,26c-18.7,0-46.4-8.1-43.9-31.2l43-106.4l49.9,0.3v-5.1h9.1v5.2h49.5
	l43.3,105.4c0,0,0.4,2.7,0,5.8C228.2,187.7,206.1,193,188.3,193"/>
<g>
	<path class="st2" d="M243.1,129.9c0,60.8-49.2,110-110,110c-60.7,0-110-49.2-110-110c0-60.7,49.2-110,110-110
		C193.9,20,243.1,69.2,243.1,129.9"/>
	<polygon class="st3" points="47.1,158.3 110.8,158.3 78.7,79.9 	"/>
	<path class="st3" d="M79.6,183.8c11.3,0,30.4-2.8,33-16.3H45.4C48.7,181,68.3,183.8,79.6,183.8"/>
	<polygon class="st3" points="187.3,79.9 155.7,158.4 219.3,158.4 	"/>
	<path class="st3" d="M188.3,183.9c11.3,0,30.4-2.8,32.9-16.3l-67.2-0.1C157.3,181.1,176.9,183.9,188.3,183.9"/>
	<path class="st3" d="M133.2,0.6C60.1,0.5,0.5,60,0.5,133.1c0,73.1,59.4,132.6,132.6,132.7c73.1,0,132.7-59.4,132.7-132.6
		C265.8,60.1,206.3,0.6,133.2,0.6 M188.3,193c-18.6,0-46.3-8-43.9-31.2l39.1-96.9l-45.8,0l0,135.4l55.7,0v9.2l-120.4,0v-9.2l55.6,0
		l0-135.4l-46-0.1l39.3,96.3c0,0,0.5,2.7,0.1,5.9c-2.4,20.7-24.6,26-42.3,26c-18.7,0-46.4-8.1-43.9-31.2L78.7,55.4l49.8,0.3v-5.1
		h9.1v5.2l49.5,0l43.3,105.4c0,0,0.4,2.7,0,5.9C228.2,187.7,206,193,188.3,193"/>
</g>
<g>
	<path d="M555.5,87.2c-0.5,0.6-1.2,1.2-2,1.7l-13.7,9h-3.6l13.1-13.6c0.5-0.5,1-1,1.7-1.5c0.7-0.5,1.4-0.8,2.2-0.8
		c0.7,0,1.4,0.3,2.1,0.8c0.6,0.5,0.9,1.3,0.9,2.2C556.2,86,555.9,86.7,555.5,87.2"/>
</g>
</svg>
