<?xml version="1.0" encoding="utf-8"?>
<!-- Generator: Adobe Illustrator 22.1.0, SVG Export Plug-In . SVG Version: 6.00 Build 0)  -->
<svg version="1.1" id="Capa_1" xmlns="http://www.w3.org/2000/svg" xmlns:xlink="http://www.w3.org/1999/xlink" x="0px" y="0px"
	 viewBox="0 0 541.6 5" style="enable-background:new 0 0 541.6 5;" xml:space="preserve">
<g>
	<circle cx="2.6" cy="2.5" r="2.5"/>
	<circle cx="13.6" cy="2.5" r="2.5"/>
	<circle cx="25.6" cy="2.5" r="2.5"/>
	<circle cx="36.6" cy="2.5" r="2.5"/>
	<circle cx="47.6" cy="2.5" r="2.5"/>
	<circle cx="59.6" cy="2.5" r="2.5"/>
	<circle cx="70.6" cy="2.5" r="2.5"/>
	<circle cx="81.6" cy="2.5" r="2.5"/>
	<circle cx="93.6" cy="2.5" r="2.5"/>
	<circle cx="104.6" cy="2.5" r="2.5"/>
	<circle cx="115.6" cy="2.5" r="2.5"/>
	<circle cx="127.6" cy="2.5" r="2.5"/>
	<circle cx="138.6" cy="2.5" r="2.5"/>
	<circle cx="149.6" cy="2.5" r="2.5"/>
	<circle cx="161.6" cy="2.5" r="2.5"/>
	<circle cx="172.6" cy="2.5" r="2.5"/>
	<circle cx="183.6" cy="2.5" r="2.5"/>
	<circle cx="195.6" cy="2.5" r="2.5"/>
	<circle cx="207.6" cy="2.5" r="2.5"/>
	<circle cx="218.6" cy="2.5" r="2.5"/>
	<circle cx="230.6" cy="2.5" r="2.5"/>
	<circle cx="241.6" cy="2.5" r="2.5"/>
	<circle cx="252.6" cy="2.5" r="2.5"/>
	<circle cx="264.6" cy="2.5" r="2.5"/>
	<circle cx="277.1" cy="2.5" r="2.5"/>
	<circle cx="288.1" cy="2.5" r="2.5"/>
	<circle cx="300.1" cy="2.5" r="2.5"/>
	<circle cx="311.1" cy="2.5" r="2.5"/>
	<circle cx="322.1" cy="2.5" r="2.5"/>
	<circle cx="334.1" cy="2.5" r="2.5"/>
	<path d="M342.6,2.5c0,1.4,1.1,2.5,2.4,2.5s2.4-1.1,2.4-2.5S346.3,0,345,0S342.6,1.1,342.6,2.5z"/>
	<path d="M353.2,2.5c0,1.4,1.1,2.5,2.4,2.5s2.4-1.1,2.4-2.5S356.9,0,355.6,0C354.2,0,353.2,1.1,353.2,2.5z"/>
	<ellipse cx="367.1" cy="2.5" rx="2.4" ry="2.5"/>
	<ellipse cx="377.6" cy="2.5" rx="2.4" ry="2.5"/>
	<path d="M385.8,2.5c0,1.4,1.1,2.5,2.4,2.5s2.4-1.1,2.4-2.5S389.5,0,388.2,0S385.8,1.1,385.8,2.5z"/>
	<ellipse cx="399.7" cy="2.5" rx="2.4" ry="2.5"/>
	<circle cx="413.1" cy="2.5" r="2.5"/>
	<circle cx="424.1" cy="2.5" r="2.5"/>
	<circle cx="436.1" cy="2.5" r="2.5"/>
	<circle cx="447.1" cy="2.5" r="2.5"/>
	<circle cx="458.1" cy="2.5" r="2.5"/>
	<circle cx="470.1" cy="2.5" r="2.5"/>
	<circle cx="482.1" cy="2.5" r="2.5"/>
	<circle cx="493.1" cy="2.5" r="2.5"/>
	<circle cx="516.1" cy="2.5" r="2.5"/>
	<circle cx="527.1" cy="2.5" r="2.5"/>
	<circle cx="539.1" cy="2.5" r="2.5"/>
	<circle cx="505.1" cy="2.5" r="2.5"/>
</g>
</svg>
