<?xml version="1.0" encoding="utf-8"?>
<!-- Generator: Adobe Illustrator 22.1.0, SVG Export Plug-In . SVG Version: 6.00 Build 0)  -->
<svg version="1.1" id="Capa_1" xmlns="http://www.w3.org/2000/svg" xmlns:xlink="http://www.w3.org/1999/xlink" x="0px" y="0px"
	 viewBox="0 0 8.9 552.6" style="enable-background:new 0 0 8.9 552.6;" xml:space="preserve">
<g>
	<circle cx="4.4" cy="4.4" r="2.5"/>
	<circle cx="4.4" cy="15.4" r="2.5"/>
	<circle cx="4.4" cy="27.4" r="2.5"/>
	<circle cx="4.4" cy="38.4" r="2.5"/>
	<circle cx="4.4" cy="49.4" r="2.5"/>
	<circle cx="4.4" cy="61.4" r="2.5"/>
	<circle cx="4.4" cy="72.4" r="2.5"/>
	<circle cx="4.4" cy="83.4" r="2.5"/>
	<circle cx="4.4" cy="95.4" r="2.5"/>
	<circle cx="4.4" cy="106.4" r="2.5"/>
	<circle cx="4.4" cy="117.4" r="2.5"/>
	<circle cx="4.4" cy="129.4" r="2.5"/>
	<circle cx="4.4" cy="140.4" r="2.5"/>
	<circle cx="4.4" cy="151.4" r="2.5"/>
	<circle cx="4.4" cy="163.4" r="2.5"/>
	<circle cx="4.4" cy="174.4" r="2.5"/>
	<circle cx="4.4" cy="185.4" r="2.5"/>
	<circle cx="4.4" cy="197.4" r="2.5"/>
	<circle cx="4.4" cy="209.4" r="2.5"/>
	<circle cx="4.4" cy="220.4" r="2.5"/>
	<circle cx="4.4" cy="232.4" r="2.5"/>
	<circle cx="4.4" cy="243.4" r="2.5"/>
	<circle cx="4.4" cy="254.4" r="2.5"/>
	<circle cx="4.4" cy="266.4" r="2.5"/>
	<circle cx="4.4" cy="278.9" r="2.5"/>
	<circle cx="4.4" cy="289.9" r="2.5"/>
	<circle cx="4.4" cy="301.9" r="2.5"/>
	<circle cx="4.4" cy="312.9" r="2.5"/>
	<circle cx="4.4" cy="323.9" r="2.5"/>
	<circle cx="4.4" cy="335.9" r="2.5"/>
	<path d="M4.4,344.4c-1.4,0-2.5,1.1-2.5,2.4s1.1,2.4,2.5,2.4c1.4,0,2.5-1.1,2.5-2.4S5.8,344.4,4.4,344.4z"/>
	<path d="M4.4,355c-1.4,0-2.5,1.1-2.5,2.4c0,1.3,1.1,2.4,2.5,2.4c1.4,0,2.5-1.1,2.5-2.4C6.9,356,5.8,355,4.4,355z"/>
	<ellipse cx="4.4" cy="368.9" rx="2.5" ry="2.4"/>
	<ellipse cx="4.4" cy="379.4" rx="2.5" ry="2.4"/>
	<path d="M4.4,387.6c-1.4,0-2.5,1.1-2.5,2.4s1.1,2.4,2.5,2.4c1.4,0,2.5-1.1,2.5-2.4S5.8,387.6,4.4,387.6z"/>
	<ellipse cx="4.4" cy="401.5" rx="2.5" ry="2.4"/>
	<circle cx="4.4" cy="414.9" r="2.5"/>
	<circle cx="4.4" cy="425.9" r="2.5"/>
	<circle cx="4.4" cy="437.9" r="2.5"/>
	<circle cx="4.4" cy="448.9" r="2.5"/>
	<circle cx="4.4" cy="459.9" r="2.5"/>
	<circle cx="4.4" cy="471.9" r="2.5"/>
	<circle cx="4.4" cy="483.9" r="2.5"/>
	<circle cx="4.4" cy="494.9" r="2.5"/>
	<circle cx="4.4" cy="517.9" r="2.5"/>
	<circle cx="4.4" cy="528.9" r="2.5"/>
	<circle cx="4.4" cy="540.9" r="2.5"/>
	<circle cx="4.4" cy="506.9" r="2.5"/>
</g>
</svg>
