<?xml version="1.0" standalone="no"?>
<!DOCTYPE svg PUBLIC "-//W3C//DTD SVG 1.1//EN" "http://www.w3.org/Graphics/SVG/1.1/DTD/svg11.dtd" >
<svg xmlns="http://www.w3.org/2000/svg">
<metadata>Generated by IcoMoon</metadata>
<defs>
<font id="icomoon" horiz-adv-x="1024">
<font-face units-per-em="1024" ascent="960" descent="-64" />
<missing-glyph horiz-adv-x="1024" />
<glyph unicode="&#x20;" horiz-adv-x="512" d="" />
<glyph unicode="&#xe900;" glyph-name="familia" d="M257 832.4c-21.2-2-51.4-11.4-71-22-38.4-20.8-72-60.6-86.2-102.2-8.2-23.6-12.6-63.6-9-83.2 0.4-3.2 1.6-10 2.2-14.8 0.8-4.8 3.6-15.2 6.4-23 16.4-45.6 46.4-81.2 86.8-103 43.6-23.6 93-29.2 139.4-16.2 68 19 117.4 72.8 133.2 144.6 1.2 5 2 5.4 12.2 5.4h11v-128c0-112.4-0.4-128-3-128.2-4.4-0.4-4.6-0.6-19-5.4-47-16-86-58.4-98-106.8l-2.4-9.6h-51.2l-1.4 8.2c-2.2 12.4-11.8 34.6-21.2 48.6-36.6 54.4-101.6 79.4-164.8 63.2-14.2-3.6-42.4-16-49.4-21.8-30.8-25.2-45-43.4-55.4-71.2-30-80.2 11-169.8 90.8-198.6 64-23.2 140.6 1.4 177.2 56.8 12.2 18.2 23.8 45.2 23.8 55 0 3.6 1.6 3.8 26 3.8h26l1-5.4c7.8-36 33-72.2 65-93.6 75.8-50.2 178.2-23.4 219.6 57.6 4.4 8.4 9.6 21.2 11.4 28.4l3.6 13h56.4l3.6-12.4c1.8-7 3.8-14 4.2-15.6 1.6-6 14-27.2 22.4-38 42.6-55.2 120.6-73.8 184.2-44 67.4 31.4 100.8 102 83.8 177-6.4 28.6-29.6 63-55.8 82.6-61.6 46.4-145.6 40.6-199.4-13.4-20.8-20.8-34-43.6-40.8-70.2l-2.2-9-56.6-1.2-2.4 10.6c-7.2 30.8-29.4 63.6-56.8 84.4-16.8 12.6-47.2 26.2-60.6 27-2 0.2-2.6 27.2-2.6 128.2v128h21.8l2.2-8.4c5.6-21.6 8.4-29.6 15.6-44.6 14.2-29.4 36.4-54.4 64.8-73.4 84-56 200-32.4 257 52.4 14.4 21.4 26.6 53.6 29.6 77.8 1.4 12.8 1.6 45 0 52.2-0.6 2.8-1.6 8.2-2.2 12-6.4 34-30.2 74.8-57.6 99.2-16.2 14.2-23.4 19-42.6 28.6-39.8 19.8-87 24.6-127.6 13.2-9.8-2.8-19.4-5.4-21.2-5.8-6-1.6-24.6-11.6-37.8-20.4-12.4-8.2-29.4-23.6-39.6-35.8-15.4-18-31.4-50.4-36.4-73-1.2-6-2.8-12.6-3.4-14.4-0.8-3.4-5-3.6-50.6-3.6-53.4 0-52-0.2-52 10.4 0 6.4-9.6 33.4-17.4 48.6-16.8 33-46.8 62.8-80.2 79.8-13 6.6-34.6 14.4-45.4 16.2-4.4 0.8-10.2 1.8-13 2.4-6 1.2-36.6 2-45 1zM299 791.2c49.6-8 93-42.8 111.6-89.6 11.2-28 13.8-63.8 6.6-90.4-12.2-45.4-46.4-84-88.4-99.8-20.6-7.8-31.6-9.8-53.8-9.8-55.8 0-105.6 31.2-130 81.2-19.8 40.4-20 86.2-0.6 127.2 4 8.2 9.6 18.2 12.4 22 24.4 32.4 61.6 54.8 97.8 59.2 4.6 0.6 8.6 1.2 8.8 1.6 1 0.8 27.4-0.2 35.6-1.6zM768.6 791.2c3-0.6 7.6-1.6 10.4-2.2 10.2-2.2 28.4-9.8 41-17.4 63-37.8 87.8-119.2 56.4-186.2-37.2-79.8-137.8-108.8-210.6-60.8-17.2 11.2-28.4 21.8-38.8 36.4-20 28-27.8 51.8-27.8 85 0 20.6 1.6 32 6.6 46.4 17 49.2 56.6 85.2 106.8 97.2 15 3.4 43.2 4.2 56 1.6zM178 323c33.8-5 67.6-30.8 82.8-63.6 13-28.4 13.6-61.4 1.6-90.4-17-41-58.4-69-102.2-69.2-64.2-0.2-117.6 55-113.6 117.2 1.4 21 2.4 25 10.2 41.8 8.6 18.8 20.2 32.8 35.8 44 16.2 11.6 28.4 16.8 47.2 20 15.2 2.6 21 2.6 38.2 0.2zM538.8 321c32.6-8.4 65.6-37.8 75.8-67.6 6.6-19.4 7.6-23.6 7.8-37.6 0.6-45.8-23-85-63.8-104.8-7.8-3.8-17.8-7.6-22-8.2s-8.2-1.6-9-2c-2.2-1.4-28-1.2-36.6 0.2-22.6 3.8-51.6 20.4-66.4 38-22 26.4-31.4 63-24.6 96.6 8.8 43.6 49.2 81.8 92.6 87.8 4.6 0.6 8.6 1.2 9 1.6 1.4 1.4 26.8-1.4 37.2-4zM885.6 323c23-3.2 50.8-18.4 66.2-36.4 38.8-45.4 36.4-112.6-5.6-154.2-36.4-36-92.8-43-136-16.8-51 31.2-69.4 91.8-44 145.4 15.8 33.2 49.2 57.6 85.8 62.8 11.8 1.6 17 1.6 33.6-0.8z" />
<glyph unicode="&#xe901;" glyph-name="espana" d="M140.8 896.4c-5.6-2-18.6-9-29-15.6-10.4-6.8-33.6-21.4-51.8-32.8-38.6-24-43-27.6-49.2-41-7.6-15.8-6.6-24.8 6.4-57.6 13.8-35 16.6-48.4 14.2-69.2-2.2-18.4 0.8-27 12.2-35.8 7.8-5.8 15.8-6.6 42.4-3.2 27.6 3.2 58.8 1.8 80.6-3.8 20-5.4 43-15.4 48.2-21.2 3.6-4 2.4-5.6-14.8-20-30-25-39.8-38.8-59-83.6-18-42.2-19-44.4-37.6-82.6-8.6-18.2-16.8-35.2-17.8-38-3.4-8.4-11.6-36.6-12.6-43-0.6-3.2-2-10.4-3-16-1-5.4-2.4-13.2-3-17s-1.4-9.2-2-12c-0.4-2.8-1.4-11.2-2.2-19-0.6-7.6-1.6-16.2-1.8-19-1.6-12.2-3.8-56.4-3.8-71.2 0.2-20.2 5.4-32.2 17.6-41.2 10.6-7.8 15.4-9.6 29-10.8 12.8-1.2 27.2-7.4 29.2-12.4 0.8-1.8 1.8-10.2 2.2-18.4 2-33 13.8-57 43-86.2 22.8-22.8 34.6-29.6 52.8-30 14.4-0.4 23.8 3.2 39 15 26.2 20.2 62.2 38.8 88.6 45.8 12.6 3.2 22.4 4.2 42.4 4.4 22.8 0 49.8-2 53.2-4.2 0.6-0.4 4.2-1.2 8-1.8s15.4-3.4 25.8-6.2c30-8.2 53.4-4.8 73.4 10.4 3.8 2.8 21.2 24.4 39 48 42.2 56.2 58 70.8 108.6 99.8 24 13.6 33.2 22.2 41 37.6 6.6 13.2 7.4 18.2 9 54.4 2.4 54.2 12.4 99.6 29.2 130.8 19.8 37.4 76.4 69.4 164.8 93.2 23 6.2 28.6 8.8 40.4 18.6 8.4 6.8 19.8 26 21.6 36.4 0.4 2.8 2.2 14 4.2 25 4.4 26.2 4.4 42.2 0.2 50.2-5.4 10.2-13.4 18.6-22.2 23.4-7.8 4.2-11 4.4-59.2 4.8-28 0.2-51.6 0.6-52.2 0.6-0.8 0-1.8 3.4-2.6 7.6-1.8 11-12.6 21.2-27.2 25.4-0.6 0.2-2.8 1-5 2-21.2 8.8-51.2 19.4-56 19.8-9.8 0.8-19-3.2-25.8-11.2l-6.6-7.6-39.8 13.8c-21.8 7.6-41.2 14.4-43 15.2-2.2 0.8-2.8 2.8-2.2 6 1.6 9.2-3.6 24.4-11.8 33.6-11.8 13.6-18.8 15.6-62.6 18.4-20 1.2-36.4 2.4-55.2 4-7.2 0.6-18.4 1.4-25 2-6.6 0.4-17.4 1.2-24 2-29.6 2.8-36.2 3.4-39 4-1.6 0.2-10.2 1.2-18.8 2s-17.6 1.8-20 2.2c-2.4 0.4-7.8 1.2-12.2 1.8-8 0.8-10.4 1.2-34 5.2-14 2.4-50.2 11.8-69 17.8-18.4 6-52 18-59 21-3.2 1.4-16.4 6.8-29 12s-28.2 11.8-34.6 14.4c-15.2 6.4-29.6 7.4-42.6 3zM190 847c71.2-30.6 145-54 188-60 5-0.6 10.4-1.6 12-2s8.2-1.4 14.6-2c6.4-0.8 13.2-1.6 15-2 1.8-0.2 9.2-1.2 16.4-1.8 7.2-0.8 16.2-1.8 20-2.2s12.8-1.4 20-2c7.2-0.6 17-1.6 22-2 10.6-1 27.4-2.4 48-4 8.2-0.8 18.2-1.6 22-2s18.8-1.4 33-2c27.4-1.6 32.8-2.2 34.8-4 0.6-0.8 0.8-7 0.6-14-0.8-18 6.8-30.6 21.4-35 4-1.2 9-3 11.2-4s23.8-8.6 48-17.2c56.4-19.8 66.6-20.2 79-2.6l4 5.6 19.4-8c10.6-4.2 20.4-7.8 21.6-7.8 1.4 0 4-4 6-9 3.8-10.4 11.8-19 21.8-23.8 6-2.8 14.4-3.4 58-3.4 55 0 57.8-0.4 56.2-10.4-0.4-2.4-1.8-10.2-3-17.4-4.8-30.4-6.4-35.8-12.6-41.6-3.8-3.6-17.8-10-23-10.4-8.4-0.8-51.6-14.8-75.4-24.6-62.6-25.6-99.2-54.4-119-93.4-12-23.8-23.6-64.8-27-95-0.8-6.6-1.8-13.8-2.2-16s-1.4-16.6-2-32c-1.6-40.6-3.4-44.8-25.8-57-33.2-18.2-60.2-37.6-80.2-57.4-7.2-7.2-26.6-31.2-43.2-53.4-38.8-52-41.4-53.6-73.6-45-38.2 10.2-57.6 12.8-93 12.8-32.4 0-42.8-1.6-68.4-10-30.2-10-54.4-23-84.8-45.2-7.4-5.4-15.4-9.8-18.2-9.8-5.6 0-21.6 13-34.8 28.4-15.4 17.8-20 29.4-21.6 55.2-2.4 35.8-22.6 57-59.8 62.2-7.6 1-14.8 2.8-16.2 4-1.8 1.4-2.4 6.8-2 16.6 0.4 15.6 2.6 49.4 3.8 62.6 2 19.2 3.2 30.4 4 35 0.4 2.8 1.4 8.2 1.8 12 5.2 34.6 12.6 58.8 26.6 86.8 12.8 25.8 34.2 73.2 46.6 102.8 7.4 18 18 36.6 26.4 46.4 1.4 1.8 8.4 8 15.6 13.8 26.2 21.6 36.4 36.2 36.4 53.2 0 26.2-29.2 47.4-85.4 62-22.8 6-51.6 7.4-86.4 4.6l-14.4-1v13.2c-0.2 22.2-3.6 36.2-18.6 72.6-4.4 10.8-7.4 21.2-6.8 23 1.6 4.8 104.8 70 111.6 70.6 0.6 0 14.8-5.8 31.6-13z" />
<glyph unicode="&#xe902;" glyph-name="dni" d="M41 825.4c-7-2.2-18.8-10.6-23-16.2-9.4-12.4-9 1.6-8.8-352.2 0-308.4 0.4-332.6 3.4-339.8 5.6-13 16-24 28.6-30.2l11.8-5.8 72.6-0.2c39.8 0 72.6 0.4 72.6 1 0.2 0.6 0.6 8.2 0.8 17 0.4 15.6 1.6 19.2 9.8 31.4 5 7.4 22 15.6 32.6 15.6 16.4 0 31-9.4 39-25 3.2-6 4.2-12 4.4-24l0.2-16h468l0.4 16c0.2 18.4 3.4 27.2 13 36.4 17.8 17.2 44.2 16.4 61.4-1.6 8-8.6 11.6-21 11-37-0.4-8.2 0.2-12.8 1.8-13.2 1.4-0.6 30.8-0.8 65.4-0.6 61 0.4 63.4 0.4 73.6 5 6.4 2.8 13.8 8.4 19.2 14.2 16.4 18.4 15.2-11.8 15.2 359.8v331.2l-5.2 10.4c-6 12-14.8 19.6-27.4 23.4-7 2-95.8 2.6-471.6 2.4-297.6 0-465-0.6-468.8-2zM971.6 785.6c1.8-1.6 2.4-69.6 2.4-327.4 0-356 0.8-331.6-11.4-335.6-4.4-1.4-74.6-2.2-84.6-0.8-1 0-2 1.8-2 3.8 0 6.6-9.4 23.4-18.8 33.8-6.6 7.2-14.2 12.8-24.8 18-14.6 7.4-16 7.6-36.4 7.6-19.6 0-22-0.4-34.6-6.4-16.6-8-32.6-23.6-40-39.4-3-6.2-5.4-12.6-5.4-14 0-1.6-1.6-3-3.6-3.6-1.8-0.4-90.2-0.6-196.2-0.6h-193l-1.2 5c-6 21.6-22.4 41-43.6 51.4-14.6 7.2-16 7.6-35.2 7.6-16.8 0-22.4-0.8-33.2-5-17-6.6-35.8-24.6-43.2-41.2-2.8-6.6-5.8-13.2-6.6-14.8-1.4-2.6-9.2-3-51-3l-49.2 0.2-5.6 5.4-5.4 5.4v325.4c0 247 0.6 325.8 2.4 327.6 3 3.2 916.2 3.6 920.2 0.6zM495 751.6c-40-5.4-77.8-28.4-96.6-58.8-6.8-11-15.2-32.8-17.4-45.8-2.6-14.6-2.4-46.8 0.2-65 2.2-15.4 2.2-19-0.2-26.2-3.8-10.4-3.8-35.6-0.2-48.8 3.6-13.6 11.6-28.4 20-37.6 4-4.2 7.2-9 7.2-10.6 0-4.8 9.4-22 16.2-29.8 7.2-8 8.8-17.4 4-21.8-1.8-1.6-17.8-8.8-35.6-16.2s-38.8-17.2-47-22c-37.4-22-62.6-57-68.8-96-3.8-23.8-1.6-35.4 9.6-48 14.8-16.8-3.6-15.6 232.6-15.8 139.8-0.2 212.4 0.4 217 1.8 11.6 3.4 19 9 26 19.4 5.8 9 6.4 11.6 6.4 24.4 0 18-6.2 41.4-15.6 59.2-17.2 32.6-47.6 55.6-102.8 77.6-8.2 3.2-20.2 8.4-26.4 11.2-10.6 4.8-11.6 5.8-11.6 11.8 0 4.2 1.8 8 5.4 11.4 7.4 7.2 13.4 17.4 17.6 30 2 6.6 6.2 13.8 10.4 17.8 17.4 17.4 24.8 48.6 16.6 71.4-2 6-3.4 12.4-3 14.4 0.4 1.8 2.2 10.6 4 19.4 3.6 16.4 4.8 51.8 2.2 66-6.8 40-27.4 65.6-61.2 76.2-6 1.8-15.6 6.8-21.2 11-24.2 18.4-51.4 24.4-87.8 19.4zM537 711c9.8-2.6 17-7 26.8-16 6.8-6.2 11.4-8.8 18.2-9.8 31-4.8 44.8-26.2 44.4-68.2-0.2-14.6-1.6-25.4-5.4-40-2.8-11-5.2-21.6-5.2-23.4s2.2-8.2 5.2-14.4c4-8.6 5-12.6 3.8-18.6-2-10.8-5.6-17.4-13.8-24-5-4.2-8.2-9.4-11.2-18.8-5.6-17.2-7-19.4-17.8-29.8l-9.4-9-0.4-21c-0.6-34 4.8-39.6 58.4-62 37-15.6 48.6-21.4 61.4-31.8 17-13.6 26-26.6 32-46 4-12.6 5.4-28 2.6-28.4-4.4-0.6-404.2-0.8-407-0.2-5 1.2-5.6 4.8-2.6 19 5 23.8 17 42.4 37.2 57.6 13.4 10 23.6 15.4 52.4 27 44.8 18.4 56.6 26 62.4 39.8 1.4 3.6 2.2 14.4 2.2 26.6l-0.4 20.6-10.2 10c-9.8 9.4-15.6 20.4-19.6 36.4-0.8 2.6-3.8 6.2-7 8-3.2 2-8 8.2-11 14.4-6.6 13.4-7 26.8-1 40.6 4 9.2 4.2 11 2 21.8-8 37.6-6.2 71 5 93.6 10.6 22 37.4 40.4 66 45.6 15 2.8 32.2 3 42 0.4z" />
<glyph unicode="&#xe903;" glyph-name="arroba" d="M963.42 207.38h-31.293c-3.359 0-6.492-1.638-8.397-4.383-20.378-29.245-44.605-57.057-72.028-82.678-27.361-25.62-58.040-48.23-91.218-67.277-33.116-18.964-68.71-33.956-105.82-44.585-37.048-10.568-76.37-15.913-116.838-15.913-61.071 0-119.849 9.851-174.694 29.348-54.6 19.354-103.26 48.599-144.671 86.917-41.37 38.257-74.609 86.487-98.816 143.34-24.269 56.893-36.577 123.924-36.577 199.25 0 62.73 11.612 122.020 34.55 176.21 22.897 54.19 55.091 102.277 95.703 142.909 40.55 40.55 89.108 72.97 144.282 96.379 55.112 23.368 115.753 35.226 180.224 35.226 57.405 0 111.555-9.155 160.993-27.238 49.254-18.043 92.262-43.663 127.836-76.124 35.451-32.42 63.672-71.987 83.866-117.596 20.173-45.629 30.392-96.379 30.392-150.856 0-48.292-8.438-93.921-25.108-135.578-16.753-41.902-37.949-78.479-62.976-108.769-24.924-30.188-52.593-54.333-82.268-71.823-29.020-17.080-57.016-25.743-83.19-25.743-15.585 0-27.075 3.052-34.14 9.073-7.168 6.083-11.346 14.213-12.8 24.904-1.638 11.776-0.348 26.010 3.85 42.271 4.383 17.101 10.65 35.635 18.678 55.276l150.917 391.578c1.208 3.133 0.799 6.697-1.126 9.482s-5.079 4.444-8.438 4.444h-28.57c-4.301 0-8.151-2.703-9.626-6.738l-24.822-68.26c-13.947 28.385-35.738 51.487-65.024 68.813-35.922 21.258-77.025 32.031-122.143 32.031-49.766 0-95.969-13.128-137.318-38.973-40.858-25.539-76.145-58.696-104.858-98.55-28.57-39.629-50.995-83.292-66.662-129.843-15.688-46.551-23.654-92.262-23.654-135.823 0-28.385 5.038-55.521 14.991-80.63s23.675-47.227 40.755-65.7c17.162-18.616 37.949-33.608 61.706-44.524 52.122-23.982 115.569-20.5 178.237 0.983 27.853 9.523 53.309 26.911 75.94 51.835 2.007-16.445 8.991-30.7 20.91-42.598 17.777-17.777 41.472-26.788 70.472-26.788 34.284 0 70.083 10.527 106.373 31.232 35.82 20.46 68.792 48.701 97.976 83.948 29.061 35.062 53.187 76.472 71.66 123.105 18.534 46.735 27.914 97.649 27.914 151.306 0 63.672-11.981 122.307-35.594 174.203-23.593 51.835-56.238 96.461-97.014 132.588-40.714 36.065-88.965 64.184-143.401 83.579-54.354 19.333-113.152 29.143-174.735 29.143-68.096 0-133.448-12.616-194.232-37.478-60.723-24.842-114.647-59.863-160.297-104.079-45.609-44.237-82.043-97.26-108.319-157.614-26.276-60.375-39.608-127.406-39.608-199.209 0-87.163 14.725-163.615 43.766-227.246 29.041-63.57 67.645-116.675 114.749-157.778 47.084-41.062 101.356-71.721 161.3-91.075 59.617-19.272 121.057-29.041 182.62-29.041 42.394 0 85.176 5.837 127.119 17.347 41.779 11.489 82.104 28.017 119.91 49.213 37.642 21.115 73.073 47.247 105.349 77.619 32.276 30.454 59.863 64.594 81.981 101.458 1.905 3.154 1.946 7.107 0.123 10.301-1.782 3.215-5.181 5.202-8.868 5.202zM717.414 591.954l-95.293-246.968c-12.308-31.642-26.665-57.979-42.68-78.295-16.056-20.357-32.87-36.557-50.012-48.169-17.060-11.51-34.918-19.456-53.043-23.654-41.984-9.81-82.309-8.745-115.302 5.55-18.575 8.028-34.816 19.333-48.271 33.669-13.537 14.356-24.289 31.334-31.928 50.483-7.639 19.087-11.51 40.448-11.51 63.529 0 36.844 6.922 76.452 20.562 117.78 13.66 41.431 33.096 80.364 57.795 115.63 24.556 35.082 54.538 64.614 89.088 87.798 33.956 22.753 71.598 34.304 111.923 34.304 16.404 0 33.71-1.987 51.487-5.878 17.49-3.85 34.386-10.363 50.176-19.292 15.585-8.868 29.491-20.644 41.349-35 11.1-13.558 19.722-30.863 25.661-51.487z" />
<glyph unicode="&#xe904;" glyph-name="buzon" d="M634.88 878.080v-57.6c-0.057-0.576-0.090-1.244-0.090-1.92s0.033-1.344 0.097-2.004l-0.007-20.396v-40.96h-286.72c-101.55 0-184.32-82.77-184.32-184.32v-266.24h40.96v266.24c0 79.411 63.949 143.36 143.36 143.36s143.36-63.949 143.36-143.36v-307.2h-305.92c-0.191 0.006-0.415 0.010-0.64 0.010s-0.449-0.004-0.673-0.011l-122.847 0.001c-0.287 0.014-0.622 0.023-0.96 0.023s-0.673-0.008-1.007-0.024c-10.855-0.525-19.495-9.493-19.495-20.478 0-11.323 9.179-20.502 20.502-20.502 0.338 0 0.673 0.008 1.007 0.024l122.833-0.002c0.287-0.014 0.622-0.023 0.96-0.023s0.673 0.008 1.007 0.024l387.153-0.002v-204.8h40.96v204.8h40.96v-204.8h40.96v204.8h266.24c11.31 0.001 20.479 9.17 20.48 20.48v327.68c0 101.55-82.77 184.32-184.32 184.32h-81.92v-40.96h81.92c79.411 0 143.36-63.949 143.36-143.36v-307.2h-409.6v307.2c0 57.943-27.113 109.532-69.12 143.36h171.52v-108.16c-12.224-7.087-20.48-20.053-20.48-35.2 0-22.622 18.338-40.96 40.96-40.96s40.96 18.338 40.96 40.96c0 15.147-8.256 28.113-20.48 35.2v190.080h81.92v81.92h-122.88z" />
<glyph unicode="&#xe905;" glyph-name="credit-card" d="M122.88 857.6c-45.001 0-81.92-36.919-81.92-81.92v-450.56c0-40.017 29.090-73.042 67.2-80l26.88-151.68c7.876-44.321 50.42-74.437 94.72-66.56l685.44 122.24c44.321 7.876 74.437 50.42 66.56 94.72l-78.72 443.52c-0.385 2.162-1.053 4.094-1.974 5.874l0.054 82.446c0 45.001-36.919 81.92-81.92 81.92h-696.32zM122.88 816.64h696.32c22.869 0 40.96-18.091 40.96-40.96v-61.44h-778.24v61.44c0 22.869 18.091 40.96 40.96 40.96zM81.92 611.84h778.24v-286.72c0-22.869-18.091-40.96-40.96-40.96h-696.32c-22.869 0-40.96 18.091-40.96 40.96v286.72zM184.32 550.4v-40.96h327.68v40.96h-327.68zM901.12 464l40.32-227.2c4.002-22.505-10.755-43.357-33.28-47.36l-685.44-122.24c-22.505-4.002-43.357 10.755-47.36 33.28l-25.6 142.72h669.44c45.001 0 81.92 36.919 81.92 81.92v138.88z" />
<glyph unicode="&#xe906;" glyph-name="direccion" d="M501.76 939.52c-28.038 0-51.2-23.162-51.2-51.2v-51.2h-245.76c-0.287 0.014-0.622 0.023-0.96 0.023s-0.673-0.008-1.007-0.024c-10.407-1.013-18.513-9.755-18.513-20.39 0-0.031 0-0.062 0-0.093v-245.755c0.001-11.31 9.17-20.479 20.48-20.48h245.76v-61.44h-327.68c-0.287 0.014-0.622 0.023-0.96 0.023s-0.673-0.008-1.007-0.024c-5.684-0.572-10.652-3.43-14.001-7.637l-102.432-122.922c-2.799-3.473-4.492-7.939-4.492-12.8s1.694-9.327 4.523-12.839l102.369-122.841c3.785-4.699 9.538-7.68 15.988-7.68 0.004 0 0.008 0 0.012 0h327.679v-266.24h40.96v266.24h20.48v-266.24h40.96v266.24h266.24c11.31 0.001 20.479 9.17 20.48 20.48v245.76c-0.001 11.31-9.17 20.479-20.48 20.48h-266.24v61.44h348.16c0.004 0 0.008 0 0.012 0 6.45 0 12.203 2.981 15.957 7.641l102.431 122.919c2.799 3.473 4.492 7.939 4.492 12.8s-1.694 9.327-4.523 12.839l-102.369 122.841c-3.785 4.699-9.538 7.68-15.988 7.68-0.004 0-0.008 0-0.012 0h-348.159v51.2c0 28.038-23.162 51.2-51.2 51.2zM501.76 898.56c5.876 0 10.24-4.364 10.24-10.24v-51.2h-20.48v51.2c0 5.876 4.364 10.24 10.24 10.24zM225.28 796.16h666.24l85.12-102.4-85.12-102.4h-666.24v204.8zM491.52 550.4h20.48v-61.44h-20.48v61.44zM132.48 448h666.24v-204.8h-666.24l-85.12 102.4 85.12 102.4z" />
<glyph unicode="&#xe907;" glyph-name="door" d="M223.36 919.040c-10.454-1.014-18.56-9.756-18.56-20.392 0-0.031 0-0.062 0-0.093v-901.115c0.001-11.31 9.17-20.479 20.48-20.48h573.44c11.31 0.001 20.479 9.17 20.48 20.48v901.12c0.014 0.287 0.023 0.622 0.023 0.96s-0.008 0.673-0.024 1.007c-1.013 10.407-9.755 18.513-20.39 18.513-0.031 0-0.062 0-0.093 0h-573.435c-0.287 0.014-0.622 0.023-0.96 0.023s-0.673-0.008-1.007-0.024zM245.76 878.080h532.48v-860.16h-532.48v860.16zM706.56 468.48c-16.966 0-30.72-13.754-30.72-30.72s13.754-30.72 30.72-30.72c16.966 0 30.72 13.754 30.72 30.72s-13.754 30.72-30.72 30.72z" />
<glyph unicode="&#xe908;" glyph-name="lock" d="M512 898.56c-135.895 0-245.76-109.865-245.76-245.76v-102.4h-81.92c-33.699 0-61.44-27.741-61.44-61.44v-491.52c0-33.699 27.741-61.44 61.44-61.44h655.36c33.699 0 61.44 27.741 61.44 61.44v491.52c0 33.699-27.741 61.44-61.44 61.44h-81.92v102.4c0 135.895-109.865 245.76-245.76 245.76zM512 857.6c113.961 0 204.8-90.839 204.8-204.8v-102.4h-409.6v102.4c0 113.961 90.839 204.8 204.8 204.8zM184.32 509.44h655.36c11.357 0 20.48-9.123 20.48-20.48v-491.52c0-11.357-9.123-20.48-20.48-20.48h-655.36c-11.357 0-20.48 9.123-20.48 20.48v491.52c0 11.357 9.123 20.48 20.48 20.48zM512 345.6c-34.816 0-61.44-26.624-61.44-61.44 0-18.432 8.192-34.56 20.48-44.8v-57.6c0-22.528 18.432-40.96 40.96-40.96s40.96 18.432 40.96 40.96v57.6c12.288 10.24 20.48 26.368 20.48 44.8 0 34.816-26.624 61.44-61.44 61.44z" />
<glyph unicode="&#xe909;" glyph-name="person" d="M509.44 892.16c-96.101-2.16-156.909-41.019-183.040-101.12-24.885-57.236-19.673-129.268-1.92-204.16-9.533-11.201-17.33-26.926-15.36-50.56v-1.28c3.409-24.998 10.927-42.547 20.48-55.040 4.542-5.939 11.032-6.229 16.64-9.6 4.961-27.93 16.048-54.587 28.8-75.52 0.683-3.187 2.022-5.986 3.874-8.366-0.034 0.046 2.068-2.559 2.526-3.154 6.393-9.623 9.6-22.945 9.6-37.76 0-15.738-0.233-30.408-1.92-46.72-6.185-15.521-21.502-27.903-46.080-40.32-25.653-12.96-59.294-24.914-93.44-39.68s-68.833-32.527-96.64-60.8c-27.807-28.273-47.754-67.338-50.56-118.4l-1.28-21.76h821.76l-1.28 21.76c-2.804 51.025-22.242 90.112-49.92 118.4s-62.477 46.027-96.64 60.8c-34.163 14.773-67.973 26.671-94.080 39.68-25.295 12.604-41.151 25.522-48 41.6-1.587 19.39-1.92 34.678-1.92 51.84 0 10.988 3.794 20.856 10.24 30.72 0.15 0.212 0.492 0.426 0.64 0.64 0.095 0.122 1.28 1.28 1.28 1.28 2.463 2.593 4.257 5.844 5.093 9.462 12.438 21.42 22.716 48.431 27.547 75.658 6.384 3.343 13.594 3.746 18.56 10.24 9.861 12.895 15.636 31.201 17.92 56.32 1.804 21.648-4.382 37.409-14.080 49.28 10.657 32.831 23.264 85.282 19.2 138.88-2.232 29.428-10.014 58.761-27.52 83.2-15.804 22.062-41.449 37.22-73.6 44.16-21.676 28.954-61.079 40.32-106.24 40.32h-0.64zM510.080 851.2c0.256 0 0.385 0.001 0.64 0 40.896-0.147 67.011-11.654 75.52-26.24l5.12-8.96 10.24-1.28c28.124-3.955 43.618-14.775 55.040-30.72s17.976-38.132 19.84-62.72c3.729-49.176-10.478-106.906-19.84-133.12l-6.4-17.28 16-8.32c-0.158-0.582 6.577-7.368 5.76-22.4-0.031-0.334 0.033-0.311 0-0.64-1.884-19.293-6.847-30.123-10.24-34.56-3.451-4.513-5.163-3.84-4.48-3.84h-17.92l-2.56-17.92c-3.537-26.524-17.039-59.998-28.8-76.8h-0.64c-1.176-1.764-2.094-3.88-3.2-5.76-5.354-6.264-13.445-14.49-24.96-24.32-19.116-16.319-44.444-30.72-67.2-30.72-22.528 0-48.165 15.136-67.84 32-17.063 14.625-27.19 27.184-30.080 30.72-0.090 0.129 0.090 0.51 0 0.64-12.060 17.402-25.945 48.030-29.44 74.24l-1.92 17.92h-16.64c-0.714 0.346-2.601 1.382-4.48 3.84-3.637 4.756-8.714 15.72-11.52 34.56-0.035 0.411 0.020 0.239 0 0.64-0.045 0.32 0.045 0.315 0 0.64-0.328 15.528 9.318 24.132 7.68 23.040l11.52 8.32-3.2 14.080c-18.9 74.606-21.869 142.277-1.92 188.16 19.894 45.756 60.241 74.718 145.92 76.8zM432 334.72c21.594-15.938 48.604-30.080 80-30.080 30.686 0 57.057 13.478 78.080 28.8 0.093-12.495 0.493-25.258 1.92-40.96v-2.56l1.28-2.56c3.61-9.427 8.696-17.455 14.72-24.96-0.233-0.692-0.455-1.553-0.62-2.433-0.020-0.127-4.888-13.534-19.22-28.287s-36.534-29.44-76.16-29.44c-39.471 0-62.51 15.363-77.44 30.72s-19.84 29.44-19.84 29.44c5.893 7.665 10.794 15.947 14.080 25.6l1.28 3.84c1.729 15.558 1.914 29.532 1.92 42.88zM640 234.24c7.173-4.626 14.65-8.938 22.4-12.8 29.893-14.895 63.859-26.421 96-40.32s62.174-29.696 83.84-51.84c17.273-17.653 27.668-41.202 33.28-70.4h-727.040c5.639 29.175 15.906 52.734 33.28 70.4 21.793 22.159 52.322 37.934 84.48 51.84s65.781 25.376 95.36 40.32c7.395 3.736 14.916 7.694 21.76 12.16 4.6-8.267 11.582-18.971 21.76-29.44 20.91-21.507 56.239-42.88 106.88-42.88 50.486 0 85.115 21.153 105.6 42.24 11.189 11.518 18.018 22.274 22.4 30.72z" />
<glyph unicode="&#xe90a;" glyph-name="phone" d="M364.8 898.56c-64.853 0-119.040-59.119-119.040-122.88v-655.36c0-38.35 18.824-69.492 42.88-90.24s53.035-32.64 80-32.64h295.040c62.669 0 114.56 51.891 114.56 114.56v672c0 62.669-51.891 114.56-114.56 114.56h-298.88zM364.8 857.6h298.88c39.731 0 73.6-33.869 73.6-73.6v-672c0-39.731-33.869-73.6-73.6-73.6h-295.040c-13.995 0-36.216 7.82-53.12 22.4s-28.8 34.382-28.8 59.52v655.36c0 38.639 40.533 81.92 78.080 81.92zM344.32 796.16c-9.542-1.869-16.643-10.165-16.643-20.119 0-0.127 0.001-0.254 0.003-0.38v-634.861c0.001-11.31 9.17-20.479 20.48-20.48h327.68c11.31 0.001 20.479 9.17 20.48 20.48v634.88c-0.001 11.31-9.17 20.479-20.48 20.48h-327.68c-0.287 0.014-0.622 0.023-0.96 0.023s-0.673-0.008-1.007-0.024c-0.24 0.016-0.575 0.024-0.913 0.024s-0.673-0.008-1.007-0.024zM368.64 755.2h286.72v-593.92h-286.72v593.92zM512 110.080c-16.966 0-30.72-13.754-30.72-30.72s13.754-30.72 30.72-30.72c16.966 0 30.72 13.754 30.72 30.72s-13.754 30.72-30.72 30.72z" />
<glyph unicode="&#xe90b;" glyph-name="poblacion" d="M510.080 960.64c-1.007-0.185-1.868-0.407-2.705-0.681-9.083-2.078-15.861-10.221-15.861-19.946 0-0.173 0.002-0.346 0.006-0.519l-0.001-62.694c-84.63-9.604-152.673-77.372-162.56-161.92h-1.28c-0.672 0.075-1.451 0.118-2.24 0.118s-1.568-0.043-2.335-0.126c-9.797-1.971-17.146-10.585-17.146-20.917 0-11.774 9.545-21.319 21.319-21.319 0.141 0 0.282 0.001 0.423 0.004l-0.021-173.44 40.96 16.64v156.8h40.96v-140.8l40.96 14.72v126.080h40.96v-110.080l20.48 8.32 20.48-8.32v110.080h40.96v-126.080l40.96-14.72v140.8h40.96v-156.8l40.96-16.64v173.44c0.872-0.127 1.88-0.199 2.904-0.199 11.774 0 21.319 9.545 21.319 21.319s-9.545 21.319-21.319 21.319c-1.024 0-2.032-0.072-3.017-0.212l-1.167 0.013c-9.887 84.548-77.93 152.316-162.56 161.92v62.72c0.008 0.217 0.013 0.473 0.013 0.729 0 11.312-9.17 20.482-20.482 20.482-0.68 0-1.352-0.033-2.015-0.098zM508.16 837.12c0.962-0.16 2.070-0.252 3.2-0.252s2.238 0.091 3.318 0.267c0.517-0.027 1.169 0.004 1.802-0.016 69.344-2.176 123.98-55.115 134.4-122.24h-277.76c10.452 67.329 65.395 120.367 135.040 122.24zM509.44 529.92c-1.687-0.284-3.192-0.729-4.614-1.33l-388.986-149.71c-7.9-2.952-13.425-10.429-13.44-19.198v-75.522c0.001-11.31 9.17-20.479 20.48-20.48h20.48v-307.2c0.001-11.31 9.17-20.479 20.48-20.48h231.68c11.31 0.001 20.479 9.17 20.48 20.48v110.72c0 46.194 30 88.329 74.88 96.64 0.095-0.002 0.207-0.002 0.32-0.002s0.225 0.001 0.337 0.003c61.793 12.018 114.543-33.603 114.543-92.8v-114.56c0.001-11.31 9.17-20.479 20.48-20.48h233.6c11.31 0.001 20.479 9.17 20.48 20.48v307.2h20.48c11.31 0.001 20.479 9.17 20.48 20.48v75.52c-0.015 8.771-5.54 16.248-13.299 19.154l-389.261 149.806c-2.203 0.883-4.757 1.395-7.43 1.395-0.764 0-1.519-0.042-2.261-0.123zM512 487.68l368.64-141.44v-41.6h-712.96c-1.251 0.271-2.687 0.427-4.16 0.427s-2.909-0.155-4.294-0.451l-15.866 0.024v41.6l368.64 141.44zM184.32 263.68h655.36v-286.72h-192.64v94.080c0 83.946-77.815 149.31-163.2 133.12-0.22-0.041-0.419 0.043-0.64 0-65.371-12.427-108.16-72.76-108.16-136.96v-90.24h-190.72v286.72z" />
<glyph unicode="&#xe90c;" glyph-name="portal" d="M266.24 947.84l-14.72-14.080-245.76-245.76-5.76-6.4v-725.12h1024v725.12l-5.76 6.4-245.76 245.76-14.72 14.080-14.72-14.080-231.040-231.040-231.040 231.040-14.72 14.080zM266.24 889.6l225.28-225.28v-666.88h-450.56v666.88l225.28 225.28zM757.76 889.6l225.28-225.28v-666.88h-450.56v666.88l225.28 225.28zM81.92 632.32v-163.84h163.84v163.84h-163.84zM286.72 632.32v-163.84h163.84v163.84h-163.84zM573.44 632.32v-163.84h163.84v163.84h-163.84zM778.24 632.32v-163.84h163.84v163.84h-163.84zM122.88 591.36h81.92v-81.92h-81.92v81.92zM327.68 591.36h81.92v-81.92h-81.92v81.92zM614.4 591.36h81.92v-81.92h-81.92v81.92zM819.2 591.36h81.92v-81.92h-81.92v81.92zM81.92 427.52v-163.84h163.84v163.84h-163.84zM286.72 427.52v-163.84h163.84v163.84h-163.84zM573.44 427.52v-163.84h163.84v163.84h-163.84zM778.24 427.52v-163.84h163.84v163.84h-163.84zM122.88 386.56h81.92v-81.92h-81.92v81.92zM327.68 386.56h81.92v-81.92h-81.92v81.92zM614.4 386.56h81.92v-81.92h-81.92v81.92zM819.2 386.56h81.92v-81.92h-81.92v81.92zM81.92 222.72v-163.84h163.84v163.84h-163.84zM286.72 222.72v-163.84h163.84v163.84h-163.84zM573.44 222.72v-163.84h163.84v163.84h-163.84zM778.24 222.72v-163.84h163.84v163.84h-163.84zM122.88 181.76h81.92v-81.92h-81.92v81.92zM327.68 181.76h81.92v-81.92h-81.92v81.92zM614.4 181.76h81.92v-81.92h-81.92v81.92zM819.2 181.76h81.92v-81.92h-81.92v81.92z" />
<glyph unicode="&#xe90d;" glyph-name="road" d="M139.52 734.72c-8.070-1.68-14.32-7.93-15.977-15.867l-122.903-532.613c-0.315-1.346-0.496-2.891-0.496-4.478 0-11.26 9.087-20.399 20.328-20.481h983.048c11.249 0.083 20.336 9.221 20.336 20.482 0 1.587-0.181 3.133-0.522 4.616l-122.853 532.342c-2.11 9.177-10.177 15.929-19.832 16h-737.288c-0.287 0.014-0.622 0.023-0.96 0.023s-0.673-0.008-1.007-0.024c-0.24 0.016-0.575 0.024-0.913 0.024s-0.673-0.008-1.007-0.024zM159.36 693.76h332.16v-20.48h40.96v20.48h332.16l113.28-491.52h-445.44v61.44h-40.96v-61.44h-445.44l113.28 491.52zM491.52 632.32v-81.92h40.96v81.92h-40.96zM491.52 509.44v-81.92h40.96v81.92h-40.96zM491.52 386.56v-81.92h40.96v81.92h-40.96z" />
<glyph unicode="&#xe90e;" glyph-name="calendario" d="M225.28 960c-10.24 0-22.528-4.096-28.672-12.288s-12.288-18.432-12.288-28.672v-40.96h-143.36c-10.24 0-22.528-4.096-28.672-12.288s-12.288-18.432-12.288-28.672v-860.16c0-10.24 4.096-22.528 12.288-28.672s18.432-12.288 28.672-12.288h942.080c10.24 0 22.528 4.096 28.672 12.288s12.288 18.432 12.288 28.672v860.16c0 10.24-4.096 22.528-12.288 28.672s-18.432 12.288-28.672 12.288h-143.36v40.96c0 10.24-4.096 22.528-12.288 28.672s-18.432 12.288-28.672 12.288h-40.96c-10.24 0-22.528-4.096-28.672-12.288s-12.288-18.432-12.288-28.672v-40.96h-409.6v40.96c0 10.24-4.096 22.528-12.288 28.672s-18.432 12.288-28.672 12.288h-40.96zM225.28 919.040h40.96v-122.88h-40.96v122.88zM757.76 919.040h40.96v-122.88h-40.96v122.88zM40.96 837.12h143.36v-40.96c0-10.24 4.096-22.528 12.288-28.672s18.432-12.288 28.672-12.288h40.96c10.24 0 22.528 4.096 28.672 12.288s12.288 18.432 12.288 28.672v40.96h409.6v-40.96c0-10.24 4.096-22.528 12.288-28.672s18.432-12.288 28.672-12.288h40.96c10.24 0 22.528 4.096 28.672 12.288s12.288 18.432 12.288 28.672v40.96h143.36v-163.84h-942.080v163.84zM40.96 632.32h942.080v-655.36h-942.080v655.36zM804.864 58.88h-589.824v487.424h589.824v-487.424zM256 99.84h507.904v405.504h-507.904v-405.504zM489.472 525.824h40.96v-446.464h-40.96v446.464zM235.52 325.12h548.864v-40.96h-548.864v40.96z" />
<glyph unicode="&#xe90f;" glyph-name="solicitud-info" d="M516.096 960c-280.576 0-507.904-200.704-507.904-452.608 0-122.88 55.296-233.472 145.408-315.392-2.048-59.392-28.672-104.448-61.44-139.264s-67.584-57.344-86.016-71.68c-8.192-8.192-10.24-20.48-2.048-28.672 2.048-2.048 6.144-6.144 10.24-6.144 71.68-18.432 151.552-6.144 225.28 20.48 71.68 24.576 133.12 61.44 178.176 98.304 30.72-6.144 63.488-10.24 96.256-10.24 278.528 0 507.904 200.704 507.904 452.608s-227.328 452.608-505.856 452.608zM516.096 898.56c258.048 0 446.464-163.84 446.464-391.168s-188.416-391.168-446.464-391.168c-32.768 0-67.584 4.096-98.304 10.24-6.144 2.048-32.768-20.48-36.864-24.576-38.912-32.768-83.968-51.2-153.6-75.776-53.248-18.432-104.448-45.056-153.6-43.008 18.432 12.288 49.152 20.48 71.68 43.008 36.864 40.96 71.68 98.304 73.728 174.080 0 6.144-22.528 32.768-26.624 36.864-88.064 75.776-118.784 157.696-118.784 272.384-4.096 225.28 182.272 389.12 442.368 389.12zM442.368 224.768c-22.528-4.096-36.864 4.096-40.96 24.576-4.096 16.384 4.096 55.296 24.576 114.688 26.624 77.824 55.296 155.648 83.968 233.472-2.048 2.048-4.096 4.096-6.144 4.096-2.048 2.048-4.096 2.048-4.096 2.048-10.24-2.048-24.576-12.288-43.008-30.72s-30.72-32.768-38.912-45.056l-12.288 16.384c24.576 28.672 45.056 51.2 59.392 65.536 28.672 28.672 53.248 43.008 71.68 47.104 20.48 4.096 34.816-4.096 38.912-24.576 4.096-16.384-14.336-75.776-51.2-176.128-38.912-100.352-57.344-155.648-53.248-165.888 2.048-6.144 6.144-10.24 14.336-8.192 12.288 2.048 26.624 14.336 45.056 32.768 8.192 8.192 20.48 22.528 36.864 43.008l6.144-12.288c-20.48-26.624-38.912-51.2-57.344-69.632-28.672-30.72-53.248-47.104-73.728-51.2zM546.816 800.256c18.432 4.096 28.672-4.096 32.768-22.528 2.048-12.288 0-24.576-6.144-38.912-6.144-12.288-16.384-20.48-28.672-22.528-18.432-4.096-28.672 4.096-32.768 22.528-2.048 14.336-2.048 26.624 4.096 38.912 8.192 12.288 18.432 20.48 30.72 22.528z" />
<glyph unicode="&#xe910;" glyph-name="asunto" d="M824.4-49.6h-624.8c-28.2 0-51.2 23-51.2 51.2v892.8c0 28.2 23 51.2 51.2 51.2h624.6c28.2 0 51.2-23 51.2-51.2v-893.2c-0.2-28-23.2-50.8-51-50.8zM199.6 905.6c-6.2 0-11.2-5-11.2-11.2v-892.8c0-6.2 5-11.2 11.2-11.2h624.6c6 0 11 5 11.2 11.2v892.8c0 6.2-5 11.2-11.2 11.2h-624.6zM368.4 514c-4.2 0-8.2 0.8-12.2 2.6-11.4 5-18.6 16-18.6 28.4v400.6h340v-400c-0.2-12.6-8-23.6-19.8-28.4-11.4-4.6-24.4-1.8-33.2 7l-113 113.4-122-115.4c-5.8-5.2-13.4-8.2-21.2-8.2zM377.6 905.6v-339.6l113.4 107.2c12.4 11.2 31.2 10.8 42.8-0.8l103.8-104.2v337.4h-260z" />
<glyph unicode="&#xe911;" glyph-name="car" d="M937 590h-26.6l-69.4 162c-0.2 0.4-0.6 0.4-0.8 0.8-18.2 44.4-61.2 73.2-108.6 73.2l-439.6-0.2c-46 0-90.2-29-108.4-73-0.2-0.4-0.6-0.2-0.8-0.6l-69.2-162.2h-26.6c-38.8 0-71.2-32.2-71.2-71s32.2-71 70.2-71v-307c0-38.8 33-71 71.8-71h70.8c38.8 0 71.4 32.2 71.4 71v23h424v-23c0-38.8 32.6-71 71.4-71h70.8c38.8 0 71.8 32.2 71.8 71v306.8c38 0 70.4 32.4 70.4 71.2s-32.6 71-71.4 71zM226.8 733.4l0.8 0.6c10.2 26.2 36.8 44.2 64.8 44.2h440c28 0 54.4-18 65-44.2l0.8-0.6 66.6-155.8-22.8-15.6v-0.8c-20-13.6-40.8-19.2-65.2-19.2h-528.6c-24.4 0-46.2 5.6-64.2 19.2v0.8l-23.2 15.6 66 155.8zM252 140.6c0-13.2-10-24.6-23-24.6h-70.8c-13.2 0-24.2 11.6-24.2 24.6v23.4h118v-23.4zM792 212h-560v96h560v-96zM890 140.6c0-13.2-10-24.6-23-24.6h-70.8c-13.2 0-24.2 11.6-24.2 24.6v23.4h118v-23.4zM937.4 496h-47.4v-284h-58v136h-640v-136h-58v284h-47.2c-13.2 0-23.6 10-23.6 23s10.6 23 23.6 23h39.8l29.2-19.6v1.6h1.2c27.6-20 58.8-28 90.8-28h528.6c32 0 63.2 8.6 90.8 27.6 0.2 0.2 0.8-0.6 0.8-0.4v-0.8l29.6 19.6h39.8c13.2 0 23.6-10 23.6-23 0-13.2-10.6-23-23.6-23zM772.4 485.6c-32.2 0-58.4-26.2-58.4-58.4s26.2-58.4 58.4-58.4 58.4 26.2 58.4 58.4-26.2 58.4-58.4 58.4zM772.4 408.8c-10.2 0-18.4 8.2-18.4 18.4s8.2 18.4 18.4 18.4 18.4-8.2 18.4-18.4c0-10.2-8.4-18.4-18.4-18.4zM231.8 485.6c-32.2 0-58.4-26.2-58.4-58.4s26.2-58.4 58.4-58.4c32.2 0 58.4 26.2 58.4 58.4s-26.2 58.4-58.4 58.4zM231.8 408.8c-10.2 0-18.4 8.2-18.4 18.4s8.2 18.4 18.4 18.4c10.2 0 18.4-8.2 18.4-18.4s-8.2-18.4-18.4-18.4z" />
<glyph unicode="&#xe912;" glyph-name="consulta" d="M480.8-47.8l-124 274.2h-329.2v717.4h969v-717.4h-380.4l-135.4-274.2zM81.4 280.4h329.2l70-185.2 93.2 185.2h368.8v609.4h-860.8v-609.4h-0.4zM170 766h678v-40h-678v40zM170 616h678v-40h-678v40zM170 454h678v-40h-678v40z" />
<glyph unicode="&#xe913;" glyph-name="hora" d="M512-54.4c-134.2 0-260.4 52.2-355.2 147.2-95 94.8-147.2 221-147.2 355.2s52.2 260.4 147.2 355.2c94.8 95 221 147.2 355.2 147.2s260.4-52.2 355.2-147.2c94.8-94.8 147.2-221 147.2-355.2s-52.2-260.4-147.2-355.2c-94.8-95-221-147.2-355.2-147.2zM512 910.4c-255 0-462.4-207.4-462.4-462.4s207.4-462.4 462.4-462.4 462.4 207.4 462.4 462.4-207.4 462.4-462.4 462.4zM816 402h-324v458h40v-418h284z" />
<glyph unicode="&#xe914;" glyph-name="materia" d="M263.2-48.4c-74.6 0-135.2 59.6-135.2 132.6s60.6 132.6 135.2 132.6c3 0 5.6-0.2 7.8-0.4 1.6-0.2 3-0.2 4-0.2h621v-264h-621c-1.4 0-3-0.2-4.6-0.2-2.2-0.4-4.6-0.4-7.2-0.4zM263.2 176.8c-52.6 0-95.2-41.6-95.2-92.6 0-51.2 42.8-92.6 95.2-92.6 1.4 0 3 0.2 4.8 0.2 2.2 0.2 4.6 0.2 7.2 0.2h580.8v184h-581c-2.8 0-5.4 0.2-7.6 0.4-1.6 0.2-3.2 0.4-4.2 0.4zM168.4 84h-40v750c0 29.6 10.6 57.6 30.2 78.6 19.8 21.6 46.2 33.4 74.6 33.4 0 0 0 0 0 0l662.6-0.4v-771.6h-40v731.6l-622.6 0.4c0 0 0 0 0 0-17 0-33-7.2-45.2-20.4-12.6-13.6-19.6-32-19.6-51.6v-750zM755.8 607h-474.6v203.2h474.4v-203.2zM321.2 647h394.4v123.2h-394.4v-123.2z" />
<glyph unicode="&#xe915;" glyph-name="submateria" d="M749.6 628.2h-474.6v203.2h474.4v-203.2zM315 668.2h394.4v123.2h-394.4v-123.2zM258.4-52.4c-77.4 0-140.6 50.2-140.6 111.8 0 61.4 63 111.4 140.6 111.4 3.6 0 6.8-0.4 9.4-0.6 1-0.2 2.4-0.2 2.8-0.2h635.4v-222h-635.4c-1.4 0-3 0-4.8-0.2-2.2 0-4.6-0.2-7.4-0.2zM258.4 131c-52 0-94.4-32-94.4-71.4 0-39.6 42.4-71.8 94.4-71.8 1.4 0 3.2 0 5 0.2 2.2 0 4.6 0.2 7.2 0.2h589.4v142h-589.4c-3.6 0-6.6 0.4-9.2 0.6-1 0-2.4 0.2-3 0.2zM258.4 131.6c-77.4 0-140.6 50.2-140.6 112 0 61.4 63 111.4 140.6 111.4 3.8 0 7-0.4 9.6-0.8 1-0.2 2.2-0.4 2.6-0.4h635.4v-222h-635.4c-1.6 0-3.2 0-5-0.2-2.2 0.2-4.6 0-7.2 0zM258.4 315c-52 0-94.4-32-94.4-71.4 0-39.6 42.4-72 94.4-72 1.8 0 3.4 0 5 0.2 2.2 0 4.6 0.2 7 0.2h589.6v142h-589.4c-3.6 0-6.8 0.4-9.4 0.8-1 0-2.4 0.2-2.8 0.2zM164.6 243h-46v611c0 25.4 11.4 49.2 32 67.2s48.2 27.8 77.4 27.8c0 0 0 0 0 0l678-0.2v-632.4h-46v592.4l-632 0.2c0 0 0 0 0 0-16.8 0-32.8-5.8-44.8-16-12-10.4-18.6-24.2-18.6-38.8v-611.2zM117.994 59.779l0.449 241 46-0.086-0.449-241-46 0.086zM141.6 179.6h56.4v-49h-56.4v49z" />
<glyph unicode="&#xe916;" glyph-name="policia-multa" d="M403.2 788c-3.8 0-7.6 1-11.2 2.8l-27.6 14.8c-7.8 4.2-12.6 12.2-12.6 20.8v42c0 13 10.6 23.6 23.6 23.6h56.6c13 0 23.6-10.6 23.6-23.6v-36.8c0-7.8-3.8-15.2-10.4-19.6l-29-19.8c-3.6-2.8-8.2-4.2-13-4.2zM376 826.8l27.2-14.6 28.8 19.6v36.2h-56v-41.2zM622 3.8l-198.6 196.4v156.4c0 25.8 14.4 49 37.4 60.6 129.8 64.6 153.6 60.4 162.6 58.8 28.2-5 52.8-23.8 61.6-47 6.8-18 3.2-36.6-9.6-52.6-17-21-48-40.4-71-52.8-5.8-3.2-9.4-9.2-9.4-15.6l-0.8-84.2c1.4-6.4 7-11 13.4-11.2l254.2-3-239.8-205.8zM463.4 217l160.4-158.8 131.4 113-148.2 1.8c-26.8 0.4-49.4 20.6-52.8 47.2l-0.2 1.4 0.8 87.2c0.2 21 11.8 40.2 30.2 50.4 28 15.2 49 30.6 59 43 5 6 4.4 10.2 3.2 13.4-3.6 9.4-17.4 19.2-31 21.6-8.2 0.8-46.6-9.8-137.8-55.2-9.4-4.8-15.4-14.2-15.4-24.8v-140.2zM568.6-48.6c-11.4 0-22.2 4.4-30.6 12.4l-184.2 178c-8.4 8.2-13.2 19.2-13.4 30.8s4.2 22.8 12.4 31.4l30.2 31.2c8.2 8.4 19.2 13.2 30.8 13.4 11.8 0.2 22.8-4.2 31.4-12.4l184.2-178c8.4-8.2 13.2-19.2 13.4-30.8 0.2-11.8-4.2-22.8-12.4-31.4l-30.2-31.2c-8.2-8.4-19.2-13.2-30.8-13.4-0.4 0-0.6 0-0.8 0zM414.4 208.6c0 0 0 0 0 0-0.8 0-2-0.2-2.8-1.2l-30.2-31.2c-1-1-1.2-2-1-2.8s0.2-1.8 1.2-2.8l184.2-178c1-1 2-1.2 2.8-1 0.8 0 1.8 0.2 2.8 1.2l30.2 31.2c1 1 1.2 2 1 2.8 0 0.8-0.2 1.8-1.2 2.8l-184.2 178c-0.8 0.8-2 1-2.8 1zM405.2 468.2c-110.6 0-200.6 90-200.6 200.6 0 24 4.2 47.2 12.4 69.4l-53.4 64.2c-7.6 9.2-10.8 21.2-8.8 33 2.2 11.8 9.2 21.8 19.6 27.8l146.8 83.8c5.8 3.4 12.6 5 20 5h124c7.4 0 14.2-1.6 19.8-5l147-83c10.4-5.8 17.6-16 19.8-27.6s-0.8-23.6-8.2-32.8l-51-63c8.8-23 13.2-47 13.2-71.8 0-110.6-90-200.6-200.6-200.6zM340.6 912l-146.2-83.6c0 0-0.2 0-0.2-0.2 0 0 0-0.2 0-0.2l54-64.8 20.2-7.6-8.8-19.6c-9.8-21.2-14.8-43.8-14.8-67.4 0-88.6 72-160.6 160.6-160.6s160.6 72 160.6 160.6c0 23.8-5.2 46.8-15.2 68.4l-8.2 17.2 16.8 9 53 65.4c0 0 0 0.2 0 0.2 0 0.2 0 0.2-0.2 0.2l-146.4 83c-0.2 0-0.4 0-0.6 0h-124c-0.2 0-0.6 0-0.6 0zM340.4 912c0 0 0 0 0 0s0 0 0 0zM466 912c0 0 0 0 0 0s0 0 0 0zM465.2 912.2c0.2 0 0.2 0 0 0v0zM341 912.2v0c0 0 0 0 0 0zM242.569 765.545l326.2 0.51 0.062-40-326.2-0.51-0.062 40zM52-46.8c-6.4-0.2-12 4.6-12.8 11-2.8 21.6-7.4 64.4-0.4 128.6 8.4 78 36.2 191 120.8 287.2 136.4 155 217.6 132 226.4 129l-13.4-37.6c0 0 0.2 0 0.6-0.2-0.6 0.2-65.6 16.4-183.6-117.4-77.4-88-103.2-192-111-263.8-6.4-57.4-2.6-99.2-0.2-122.2 0.8-7.4-4.8-13.8-12.2-14l-14.2-0.6zM947.2 170h-181.2v40h181.2c8.2 0 14.8 6.6 14.8 14.8v406.4c0 8.2-6.6 14.8-14.8 14.8h-212.6c-3.8 0-7.4-1.4-10-4l-103.8-96.6c-3-2.8-4.8-6.8-4.8-10.8v-76.6h-40v76.6c0 15.2 6.4 29.8 17.4 40l103.8 96.6c10.2 9.4 23.4 14.6 37.2 14.6h212.6c30.2 0 54.8-24.6 54.8-54.8v-406.6c0.2-29.8-24.4-54.4-54.6-54.4zM564.4 445.4c-27.4 18-84.4 30.4-104 33.6l6.4 39.4c3.2-0.6 79.6-13.2 119.6-39.6l-22-33.4zM700 388h234v-20h-234v20zM700 334h234v-20h-234v20zM700 278h234v-20h-234v20zM903.4 467c-46 0-80.8 32.8-80.8 76.4s34.8 76.4 80.8 76.4v-20c-34.6 0-60.8-24.2-60.8-56.4s26.2-56.4 60.8-56.4v-20zM802 560h76v-20h-76v20zM802 530h76v-20h-76v20z" />
<glyph unicode="&#xe917;" glyph-name="familia2" d="M267.8 529.6c-85.8 0-155.4 72.4-155.4 161.6s69.6 161.6 155.4 161.6 155.4-72.4 155.4-161.6-69.8-161.6-155.4-161.6zM267.8 812.8c-63.6 0-115.4-54.6-115.4-121.6s51.8-121.6 115.4-121.6c63.6 0 115.4 54.6 115.4 121.6s-51.8 121.6-115.4 121.6zM524.8 258.6c-62.8 0-114 53-114 118.2s51.2 118.2 114 118.2 114-53 114-118.2c0-31-12.6-60.6-35.4-83.6-21.8-22-50.4-34.6-78.6-34.6zM524.8 455c-40.8 0-74-35.2-74-78.2s33.2-78.2 74-78.2c34.2 0 74 34.2 74 78.2 0 43.2-33.2 78.2-74 78.2zM52.8 262l-40 0.4c2.2 175.4 111 307.2 253.6 307.2 0.6 0 1 0 1.6 0 140.2-1 208-119 210.8-124l-34.8-19.6c-0.2 0.2-15.2 26.6-44.8 52.4-38.6 33.8-82.8 51-131.4 51.2-120.8 0.8-213.2-114.2-215-267.6zM764.2 537.6c-85.8 0-155.4 72.4-155.4 161.6s69.8 161.6 155.4 161.6 155.4-72.4 155.4-161.6-69.6-161.6-155.4-161.6zM764.2 820.8c-63.6 0-115.4-54.6-115.4-121.6s51.8-121.6 115.4-121.6c63.6 0 115.4 54.6 115.4 121.6s-51.6 121.6-115.4 121.6zM979.2 270c-1.8 152.8-93.6 267.8-213.6 267.8-0.4 0-0.8 0-1.2 0-117.2-0.8-175.6-102.6-176.2-103.6l-34.8 19.6c2.8 5 70.6 123 210.8 124 0.6 0 1 0 1.6 0 142.6 0 251.4-131.8 253.6-307.2l-40.2-0.6zM691.2 79.4c0 0.4-6.2 48.8-30.6 92.6-31.2 55.8-77 85-136.2 86.6-58.8 1.6-104.6-26.8-135.4-84.2-24.2-44.8-30-94.4-30-94.8l-39.8-1.2c0.2 2.2 6.8 63.6 34.4 115 38.2 70.8 97.6 107 171.8 105.2 73.6-2 132.8-39.4 170.8-108.2 27.8-50.4 34.4-109.6 34.6-111.8l-39.6 0.8z" />
<glyph unicode="&#xe918;" glyph-name="hijossvg" d="M378.8 431.8c-123 0-223 101.2-223 225.6s100 225.6 223 225.6 223-101.2 223-225.6-100-225.6-223-225.6zM378.8 842.8c-101 0-183-83.2-183-185.6s82.2-185.6 183-185.6 183 83.2 183 185.6-82 185.6-183 185.6zM16.6 35.8c-17 97.4 15 223 79 299.2 33.4 39.8 76.6 72.8 124.8 95.2 49.2 23 104.2 35.2 158.4 35.2 130.2 0 206.6-50.6 247.8-93 45.2-46.6 59-93.4 59.6-95.4l-38.4-11c-0.2 0.4-12.2 40.6-51.2 80.2-52 52.8-125.2 79.6-217.6 79.6-97 0-191.4-43.4-252.6-116.2-56.4-67.2-83.2-187.4-68.4-273l-41.4-0.8zM782.6 308.6c-86 0-155.8 70.6-155.8 157.4s70 157.4 155.8 157.4 155.8-70.6 155.8-157.4c0.2-86.8-69.8-157.4-155.8-157.4zM782.6 583.4c-63.8 0-115.8-52.6-115.8-117.4s52-117.4 115.8-117.4 115.8 52.6 115.8 117.4-51.8 117.4-115.8 117.4zM1012.2 69l-40 0.6 20-0.4-20 0.2c0 0.6 0.4 56-23.6 110.4-31 69.8-87.2 105.8-167.2 107-53.4 0.8-96.6-14.8-128.8-46.4-64.2-63-65.2-170-65.2-171.2h-40c0 5 0.8 124.4 77 199.4 40 39.6 93 59 157.6 58 65.4-1 118.8-22.2 158.4-63 73-75.2 72-189.8 71.8-194.6z" />
<glyph unicode="&#xe919;" glyph-name="robo-identidad" d="M130.4 684.2l-6.2 1c-11.8 2-19.2 14-15.4 25.4 22 65 115 250.6 457.6 219.6 10.8-1 18.8-11 17.6-21.8l-0.8-6.4c-1.2-10.6-10.8-18.2-21.4-17.2-311.8 27.8-391.8-134.2-409.4-187.2-3.2-9.2-12.4-15-22-13.4zM697.4 274c-11.8 0-23.4 1.2-34.8 3.4-96.4 18.6-153.6 110.2-175.6 153.4-6.2 12-0.6 26.6 12 31.4h0.2c11 4.4 23.2-0.2 28.6-10.6 18.8-36.4 67.2-114.8 143.8-129.4 61.8-12 130.8 19.4 205.8 93 8.8 8.8 23 9.2 32 0.6v0c9.2-8.8 9.6-23.8 0.4-32.6-74-72.6-145.2-109.2-212.4-109.2zM785.8 469.2c-6.4-4.2-4-3.6-10.2-7-3.6-2-6.6-6-7.8-2.2-32 101-140.2 199.6-179.8 224.8-85.6 54.6-173 38-234-6.4-51.4-37.6-96.2-113-100-188.2-2.6-53.8 12.6-222 155-320.8 65.4-45.4 131-69.2 186.4-82.6 101.8-24.8 160.8-11.6 194.4 9.8 11.4 7.2 13.8 22.8 5.2 33.4-7.4 9-20.2 11-30 4.6-46.4-30.4-183-29.6-330.2 72.4-123.6 85.8-137.6 235-135.4 281.2 3.2 67.6 60 136.4 82.6 152.2 51.8 36.2 109.4 47.6 187 3 48-27.6 125.4-116.6 145-188 1.4-5.2 5.4-14.4 10.2-22.6-5.4-0.6-38.8-8.8-43.8-8-17 2.4-30.2 14-40.2 35.8-70.4 152.2-122.6 160-151.6 155.6-18.4-2.8-77.8-21.8-101.6-88.2-37.6-121.2 47-245 135.6-302 69.8-44.8 155.8-65.6 259.2-39.8 27.4 6.8 80 22.6 83.6 49.6l1 4.6c2.4 10.8 0.4 26.6-14.6 20-213.6-94.6-339 9.2-413.4 149.4-16.8 31.6-21.6 69-9 104.6 7 20.2 25.8 51 59.6 50.8 30.4-0.2 39.4-8.8 51.6-20.6 15.4-15 31.4-44.6 58.6-103.2 21-45.4 52.6-58.6 75.4-61.8 81.2-11 192 92 227 135 0.6 0.6 0.8 1.2 1.2 1.8 0.4 0.4 0.6 0.8 0.8 1.2 3.4 5.4-0.6 6.2-0.6 10.6-1.8 5.2-5.2 12.6-11.4 23.6-37 66.8-167.6 267.2-370.2 277.4-102.4 5.2-191-23.6-256-83-76.6-70-118.4-140.4-124.2-284.6-4.6-117.8 40.8-229 131.6-321.8 102.8-105 249.8-175 382.2-177.2 14.4 2 14.4 2 21.2 12.8-0.4 17.6-14 32.2-31.6 33.4-117.2 7.8-249.2 71-339.2 163-57 58.2-123.8 155.4-118.6 288 5.2 131.6 42 191.2 109.4 252.8 55.8 51 132.8 75.6 222.8 71.2 156.8-7.8 275.6-153 322.8-236.8 6-10.8 4-24-4.8-32.6-5.2-5-10.8-10.2-16.6-15.4zM709 427.6c0.8 0.2 1.6 0.2 2.4 0.2-0.8-0.2-1.6-0.4-2.2-0.6l-0.2 0.4z" />
<glyph unicode="&#xe91a;" glyph-name="conductor" d="M520.4 417.4c-143.8 0-260.6 117-260.6 260.6s117 260.8 260.6 260.8 260.8-116.8 260.8-260.6-117-260.8-260.8-260.8zM520.4 895.4c-119.8 0-217.2-97.4-217.2-217.2s97.4-217.2 217.2-217.2 217.2 97.4 217.2 217.2c0.2 119.8-97.4 217.2-217.2 217.2zM906-22.4l-29.2 31 50.4 46.2c32 30 41.6 76.6 23.8 115.8-54.4 120.6-204.4 241.6-430.4 241.6-0.4 0-1 0-1.4 0v42.6c0.4 0 1 0 1.4 0 244.2 0 407.2-129.6 469.2-266.8 25.2-56 11.8-122-33.4-164.6l-50.4-45.8zM136.6-28.4l-56.4 52.2c-45.2 42.4-58.8 108.6-33.4 164.6 62 137.2 229 266.8 473.2 266.8 0.4 0 1 0 1.4 0v-42.6c-0.4 0-1 0-1.4 0-225.8 0-380-121.2-434.4-241.6-17.8-39.4-8.2-86 11.8-103.8l68.4-64.2-29.2-31.4zM255.4-40.8l-41.6 1c0.6 2.2 13 63 57.6 115.4 41 48 118.2 105.2 252.6 105.2 134.6 0 209.8-57.4 249.2-105.6 42.8-52.4 53.4-111.4 53.8-113.6l-41.8-1.6c0 0.4-9.4 45.6-46.2 89.8-48.8 58.6-121 88.4-215 88.4-94.8 0-169-30.4-220.2-90.4-38-44.4-48.4-88.2-48.4-88.6z" />
<glyph unicode="&#xe91b;" glyph-name="autonomo" d="M512 887.6c-47.2 0-89.4-14-120.6-37.6-26-19.6-44.2-46.4-49.6-77h-250.2c-31.4 0-57.4-25.8-57.4-57.4v-321.4c-0.2-1.2-0.2-2.4 0-3.6v-324.8c0-31.4 25.8-57.4 57.4-57.4h840.8c31.4 0 57.4 25.8 57.4 57.4v326.6c0 0.6 0 1.2 0 1.8v321.4c0 31.4-25.8 57.4-57.4 57.4h-250.2c-5.4 30.6-23.6 57.4-49.6 77-31 23.6-73.2 37.6-120.6 37.6zM512 849.4c39.8 0 73.8-12 97.4-29.8 17.4-13.2 29.2-29 34-46.6h-262.8c4.8 17.6 16.6 33.4 34 46.6 23.6 17.8 57.6 29.8 97.4 29.8zM91.6 734.6h840.8c10.8 0 19.2-8.4 19.2-19.2v-321.4c0-0.8 0-1.6 0-2.4v-1.2c0-10.8-8.4-19.2-19.2-19.2h-324.8c0 31.4-25.8 57.4-57.4 57.4h-76.4c-31.4 0-57.4-25.8-57.4-57.4h-324.8c-10.8 0-19.2 8.4-19.2 19.2 0.2 1.2 0.2 2.4 0 3.6v321.6c0 10.8 8.4 19 19.2 19zM473.8 390.6h76.4c10.8 0 19.2-8.4 19.2-19.2v-15.6c0-0.6 0-1.2 0-1.8v-1.8c-0.2-1.4-0.2-2.8 0-4.2v-15c0-10.8-8.4-19.2-19.2-19.2h-76.4c-10.8 0-19.2 8.4-19.2 19.2v15.6c0.6 2.6 0.6 5.2 0 7.8v15c0 11 8.4 19.2 19.2 19.2zM72.4 337c6-2.2 12.4-3.6 19.2-3.6h324.8c0-31.4 25.8-57.4 57.4-57.4h76.4c31.4 0 57.4 25.8 57.4 57.4h324.8c6.8 0 13 1.4 19.2 3.6v-271.2c0-10.8-8.4-19.2-19.2-19.2h-840.8c-10.8 0-19.2 8.4-19.2 19.2v271.2z" />
<glyph unicode="&#xe91c;" glyph-name="impagados" d="M703.8 927.6c-76 0-145.2-11-196.6-29.4-25.8-9.2-46.8-19.8-63-33.6-16.2-13.6-28.2-31.6-28.2-52 0-3.8 0.4-7.8 1.2-11.4-1-2.4-1.4-5.2-1.2-7.8v-115.2c0-3.8 0.4-7.8 1.2-11.4-1-2.4-1.4-5.2-1.2-7.8v-63.6c-30 4-62.2 6-96 6-76 0-145.2-11-196.6-29.4-25.8-9.2-46.8-19.8-63-33.6s-28.2-31.6-28.2-52.2c0-3.8 0.4-7.8 1.2-11.4-1-2.4-1.4-5.2-1.2-7.8v-115c0-3.8 0.4-7.8 1.2-11.4-1-2.4-1.4-5.2-1.2-7.8v-115.2c0-3.8 0.4-7.8 1.2-11.4-1-2.4-1.4-5.2-1.2-7.8v-115.2c0-20.6 12-38.4 28.2-52.2s37.2-24.4 63-33.6c51.6-18.4 120.6-29.4 196.6-29.4s145.2 11 196.6 29.4c25.8 9.2 46.8 19.8 63 33.6s28.2 31.6 28.2 52.2v82.8c30-4 62.2-6 96-6 76 0 145.2 11 196.6 29.4 25.8 9.2 46.8 19.8 63 33.6s28.2 31.6 28.2 52.2v115.2c0.2 2.6-0.2 5.4-1.2 7.8 0.8 3.6 1.2 7.6 1.2 11.4v115.2c0.2 2.6-0.2 5.4-1.2 7.8 0.8 3.6 1.2 7.6 1.2 11.4v115.2c0.2 2.6-0.2 5.4-1.2 7.8 0.8 3.6 1.2 7.6 1.2 11.4v115c0 2.6-0.6 5.4-1.8 7.8 0.8 3.6 1.8 7.6 1.8 11.4 0 20.6-12 38.4-28.2 52.2s-37.2 24.4-63 33.6c-51.4 18.4-120.4 29.2-196.6 29.2zM703.8 889.4c72.4 0 137.8-10.6 183.4-27 22.8-8.2 40.6-17.8 51.6-27s14.4-16.8 14.4-22.8c0-6-3.4-13.6-14.4-22.8s-28.8-18.8-51.6-27c-45.8-16.4-111.2-27-183.4-27s-137.8 10.6-183.4 27c-22.8 8.2-40.6 17.8-51.6 27s-14.4 16.8-14.4 22.8c0 6 3.4 13.6 14.4 22.8s28.8 18.8 51.6 27c45.6 16.2 111.2 27 183.4 27zM454.4 753.2c14.6-10.2 32-19 52.8-26.4 51.6-18.4 120.6-29.4 196.6-29.4s145.2 11 196.6 29.4c20.8 7.4 38.2 16.2 52.8 26.4v-75c0-6-3.4-13.6-14.4-22.8s-28.8-18.8-51.6-27c-45.6-16.4-111.2-27-183.4-27s-137.8 10.6-183.4 27c-22.8 8.2-40.6 17.8-51.6 27s-14.4 16.8-14.4 22.8v75zM454.4 618.8c14.6-10.2 32-19 52.8-26.4 51.6-18.4 120.6-29.4 196.6-29.4s145.2 11 196.6 29.4c20.8 7.4 38.2 16.2 52.8 26.4v-74.8c0-6-3.4-13.6-14.4-22.8s-28.8-18.8-51.6-27c-45.6-16.4-111.2-27-183.4-27-34.6 0-67.6 2.4-97.8 6.6 0 0.4 0 0.8 0 1.2 0.8 3.6 1.8 7.6 1.8 11.4 0 20.6-12 38.4-28.2 52.2s-37.2 24.4-63 33.6c-18.6 6.6-39.6 12.2-62.4 16.8v29.8zM320.2 563.2c72.4 0 137.8-10.6 183.4-27 22.8-8.2 40.6-17.8 51.6-27s14.4-16.8 14.4-22.8c0-6-3.4-13.6-14.4-22.8s-28.8-18.8-51.6-27c-45.8-16.4-111.2-27-183.4-27s-137.8 10.6-183.4 27c-22.8 8.2-40.6 17.8-51.6 27s-14.4 16.8-14.4 22.8c0 6 3.4 13.6 14.4 22.8s28.8 18.8 51.6 27c45.6 16.2 111 27 183.4 27zM953.4 484.6v-75c0-6-3.4-13.6-14.4-22.8s-28.8-18.8-51.6-27c-45.6-16.4-111.2-27-183.4-27-34.4 0-67.2 2.8-97.2 7.2-0.2 0-0.4 0-0.6 0 0 0.2 0 0.4 0 0.6 0.8 3.6 1.8 7.6 1.8 11.4v82.8c30-3.8 62.2-6 96-6 76 0 145.2 11 196.6 29.4 20.8 7.4 38.2 16.2 52.8 26.4zM70.6 427c14.6-10.2 32-19 52.8-26.4 51.6-18.4 120.6-29.4 196.6-29.4s145.2 11 196.6 29.4c20.8 7.4 38.2 16.2 52.8 26.4v-75c0-6-3.4-13.6-14.4-22.8s-28.8-18.8-51.6-27c-45.6-16.4-111.2-27-183.4-27s-137.8 10.6-183.4 27c-22.8 8.2-40.6 17.8-51.6 27s-14.4 16.8-14.4 22.8v75zM953.4 350.2v-75c0-6-3.4-13.6-14.4-22.8s-28.8-18.8-51.6-27c-45.6-16.4-111.2-27-183.4-27-34.8 0-67.6 2.8-97.8 7.2 0 0.2 0 0.4 0 0.6 0.8 3.6 1.8 7.6 1.8 11.4v82.8c30-4 62.4-6 96-6 76 0 145.2 11 196.6 29.4 20.8 7.6 38.2 16.2 52.8 26.4zM70.6 292.8c14.6-10.2 32-19 52.8-26.4 51.6-18.4 120.6-29.4 196.6-29.4s145.2 11 196.6 29.4c20.8 7.4 38.2 16.2 52.8 26.4v-75c0-6-3.4-13.6-14.4-22.8s-28.8-18.8-51.6-27c-45.6-16.4-111.2-27-183.4-27s-137.8 10.6-183.4 27c-22.8 8.2-40.6 17.8-51.6 27s-14.4 16.8-14.4 22.8v75zM70.6 158.4c14.6-10.2 32-19 52.8-26.4 51.6-18.4 120.6-29.4 196.6-29.4s145.2 11 196.6 29.4c20.8 7.4 38.2 16.2 52.8 26.4v-75c0-6-3.4-13.6-14.4-22.8s-28.8-18.8-51.6-27c-45.6-16.4-111.2-27-183.4-27s-137.8 10.6-183.4 27c-22.8 8.2-40.6 17.8-51.6 27s-14.4 16.8-14.4 22.8v75z" />
<glyph unicode="&#xe91d;" glyph-name="juicios" d="M687.36 926.72c-11.305 0.3-23.147-2.572-33.28-8.96l-224-141.44c-27.024-17.066-34.994-52.994-17.92-80 10.905-17.28 30.008-27.203 49.28-27.52 0.614-5.063 1.21-10.256 2.56-16.64 3.601-17.027 10.749-39.373 23.040-65.92l-428.16-254.72v0.64c-28.864-17.007-47.691-38.654-54.4-62.72s-0.192-48.537 12.8-69.12c12.993-20.584 32.121-37.149 56.96-42.24s53.231 2.174 81.28 21.12l412.8 279.040c18.372-21.921 35.005-37.57 48.64-48 5.046-3.86 9.769-6.808 14.080-9.6-8.076-17.521-7.752-38.998 3.2-56.32 17.049-27.015 52.974-34.987 80-17.92l224 140.8c27.024 17.066 34.994 53.634 17.92 80.64-8.531 13.494-21.888 22.304-36.48 25.6-4.052 0.915-8.039 1.257-12.16 1.28-0.613 5.218-1.203 10.864-2.56 17.28-6.245 29.527-22.176 72.698-59.52 131.84-37.344 59.152-69.468 91.746-93.44 110.080-5.278 4.037-9.748 6.869-14.080 9.6 8.244 17.513 7.743 39.011-3.2 56.32-8.531 13.494-21.892 22.3-36.48 25.6-3.647 0.825-7.112 1.18-10.88 1.28zM682.24 885.76c2.304 0.433 4.898 0.485 7.040 0 4.284-0.97 8.25-4.16 10.88-8.32 4.552-7.2 2.686-15.543-3.2-21.12-4.819-1.369-8.81-4.322-11.474-8.248l-212.526-133.832c-1.46-0.759-2.72-1.609-3.87-2.585-8.022-4.183-17.407-1.439-22.37 6.425-5.249 8.302-2.565 18.423 5.76 23.68l223.36 141.44c2.082 1.312 4.096 2.127 6.4 2.56zM707.84 814.080c4.294-2.091 10.298-5.992 19.2-12.8 19.261-14.731 48.521-43.255 83.84-99.2 35.319-55.935 49.381-94.674 54.4-118.4 2.258-10.677 2.596-18.141 2.56-23.040l-206.72-129.92c-4.389 2.056-10.739 5.048-19.2 11.52-19.263 14.735-48.521 43.905-83.84 99.84s-48.741 94.674-53.76 118.4c-2.176 10.288-3.077 17.472-3.2 22.4l206.72 131.2zM506.24 549.76c5.336-9.485 10.666-18.966 17.28-29.44 6.915-10.952 13.301-20.23 19.84-29.44l-410.88-277.76c-21.737-14.682-37.911-17.181-49.92-14.72s-22.086 10.001-30.72 23.68c-8.635 13.68-10.797 25.3-7.68 36.48s12.311 24.273 35.2 37.76l426.88 253.44zM904.32 533.76c2.144 0.432 4.26 0.484 6.4 0 4.281-0.968 8.25-3.52 10.88-7.68 5.249-8.302 3.205-19.063-5.12-24.32l-224-140.8c-8.322-5.256-18.446-3.173-23.68 5.12-4.901 7.751-3.15 16.916 3.84 22.4 0.45 0.413 0.867 0.83 1.266 1.265l1.294 0.655c1.969 1.054 3.656 2.333 5.115 3.835l208.645 131.205c5.731 0.574 10.699 3.432 14.048 7.638 0.474 0.169 0.868 0.592 1.312 0.682zM549.76 58.88c-32.883 0-58.24-28.615-58.24-61.44v-61.44h532.48v61.44c0 32.825-25.357 61.44-58.24 61.44h-416zM549.76 17.92h416c8.896 0 17.28-8.085 17.28-20.48v-20.48h-450.56v20.48c0 12.395 8.384 20.48 17.28 20.48z" />
<glyph unicode="&#xe91e;" glyph-name="pyme" d="M202 932.4c-31.8 0-58.2-26.2-58.2-58.2v-910.8h736.4v911c0 31.8-26.2 58.2-58.2 58.2h-620zM202 893.8h620c10.8 0 19.4-8.6 19.4-19.4v-872h-77.4v232.4h-213.2v-232.6h-368.2v872c0 10.8 8.6 19.6 19.4 19.6zM260 816.2v-155h213.2v155h-213.2zM550.8 816.2v-155h213.2v155h-213.2zM298.8 777.4h135.6v-77.4h-135.6v77.4zM589.6 777.4h135.6v-77.4h-135.6v77.4zM260 622.4v-155h213.2v155h-213.2zM550.8 622.4v-155h213.2v155h-213.2zM298.8 583.6h135.6v-77.6h-135.6v77.6zM589.6 583.6h135.6v-77.6h-135.6v77.6zM260 428.6v-155h213.2v155h-213.2zM550.8 428.6v-155h213.2v155h-213.2zM298.8 389.8h135.6v-77.6h-135.6v77.6zM589.6 389.8h135.6v-77.6h-135.6v77.6zM260 234.8v-155h213.2v155h-213.2zM298.8 196h135.6v-77.6h-135.6v77.6zM589.6 196h135.6v-193.8h-135.6v193.8z" />
<glyph unicode="&#xe91f;" glyph-name="reputacion-online" d="M475 421.6c-143.8 0-260.6 117-260.6 260.6s116.8 260.8 260.6 260.8 260.6-117 260.6-260.6-117-260.8-260.6-260.8zM475 899.6c-119.8 0-217.2-97.4-217.2-217.2s97.4-217.2 217.2-217.2 217.2 97.4 217.2 217.2c0 119.8-97.4 217.2-217.2 217.2zM39.2-38.2c-20.4 130.6 10.4 252.4 89 344.4 82.6 96.4 216.8 158.8 342.2 158.8 92 0 165.6-15.4 219-45.8 42-24 56-49 57.4-51.8l-38.6-20 0.2-0.4c-0.4 0.8-44.6 74.6-238 74.6-113.2 0-234.6-56.4-309.2-143.6-70.2-82-97.6-198.4-79.2-316l-42.8-0.2zM808 34.8c-1 0-2 0-3.2 0-48.8 0.8-94.6 20.6-128.4 55.8-34 35.2-52.2 81.4-51.4 130.2 1.8 101 85.2 181.6 186 180 48.8-0.8 94.6-20.6 128.4-55.8 34-35.2 52.2-81.4 51.4-130.2-1.4-100-83.2-180-182.8-180zM808 357.4c-75.8 0-138.2-61-139.6-137.2-0.6-37.2 13.2-72.6 39.2-99.4s60.8-42 98-42.6c37.2-0.8 72.6 13.2 99.4 39.2s42 60.8 42.6 98c1.2 77-60.2 140.6-137.2 142-0.8 0-1.6 0-2.4 0zM479.189-13.799l183.369 155.145 28.032-33.132-183.369-155.145-28.032 33.132z" />
<glyph unicode="&#xe920;" glyph-name="alerta" d="M512-35c-129 0-250.4 50.2-341.6 141.4s-141.4 212.6-141.4 341.6 50.2 250.4 141.4 341.6c91.2 91.2 212.6 141.4 341.6 141.4s250.4-50.2 341.6-141.4c91.2-91.2 141.4-212.6 141.4-341.6s-50.2-250.4-141.4-341.6c-91.2-91.2-212.6-141.4-341.6-141.4zM512 891c-244.2 0-443-198.8-443-443s198.8-443 443-443 443 198.8 443 443-198.8 443-443 443zM453.6 237.6c0 8 1.4 15.6 4.4 22.8s7 13.4 12.4 18.6c5.2 5.2 11.6 9.2 18.8 12.4 7.2 3 15 4.6 23.2 4.6 8 0 15.6-1.6 22.8-4.6s13.4-7.2 18.6-12.4c5.2-5.2 9.2-11.4 12.4-18.6 3-7.2 4.6-14.8 4.6-22.8 0-8.2-1.6-15.8-4.6-23-3-7-7.2-13.2-12.4-18.4s-11.4-9.2-18.6-12.2c-7.2-3-14.8-4.4-22.8-4.4-8.2 0-16 1.4-23.2 4.4s-13.4 7-18.8 12.2c-5.2 5.2-9.4 11.2-12.4 18.4-3 7-4.4 14.8-4.4 23zM558.2 743.4v-220.8c0-23.4-1.2-46.4-3.4-69-2.4-22.6-5.4-46.4-9.2-71.6h-64.4c-3.8 25.2-7 49-9.2 71.6-2.4 22.6-3.4 45.4-3.4 69v220.8h89.6z" />
<glyph unicode="&#xe921;" glyph-name="datos" d="M853-52h-702c-28.2 0-51 22.8-51 51v898c0 28.2 22.8 51 51 51h545.8c15.8 0 30.4-7.2 40.2-19.6l156.2-199.6c7-9 10.8-20 10.8-31.4v-698.4c0-28.2-22.8-51-51-51zM151 908c-6 0-11-5-11-11v-898c0-6 5-11 11-11h702c6 0 11 5 11 11v698.4c0 2.4-0.8 4.8-2.4 6.8l-156.2 199.6c-2 2.6-5.2 4.2-8.6 4.2h-545.8zM250 596h484v-40h-484v40zM250 468h484v-40h-484v40zM250 342h484v-40h-484v40zM250 214h484v-40h-484v40z" />
<glyph unicode="&#xe922;" glyph-name="discount" d="M266.24 960c-33.679 0-61.44-27.739-61.44-61.44v-389.12h40.96v389.12c0 11.559 8.939 20.48 20.48 20.48h696.32c11.541 0 20.48-8.921 20.48-20.48v-901.12c0-11.529-8.951-20.48-20.48-20.48h-696.32c-11.529 0-20.48 8.951-20.48 20.48v389.12h-40.96v-389.12c0-33.691 27.749-61.44 61.44-61.44h696.32c33.691 0 61.44 27.749 61.44 61.44v901.12c0 33.701-27.761 61.44-61.44 61.44h-696.32zM447.36 691.84c-9.631-1.794-16.826-10.134-16.826-20.153 0-5.942 2.53-11.293 6.572-15.035l188.173-188.172h-604.8c-0.287 0.014-0.622 0.023-0.96 0.023s-0.673-0.008-1.007-0.024c-10.855-0.525-19.495-9.493-19.495-20.478 0-11.323 9.179-20.502 20.502-20.502 0.338 0 0.673 0.008 1.007 0.024l604.753-0.002-188.16-188.16c-4.67-3.785-7.63-9.521-7.63-15.948 0-11.312 9.17-20.482 20.482-20.482 6.427 0 12.163 2.96 15.918 7.592l223.39 222.758 14.080 14.72-14.080 14.72-223.36 222.72c-3.746 3.987-9.053 6.471-14.94 6.471-0.598 0-1.191-0.026-1.776-0.076-0.21 0.020-0.546 0.028-0.884 0.028s-0.673-0.008-1.007-0.024z" />
<glyph unicode="&#xe923;" glyph-name="notification" d="M512 858c-36 0-65.6-29.6-65.6-65.6 0-8.4 1.6-16.6 4.6-24-92.2-24-152.2-104-152.2-205.6 0-128.4-31.6-187-61.6-219.8-15-16.4-29.8-26.4-42.6-35.8-6.4-4.6-12.2-9.4-17.4-15.4s-9.8-14.6-9.8-24c0-22.6 13.8-41.8 33.4-54.4 19.4-12.6 45-20.8 75.8-27.2 40-8.2 89.2-12.6 143.6-14.8-4-10.8-6.6-22.6-6.6-34.8 0-54.2 44.2-98.4 98.4-98.4s98.4 44.2 98.4 98.4c0 12.2-2.4 24-6.6 34.8 54.2 2.2 103.6 6.6 143.6 14.8 30.8 6.4 56.4 14.6 75.8 27.2s33.4 31.8 33.4 54.4c0 9.4-4.6 18-9.8 24s-11 10.6-17.4 15.4c-12.8 9.4-27.6 19.4-42.6 35.8-30 32.8-61.6 91.4-61.6 219.8 0 101.4-60 181.4-152.2 205.6 3 7.4 4.6 15.6 4.6 24 0 36-29.6 65.6-65.6 65.6zM512 825.2c18.4 0 32.8-14.4 32.8-32.8s-14.4-32.8-32.8-32.8-32.8 14.4-32.8 32.8 14.4 32.8 32.8 32.8zM550.4 740.2c87.4-15.6 142-83.2 142-177.4 0-134 34-202.8 69.8-242 17.8-19.6 35.8-31.8 47.6-40.4 6-4.4 10.4-8 12.4-10.2s1.6-2 1.6-2.6c0-10.2-4.8-17.8-18.4-26.6s-36-17.2-64.6-23c-57.4-12-138.8-16-228.8-16s-171.4 4-228.6 15.8c-28.6 6-50.8 14.2-64.6 23s-18.4 16.4-18.4 26.6c0 0.6-0.4 0.2 1.6 2.6 2 2.2 6.4 5.8 12.4 10.2 11.8 8.8 29.8 21 47.6 40.4 35.6 39.2 69.8 108 69.8 242 0 94.2 54.6 161.2 142 176.8 10.8-8 24-12.8 38.4-12.8 14.4 0.2 27.4 5.4 38.2 13.6zM455.6 170.2c18.4-0.4 37.2-1 56.4-1s38 0.6 56.4 1c5.8-9.8 9.2-21.6 9.2-33.8 0-36.4-29.2-65.6-65.6-65.6s-65.6 29.2-65.6 65.6c0 12.4 3.2 24 9.2 33.8zM856.2 540.6c-30 177.6-143.8 234-144.8 234.4l17.2 36c5.4-2.6 133.8-66 167.2-264l-39.6-6.4zM934.2 604.6c-30 177.6-143.8 234-144.8 234.4l17.2 36c5.4-2.6 133.8-66 167.2-264l-39.6-6.4zM165.8 538.6l-39.4 6.6c33.4 198 161.6 261.4 167.2 264l17.2-36c-0.2-0.2-29.2-14.4-61.2-50.4-29.8-33-68.4-91.8-83.8-184.2zM87.8 602.6l-39.4 6.6c33.4 198 161.6 261.4 167.2 264l17.2-36c-0.2-0.2-29.2-14.4-61.2-50.4-29.8-33-68.4-91.8-83.8-184.2z" />
<glyph unicode="&#xe924;" glyph-name="stop" d="M677.4-23.2c0 0-0.2 0-0.2 0l-333.2 1c-18.4 0-35.6 7.2-48.4 20.2l-235 236.2c-13 13-20 30.2-20 48.6l1.2 333.2c0 18.4 7.2 35.6 20.2 48.4l236.2 235c13 12.8 30.2 20 48.4 20 0 0 0.2 0 0.2 0l333.2-1.2c18.4 0 35.6-7.2 48.4-20.2v0l234.8-236.2c13-13 20-30.2 20-48.6l-1-333.2c0-18.4-7.2-35.6-20.2-48.4l-236.2-235c-13-12.8-30.2-19.8-48.4-19.8zM346.6 879.2c-7.6 0-14.8-3-20.2-8.4l-236.2-234.6c-5.4-5.4-8.4-12.6-8.4-20.2l-1-333.2c0-7.6 3-14.8 8.4-20.2l234.8-236.2c5.4-5.4 12.6-8.4 20.2-8.4l333.2-1c0 0 0 0 0 0 7.6 0 14.8 3 20.2 8.4l236.2 234.8c5.4 5.4 8.4 12.6 8.4 20.2l1 333.2c0 7.6-3 14.8-8.4 20.2l-234.6 236c-5.4 5.4-12.6 8.4-20.2 8.4l-333.4 1c0.2 0 0.2 0 0 0zM287.8 518.6c-1-2-2.2-3.6-3.6-4.4s-3-1.2-4.8-1.2c-1.8 0-4 0.8-6.4 2.2s-5.2 3-8.2 4.8c-3.2 1.8-7 3.4-11.2 4.8s-9.2 2.2-15.2 2.2c-5.2 0-9.8-0.6-13.6-1.8s-7.2-3-9.8-5.2c-2.6-2.2-4.6-5-6-8-1.4-3.2-2-6.6-2-10.4 0-4.8 1.4-8.8 4-12s6.2-6 10.6-8.2c4.4-2.2 9.4-4.2 15-6s11.4-3.6 17.2-5.6c5.8-2 11.6-4.4 17.2-7s10.6-6 15-10.2c4.4-4 8-9 10.6-15s4-13 4-21.4c0-9.2-1.6-17.8-4.8-25.8s-7.8-15-13.8-21c-6-6-13.4-10.6-22.2-14s-18.6-5.2-30-5.2c-6.4 0-12.8 0.6-19.2 1.8-6.2 1.2-12.2 3-18 5.4s-11.2 5.2-16.2 8.4c-5 3.2-9.4 7-13.4 11l11 18.2c1 1.4 2.2 2.4 3.8 3.4 1.4 0.8 3 1.4 4.8 1.4 2.4 0 4.8-1 7.6-2.8 2.8-2 6-4 9.6-6.4s8-4.4 13-6.4c5-2 11-2.8 18-2.8 10.8 0 19.2 2.6 25 7.6s8.8 12.4 8.8 22c0 5.4-1.4 9.6-4 13s-6.2 6.2-10.6 8.6c-4.4 2.2-9.4 4.2-15 5.8s-11.4 3.4-17.2 5.2c-5.8 1.8-11.6 4.2-17.2 6.8s-10.6 6-15 10.2c-4.4 4.2-8 9.4-10.6 15.8s-4 14.2-4 23.4c0 7.4 1.4 14.6 4.4 21.6s7.2 13.2 13 18.6c5.6 5.4 12.6 9.8 20.8 13s17.6 5 28.2 5c12 0 23-1.8 33.2-5.6s18.8-9 25.8-15.8l-8.6-18zM472.8 555.4v-31h-61.2v-172h-37.6v172h-61.4v31h160.2zM680.8 454c0-14.8-2.4-28.6-7.4-41.4-5-12.6-12-23.6-21-33-9-9.2-19.8-16.6-32.4-21.8s-26.6-7.8-42-7.8c-15.4 0-29.4 2.6-42 7.8s-23.6 12.4-32.6 21.8c-9 9.2-16 20.2-21 33-5 12.6-7.4 26.4-7.4 41.4 0 14.8 2.4 28.6 7.4 41.4 5 12.6 12 23.6 21 33 9 9.2 19.8 16.6 32.6 21.8 12.6 5.2 26.8 7.8 42 7.8 15.4 0 29.4-2.6 42-7.8s23.4-12.4 32.4-21.8c9-9.2 16-20.2 21-32.8 4.8-13 7.4-26.8 7.4-41.6zM642 454c0 11.2-1.4 21.2-4.4 30s-7.2 16.4-12.8 22.6c-5.6 6.2-12.2 11-20.2 14.2s-16.8 5-26.8 5c-10 0-18.8-1.6-26.8-5-8-3.2-14.8-8-20.4-14.2s-9.8-13.6-12.8-22.6c-3-8.8-4.4-18.8-4.4-30s1.4-21.2 4.4-30c3-8.8 7.2-16.4 12.8-22.4 5.6-6.2 12.4-10.8 20.4-14.2 8-3.2 17-5 26.8-5 10 0 18.8 1.6 26.8 5s14.6 8 20.2 14.2c5.6 6.2 9.8 13.6 12.8 22.4 2.8 8.8 4.4 18.8 4.4 30zM749.6 423.8v-71.6h-37.8v203.2h66.2c13.6 0 25.4-1.6 35.2-4.8 10-3.2 18.2-7.6 24.6-13.4s11.2-12.6 14.4-20.6c3-8 4.6-16.6 4.6-26.2 0-9.8-1.6-18.8-5-27-3.2-8.2-8.2-15.2-14.8-21.2-6.6-5.8-14.8-10.4-24.6-13.8-9.8-3.2-21.4-5-34.6-5h-28.2zM749.6 453.4h28.4c7 0 13 0.8 18.2 2.6s9.4 4.2 12.8 7.4c3.4 3.2 6 7.2 7.6 11.8s2.6 9.8 2.6 15.6c0 5.4-0.8 10.4-2.6 14.8-1.6 4.4-4.2 8.2-7.6 11.2s-7.6 5.4-12.8 7c-5.2 1.6-11.2 2.4-18.2 2.4h-28.4v-72.8z" />
<glyph unicode="&#xe925;" glyph-name="en-blanco" d="M396.4 786.8c-3.8 0-7.6 1-11.2 2.8l-27.6 14.8c-7.8 4.2-12.6 12.2-12.6 21v42c0 13 10.6 23.8 23.8 23.8h56.8c13 0 23.8-10.6 23.8-23.8v-37c0-7.8-3.8-15.2-10.4-19.6l-29.2-19.8c-4-2.8-8.6-4.2-13.4-4.2zM369 825.6l27.4-14.6 28.8 19.6v36.4h-56.2v-41.4zM615.8 0.4l-199.2 197v157c0 26 14.4 49.2 37.6 60.8 130.2 64.8 154 60.6 163 59 28.2-5 53-24 61.6-47 6.8-18 3.2-36.8-9.6-52.6-17.2-21-48.2-40.4-71.2-53-5.8-3.2-9.4-9.2-9.4-15.6l-0.8-84.4c1.4-6.4 7-11 13.4-11.2l254.8-3-240.2-207zM456.8 214.2l161-159.2 131.8 113.4-148.6 1.8c-26.8 0.4-49.6 20.6-53 47.2l-0.2 1.4 0.8 87.4c0.2 21 11.8 40.4 30.2 50.4 28 15.4 49 30.6 59.2 43.2 5 6 4.4 10.2 3.2 13.4-3.6 9.6-17.4 19.2-31 21.6-8.2 0.8-46.8-9.8-138.2-55.4-9.4-4.8-15.4-14.2-15.4-24.8v-140.4zM562.2-52.2c-11.6 0-22.4 4.4-30.6 12.4l-184.8 178.4c-8.4 8.2-13.2 19.2-13.4 31s4.2 23 12.4 31.4l30.2 31.4c8.2 8.4 19.2 13.2 31 13.4s23-4.2 31.4-12.4l184.8-178.4c8.4-8.2 13.2-19.2 13.4-31s-4.2-23-12.4-31.4l-30.2-31.4c-8.2-8.4-19.2-13.2-31-13.4-0.2 0-0.6 0-0.8 0zM407.6 205.8c0 0 0 0 0 0-0.8 0-2-0.2-2.8-1.2l-30.2-31.4c-1-1-1.2-2-1-2.8 0-0.8 0.2-1.8 1.2-2.8l184.8-178.4c1-1 2-1.2 2.8-1 0.8 0 1.8 0.2 2.8 1.2l30.2 31.4c1 1 1.2 2 1 2.8 0 0.8-0.2 1.8-1.2 2.8l-184.8 178.4c-0.8 0.8-2 1-2.8 1zM398.4 465.6c-110.8 0-201.2 90.2-201.2 201.2 0 24 4.2 47.4 12.4 69.6l-53.6 64.4c-7.6 9.2-10.8 21.2-8.8 33 2.2 11.8 9.4 22 19.8 28l147.2 82.6c5.8 3.4 12.6 3.6 20 3.6h124.2c7.4 0 14.2-0.2 20-3.6l147.4-82.4c10.4-5.8 17.6-15.6 19.8-27.4 2.2-11.6-0.8-23.6-8.2-32.8l-51-63c8.8-23 13.4-47.2 13.4-72-0.2-111-90.4-201.2-201.4-201.2zM333.6 913.4l-146.8-85.2c0 0-0.2-0.8-0.2-0.8s0-0.4 0-0.6l54.2-65 20.2-7.6-9-19.6c-9.8-21.2-14.8-44-14.8-67.6 0-88.8 72.2-161 161-161s161 72.2 161 161c0 24-5.2 47-15.2 68.4l-8.2 17.2 16.8 9 15.8-12.6-15.6 12.6 53.2 65.6c0 0 0 0.2 0 0.2 0 0.2 0 0.2-0.2 0.2l-146.8 85.6c-0.2 0-0.4 2.6-0.6 2.6h-124.2c-0.4 0.2-0.6-2.4-0.6-2.4zM333.2 910.6v0 0zM459.4 910.6v0 0zM458.6 912c0 0 0 0 0 0v0zM334 912v0 0zM235.369 763.944l327 0.511 0.063-40.2-327-0.511-0.063 40.2zM44-50.4c-6.6-0.2-12 4.6-13 11-2.8 21.8-7.4 64.6-0.4 129 8.4 78.2 36.4 191.6 121.2 288 136.8 155.4 218.2 132.4 227 129.2l-13.4-37.8c0 0 0.2 0 0.6-0.2-0.6 0.2-65.8 16.6-184-117.8-77.6-88.2-103.4-192.6-111.4-264.6-6.4-57.6-2.6-99.6-0.2-122.6 0.8-7.4-4.8-13.8-12.2-14l-14.2-0.2zM944.4 168h-181.8v40h181.8c8.2 0 14.8 6.6 14.8 14.8v407.8c0 8.2-6.6 14.8-14.8 14.8h-213.4c-3.8 0-7.4-1.4-10-4l-104.2-97c-3-2.8-4.8-6.8-4.8-10.8v-76.8h-40v76.8c0 15.2 6.4 29.8 17.6 40.2l104.2 97c10.2 9.4 23.4 14.8 37.4 14.8h213.2c30.2 0 54.8-24.6 54.8-54.8v-407.6c0-30.6-24.6-55.2-54.8-55.2zM558 442.8c-27.4 18-84.6 30.4-104.2 33.6l6.4 39.6c3.2-0.6 79.8-13.4 119.8-39.8l-22-33.4z" />
<glyph unicode="&#xe926;" glyph-name="iconos-todos-512x512_pergamino" d="M910.8 737.8c31.8 0 42.8-13.6 50.6-29.2 7.6-15.2 9-30.6 9-31.2h-0.6v-520.8c0-73.8-29.4-105-59-122s-59-16.8-59-16.8-35 0.4-70 18.2c-35 17.6-68.8 48.8-68.8 122v740.8c0 11.4-9.2 20.8-20.8 20.8h-658.8c-1.6 0.2-3 0.2-4.6 0-9.6-2.2-16.4-10.8-16.2-20.8v-740.8c0-88.2 45.8-137.8 90.8-160.2s89.6-21.4 89.6-21.4h638.2v2c10-1.2 20.8-2 20.8-2s39.8-0.2 79.8 22.8c39 22.4 77.2 69.6 79.2 151.8 0.2 0.4 0.4 0.8 0.6 1.2 0 0.4 0 0.8 0 1.2 0 1 0 2.2 0 3.2v521c0 0.2 0 0.4 0 0.6 0 0 0.2 24.4-12.4 49.2-12.6 25-42 51.8-88.2 51.8v0.8h-196.6v-41.6h115.4zM851.8 678.2v0.6zM54 878h617.4v-720c0-68.2 29-113 63-140h-541.6c-0.2 0-0.4 0-0.6 0 0 0-8.8-0.2-22 2-6.6 1-13.8 2.8-22 5.2s-17.2 5.4-26 9.8c-4.4 2.2-8.8 4.4-13 7.2-29.8 18.4-55.2 50.6-55.2 115.8v720zM137 748.8c-11.4-1.6-19.4-12.2-17.8-23.6s12.2-19.4 23.6-17.8h409.2c11.4-0.2 20.8 9 21 20.4s-9 20.8-20.4 21c-0.2 0-0.4 0-0.6 0h-409c-0.6 0-1.2 0-2 0-0.6 0-1.2 0-2 0-0.6 0.2-1.2 0.2-2 0zM137 665.8c-11.4-1.6-19.4-12.2-17.8-23.6s12.2-19.4 23.6-17.8h409.2c11.4-0.2 20.8 9 21 20.4s-9 20.8-20.4 21c-0.2 0-0.4 0-0.6 0h-409c-0.6 0-1.2 0-2 0-0.6 0-1.2 0-2 0-0.6 0-1.2 0-2 0zM146.8 499.8c-11.4-1.6-19.4-12.2-17.8-23.6s12.2-19.4 23.6-17.8h140.8c11.4-0.2 20.8 9 21 20.4s-9 20.8-20.4 21c-0.2 0-0.4 0-0.6 0h-140.8c-0.6 0-1.2 0-2 0-0.6 0-1.2 0-2 0-0.4 0-1.2 0-1.8 0zM386.2 499.8c-11.4-1.6-19.4-12.2-17.8-23.6s12.2-19.4 23.6-17.8h160.2c11.4-0.2 20.8 9 21 20.4s-9 20.8-20.4 21c-0.2 0-0.4 0-0.6 0h-160.2c-0.6 0-1.2 0-2 0-0.6 0-1.2 0-2 0-0.6 0-1.2 0-1.8 0zM146.8 416.8c-11.4-1.6-19.4-12.2-17.8-23.6s12.2-19.4 23.6-17.8v0h140.8c11.4-0.2 20.8 9 21 20.4s-9 20.8-20.4 21c-0.2 0-0.4 0-0.6 0h-140.8c-0.6 0-1.2 0-2 0-0.6 0-1.2 0-2 0-0.4 0-1.2 0-1.8 0zM386.2 416.8c-11.4-1.6-19.4-12.2-17.8-23.6s12.2-19.4 23.6-17.8v0h160.2c11.4-0.2 20.8 9 21 20.4s-9 20.8-20.4 21c-0.2 0-0.4 0-0.6 0h-160.2c-0.6 0-1.2 0-2 0-0.6 0-1.2 0-2 0-0.6 0-1.2 0-1.8 0zM386.2 338.4c-11.4-1.6-19.4-12.2-17.8-23.6s12.2-19.4 23.6-17.8h160.2c11.4-0.2 20.8 9 21 20.4s-9 20.8-20.4 21c-0.2 0-0.4 0-0.6 0h-160.2c-1.2 0.2-2.6 0.2-3.8 0-0.8 0-1.4 0-2 0zM146.8 333.8c-11.4-1.6-19.4-12.2-17.8-23.6s12.2-19.4 23.6-17.8h140.8c11.4-0.2 20.8 9 21 20.4s-9 20.8-20.4 21c-0.2 0-0.4 0-0.6 0h-140.8c-0.6 0-1.2 0-2 0-0.6 0-1.2 0-2 0-0.4 0-1.2 0-1.8 0zM386.2 255.4c-11.4-1.6-19.4-12.2-17.8-23.6s12.2-19.4 23.6-17.8h160.2c11.4-0.2 20.8 9 21 20.4s-9 20.8-20.4 21c-0.2 0-0.4 0-0.6 0h-160.2c-1.2 0.2-2.6 0.2-3.8 0-0.8 0-1.4 0-2 0zM146.8 250.8c-11.4-1.6-19.4-12.2-17.8-23.6s12.2-19.4 23.6-17.8h140.8c11.4-0.2 20.8 9 21 20.4s-9 20.8-20.4 21c-0.2 0-0.4 0-0.6 0h-140.8c-0.6 0-1.2 0-2 0-0.6 0-1.2 0-2 0-0.4 0-1.2 0-1.8 0zM386.2 177.4c-11.4-1.6-19.4-12.2-17.8-23.6s12.2-19.4 23.6-17.8h160.2c11.4-0.2 20.8 9 21 20.4s-9 20.8-20.4 21c-0.2 0-0.4 0-0.6 0h-160.2c-0.6 0-1.2 0-2 0-0.6 0-1.2 0-2 0-0.6 0.2-1.2 0.2-1.8 0zM146.8 167.8c-11.4-1.6-19.4-12.2-17.8-23.6s12.2-19.4 23.6-17.8h140.8c11.4-0.2 20.8 9 21 20.4s-9 20.8-20.4 21c-0.2 0-0.4 0-0.6 0h-140.8c-0.6 0-1.2 0-2 0-0.6 0-1.2 0-2 0-0.4 0-1.2 0-1.8 0z" />
<glyph unicode="&#xe927;" glyph-name="iconos-todos-512x512_conversacion" d="M155.4 135.2v199.2h-140.4v521.2h704v-521.2h-388.2l-175.4-199.2zM54.2 373.6h140.4v-134.6l118.6 134.6h366.8v442.8h-625.8v-442.8zM776 762v-42h192v-442h-140v-134.2l-117.6 134.2h-343.8l-34.4-38h360.6l175.2-199.6v199.6h140v522z" />
<glyph unicode="&#xe928;" glyph-name="iconos-todos-512x512_accidentes" d="M549.2 946.2c-109.6 0-198.8-89.2-198.8-198.8s89.2-198.8 198.8-198.8 198.8 89.2 198.8 198.8-89.2 198.8-198.8 198.8zM282.8 478.4c-32.4-41-63.4-95.2-105.6-157.2-76.4-113-96.6-202.6-83.4-267.2s62.8-102 113.8-102h72c5-0.4 9 0.2 15.6 0h556c30 0 54.4 19 66.4 44.2s15.8 56.2 16.2 91.4c0.6 70.2-15.4 156.6-33.6 231.2-19.4 76.4-45 133-79 171.4-33.8 38.6-77 58.4-123 58.4h-298.4c-37.4 0-67.6-17.8-94.4-44.8zM549.2 906.4c88 0 159-71 159-159s-71-159-159-159-159 71-159 159 71 159 159 159zM584 199.4l49.8-207.6h-343c-21.2 16.2-33 49.2-36 95-3.2 48.8 3.6 109.6 15 167.8 20.6 105.6 53 199.6 59 216.8 22.8 24.8 44.2 37.2 71.4 37.2h109.4zM550.6 508.8h147.8c35.4 0 65.4-13.2 93.2-44.8s51.8-82 70.2-154.8c17.6-72.6 32.8-157.2 32.4-221.2-0.2-32-4.8-58.6-12.4-74.6s-14.6-21.8-30.4-21.8h-85.8c26 25.4 42.2 60.6 42.2 99.4 0 76.4-62.8 139.2-139.2 139.2h-51.6l-66.4 278.6zM256 369c-9-33-18-68.4-25.4-106.8-11.8-60.2-19.2-123-15.6-177.8 2.4-34.6 9.2-67 24.2-92.6h-31.6c-32.4 0-65 21-75.2 70.2s5 129 77.6 236.8c17.2 25 32 48.4 46 70.2zM626.4 190.6h42.2c54.8 0 99.4-44.6 99.4-99.4 0-52.8-41.8-95.8-93.8-98.8l-47.8 198.2z" />
<glyph unicode="&#xe929;" glyph-name="iconos-todos-512x512_acuerdo" d="M695 887c-20.2-1.2-40-6-58.6-15.4l-108.6-53.2h-309l-175.2 42.6c-2.6 0.8-5.4 1-8 0.6-10.8-1.4-18.6-11.2-17.2-22 1-8.2 7.2-15 15.4-16.8l180.2-43.8h232.8l-168-82.2c-0.8-0.2-1.2-1-1.8-1.2-26.2-11.6-33-47.2-13.6-68l-0.6-0.6c0.4-0.4 1-0.2 1.2-0.6 58.8-64.4 152-85.8 234-53.8h0.6l116 45 239.6-240.2c18.2-18.2 18.2-46.6 0-64.8s-46.6-18.2-64.8 0c-8.4 6.8-21 5.6-27.8-3-5.8-7.2-5.8-17.6 0-24.8 18.2-18.2 18.2-47.2 0-65.4s-46.6-18.2-64.8 0l-14.2 14.2c-8.4 6.8-21 5.6-27.8-3-5.8-7.2-5.8-17.6 0-24.8 18.2-18.2 18.2-47.2 0-65.4s-46.6-18.2-64.8 0l-13.6 14.2c-7.6 7.8-20.2 8-28 0.4s-8-20.2-0.4-28c18.2-18.2 18.2-47.2 0-65.4s-46.6-18.2-64.8 0l-24.8 24.4 14.8 14.8c29 29 29 76 0 105-14.4 14.4-33.4 21.6-52.4 21.6-0.2 0-0.4 0-0.6 0 0.4 19.4-6.8 39-21.6 53.8-14.4 14.4-33.4 21.6-52.4 21.6-1 0-2 0-3 0 0.6 19.8-6.6 39.8-21.6 55-14.4 14.4-33.4 22.2-52.4 22.2-1 0-2 0-3 0 0.6 19.8-6.6 39.8-21.6 55-14.4 14.4-33.4 21.6-52.4 21.6s-38-7.2-52.4-21.6l-18-18-79.6 13.6c-1.2 0.4-2.4 0.6-3.8 0.6-11 0.6-20.4-7.6-21-18.6s7.6-20.4 18.6-21l64.8-11.8c-5.8-24.4 0.2-50.8 19.2-69.8 15.2-15.2 35.6-22.4 55.6-21.6-0.8-20 6.4-40.4 21.6-55.6s35.6-22.4 55.6-21.6c-0.6-19.8 6.6-39.8 21.6-55 14.8-14.8 34.4-22 53.8-21.6-0.4-19.6 6.4-39.2 21-53.8l0.6-0.6c20.6-20.2 50.2-25.4 76-16.6l30.2-30.2c33.2-33.2 87.8-33.2 121 0 16.2 16.2 23.6 37.4 24 58.6 28.6-7.6 59.8-1.8 82.2 20.4 16.2 16.2 24.2 37.4 24.6 58.6 28.4-7.4 60-1.8 82.2 20.4 19 19 26.2 44.8 23.4 69.8 25-2.8 50.8 4.4 69.8 23.4 21.2 21.2 28.8 51 22.8 78.4l11.8 11.8 72.8 10.4c11 1.8 18.4 12 16.6 22.8-1.8 11-12 18.4-22.8 16.6l-79-12.4-6.2-0.6-11.8-11.8c-1.4 1.6-2.8 3.4-4.4 5l-243.6 243.8c-1 1-2 1.8-3 2.4-0.2 0.2-0.4 0.4-0.6 0.6-5.2 7.6-14.8 10.6-23.4 7.4l-128.4-49.4c-67.6-26.6-143.6-9.4-191.4 43.8l-0.6 0.6c-2.6 2.6-2.6 4.4 0.6 5.6h1.2l0.6 0.6 244 119.2c4.2 0.6 8.2 2.6 11.2 5.6l104.4 51.2h0.6c36.4 18.2 79 14.4 112.4-8l7.4-8.6 1.8-2.4 2.4-1.2c35.8-24.6 79.2-31.2 119.8-20.4v-0.6l1.2 0.6 92 19.2c10.8 2.4 17.6 13 15.2 23.8s-13 17.6-23.8 15.2l-92.6-19.8-0.6-0.6h-0.6c-29.6-8.2-59.8-2.8-86.4 14.8l-7.4 8.6-1.8 1.8-2.4 1.8c-23.2 16-49.2 24.6-75.8 26.6-6.8 0.4-13.8 0.4-20.4 0zM191.8 418.2c8.6 0 17.4-3.8 24.6-11.2 14.6-14.6 14.6-34.8 0-49.4l-15.4-14.8-1.8-1.8-2.4-3c-14.6-14.6-34.8-14.6-49.4 0-11.8 11.8-13.6 27.4-6.2 40.8 3.4 2.4 6 5.8 7.4 9.8l16 15.4 2.4 3c7.2 7.4 16 11.2 24.8 11.2zM269 341.2c8.6 0 17.4-3.8 24.6-11.2 14.6-14.6 14.6-34.2 0-48.8l-19.8-19.8c-14.6-14.6-34.8-14.6-49.4 0s-14.6 34.2 0 48.8l19.8 19.8c7.2 7.2 16 11.2 24.8 11.2zM346.2 264c8.6 0 16.8-3.8 24-11.2 12-12 14-27.6 6.2-40.8-2.6-2-5.6-3.8-8-6.2l-19.8-19.8v-0.6h-0.6c-2.2-2.4-3.8-4.8-5.6-7.4-13.2-7.8-28.8-5.8-40.8 6.2-14.6 14.6-14.6 34.2 0 48.8l14.8 15.4 3.8 3 1.2 1.2c7.2 7.4 16 11.4 24.8 11.4zM420.8 188.6c8.6 0 17.4-3.2 24.6-10.4 14.6-14.6 14.6-34.8 0-49.4l-19.8-19.8c-1.8-1.8-3-3.6-5-5-0.2 0-0.4 0-0.6 0-13.8-9.6-31.2-7.8-43.8 5-9.4 9.4-11.4 28-5 42 2.4 1.8 5.2 3.4 7.4 5.6l19.8 19.8c2.6 2.6 4.6 5.8 6.8 8.6 5.2 2.4 10.4 3.6 15.6 3.6z" />
<glyph unicode="&#xe92a;" glyph-name="iconos-todos-512x512_alcohol" d="M501.6 242.4c-120.4 0-214.6 39-280 115.8-63 74-98.2 181.2-104.6 318.8-5 107.4 9.6 202.8 16.2 238.8 3.2 17.8 18.6 30.8 36.8 30.8h684c18 0 33.6-12.8 36.8-30.6 6.4-34.8 20.8-126.8 16.2-231.6-6-133.4-40-239-101.2-314-67.2-82.4-166-125.4-293.6-127.8-3.4-0.2-7-0.2-10.6-0.2zM171.8 907c-11.4-63.6-55.8-364 79.8-523.2 59.4-69.6 146.8-103.8 260-101.6 115.4 2.2 204 40.4 263.6 113.4 132 161.6 88.2 450.6 77 511.6h-680.4zM492.2 263h39.6v-283.8h-39.6v283.8zM238.2-11h537.4v-39.6h-537.4v39.6zM376.4 729.8h511v-39.6h-511v39.6z" />
<glyph unicode="&#xe92b;" glyph-name="iconos-todos-512x512_billetes" d="M368 676h226v-48h-226v48zM368 590h226v-44h-226v44zM619.8 452c-100.4 0-176 71.6-176 166.6s75.6 166.6 176 166.6v-43.6c-75.6 0-132.4-52.8-132.4-123s57-123 132.4-123v-43.6zM199.4 885.4c-0.6-0.2-1.4-0.4-2-0.6h-141.8c-11.4 0-20.8-9.4-20.8-20.8v-499.6c0-0.6 0-1.4 0-2 1-10.8 10-19 20.8-18.8h916c11.4 0 20.8 9.4 20.8 20.8v499.6c0 11.4-9.4 20.8-20.8 20.8h-141.8c-2 0.4-3.8 0.8-5.8 0.6-0.8-0.2-1.8-0.4-2.6-0.6h-615.6c-2.2 0.6-4.4 0.8-6.4 0.6zM76.4 843.2h104.2v-458h-104.2v458zM222 843.2h583v-458h-583v458zM846.6 843.2h104.2v-458h-104.2v458zM782.2 323.4c-0.8-0.2-1.8-0.4-2.6-0.6-9.6-2.2-16.6-10.8-16.2-20.8v-54c-15.2 3.8-30.8 7.4-49.4 11.8-139.4 31.6-354.2 63.2-658.4 63.2-0.6 0-1.4 0-2 0s-1.4 0-2 0c-11.4-1-20-11.2-18.8-22.8 1-11.4 11.2-20 22.8-18.8 301.4 0 513.2-31 649.4-61.8s195.2-61.2 195.2-61.2c10.4-5 22.8-0.8 27.8 9.6 1.4 2.8 2.2 6 2 9.2v125c0.2 11.4-9 21-20.6 21.2s-21-9-21.2-20.6c0-0.2 0-0.4 0-0.6v-93.6c-17.2 7.2-44 17.4-83.2 28.6v65c0.4 11.4-8.6 21.2-20 21.6-1-0.4-1.8-0.4-2.8-0.4zM49.6 260.2c-11.4-1.6-19.6-12.2-17.8-23.8s12.2-19.6 23.8-17.8c277.2 0 471.8-51.8 597.2-102.8s180.2-100.2 180.2-100.2c8.6-7.6 21.8-6.6 29.4 2 3.2 3.8 5 8.6 5.2 13.6v104.2c0.2 11.4-9 21-20.6 21.2s-21-9-21.2-20.6c0-0.2 0-0.4 0-0.6v-63.8c-15.2 10.8-35.2 24.2-62.4 39v52c0 11.4-9.2 20.8-20.6 21-1 0-1.8 0-2.8-0.2-10.4-1.4-18.2-10.2-18.2-20.8v-31.2c-16 7.6-33.4 15.4-53.4 23.4-130.4 53-330.6 105.4-613 105.4-0.6 0-1.4 0-2 0s-1.4 0-2 0c-0.4 0-1 0-1.8 0z" />
<glyph unicode="&#xe92c;" glyph-name="iconos-todos-512x512_boton" d="M446.6 948c-95.8 0-174-78.2-174-174 0-64.2 35-120 87-150.2v-335.6l-112 112.8c-33.8 33.8-89.2 33.8-123 0s-33.8-89.2 0-123l246.6-247.2c53-53 124.8-82.8 199.8-82.8h158.2c107.8 0 195.6 87.8 195.6 195.6v282.6c0 47.8-39.2 87-87 87-18 0-35-5.4-49-15-11.8 34-43.8 58.4-81.6 58.4-21.4 0-40.4-8.6-55.8-21.8-15.2 25.8-42.8 43.4-74.8 43.4-16 0-30.6-4.6-43.4-12.2v58c52 30 87 86 87 150.2 0.2 95.6-77.8 173.8-173.6 173.8zM446.6 904.6c72.2 0 130.4-58.2 130.4-130.4 0-38.8-16.6-73.4-43.4-97.2v97c0 47.8-39.2 87-87 87s-87-39.2-87-87v-97.2c-26.8 23.8-43.4 58.4-43.4 97.2 0 72.4 58 130.6 130.4 130.6zM446.6 817.6c24.2 0 43.4-19.2 43.4-43.4v-134.6c-0.4-2.2-0.4-4.6 0-6.8v-184.8c-0.2-12 9.2-22 21.2-22.2 1.8 0 3.6 0.2 5.2 0.6 2.2 0.6 4.2 1.6 6.2 2.8 0.4 0.2 1 0.4 1.4 0.6 1.2 1 2.4 2.2 3.4 3.4 3.8 4 6 9.4 6.2 15v43.4c0 24.2 19.2 43.4 43.4 43.4s43.4-19.2 43.4-43.4v-43.6c0-1.4 0.4-2.8 0.6-4 0.4-2.2 1-4.2 2-6.2 0.8-2 2-3.8 3.4-5.4 1-1 2.2-2 3.4-2.8 0.6-0.4 1.4-1 2-1.4 2-1 4-1.6 6.2-2 3-0.6 6-0.6 8.8 0 2.2 0.6 4.2 1.6 6.2 2.8 0.4 0.2 1 0.4 1.4 0.6 1.2 1 2.4 2.2 3.4 3.4 3.8 4 6 9.4 6.2 15v21.8c0 24.2 19.2 43.4 43.4 43.4s43.4-19.2 43.4-43.4v-43.4c0-0.6 0-1.4 0-2v-19.8c-0.2-12 9.4-21.8 21.4-22s21.8 9.4 22 21.4c0 0.2 0 0.4 0 0.6v18.4c0 1.2 0 2.2 0 3.4 0 24.2 19.2 43.4 43.4 43.4s43.4-19.2 43.4-43.4v-282.6c0-84.2-67.8-152.2-152.2-152.2h-158.2c-63.4 0-124.4 25.2-169.2 70l-246.2 247.2c-17.2 17.2-17.2 44 0 61.2s44 17.2 61.2 0l146.8-146c0.8-1.2 1.8-2.4 2.8-3.4 0.4-0.4 0.8-1 1.4-1.4 3-2.4 6.4-4 10.2-4.8 3-0.6 6-0.6 8.8 0 1.4 0.4 2.8 0.8 4 1.4 0.8 0.4 1.4 0.8 2 1.4 6.2 3.6 10.2 9.8 10.8 17 0 0.2 0 0.4 0 0.6 0 0.4 0 1 0 1.4 0 1 0 1.8 0 2.8v395.2c0.4 2.2 0.4 4.6 0 6.8v133c-0.2 24.4 19 43.6 43.4 43.6z" />
<glyph unicode="&#xe92d;" glyph-name="iconos-todos-512x512_consumo" d="M426.8 756.2c-28.6 0-52-14.2-67.4-32.2-4-4.6-7.4-9.8-10.4-14.8-9.4 3.6-19 5.8-27.8 6.2-14.6 0.8-27.6-2.4-39-8.6-22.4-12.4-38.4-31.2-55-45-17-14.4-68-51.8-113.6-84.6s-85.8-61.8-85.8-61.8c-9.8-4.8-14-16.6-9.2-26.4s16.6-14 26.4-9.2c1.8 0.8 3.6 2 5 3.4 0 0 41.4 28.8 87 61.8s95.6 69.2 116.2 86.4c19.8 16.6 35.2 33.6 48.2 40.8 10.8 6 19.4 7.8 35.2 0-0.2-2.8-1.2-5.4-1.2-8v-235.4l-27.2-12.4c-10.4-3.2-16.2-14.4-13-24.8s14.4-16.2 24.8-13c1.4 0.4 3 1.2 4.2 2l182.8 84h0.6c26 13.8 53.2 26.6 74.2 30.8 20.8 4.2 31.2 2.4 40.2-9.2 10.4-13.8 12.8-28.8 8-45.8-4.8-16.8-17.6-35-39.6-50.6-46-32.6-117.4-56.8-117.4-56.8l-3.8-1.2-3-2.4c-36.8-31.2-57.8-60.8-84.6-81-26.8-20-59.8-33.4-127.8-33.4h-1.2l-215-12.4c-11-0.6-19.2-10-18.6-21s10-19.2 21-18.6l213.6 12.4c0.4 0 0.8 0 1.2 0 50.4 0.2 87.2 8.6 116.2 21.6 5-14.8 15.4-27.6 31.4-32.8 22.6-7.4 45-5.2 63 2.4 8 3.4 15.2 8 21.6 13 6.2-14.4 17.4-27.8 34.6-34 18-6.4 36-8 51.8-3.8 16 4.2 29 13.2 41.4 24.8 2.2 2 3.6 3.4 5 5 4.2-2.8 9-4.8 14.2-6.2 25.6-6.8 55.6 0.6 78.4 23.4 20.2 20 32.2 51 36.4 92.6h172.4c47.4 0 85.8 38.8 85.8 86.4v298.2c0 49.6-42.8 90.2-91.4 90.2h-488.8zM426.8 716.6h489.2c24.6 0 51.8-26.4 51.8-50.6v-8.6h-592.8v6.8c0 8.2 5.4 23 14.8 34s21.4 18.4 37 18.4zM375 578.2h592.8v-210c0-26.2-20.6-47-46.4-47h-373c20.8 9.4 43.6 20.8 64.8 35.8 28 19.8 47.2 45 55 72.2s2.8 57-14.8 80.2c-19.2 25.4-51.2 29.8-79.6 24-28-5.8-56.6-19.2-83.4-33.4-0.4-0.2-0.8-0.4-1.2-0.6l-114.2-52.4v131.2zM473.8 281.8h13.6c-1.2-13.8-3.2-34.8-5.6-48.2-0.2-1.6-0.4-3.2-0.6-5-1.2-0.8-2.2-1.6-3-2.4-8.4-10-18.2-18.6-28.4-22.8s-20.2-5.8-34.6-1.2c-3.6 1.2-7.6 6.8-8 16 25.4 19.4 44 41.6 66.6 63.6zM527.4 281.8h74.2c-1.4-9.2-2.6-19.6-3.8-30.2-1.4-12.8-2.4-28.2 0.6-43.8-1.2-1.4-1.6-1.8-3-3.8-3.2-4-9-10-6.8-8-9.6-9-18-14-25.4-16s-15.2-1.4-27.8 3c-6.6 2.4-10.2 6.8-13 14.8-2.8 8.2-3.6 19.6-1.8 29 3.4 18.8 5.8 42.6 6.8 55zM641.8 281.8h67.4c-4-33-13.2-54-24-64.8-14.6-14.8-27-16.6-40.8-13-4.6 1.2-5 2.4-6.8 10.4-1.8 8.2-1.8 21-0.6 32.8 1 12.6 3 25 4.8 34.6z" />
<glyph unicode="&#xe92e;" glyph-name="iconos-todos-512x512_corbata" d="M913.2 93.2c-8.6 80.4-37 197-124.4 296-70.6 80-121.2 115.2-163.6 130.4 72.4 40.4 121.4 117.6 121.4 206.2 0 130.2-105.8 236-236 236s-236-105.8-236-236c0-89.6 50.2-167.8 124-207.8-41.6-16-91.2-51.4-159.6-129-87.4-99.2-116-215.6-124.6-296-7.2-66.2-2.4-110.2 0.4-132.6 0.8-6.6 6.6-11.6 13.2-11.4 4.6 0.2 9.8 0.2 14.6 0.4 7.6 0.2 13.4 6.8 12.6 14.4-2.6 23.8-6.4 66.8 0.2 126 8.2 74 34.6 181.2 114.4 272 88.6 100.6 148.2 122.4 174.2 126.6l54.6-77c1.4-2.6 3.4-4.6 5.6-6l-99.4-312.8c-0.8-2.4 0-4.8 1.8-6.6l101-108c3.2-3 10.6-2.4 13.2 1l94.2 109c1.2 1.6 1.6 3.4 1 8l-91.2 309.4c2.2 1.4 4 3.4 5.4 5.8l54.2 76.6c26.8-4.8 85.8-27.2 173-126.2 79.8-90.6 106.2-197.8 114.4-272 6.6-59.2 2.8-102.2 0.2-126-0.8-7.6 5-14.2 12.6-14.4l14.6-0.4c6.6-0.2 12.4 4.8 13.2 11.4 3.2 22.8 7.8 66.8 0.8 133zM315.8 726c0 107.4 87.4 194.8 194.8 194.8s194.8-87.4 194.8-194.8-87.4-194.8-194.8-194.8c-107.4 0-194.8 87.4-194.8 194.8z" />
<glyph unicode="&#xe92f;" glyph-name="iconos-todos-512x512_desahucios" d="M61.8 525.2l-25 31.8 473 371 457-362-25.2-31.6-432 342zM884.2-32h-750.8v655h40.4v-614.6h670v614h40.4zM13.505 352.067l8.484 39.499 977.113-209.874-8.484-39.499-977.113 209.874zM22.123 186.891l980.411 193.784 7.834-39.632-980.411-193.784-7.834 39.632z" />
<glyph unicode="&#xe930;" glyph-name="iconos-todos-512x512_despido" d="M582.6 487c-117 0-212 95.2-212 212s95 212.2 212 212.2 212-95.2 212-212c0-116.8-95.2-212.2-212-212.2zM582.6 875.8c-97.4 0-176.6-79.2-176.6-176.6s79.2-176.6 176.6-176.6c97.4 0 176.6 79.2 176.6 176.6s-79.2 176.6-176.6 176.6zM996.4 54.2l-41 0.2c0.6 136-36.4 241.2-110 313-33.8 33-72 55.4-108.4 70.6-67 27.8-140.6 35.8-212.2 24.6-26.2-4.2-54.4-9.6-72.8-17l-28 31c59.6 37.8 154.6 34.2 157.6 34.2 7.6 0.4 171.6 3.8 292.6-113.8 81.4-79.8 122.8-195.2 122.2-342.8zM466.6-15.2h-349.6v336.2h349.6v-336.2zM157 24.8h269.6v256.2h-269.6v-256.2zM440.6 428.6l137-0.2-122.2-134.8-26 23.6 69.6 75.4h-30.6zM524.4 173.2l-89.8 130.6 33 22.8 62.2-90.6 82.2 85-64.4 83.4 30 24 87-110.6zM466.6-15.2l-27.2 30 109 105v122.8h40v-140zM117 288.6l-91.4 89.2 270.2 108.4 153-154.6-28.4-28-134.4 135.4-186.6-77.6 41.4-40.4zM481.8 352.8l-97.2 107.6-54.2-31.8-20.2 34.4 82.2 48.2 119.2-131.6zM216.4 240.6h144v-40h-144v40z" />
<glyph unicode="&#xe931;" glyph-name="iconos-todos-512x512_dinero" d="M370.4 922c-90 0-163.4-73.4-163.4-163.4 0-25.2 6-49.4 16.4-70.8l38.8 19c-7.6 15.6-11.6 33.2-11.6 51.8 0 66.4 53.2 119.8 119.8 119.8 66.4 0 119.8-53.4 119.8-119.8h43.6c0 90-73.4 163.4-163.4 163.4zM777.4 826.6c-1-0.2-1.8-0.4-2.8-0.6-0.4-0.2-1-0.4-1.4-0.6-55.2-13.8-118.4-47-158.6-121.8-38.2 8.2-77.2 14.2-119.2 14.2-123.8 0-219.8-38.6-295.4-97.4-38.6-30-68.8-71.2-87.8-121.8-6.8 2.2-15.6 6-25.8 13-17.2 11.6-32 27.6-32 57.2 0 23.4 11 43.2 29.2 51 11.2 4.2 17.2 16.6 13 28-3.4 9-12.2 14.8-21.8 14.2-2.8-0.2-5.6-0.8-8.2-2-36.2-15.6-55.8-53-55.8-91.2 0-45.6 26.6-76.6 51-93.2 15.2-10.2 28-15.4 37.4-18.4-7.4-32.2-10.4-68-8.8-106.2 4-97 69.8-168 119.2-207.6 0.2 0 0.4 0 0.6 0 4.4-3.6 5.8-5.6 6.2-6.2s1.4 0.8-0.6-5.4c-6.6-20-19-50.4-19-50.4 0-0.2 0-0.4 0-0.6-11.6-30.4 3.8-64.6 34-76.2 0-0.2 0-0.4 0-0.6l70.2-25.8c30.4-11.6 65.4 3.6 77 34 0 0 8.8 24.6 16.4 45 1.2 3.2 2 3.8 2.8 4.8 0.8 0 1-0.4 2.8-0.6 13.8-2.6 44.6-11.6 96-11.6 52.4 0 82.8 5.2 96.6 6.2 2.8 0.2 3.8 0 4.8 0 0.4-0.6 0.2-1 0.6-2 0.2-0.4-0.2-0.4 0-0.6 7-20.8 15.4-40.2 15.6-40.8 0.2-0.4 0.6-0.4 0.6-0.6 11.8-29.8 45.4-44.8 75.6-33.4l70.2 25.8c0 0.2 0 0.4 0 0.6 30.4 11.6 45.6 45.8 34 76.2l-10.8 29.2c-0.6 1.2-1.2 2.4-2 3.4 0 0 0.6 0 0.6 0s-3-1.2 4 2.8c53 28.8 93.4 73 119.2 126.6 2.4 5 4.4 8.6 6.2 10.2s2.8 2.8 9.6 2.8h35.4c31.4 0 57.2 25.8 57.2 57.2v106.2c0 31.4-25.8 57.2-57.2 57.2h-35.4c-5.6 0-7 0.4-7.4 0.6-10.8 62.8-53 141.2-146.4 181 1 44.8 11 80.4 32.6 138.8 4.6 11.2-0.8 23.8-12 28.4-3.4 0.8-6.8 1.2-10.2 1zM743.4 765.4c-13.2-41-22.6-77.8-21.8-120.4 0.2-9.4 6.2-17.6 15-20.4 91.2-31.8 124.8-102.6 133.4-157.2 3.4-20.8 25.4-34.8 50.4-34.8h35.4c7.6 0 13.6-5.8 13.6-13.6v-106.2c0-7.6-6-13.6-13.6-13.6h-35.4c-16 0-30.4-6-39.4-14.2-9-8.4-13-17.6-15.6-23.2-22-46-55.4-82.6-100-106.8-17.4-9.4-26.8-27-27.2-40.2-0.4-11.2 3.4-17.4 4.8-19.8h-1l1.4-3.4 9.6-26.6c3.2-8.2-0.6-17.2-8.8-20.4l-70.2-26.6c-8.4-3.2-17.4 1.4-20.4 9.6 0 0.2 0 0.4 0 0.6 0 0-8.6 19.6-15 38.8-3.2 9.4-7.8 20-18.4 26.6s-21 6-30.6 5.4c-19.4-1.2-44.4-6.2-94-6.2-46.8 0-69.8 7.4-88.4 10.8-9.4 1.8-20.8 3.2-32.6-3.4s-16.2-17.4-20.4-28.6c-7.6-20.2-17-44.2-17-44.2-3.2-8.2-12.2-12.6-20.4-9.6l-70.2 26.6c-8.2 3.2-12 12.2-8.8 20.4 0.4 1 12.2 30.2 19.8 53 5 15.6 2.8 31.2-3.4 41.6s-14.8 15.8-17 17.6c-44 35.2-99.6 97.8-102.8 175.6-4.6 110.4 33.2 187.2 92.6 233.4 68.8 53.6 153.8 87.8 268.8 87.8 44 0 85.4-5.4 124.6-15 10.2-2.6 20.8 2.6 25.2 12.2 24.2 54.4 60.4 78.2 97.8 94.4zM761.8 474.8c-23 0-41.6-18.6-41.6-41.6s18.4-42.2 41.6-42.2c23 0 41.6 19.2 41.6 42.2-0.2 23-18.6 41.6-41.6 41.6z" />
<glyph unicode="&#xe932;" glyph-name="iconos-todos-512x512_divorcio" d="M307 862.8c-147 0-266.4-119.4-266.4-266.4 0-302.6 342.2-452 458.6-549l12.8-10.8 12.8 10.8c116.4 97 458.6 246.4 458.6 549 0 147-119.6 266.4-266.4 266.4-83.2 0-156.2-39.4-205-99.2-48.8 59.8-121.8 99.2-205 99.2zM307 821.8c78.6 0 147.2-40.4 187.6-101.2l17.2-25.6 17.2 25.6c40.4 60.8 109 101.2 187.6 101.2 124.8 0 225.4-100.8 225.4-225.4 0-264.4-295.4-401.2-430.4-508-134.8 106.8-430 243.6-430 508 0 124.8 100.6 225.4 225.4 225.4zM27.067 847.553l26.952 30.629 942.879-829.714-26.952-30.629-942.879 829.714z" />
<glyph unicode="&#xe933;" glyph-name="iconos-todos-512x512_dni" d="M950.8 94.4h-877.6c-29.2 0-53.2 23.8-53.2 53.2v497.8c0 29.4 23.8 53.2 53.2 53.2h877.6c29.4 0 53.2-23.8 53.2-53.2v-497.8c0-29.4-24-53.2-53.2-53.2zM73.2 659c-7.6 0-13.6-6.2-13.6-13.6v-497.8c0-7.6 6.2-13.6 13.6-13.6h877.6c7.6 0 13.6 6.2 13.6 13.6v497.8c0 7.6-6.2 13.6-13.6 13.6h-877.6zM549.8 678.2h-75.6c-13.2 0-24 10.8-24 24v75.4c0 13.2 10.8 24 24 24h75.6c13.2 0 24-10.8 24-24v-75.6c0-13-10.8-23.8-24-23.8zM489.8 717.6h44.4v44.6h-44.4v-44.6zM512 530h386v-20h-386v20zM898 488h-386v42h386v-42zM512 510h386v20h-386v-20zM512 426h386v-20h-386v20zM898 388h-386v38h386v-38zM512 406h386v20h-386v-20zM512 328h386v-22h-386v22zM898 282h-386v46h386v-46zM512 306h386v22h-386v-22zM288.4 369.8c-58.4 0-105.8 47.4-105.8 105.8s47.4 105.8 105.8 105.8 105.8-47.4 105.8-105.8c0-58.4-47.4-105.8-105.8-105.8zM288.4 540.8c-36 0-65.2-29.2-65.2-65.2s29.2-65.2 65.2-65.2 65.2 29.2 65.2 65.2c0 36-29.2 65.2-65.2 65.2zM151.6 184h-40.6c0 82 21.2 143.6 63 182.2 51 46.8 113.6 43.4 116.2 43.2l-3.4-40c-0.4 0.2-48 1.2-85.6-33.8-32.8-30.6-49.6-69.6-49.6-151.6zM468 184h-40.6c0 82-16.8 121.8-49.8 152.2-38 35-84.8 32.6-85.2 32.6l-3.4 41.2c2.6 0.2 65 3 116.2-44 41.4-38.6 62.8-100 62.8-182z" />
<glyph unicode="&#xe934;" glyph-name="iconos-todos-512x512_grua" d="M112.8 833.6c-4-0.8-7.6-2.6-10.6-5.6l-19.8-19.8c-7.2-7.2-7.8-18.8-1.2-26.6l15.4-18.6v-226.2c0-11 8.8-19.8 19.8-19.8 11.2 0 19.8-8.6 19.8-19.8s-8.6-19.8-19.8-19.8-19.8 8.6-19.8 19.8h-39.6c0-32.6 26.8-59.4 59.4-59.4s59.4 26.8 59.4 59.4c0 24.8-17.6 42.6-39.6 51.4v166.2l217.6-264.6v-91.4h-336.2v-138.4c0-32.4 26.8-59.4 59.4-59.4h81c9.4-56 58.2-98.8 116.8-98.8s107.4 42.8 116.8 98.8h280.4c9.4-56 58.2-98.8 116.8-98.8s107.4 42.8 116.8 98.8h41.4c32.6 0 59.4 26.8 59.4 59.4v190.4c0 45.2-31.6 85.2-31.6 85.2h-0.6l-81.6 108.8v0.6l-0.6 0.6c-18.2 22-45.6 49.4-83.4 49.4h-158.2c-32.6 0-59.4-26.8-59.4-59.4v-237.4h-39.6v98.8c0 5.6-2.6 11-6.8 14.8l-415.2 356.6c-4 3.6-9.4 5.4-14.8 5-0.6-0.2-1.2-0.2-1.8-0.2zM153.6 755.8l358.4-307.2v-89.6h-118.6v98.8c0 4.4-1.6 8.8-4.4 12.4l-235.4 285.6zM650.4 616h158.2c15.6 0 37.4-16.6 52.6-34.6 0.2-0.2 0.4-0.4 0.6-0.6l3-4.4h-95.8c-31.6 0-59.4-25.6-59.4-59.4v-79c0-16.4 7.4-30.8 18-41.4s25-18 41.4-18h197.8v-158.2c0-11-8.8-19.8-19.8-19.8h-41.4c-9.4 56-58.2 98.8-116.8 98.8s-107.4-42.8-116.8-98.8h-41.4v395.8c0 10.8 8.8 19.6 19.8 19.6zM769.2 537h125.4l48.2-64.2c0 0 18-30.6 21.6-54.4h-195.4c-3.2 0-8.6 2.4-13 6.8s-6.8 9.6-6.8 13v79.2c0.2 9.8 12 19.6 20 19.6zM57 319.4h534v-118.6h-199.6c-9.4 56-58.2 98.8-116.8 98.8s-107.4-42.8-116.8-98.8h-81c-11 0-19.8 8.8-19.8 19.8v98.8zM274.6 260c44 0 79.2-35.2 79.2-79.2s-35.2-79.2-79.2-79.2-79.2 35.2-79.2 79.2c0.2 44 35.4 79.2 79.2 79.2zM788.8 260c44 0 79.2-35.2 79.2-79.2s-35.2-79.2-79.2-79.2c-44 0-79.2 35.2-79.2 79.2 0.2 44 35.4 79.2 79.2 79.2z" />
<glyph unicode="&#xe935;" glyph-name="iconos-todos-512x512_herencia" d="M241.6 924.6c-9.2-1.8-15.6-9.8-15.4-19v-648.2h38.2v629h610v-743.4c0-72.6-58.6-132.2-131-133.4-0.8 0-1.6 0-2.4 0-13.2 0-26.8 8-38.2 25s-19 42.4-19 70.2 7.8 53.2 19 70.2c11.4 17 25 25 38.2 25 5.8 0 11.2 2.6 14.8 7.2 0.4 0.6 0.8 1.2 1.2 1.8 0.2 0.6 0.4 1.2 0.6 1.8 0.4 0.6 0.8 1.2 1.2 1.8 0.8 2.2 1.2 4.8 1.2 7.2-0.2 2.8-1 5.4-2.4 7.8-0.8 1.8-1.8 3.4-3 4.8s-2.6 2.6-4.2 3.6c-0.6 0.2-1.2 0.4-1.8 0.6-1.6 0.8-3.4 1.4-5.4 1.8-0.8 0-1.6 0-2.4 0h-533.8c-28.8 0-53.4-17.8-69.6-42.2s-25.6-56.2-25.6-91.2c0-35 9.4-66.8 25.6-91.2s41-42.2 69.6-42.2h533.8c0.6 0 1.2 0 1.8 0 93.4 1 169.8 77.8 169.8 171.6v762.2c0 10.6-8.6 19-19 19h-648.2c-0.6 0-1.2 0-1.8 0-0.6 0.2-1.2 0.2-1.8 0.2zM207 200.2h468.2c-1.2-1.6-3-2.4-4.2-4.2-16.2-24.4-25.6-56.2-25.6-91.2s9.4-66.8 25.6-91.2c1.2-1.6 3-2.6 4.2-4.2h-468.2c-13.2 0-26.8 8-38.2 25s-19 42.4-19 70.2 7.8 53.2 19 70.2c11.4 17.4 25 25.4 38.2 25.4zM692 808h42v-220h-42v220zM632 750h160v-42h-160v42z" />
<glyph unicode="&#xe936;" glyph-name="iconos-todos-512x512_itv" d="M400.4 528.4c-24 0-45.8-14.6-55-37 0-0.2-0.4-0.2-0.4-0.4l-35.2-82.4h-13.4c-19.8 0-36-16.2-36-36s16.2-36 36-36v-155.8c0-19.8 16.2-36 36-36h36c19.8 0 36 16.2 36 36v12h215.6v-12c0-19.8 16.2-36 36-36h36c19.8 0 36 16.2 36 36v155.8c19.8 0 36 16.2 36 36s-16.2 36-36 36h-13.4l-35.2 82.4c0 0.2-0.4 0.2-0.4 0.4-9.2 22.4-31 37-55 37h-223.6zM400.4 504.4h223c14.2 0 27.6-9.2 33-22.4l0.4-0.4 33.6-79-11.6-7.8v-0.4c-10-7-20.6-9.8-33-9.8h-267.8c-12.4 0-23 2.8-33 9.8v0.4l-11.6 7.8 33.6 79 0.4 0.4c5.4 13.2 18.8 22.4 33 22.4zM296.4 384.6h20.2l15-10.2v0.4h0.4c14-9.6 29.8-14.2 46-14.2h268c16.2 0 32 4.6 46 14.2 0 0 0.2 0 0.4 0v-0.4l15 10.2h20.2c6.6 0 12-5.4 12-12s-5.4-12-12-12h-24v-143.8h-383.2v143.8h-24c-6.6 0-12 5.4-12 12s5.4 12 12 12zM386.2 324.8c-23 0-42-18.8-42-42s18.8-42 42-42 42 18.8 42 42-19 42-42 42zM637.8 324.8c-23 0-42-18.8-42-42s18.8-42 42-42 42 18.8 42 42-19 42-42 42zM386.2 300.8c10.4 0 18-7.4 18-18s-7.4-18-18-18c-10.4 0-18 7.4-18 18s7.6 18 18 18zM637.8 300.8c10.4 0 18-7.4 18-18s-7.4-18-18-18-18 7.4-18 18 7.4 18 18 18zM320.4 193h59.8v-12c0-6.6-5.4-12-12-12h-36c-6.6 0-12 5.4-12 12v12zM643.8 193h59.8v-12c0-6.6-5.4-12-12-12h-36c-6.6 0-12 5.4-12 12v12zM992-32.6h-960v796.8l480 164.4 480-164.4v-796.8zM72.4 7.8h879v727.6l-439.4 150.4-439.6-150.4v-727.6zM494 84h38v-102h-38v102zM252 124h522v-40h-522v40zM379.8 589.6h-41.2v176.8h41.2v-176.8zM541 766.4v-32.6h-49.8v-144.2h-41v144.2h-49.8v32.6h140.6zM543.4 766.4h33c3.6 0 6.4-0.8 8.8-2.4 2.2-1.6 3.8-3.8 4.8-6.4l34.2-94.6c1.6-4.2 3.2-8.6 4.6-13.4 1.6-4.8 3-10 4.4-15.2 1.2 5.4 2.4 10.4 4 15.2s3 9.4 4.4 13.4l34 94.6c0.8 2.2 2.4 4.4 4.8 6.2s5.2 2.8 8.6 2.8h33.2l-70.8-176.8h-37.2l-70.8 176.6z" />
<glyph unicode="&#xe937;" glyph-name="iconos-todos-512x512_local" d="M58 902v-129.6c-1.4-6.6-21.6-104.6-21.6-162.2 0-29.8 5.8-58.4 21.6-81v-535.2h908v535c15.8 22.8 21.6 51.2 21.6 81 0 57-19.8 152.2-21.6 160.8 0 0.4 0 1 0 1.4v129.8h-908zM101.2 858.8h821.6v-64.8h-104c-2.8 0.6-5.8 0.6-8.8 0h-142c-2.2 0.6-4.4 0.8-6.8 0.6-0.6-0.2-1.4-0.4-2-0.6h-142.6c-2.2 0.6-4.4 0.8-6.8 0.6-0.6-0.2-1.4-0.4-2-0.6h-142.6c-2.2 0.6-4.4 0.8-6.8 0.6-0.6-0.2-1.4-0.4-2-0.6h-142.4c-2.2 0.6-4.4 0.8-6.8 0.6-0.6-0.2-1.4-0.4-2-0.6h-104v64.8zM98.4 750.8h89.2v-192c-13.8-14.6-32.6-24.4-54-24.4-16.8 0-27.2 4.2-35.2 12.2-1.4 2.6-3.2 4.8-5.4 6.8-8.6 12.4-13.6 32.8-13.6 56.8 0.2 42.6 15.4 120.8 19 140.6zM230.8 750.8h108.2v-192c-13.8-14.6-32.6-24.4-54-24.4s-40.2 9.6-54 24.4v192zM382.2 750.8h108.2v-192c-13.8-14.6-32.6-24.4-54-24.4s-40.2 9.6-54 24.4v192zM533.6 750.8h108.2v-192.6c-13.8-14.4-32.6-23.6-54-23.6-21.6 0-40.2 9.6-54 24.4v191.8zM685 750.8h108.2v-192.6c-13.8-14.4-32.6-23.6-54-23.6s-40.2 9.2-54 23.6v192.6zM836.4 750.8h89.2c3.8-19.8 19-98 19-140.6 0-21.2-3.8-39.4-10.8-52-5-3-8.8-7.8-10.2-13.6-7.6-6.6-17.8-10.2-33.2-10.2-21.4 0-40.2 9.2-54 23.6v192.8zM663.4 523c20.8-18.2 45.8-31.8 75.6-31.8s55 13.6 75.6 31.8c20.8-18.2 45.8-31.8 75.6-31.8 11.4 0 22.6 2 32.4 5.4v-459.4h-64.6v389.2h-237.8v-389.2h-519v459.4c9.8-3.4 21-5.4 32.4-5.4 29.8 0 55 13 75.6 31 20.8-18 46-31 75.6-31s55 13 75.6 31c20.8-18 46-31 75.6-31s55 13 75.6 31c20.8-18 46-31 75.6-31 30.2 0 55.4 13.6 76.2 31.8zM166 426.4v-324.4h389.2v324.4h-389.2zM209.2 383.2h302.8v-237.8h-302.8v237.8zM663.4 383.2h151.4v-346h-151.4v346z" />
<glyph unicode="&#xe938;" glyph-name="iconos-todos-512x512_lupa" d="M414.6 928.6c-205.2 0-372.2-166.8-372.2-372.2s166.8-372.2 372.2-372.2c81.2 0 156.4 26.2 217.6 70.4l288-287.4 61.6 61.6-284.8 285.4c56 65.2 89.6 149.8 89.6 242.2 0 205.2-166.8 372.2-372 372.2zM414.6 884.8c181.6 0 328.4-146.8 328.4-328.4s-146.8-328.4-328.4-328.4-328.4 146.8-328.4 328.4 146.8 328.4 328.4 328.4z" />
<glyph unicode="&#xe939;" glyph-name="iconos-todos-512x512_medico" d="M160.2 926.8c-15.6 0-29.2-8.8-35.4-22-8-1.8-19-4.6-30-8.6s-22.2-9.4-32.4-17.8-19.6-21.2-19.6-37.2c0-7 1.2-15 3-28 2-13 4.6-30.2 8.6-49.4 7.8-38.6 19.6-87.8 35.4-138.6 31.2-100.4 75.6-207.8 149-252.2 0-1.6-0.6-3.2-0.6-4.8 0-23.4 7-51.2 19-75.8 6-12.2 13.4-23.2 22.6-32.4 5-5 11-9.6 17.8-12.8 0.6-50.8 5.6-115.2 41.6-171 39.6-61.2 116.4-106.8 251-106.8 122.4 0 194.2 50.6 231.4 108.2 30.6 47.2 39.4 96.6 41.6 127.6 66.4 9.2 117.8 66.6 117.8 135.6 0 75.4-61.6 136.8-136.8 136.8-75.4 0-136.8-61.6-136.8-136.8 0-68.2 50.6-125 116-135-2.4-26.6-10.2-69-34.8-106.8-31-47.8-86.4-90.4-198.4-90.4-126 0-185.8 39.4-218 89.2-29.2 45.2-34.6 102-35.4 150.2 6.2 3.2 11.8 7.6 16.4 12.2 9.2 9.2 16.6 20.2 22.6 32.4 12 24.4 19 52.4 19 75.8 0 1.6-0.6 3.2-0.6 4.8 73.4 44.4 117.8 152 149 252.2 15.8 50.8 27.8 100 35.4 138.6 3.8 19.4 6.6 36.4 8.6 49.4s3 21 3 28c0 16-9.4 29-19.6 37.2s-21.4 13.6-32.4 17.8c-11 4-21.8 6.8-30 8.6-0.4 0-0.2 0-0.6 0-6.4 13-19.4 22-34.8 22-21.6 0-39-17.6-39-39s17.6-39 39-39c13.2 0 24.6 6.6 31.8 16.4 6-1.4 13-3 20.2-5.4 8.6-3.2 16.8-7.2 21.4-11s4.8-5.4 4.8-7.4c0-0.8-0.6-10.4-2.4-22.6s-4.8-28.2-8.6-47c-7.4-37.6-19-85.8-34.2-135-29.6-95.2-76.4-193-128.8-227.8-4.6 3.4-9.4 6-14 7.4-17 4.6-31.6 1.8-46.4 1.8s-29.4 2.8-46.4-1.8c-4.8-1.4-9.6-4-14-7.4-52.4 34.8-99.4 132.8-128.8 227.8-15.4 49-26.8 97.2-34.4 134.8-3.8 18.8-6.8 34.8-8.6 47s-2.4 21.8-2.4 22.6c0 2 0.4 3.6 4.8 7.4 4.6 3.8 12.8 7.8 21.4 11 7 2.6 14.2 4.2 20.2 5.4 7-10 18.6-16.4 31.8-16.4 21.6 0 39 17.6 39 39s-17.4 39-39 39zM844.2 438.2c54.2 0 97.8-43.6 97.8-97.8 0-53.6-42.6-96.8-95.8-97.8-0.6 0-1.2 0-1.8 0-54.2 0-97.8 43.6-97.8 97.8s43.4 97.8 97.6 97.8zM844.2 399.2c-32.2 0-58.6-26.6-58.6-58.6s26.4-58.6 58.6-58.6c32.2 0 58.6 26.4 58.6 58.6 0 32-26.4 58.6-58.6 58.6zM293.4 379c6.2 0 14.4 0 23.2 0 17.6 0 31.8 0.6 36-0.6 2.2-0.6 1.6 0.2 1.8 0s1.2-3.2 1.2-10.4c0-14.4-6-39.6-15.2-58.6-4.6-9.4-10-17.2-14.6-22-3.8-3.8-6.4-4.6-8-4.8-0.8 0-1.6 0-2.4 0-1.6 0.4-4.2 1.2-8 4.8-4.8 4.8-10 12.6-14.6 22-9.2 19-15.2 44.4-15.2 58.6 0 7.2 1 10.2 1.2 10.4s-0.2-0.6 1.8 0c2 0.6 6.4 0.6 12.8 0.6zM844.2 360c11 0 19.6-8.6 19.6-19.6s-8.6-19.6-19.6-19.6c-11 0-19.6 8.4-19.6 19.6 0.2 11.2 8.6 19.6 19.6 19.6z" />
<glyph unicode="&#xe93a;" glyph-name="iconos-todos-512x512_papeles" d="M713.8 106h-550.2c-22.6 0-41 18.4-41 41v755.2c0 22.6 18.4 41 41 41h550.2c22.6 0 41-18.4 41-41v-755.2c0-22.6-18.4-41-41-41zM165.8 149.2h545.8v750.8h-545.8v-750.8zM818.4 24h-578.2c-9 0-16.2 7.2-16.2 16.2v10.8c0 9 7.2 16.2 16.2 16.2h548c1.8 0 3.2 1.4 3.2 3.2v718.4c0 9 7.2 16.2 16.2 16.2h10.8c9 0 16.2-7.2 16.2-16.2v-748.6c0-8.8-7.4-16.2-16.2-16.2zM888-47.2h-542.6c-7.4 0-13.4 6-13.4 13.4v16.2c0 7.4 6 13.4 13.4 13.4h510.2c1.4 0 2.6 1.2 2.6 2.6v689.6c0 7.4 6 13.4 13.4 13.4h16.2c7.4 0 13.4-6 13.4-13.4v-721.6c0.2-7.6-5.8-13.6-13.2-13.6zM336.8 246.2h-83.2c-2 0-3.8 1.6-3.8 3.8v270.8c0 2 1.6 3.8 3.8 3.8h83.2c2 0 3.8-1.6 3.8-3.8v-270.8c-0.2-2-1.8-3.8-3.8-3.8zM480.2 246.2h-83.2c-2 0-3.8 1.6-3.8 3.8v385.2c0 2 1.6 3.8 3.8 3.8h83.2c2 0 3.8-1.6 3.8-3.8v-385.2c0-2-1.8-3.8-3.8-3.8zM613 246.2h-83.2c-2 0-3.8 1.6-3.8 3.8v447.8c0 2 1.6 3.8 3.8 3.8h83.2c2 0 3.8-1.6 3.8-3.8v-447.8c-0.2-2-1.8-3.8-3.8-3.8z" />
<glyph unicode="&#xe93b;" glyph-name="iconos-todos-512x512_penal" d="M28 932h40v-968h-40v968zM352 932h40v-342h-40v342zM636 932h40v-342h-40v342zM636 288h40v-324h-40v324zM352 288h40v-324h-40v324zM956 932h40v-968h-40v968zM411.4 254c-2.4 0-4.6 0.4-6 0.6l-140-0.4-0.2 40 141.4 0.4c2.4 0 4.4-0.4 5.8-0.6 8.8 0.6 15.8 7.8 15.8 16.6 0 9.2-7.6 17-16.4 17h-20v47.4h20c4.4 0 8.6 1.8 11.8 5s4.8 7.2 4.8 11.6c0 9.2-7.6 17-16.6 17h-20v45.8h20c4.4 0 8.6 1.8 11.8 5s4.8 7.2 4.8 11.6c0 9.2-7.6 17-16.6 17h-20v48h20c9 0 16.4 7.4 16.4 16.6 0 4.6-1.8 8.8-5 12s-7.4 5-11.8 5c-0.4 0-1.6-0.2-2.4-0.2-2-0.2-4.4-0.6-7-0.6l-104.8-0.4-0.2 40 104.8 0.4c0.4 0 1.4 0.2 2 0.4 2 0.2 4.4 0.6 7.4 0.6 0 0 0.2 0 0.2 0 15.2 0 29.4-6 40.2-16.8s16.8-25.2 16.8-40.2c0-15.8-6.4-30.2-17-40.6 10.6-10.4 17.2-24.8 17.2-40.8 0-15-5.8-29.2-16.4-39.8 10-10.2 16.2-24.4 16.4-39.8 0-15.2-5.8-29.4-16.6-40.2-0.2-0.2-0.4-0.4-0.6-0.6 10.4-10.4 16.8-24.8 17-40.6 0-30.8-25.6-56.4-57-56.4 0 0 0 0 0 0zM407 254v0c0 0 0 0 0 0zM266.4 254c-16.6 0-63.4 4.2-102 48.2-24.8 28.4-41.4 89.4-41 152 0.2 44.2 9.6 126.4 69.2 178.8 69 60.4 118.2 48.6 141.8 43 2.8-0.6 5.8-1.4 7-1.4 7.8-0.8 14.8-4.6 20-11 13.4-16.8 10.2-51.6 8.2-65.8l-39.6 5.6c1.6 11.6 1.8 25.4 0.6 32.6-1.8 0.4-3.6 0.8-5.4 1.2-19.8 4.8-52.8 12.6-106-34.2-48-42-55.4-111.4-55.6-149-0.4-58.2 15.8-108 31-125.4 32.8-37.4 72.6-34.6 74.2-34.6l3.6-39.8c-0.4-0.2-2.4-0.2-6-0.2zM616.8 252c0 0 0 0 0 0-31.6 0-57.2 25.6-57 56.8 0 15.8 6.6 30.2 16.8 40.6-0.2 0.2-0.4 0.4-0.6 0.6-10.8 10.8-16.8 25-16.6 40.2 0 15.4 6.2 29.6 16.4 39.8-10.6 10.6-16.4 24.8-16.4 39.8 0 16 6.6 30.4 17.2 40.8-10.4 10.4-17 24.6-16.8 40.4 0 15.2 6 29.6 16.8 40.2 10.8 10.8 25 16.8 40.2 16.8 0 0 0.2 0 0.2 0 2.8 0 5.4-0.4 7.4-0.6 0.8 0 1.8-0.2 2.2-0.2l104.8-0.4-0.2-40-104.8 0.4c-2.6 0-5 0.4-7 0.6-0.8 0.2-2 0.2-2.4 0.2-4.4 0-8.6-1.8-11.8-5s-5-7.6-5-12c0-9.2 7.2-16.6 16.2-16.6h20v-47.4h-20c-9 0-16.6-7.8-16.6-17 0-4.4 1.8-8.6 4.8-11.6 3.2-3.2 7.4-5 11.8-5h20v-45.8h-20c-9 0-16.6-7.8-16.6-17 0-4.4 1.8-8.6 4.8-11.6 3.2-3.2 7.4-5 11.8-5h20v-47.4h-20c-9 0-16.2-7.6-16.2-17 0-8.8 7-16.2 15.8-16.8 1.4 0.2 3.4 0.2 5.6 0.2 0 0 0 0 0 0l141.4-0.2-0.2-39.8-140 0.6c-1.4-1.2-3.6-1.6-6-1.6zM621.2 252c0 0 0 0 0 0v0zM761.6 252c-3.4 0-5.6 0.2-6 0.2l3.8 39.8-2-20 1.8 20c1.6-0.2 41.4-2.8 74.2 34.6 15.2 17.4 31.4 67.4 31 125.4-0.2 37.6-7.6 106.8-55.6 149-53.4 46.8-86.4 38.8-106 34.2-1.8-0.4-3.6-0.8-5.4-1.2-1.2-7.2-1-21 0.6-32.6l-39.6-5.6c-2 14.2-5.2 49 8.2 65.8 5 6.4 12.2 10.2 20 11 1.2 0.2 4.4 0.8 7 1.4 23.6 5.6 72.8 17.4 141.8-43 59.8-52.4 69-134.4 69.2-178.8 0.4-62.6-16.2-123.8-41-152-38.6-44-85.4-48.2-102-48.2z" />
<glyph unicode="&#xe93c;" glyph-name="iconos-todos-512x512_radio" d="M980 867.4l-138.6-39.2c-28.6 70.4-93.2 111.6-182.4 111.6-72 0-127.6-26.8-161.6-74.4l-133.4 26.6v0.2l-1.4-0.2-2.6 0.4v-0.8l-316-80.8v-854.6l318.4 81.2 306.2-74v-2.8l5.6 1.4 5.6-1.4v2.8l300 74.2v829.8zM659 899.8c47.8 0 158.8-15.8 158.8-162.8 0-45.4-29.6-114.2-85.8-198.8-28-42.4-56.4-78.8-73.2-99.6-42.4 51.4-158.8 201.8-158.8 298.4 0 147 111.2 162.8 159 162.8zM320 71.8l-232-59v764l232 59v-764zM636 13l-270 70v764l107.6-27c-8.8-24.6-13.4-52.4-13.4-83 0-119 142-294 176.4-334.6l-0.6-21v-368.4zM938 72v0l-258-64 0.4 391.2-0.6 1.8c31.4 37.8 178 220.2 178 336 0 14.2-1 27.6-3 40.6l83.2 25.8v-731.4zM659 641.2c53 0 96 43 95.8 95.8 0 52.8-43 95.8-95.8 95.8s-95.8-43-95.8-95.8 43-95.8 95.8-95.8zM659 790.8c29.8 0 54-24 53.8-53.8 0-29.6-24.2-53.8-53.8-53.8s-53.8 24.2-53.8 53.8 24.2 53.8 53.8 53.8z" />
<glyph unicode="&#xe93d;" glyph-name="iconos-todos-512x512_semaforo" d="M318 943.8c-59.2 0-107.8-48.6-107.8-107.8h-66.8c-25 0-45.2-22.8-40.4-47.2v-2l0.6-2c28.6-73.8 90-135.8 106.4-151.6v-77.4h-68.6c-12.4 0-24.8-5.4-32.4-14.8-7.6-9.6-10.4-24-5.4-36.4 28.6-73.8 90-135.8 106.4-151.6v-77.4h-68.6c-12.4 0-24.8-5.4-32.4-14.8-7.6-9.6-10.4-24-5.4-36.4 28.6-73.8 90-135.8 106.4-151.6v-12.8c0-59.2 48.6-107.8 107.8-107.8h388c59.2 0 107.8 48.6 107.8 107.8v12.8c16.4 15.8 77.8 77.8 106.4 151.6 5 12.2 2.2 26.8-5.4 36.4s-19.8 14.8-32.4 14.8h-68.8v77.4c16.4 15.8 77.8 77.8 106.4 151.6 5 12.2 2.2 26.8-5.4 36.4s-19.8 14.8-32.4 14.8h-68.8v77.4c16.4 15.8 77.8 77.8 106.4 151.6 5 12.2 2.2 26.8-5.4 36.4s-19.8 14.8-32.4 14.8h-68.8c0 59.2-48.6 107.8-107.8 107.8h-387.2zM318 900.8h388c35.6 0 64.6-29 64.6-64.6v-776.2c0-35.6-29-64.6-64.6-64.6h-388c-35.6 0-64.6 29-64.6 64.6v776c-0.2 35.8 28.8 64.8 64.6 64.8zM512 836c-59.2 0-107.8-48.6-107.8-107.8s48.6-107.8 107.8-107.8 107.8 48.6 107.8 107.8-48.6 107.8-107.8 107.8zM148.8 793h61.4v-94.4c-21 25.6-46.2 59.8-61.4 94.4zM512 793c36 0 64.6-28.8 64.6-64.6s-28.6-64.8-64.6-64.8-64.6 28.8-64.6 64.6 28.6 64.8 64.6 64.8zM813.8 793h61.4c-15.2-34.6-40.4-68.8-61.4-94.4v94.4zM512 555.8c-59.2 0-107.8-48.6-107.8-107.8s48.6-107.8 107.8-107.8 107.8 48.6 107.8 107.8-48.6 107.8-107.8 107.8zM148.8 512.6h61.4v-94.4c-21 25.8-46.2 60-61.4 94.4zM512 512.6c36 0 64.6-28.8 64.6-64.6s-28.6-64.6-64.6-64.6-64.6 28.6-64.6 64.6 28.6 64.6 64.6 64.6zM813.8 512.6h61.4c-15.2-34.6-40.4-68.8-61.4-94.4v94.4zM512 275.6c-59.2 0-107.8-48.6-107.8-107.8s48.6-107.8 107.8-107.8 107.8 48.6 107.8 107.8c0 59.2-48.6 107.8-107.8 107.8zM148.8 232.4h61.4v-94.4c-21 25.6-46.2 59.8-61.4 94.4zM512 232.4c36 0 64.6-28.8 64.6-64.6 0-36-28.8-64.6-64.6-64.6s-64.6 28.8-64.6 64.6c0 35.8 28.6 64.6 64.6 64.6zM813.8 232.4h61.4c-15.2-34.6-40.4-68.8-61.4-94.4v94.4z" />
<glyph unicode="&#xe93e;" glyph-name="iconos-todos-512x512_vivienda" d="M14.6 925.6v-497.4h59.6v-457.6h875.4v457.6h59.6v497.2h-994.6zM54.4 885.8h915.4v-417.8h-268.2l-189.6 295.2-16.8-26.2-172.8-269.2h-224.6c-2.6 0.6-5.4 0.6-8 0h-35.4v418zM512 689.8l162.2-252.4 6.2-9.4h229.6v-417.8h-279.8v219c0 65-53 118.2-118.2 118.2s-118.2-53-118.2-118.2v-218.8h-279.8v417.8h229.4l6.2 9.4 162.4 252.2zM193.6 348.6v-238.6h159v238.6h-159zM671.2 348.6v-238.6h159v238.6h-159zM512 310c44.8 0 80.8-36 80.8-80.8v-218.8h-161.6v218.8c0 44.8 36 80.8 80.8 80.8zM233.4 308.8h79.6v-159.2h-79.6v159.2zM711 308.8h79.6v-159.2h-79.6v159.2z" />
<glyph unicode="&#xe93f;" glyph-name="iconos-todos-512x512_incumplimientocontrato" d="M1003.2-28.2l-103.2 105.2v594c0 1-0.2 2-0.8 2.8l-4.8 5.4c0 0 0 0.2-0.2 0.2l-258.8 258.8c0 0 0 0.2-0.2 0.2l-5.4 4.8c-0.8 0.6-1.8 0.8-2.8 0.8h-499.2c-2.2 0-3.8-1.6-3.8-4v-69.8l-53 54-28.4-28 81.4-83.2v-857.2c0-2.4 1.6-4 3.8-4h768.4c2.4 0 3.8 1.6 3.8 4v63.8l74.6-76 28.6 28.2zM642 860c0 3.8 4.2 5.6 6.8 3l170.2-170c2.6-2.6 0.6-6.8-3.2-6.8h-170.4c-2.4 0-3.6 1.2-3.6 3.6v170.2zM166 897c0 2.4 2.6 5 5 5h423.2c2.4 0 3.8-2.8 3.8-5v-250.6c0-2.4 2.2-4.4 4.6-4.4h250.6c2.4 0 5-1.6 5-4v-517l-257.8 263h166.2c2.4 0 3.2 1.2 3.2 3.4v34.8c0 2.4-1 3.8-3.2 3.8h-208.4l-42.2 44h250.8c2.4 0 3.2 1.4 3.2 3.8v34.8c0 2.4-1 3.4-3.2 3.4h-293.2l-42.2 44h335.2c2.4 0 3.2 1.8 3.2 4v34.8c0 2.4-1 5.2-3.2 5.2h-377.4l-223.2 226.2v70.8zM858-1c0-2.4-2.6-5-5-5h-682c-2.4 0-5 2.8-5 5v770l167.2-169h-54.4c-2.4 0-4.8-2.8-4.8-5.2v-34.8c0-2.4 2.6-4 4.8-4h96.6l42.2-44h-138.8c-2.4 0-4.8-1.2-4.8-3.4v-34.8c0-2.4 2.6-3.8 4.8-3.8h181.2l42.2-44h-223.4c-2.4 0-4.8-1.4-4.8-3.8v-34.8c0-2.4 2.6-3.4 4.8-3.4h265.6l138.6-141.8c-2.6 1.2-5.6 1.6-8.6 1.8-0.2 0-0.4 0-0.6 0-30.4 0-53.4-17.6-71.4-31.8-5.8-4.4-10.6-8.6-15-12-2.2-1.8-5.6-0.8-6.6 2-2.4 7-5.2 13.8-8.8 20.8-1.8 3.6-3.2 7.6-6.8 11.4-3.4 3.8-10 9.4-20.2 9.4-14 0-18.8-8.4-22.2-12.8s-6-8.2-8.8-12.8c-5.4-9.2-11.6-20-19.6-30.4-13-16.8-31-30.8-58.4-35.8-3.6-0.6-6.2 3.4-4.2 6.6 19.8 28.4 36.2 63 36.2 104 0 14.6-2.6 30.6-12.8 43.8s-28 21.6-47.8 21.6c-24.6 0-44.6-15.6-58-35.8-13.4-20-21.6-45.8-21.6-74.2 0-23.8 7.4-49.6 21.6-71.4 1-1.6 2.6-2.8 4-4.2 2-1.6 2-4.6 0.2-6.2-6.4-6-15-14.6-16.8-16.2-0.2-0.2-0.4-0.4-0.6-0.6-10-6.2-13-19.4-7-29.4 6.2-10.2 19.4-13.6 29.6-7.4 1 0.6 1.8 1.2 2.6 2 0 0 16.4 15.8 29 27.2 1.2 1.2 3 1.4 4.6 0.6 7-3 13.6-7 21.8-7 54.4 0 90.4 29.4 111.2 56 3.8 4.8 6.4 8.8 8.8 12.6 1.8 3 6.4 2.4 7.4-0.8 0.6-1.6 1.2-3.4 2-5 1.4-3.2 2.8-6.4 5.4-10.2s7.4-12.2 21-12.2c14.4 0 23.2 6.8 31.6 12.8s16 12.4 24.2 18.8c16.4 12.8 33.2 23 45.2 23 12-0.2 21.8 9.4 21.8 21.2 0 3.2-0.2 6-1.4 8.8l163.6-166.8v-64.6zM425 262.6c0-32.2-16.4-62.6-35.2-87.4-1.8-2.4-5.6-2.2-7 0.6-7.2 13.4-11.6 30-11.6 42.4 0 19.8 6 38.4 14.2 50.6s17.6 16.2 22.2 16.2c9.4 0 11.2-1.8 13.4-4.8s4-9.4 4-17.6z" />
<glyph unicode="&#xe940;" glyph-name="iconos-todos-512x512_fecha-nacimiento" d="M275.4 942c-21.6 0-39.6-18-39.6-39.6v-39.6h-138.2c-21.6 0-39.6-17.8-39.6-39.4v-395.2c-0.2-11 8.6-19.8 19.4-20s19.8 8.6 20 19.4c0 0.2 0 0.4 0 0.6v197.6h869.2v-632.2h-869v237c0.2 11-8.6 19.8-19.4 20-11 0.2-19.8-8.6-20-19.4 0-0.2 0-0.4 0-0.6v-237c-0.2-21.6 17.8-39.6 39.4-39.6h869.2c21.6 0 39.6 18 39.6 39.6v829.8c0 21.6-18 39.6-39.6 39.6h-138.2v39.4c0 21.6-18 39.6-39.6 39.6h-39.6c-21.4 0-39.4-18-39.4-39.6v-39.6h-355.6v39.6c0 21.6-18 39.6-39.6 39.6h-39.4zM275.4 902.4h39.6v-118.6h-39.6v55.6c0.6 2.6 0.6 5.4 0 8v55zM749.6 902.4h39.6v-53c-1.2-3.8-1.2-8 0-11.8v-53.8h-39.6v118.6zM97.6 823.4h138.2v-39.6c0-21.6 18-39.6 39.6-39.6h39.6c21.6 0 39.6 18 39.6 39.6v39.6h355.4v-39.6c0-21.6 18-39.6 39.6-39.6h39.6c21.6 0 39.6 18 39.6 39.6v39.6h138.2v-158h-869.4v158zM331.6 485.6c-10.8-2-17.8-12.2-16-23 0.8-4.2 2.8-8 6-11l102.4-102.4h-385.6c-0.6 0-1.2 0-1.8 0-11-0.6-19.4-9.8-18.8-20.6 0.6-11 9.8-19.4 20.6-18.8h385.8l-102.4-102.4c-8.4-6.8-9.8-19.2-3-27.8s19.2-9.8 27.8-3c1 0.8 2.2 1.8 3 3l136.4 135.8 13.6 14.2-13.6 14.2-136.4 135.8c-4.2 4.4-10 6.6-16 6.2-0.8-0.2-1.4-0.2-2-0.2z" />
<glyph unicode="&#xe941;" glyph-name="iconos-todos-512x512_genero" d="M725.6 859.8v-36h172.2l-153.6-153.8c-34.4 28.6-78.2 45.6-126.6 45.6-109.8 0-198.2-88.2-198.2-198.2 0-81 50.2-151.2 120.4-181.8 3.6 12.6 5.6 25.2 5.6 37.8-54 27-90 81-90 144.2 0 90 72 162.2 162.2 162.2s162.2-72 162.2-162.2-72-162.2-162.2-162.2h-1.6c-1.8-12.6-3.8-23.4-5.6-36h7.4c109.8 0 198.2 88.2 198.2 198.2 0 48.4-17 92.4-45.6 126.6l153.6 153.6v-172.2h36v234.2h-234.4zM401.4 571.6c-109.8 0-198.2-88.2-198.2-198.2 0-48.4 17-92.4 45.6-126.6l-81.6-81.6-77.2 77.2-25.8-25.8 77.2-77.2-77.2-77.2 25.8-25.8 77.2 77.2 77.2-77.2 25.8 25.8-77.2 77.2 81.6 81.6c34.4-28.6 78.2-45.6 126.6-45.6 109.8 0 198.2 88.2 198.2 198.2 0 81-50.2 151.2-120.4 181.8-3.6-10.8-5.6-23.4-5.6-37.8 54-27 90-81 90-144.2 0-90-72-162.2-162.2-162.2s-162.2 72-162.2 162.2 72 162.2 162.2 162.2h1.6c1.8 12.6 3.8 23.4 5.6 36h-7z" />
</font>
</defs>
</svg>
