<?xml version="1.0" encoding="utf-8"?>
<!-- Generator: Adobe Illustrator 23.0.2, SVG Export Plug-In . SVG Version: 6.00 Build 0)  -->
<svg version="1.1" id="Layer_2" xmlns="http://www.w3.org/2000/svg" xmlns:xlink="http://www.w3.org/1999/xlink" x="0px" y="0px"
	 viewBox="0 0 1815.2 1468.2" style="enable-background:new 0 0 1815.2 1468.2;" xml:space="preserve">
<style type="text/css">
	.st0{fill:#4C4B4B;}
</style>
<g id="A_Coruña">
	<circle class="st0" cx="319.3" cy="18.2" r="6.3"/>
	<circle class="st0" cx="369.3" cy="18.2" r="6.3"/>
	<circle class="st0" cx="344.3" cy="18.2" r="6.3"/>
	<circle class="st0" cx="219.3" cy="68.2" r="6.3"/>
	<circle class="st0" cx="269.3" cy="68.2" r="6.3"/>
	<circle class="st0" cx="244.3" cy="68.2" r="6.3"/>
	<circle class="st0" cx="319.3" cy="43.2" r="6.3"/>
	<circle class="st0" cx="294.3" cy="43.2" r="6.3"/>
	<circle class="st0" cx="319.3" cy="68.2" r="6.3"/>
	<circle class="st0" cx="294.3" cy="68.2" r="6.3"/>
	<circle class="st0" cx="344.3" cy="43.2" r="6.3"/>
	<circle class="st0" cx="169.3" cy="93.2" r="6.3"/>
	<circle class="st0" cx="169.3" cy="118.2" r="6.3"/>
	<circle class="st0" cx="219.3" cy="93.2" r="6.3"/>
	<circle class="st0" cx="194.3" cy="93.2" r="6.3"/>
	<circle class="st0" cx="219.3" cy="118.2" r="6.3"/>
	<circle class="st0" cx="194.3" cy="118.2" r="6.3"/>
	<circle class="st0" cx="269.3" cy="93.2" r="6.3"/>
	<circle class="st0" cx="244.3" cy="93.2" r="6.3"/>
	<circle class="st0" cx="269.3" cy="118.2" r="6.3"/>
	<circle class="st0" cx="244.3" cy="118.2" r="6.3"/>
	<circle class="st0" cx="319.3" cy="93.2" r="6.3"/>
	<circle class="st0" cx="294.3" cy="93.2" r="6.3"/>
	<circle class="st0" cx="319.3" cy="118.2" r="6.3"/>
	<circle class="st0" cx="294.3" cy="118.2" r="6.3"/>
	<circle class="st0" cx="169.3" cy="143.2" r="6.3"/>
	<circle class="st0" cx="219.3" cy="143.2" r="6.3"/>
	<circle class="st0" cx="194.3" cy="143.2" r="6.3"/>
	<circle class="st0" cx="194.3" cy="168.2" r="6.3"/>
	<circle class="st0" cx="244.3" cy="143.2" r="6.3"/>
</g>
</svg>
