<?xml version="1.0" encoding="utf-8"?>
<!-- Generator: Adobe Illustrator 23.0.3, SVG Export Plug-In . SVG Version: 6.00 Build 0)  -->
<svg version="1.1" id="Layer_2" xmlns="http://www.w3.org/2000/svg" xmlns:xlink="http://www.w3.org/1999/xlink" x="0px" y="0px"
	 viewBox="0 0 1815.2 1468.2" style="enable-background:new 0 0 1815.2 1468.2;" xml:space="preserve">
<style type="text/css">
	.st0{fill:#4B4C4C;}
</style>
<g id="Badajoz">
	<circle class="st0" cx="669.3" cy="668.2" r="6.3"/>
	<circle class="st0" cx="694.3" cy="668.2" r="6.3"/>
	<circle class="st0" cx="419.3" cy="693.2" r="6.3"/>
	<circle class="st0" cx="394.3" cy="693.2" r="6.3"/>
	<circle class="st0" cx="419.3" cy="718.2" r="6.3"/>
	<circle class="st0" cx="394.3" cy="718.2" r="6.3"/>
	<circle class="st0" cx="469.3" cy="718.2" r="6.3"/>
	<circle class="st0" cx="444.3" cy="718.2" r="6.3"/>
	<circle class="st0" cx="519.3" cy="718.2" r="6.3"/>
	<circle class="st0" cx="494.3" cy="718.2" r="6.3"/>
	<circle class="st0" cx="569.3" cy="718.2" r="6.3"/>
	<circle class="st0" cx="544.3" cy="718.2" r="6.3"/>
	<circle class="st0" cx="619.3" cy="693.2" r="6.3"/>
	<circle class="st0" cx="594.3" cy="693.2" r="6.3"/>
	<circle class="st0" cx="619.3" cy="718.2" r="6.3"/>
	<circle class="st0" cx="594.3" cy="718.2" r="6.3"/>
	<circle class="st0" cx="669.3" cy="693.2" r="6.3"/>
	<circle class="st0" cx="644.3" cy="693.2" r="6.3"/>
	<circle class="st0" cx="644.3" cy="718.2" r="6.3"/>
	<circle class="st0" cx="369.3" cy="743.2" r="6.3"/>
	<circle class="st0" cx="369.3" cy="768.2" r="6.3"/>
	<circle class="st0" cx="344.3" cy="768.2" r="6.3"/>
	<circle class="st0" cx="419.3" cy="743.2" r="6.3"/>
	<circle class="st0" cx="394.3" cy="743.2" r="6.3"/>
	<circle class="st0" cx="419.3" cy="768.2" r="6.3"/>
	<circle class="st0" cx="394.3" cy="768.2" r="6.3"/>
	<circle class="st0" cx="469.3" cy="743.2" r="6.3"/>
	<circle class="st0" cx="444.3" cy="743.2" r="6.3"/>
	<circle class="st0" cx="469.3" cy="768.2" r="6.3"/>
	<circle class="st0" cx="444.3" cy="768.2" r="6.3"/>
	<circle class="st0" cx="519.3" cy="743.2" r="6.3"/>
	<circle class="st0" cx="494.3" cy="743.2" r="6.3"/>
	<circle class="st0" cx="519.3" cy="768.2" r="6.3"/>
	<circle class="st0" cx="494.3" cy="768.2" r="6.3"/>
	<circle class="st0" cx="569.3" cy="743.2" r="6.3"/>
	<circle class="st0" cx="544.3" cy="743.2" r="6.3"/>
	<circle class="st0" cx="569.3" cy="768.2" r="6.3"/>
	<circle class="st0" cx="544.3" cy="768.2" r="6.3"/>
	<circle class="st0" cx="619.3" cy="743.2" r="6.3"/>
	<circle class="st0" cx="594.3" cy="743.2" r="6.3"/>
	<circle class="st0" cx="619.3" cy="768.2" r="6.3"/>
	<circle class="st0" cx="594.3" cy="768.2" r="6.3"/>
	<circle class="st0" cx="644.3" cy="743.2" r="6.3"/>
	<circle class="st0" cx="369.3" cy="793.2" r="6.3"/>
	<circle class="st0" cx="344.3" cy="793.2" r="6.3"/>
	<circle class="st0" cx="369.3" cy="818.2" r="6.3"/>
	<circle class="st0" cx="419.3" cy="793.2" r="6.3"/>
	<circle class="st0" cx="394.3" cy="793.2" r="6.3"/>
	<circle class="st0" cx="419.3" cy="818.2" r="6.3"/>
	<circle class="st0" cx="394.3" cy="818.2" r="6.3"/>
	<circle class="st0" cx="469.3" cy="793.2" r="6.3"/>
	<circle class="st0" cx="444.3" cy="793.2" r="6.3"/>
	<circle class="st0" cx="469.3" cy="818.2" r="6.3"/>
	<circle class="st0" cx="444.3" cy="818.2" r="6.3"/>
	<circle class="st0" cx="519.3" cy="793.2" r="6.3"/>
	<circle class="st0" cx="494.3" cy="793.2" r="6.3"/>
	<circle class="st0" cx="519.3" cy="818.2" r="6.3"/>
	<circle class="st0" cx="494.3" cy="818.2" r="6.3"/>
	<circle class="st0" cx="569.3" cy="793.2" r="6.3"/>
	<circle class="st0" cx="544.3" cy="793.2" r="6.3"/>
	<circle class="st0" cx="569.3" cy="818.2" r="6.3"/>
	<circle class="st0" cx="544.3" cy="818.2" r="6.3"/>
	<circle class="st0" cx="419.3" cy="843.2" r="6.3"/>
	<circle class="st0" cx="469.3" cy="843.2" r="6.3"/>
	<circle class="st0" cx="444.3" cy="843.2" r="6.3"/>
	<circle class="st0" cx="519.3" cy="843.2" r="6.3"/>
	<circle class="st0" cx="494.3" cy="843.2" r="6.3"/>
</g>
</svg>
