<?xml version="1.0" encoding="utf-8"?>
<!-- Generator: Adobe Illustrator 23.0.3, SVG Export Plug-In . SVG Version: 6.00 Build 0)  -->
<svg version="1.1" id="Layer_2" xmlns="http://www.w3.org/2000/svg" xmlns:xlink="http://www.w3.org/1999/xlink" x="0px" y="0px"
	 viewBox="0 0 1815.2 1468.2" style="enable-background:new 0 0 1815.2 1468.2;" xml:space="preserve">
<style type="text/css">
	.st0{fill:#4B4C4C;}
</style>
<g id="Cadiz">
	<circle class="st0" cx="594.3" cy="1018.2" r="6.3"/>
	<circle class="st0" cx="469.3" cy="1043.2" r="6.3"/>
	<circle class="st0" cx="469.3" cy="1068.2" r="6.3"/>
	<circle class="st0" cx="444.3" cy="1068.2" r="6.3"/>
	<circle class="st0" cx="519.3" cy="1043.2" r="6.3"/>
	<circle class="st0" cx="494.3" cy="1043.2" r="6.3"/>
	<circle class="st0" cx="519.3" cy="1068.2" r="6.3"/>
	<circle class="st0" cx="494.3" cy="1068.2" r="6.3"/>
	<circle class="st0" cx="569.3" cy="1043.2" r="6.3"/>
	<circle class="st0" cx="544.3" cy="1043.2" r="6.3"/>
	<circle class="st0" cx="469.3" cy="1093.2" r="6.3"/>
	<circle class="st0" cx="469.3" cy="1118.2" r="6.3"/>
	<circle class="st0" cx="519.3" cy="1093.2" r="6.3"/>
	<circle class="st0" cx="494.3" cy="1093.2" r="6.3"/>
	<circle class="st0" cx="519.3" cy="1118.2" r="6.3"/>
	<circle class="st0" cx="494.3" cy="1118.2" r="6.3"/>
	<circle class="st0" cx="544.3" cy="1093.2" r="6.3"/>
	<circle class="st0" cx="569.3" cy="1118.2" r="6.3"/>
	<circle class="st0" cx="544.3" cy="1118.2" r="6.3"/>
	<circle class="st0" cx="519.3" cy="1143.2" r="6.3"/>
	<circle class="st0" cx="494.3" cy="1143.2" r="6.3"/>
	<circle class="st0" cx="569.3" cy="1143.2" r="6.3"/>
	<circle class="st0" cx="544.3" cy="1143.2" r="6.3"/>
	<circle class="st0" cx="544.3" cy="1168.2" r="6.3"/>
</g>
</svg>
