<?xml version="1.0" encoding="utf-8"?>
<!-- Generator: Adobe Illustrator 23.0.3, SVG Export Plug-In . SVG Version: 6.00 Build 0)  -->
<svg version="1.1" id="Layer_2" xmlns="http://www.w3.org/2000/svg" xmlns:xlink="http://www.w3.org/1999/xlink" x="0px" y="0px"
	 viewBox="0 0 1815.2 1468.2" style="enable-background:new 0 0 1815.2 1468.2;" xml:space="preserve">
<style type="text/css">
	.st0{fill:#4B4C4C;}
</style>
<g id="Murcia">
	<circle class="st0" cx="1119.3" cy="768.2" r="6.3"/>
	<circle class="st0" cx="1144.3" cy="768.2" r="6.3"/>
	<circle class="st0" cx="1119.3" cy="793.2" r="6.3"/>
	<circle class="st0" cx="1119.3" cy="818.2" r="6.3"/>
	<circle class="st0" cx="1094.3" cy="818.2" r="6.3"/>
	<circle class="st0" cx="1144.3" cy="793.2" r="6.3"/>
	<circle class="st0" cx="1144.3" cy="818.2" r="6.3"/>
	<circle class="st0" cx="1019.3" cy="843.2" r="6.3"/>
	<circle class="st0" cx="1019.3" cy="868.2" r="6.3"/>
	<circle class="st0" cx="1069.3" cy="843.2" r="6.3"/>
	<circle class="st0" cx="1044.3" cy="843.2" r="6.3"/>
	<circle class="st0" cx="1069.3" cy="868.2" r="6.3"/>
	<circle class="st0" cx="1044.3" cy="868.2" r="6.3"/>
	<circle class="st0" cx="1119.3" cy="843.2" r="6.3"/>
	<circle class="st0" cx="1094.3" cy="843.2" r="6.3"/>
	<circle class="st0" cx="1119.3" cy="868.2" r="6.3"/>
	<circle class="st0" cx="1094.3" cy="868.2" r="6.3"/>
	<circle class="st0" cx="1144.3" cy="843.2" r="6.3"/>
	<circle class="st0" cx="1144.3" cy="868.2" r="6.3"/>
	<circle class="st0" cx="1069.3" cy="893.2" r="6.3"/>
	<circle class="st0" cx="1044.3" cy="893.2" r="6.3"/>
	<circle class="st0" cx="1069.3" cy="918.2" r="6.3"/>
	<circle class="st0" cx="1044.3" cy="918.2" r="6.3"/>
	<circle class="st0" cx="1119.3" cy="893.2" r="6.3"/>
	<circle class="st0" cx="1094.3" cy="893.2" r="6.3"/>
	<circle class="st0" cx="1119.3" cy="918.2" r="6.3"/>
	<circle class="st0" cx="1094.3" cy="918.2" r="6.3"/>
	<circle class="st0" cx="1144.3" cy="893.2" r="6.3"/>
	<circle class="st0" cx="1144.3" cy="918.2" r="6.3"/>
	<circle class="st0" cx="1069.3" cy="943.2" r="6.3"/>
	<circle class="st0" cx="1169.3" cy="893.2" r="6.3"/>
	<circle class="st0" cx="1169.3" cy="918.2" r="6.3"/>
</g>
</svg>
