<?xml version="1.0" encoding="utf-8"?>
<!-- Generator: Adobe Illustrator 23.0.2, SVG Export Plug-In . SVG Version: 6.00 Build 0)  -->
<svg version="1.1" id="Layer_2" xmlns="http://www.w3.org/2000/svg" xmlns:xlink="http://www.w3.org/1999/xlink" x="0px" y="0px"
	 viewBox="0 0 1815.2 1468.2" style="enable-background:new 0 0 1815.2 1468.2;" xml:space="preserve">
<style type="text/css">
	.st0{fill:#4C4B4B;}
</style>
<g id="Ourense">
	<circle class="st0" cx="319.3" cy="168.2" r="6.3"/>
	<circle class="st0" cx="319.3" cy="193.2" r="6.3"/>
	<circle class="st0" cx="294.3" cy="193.2" r="6.3"/>
	<circle class="st0" cx="319.3" cy="218.2" r="6.3"/>
	<circle class="st0" cx="294.3" cy="218.2" r="6.3"/>
	<circle class="st0" cx="369.3" cy="218.2" r="6.3"/>
	<circle class="st0" cx="344.3" cy="218.2" r="6.3"/>
	<circle class="st0" cx="419.3" cy="218.2" r="6.3"/>
	<circle class="st0" cx="394.3" cy="218.2" r="6.3"/>
	<circle class="st0" cx="444.3" cy="193.2" r="6.3"/>
	<circle class="st0" cx="444.3" cy="218.2" r="6.3"/>
	<circle class="st0" cx="319.3" cy="243.2" r="6.3"/>
	<circle class="st0" cx="294.3" cy="243.2" r="6.3"/>
	<circle class="st0" cx="319.3" cy="268.2" r="6.3"/>
	<circle class="st0" cx="294.3" cy="268.2" r="6.3"/>
	<circle class="st0" cx="369.3" cy="243.2" r="6.3"/>
	<circle class="st0" cx="344.3" cy="243.2" r="6.3"/>
	<circle class="st0" cx="369.3" cy="268.2" r="6.3"/>
	<circle class="st0" cx="344.3" cy="268.2" r="6.3"/>
	<circle class="st0" cx="419.3" cy="243.2" r="6.3"/>
	<circle class="st0" cx="394.3" cy="243.2" r="6.3"/>
	<circle class="st0" cx="419.3" cy="268.2" r="6.3"/>
	<circle class="st0" cx="394.3" cy="268.2" r="6.3"/>
	<circle class="st0" cx="444.3" cy="243.2" r="6.3"/>
</g>
</svg>
