<?xml version="1.0" encoding="utf-8"?>
<!-- Generator: Adobe Illustrator 23.0.3, SVG Export Plug-In . SVG Version: 6.00 Build 0)  -->
<svg version="1.1" id="Layer_2" xmlns="http://www.w3.org/2000/svg" xmlns:xlink="http://www.w3.org/1999/xlink" x="0px" y="0px"
	 viewBox="0 0 1815.2 1468.2" style="enable-background:new 0 0 1815.2 1468.2;" xml:space="preserve">
<style type="text/css">
	.st0{fill:#4B4C4C;}
</style>
<g id="Segovia">
	<circle class="st0" cx="769.3" cy="368.2" r="6.3"/>
	<circle class="st0" cx="819.3" cy="368.2" r="6.3"/>
	<circle class="st0" cx="794.3" cy="368.2" r="6.3"/>
	<circle class="st0" cx="869.3" cy="368.2" r="6.3"/>
	<circle class="st0" cx="844.3" cy="368.2" r="6.3"/>
	<circle class="st0" cx="719.3" cy="418.2" r="6.3"/>
	<circle class="st0" cx="769.3" cy="393.2" r="6.3"/>
	<circle class="st0" cx="744.3" cy="393.2" r="6.3"/>
	<circle class="st0" cx="769.3" cy="418.2" r="6.3"/>
	<circle class="st0" cx="744.3" cy="418.2" r="6.3"/>
	<circle class="st0" cx="819.3" cy="393.2" r="6.3"/>
	<circle class="st0" cx="794.3" cy="393.2" r="6.3"/>
	<circle class="st0" cx="819.3" cy="418.2" r="6.3"/>
	<circle class="st0" cx="794.3" cy="418.2" r="6.3"/>
	<circle class="st0" cx="869.3" cy="393.2" r="6.3"/>
	<circle class="st0" cx="844.3" cy="393.2" r="6.3"/>
	<circle class="st0" cx="769.3" cy="443.2" r="6.3"/>
	<circle class="st0" cx="744.3" cy="443.2" r="6.3"/>
	<circle class="st0" cx="769.3" cy="468.2" r="6.3"/>
	<circle class="st0" cx="744.3" cy="468.2" r="6.3"/>
	<circle class="st0" cx="794.3" cy="443.2" r="6.3"/>
</g>
</svg>
